<?xml version="1.0" standalone="no"?>
<!DOCTYPE svg PUBLIC "-//W3C//DTD SVG 1.1//EN" "http://www.w3.org/Graphics/SVG/1.1/DTD/svg11.dtd" >
<svg xmlns="http://www.w3.org/2000/svg">
<metadata></metadata>
<defs>
<font id="axtfashkoulregular" horiz-adv-x="0" >
<font-face units-per-em="2048" ascent="1638" descent="-410" />
<missing-glyph horiz-adv-x="307" />
<glyph horiz-adv-x="2048" />
<glyph horiz-adv-x="2048" />
<glyph unicode="&#xd;" horiz-adv-x="307" />
<glyph unicode=" "  horiz-adv-x="307" />
<glyph unicode="&#x09;" horiz-adv-x="307" />
<glyph unicode="&#xa0;" horiz-adv-x="307" />
<glyph unicode="!" />
<glyph unicode="&#x22;" horiz-adv-x="950" d="M-106 0v195q43 0 127.5 -3.5t128.5 -3.5q543 0 542 246q0 90 -84 144q-74 47 -168 47q-49 0 -94 -19q-59 -23 -59 -63q0 -59 82 -60q33 0 96 20.5t92 20.5q66 0 66 -82q0 -111 -240 -110q-102 0 -184 57q-92 61 -93 160q0 109 115 178q98 61 213 61q176 0 303 -100 q137 -110 137 -280q0 -209 -186 -318q-154 -90 -375 -90h-419zM221 950q0 41 32 67.5t75 26.5q41 0 72.5 -26.5t31.5 -67.5t-31.5 -68.5t-72.5 -27.5q-43 0 -75 27.5t-32 68.5zM334 1180q0 39 32.5 66.5t73.5 27.5q39 0 72 -28.5t33 -67.5t-34 -66t-73 -27q-41 0 -72.5 27 t-31.5 68zM508 944q0 39 33.5 66.5t74.5 27.5q39 0 71 -28.5t32 -67.5t-33 -67.5t-72 -28.5q-41 0 -73.5 28.5t-32.5 69.5z" />
<glyph unicode="#" horiz-adv-x="1009" d="M-66 0v195q195 -2 369 43q-59 102 -59 208q0 158 109.5 257.5t267.5 99.5q113 0 188.5 -86t75.5 -201q0 -205 -133 -293q12 -29 141 -33q-174 5 160 5v-195h-285q-170 0 -279 86q-47 -35 -178 -61q-117 -25 -192 -25h-185zM344 971q0 41 32 67.5t75 26.5q41 0 72.5 -26.5 t31.5 -67.5t-31.5 -69t-72.5 -28q-43 0 -75 28t-32 69zM406 424q0 -31 54 -92.5t83 -61.5q31 0 96 72q51 55 51 127q0 49 -32.5 91t-79.5 42q-57 0 -114.5 -60.5t-57.5 -117.5zM457 1200q0 39 32.5 66.5t73.5 27.5q39 0 72 -28.5t33 -67.5t-34 -65.5t-73 -26.5 q-41 0 -72.5 26.5t-31.5 67.5zM631 965q0 39 33.5 66.5t74.5 27.5q39 0 71 -28.5t32 -67.5t-33 -68t-72 -29q-41 0 -73.5 29t-32.5 70z" />
<glyph unicode="$" />
<glyph unicode="%" horiz-adv-x="780" d="M117 -143l536 1194l64 -37l-547 -1211zM147 895q0 41 32 69.5t73 28.5q43 0 73.5 -27.5t30.5 -68.5t-30.5 -68.5t-71.5 -27.5t-74 27.5t-33 66.5zM399 -29q0 43 31 71t74 28q41 0 71.5 -28t30.5 -69q0 -43 -29.5 -69.5t-72.5 -26.5q-39 0 -72 27.5t-33 66.5z" />
<glyph unicode="&#x26;" horiz-adv-x="2093" d="M131 301q0 227 252 301q139 41 442 41q172 0 172 -86q0 -70 -186 -84q-115 -6 -346 -24q-186 -20 -186 -132q0 -139 368 -139q692 0 776 49q-59 115 -59 222q0 152 110.5 251t262.5 99q117 0 190.5 -85t73.5 -204q0 -190 -133 -295q18 -20 133 -22q-121 2 147 2v-195 h-241q-168 0 -295 80q-229 -111 -815 -111q-666 0 -666 332zM1430 971q0 41 31.5 67.5t74.5 26.5q41 0 72.5 -26.5t31.5 -67.5t-31.5 -69t-72.5 -28q-43 0 -74.5 28t-31.5 69zM1526 418q0 -37 52 -92.5t87 -55.5q49 0 98 76q47 70 47 123q0 43 -33.5 83t-76.5 40 q-59 0 -116.5 -57.5t-57.5 -116.5zM1542 1200q0 39 33 66.5t74 27.5q39 0 71.5 -28.5t32.5 -67.5t-33.5 -65.5t-72.5 -26.5q-41 0 -73 26.5t-32 67.5zM1716 965q0 39 34 66.5t75 27.5q39 0 70.5 -28.5t31.5 -67.5t-32.5 -68t-71.5 -29q-41 0 -74 29t-33 70z" />
<glyph unicode="'" horiz-adv-x="393" d="M94 1133q0 43 28 74.5t71 31.5q98 0 98 -104q0 -63 -29 -197q-35 -156 -69 -156q-35 0 -70 156q-29 131 -29 195z" />
<glyph unicode="(" horiz-adv-x="944" d="M205 612q0 139 84 367q76 211 164 340q123 182 243 182q23 0 40.5 -22t17.5 -45q0 -18 -95 -134q-268 -330 -268 -751q0 -301 187 -717q66 -145 65 -149q0 -68 -72 -68q10 0 -82 31q-285 389 -284 966z" />
<glyph unicode=")" horiz-adv-x="925" d="M184 1432q0 66 60 65q23 0 59 -18q188 -74 326 -408q116 -284 116 -524q0 -201 -102 -533q-123 -399 -268 -399q-74 0 -74 68q0 8 66 151q190 418 190 713q0 252 -96 465q-61 135 -180 282q-96 119 -97 138z" />
<glyph unicode="*" horiz-adv-x="1214" d="M156 737q0 80 77 80q68 0 189 -78q29 -18 153 -112q8 0 187 196q53 59 106 60q29 0 50.5 -23.5t21.5 -54.5q0 -68 -92 -158q-25 -25 -127 -117v-10l248 -172q39 -27 39 -92q0 -63 -66 -63q-55 0 -143 63q-39 29 -115 87t-88 58q-4 0 -6 -2l-197 -219q-41 -45 -114 -45 q-74 0 -74 70q0 74 119 186q27 27 139 125l-283 166q-25 14 -24 55z" />
<glyph unicode="+" horiz-adv-x="1214" d="M84 506q0 98 229 98q53 0 125 -4l72 -6l-84 315q-8 29 19.5 57.5t58.5 28.5q78 0 123 -168q16 -61 39 -235q8 -6 272 6q137 6 137 -80q0 -104 -219 -104q-27 0 -78 3t-76 3l-8 -6l54 -297q6 -33 -20 -73t-58 -40q-72 0 -98.5 129t-34.5 240q-8 47 -21 47l-295 -17 q-39 -2 -88 32t-49 71z" />
<glyph unicode="," horiz-adv-x="665" d="M174 145q0 139 133 256q88 76 125 76q35 0 35 -31l-78 -96t-86 -131q6 -8 25 -6q37 4 30 4q88 0 88 -108q0 -47 -44 -79t-93 -32q-57 0 -96 45t-39 102z" />
<glyph unicode="-" horiz-adv-x="1206" d="M84 379q0 72 156 84q438 33 682 33q170 0 170 -80q0 -35 -27 -61.5t-61 -30.5q-432 -51 -730 -52q-190 0 -190 107z" />
<glyph unicode="." horiz-adv-x="825" d="M162 115q0 51 39 86t90 35q53 0 92 -33t39 -86t-38 -87t-91 -34q-49 0 -90 35t-41 84z" />
<glyph unicode="/" horiz-adv-x="780" d="M117 -143l536 1194l64 -37l-547 -1211z" />
<glyph unicode="0" horiz-adv-x="921" d="M285 549q0 78 86 78q39 0 61 -15q100 -63 195 -176q10 -12 10 -41q0 -78 -111 -78q-23 0 -108 72q-74 61 -82 70q-51 49 -51 90z" />
<glyph unicode="1" horiz-adv-x="921" d="M246 977q0 37 34.5 62.5t73.5 25.5q123 0 232 -420q90 -348 90 -532q0 -104 -98 -105q-53 0 -78 144q-8 70 -29 208q-55 291 -197 545q-29 51 -28 72z" />
<glyph unicode="2" horiz-adv-x="921" d="M164 805q0 145 94 223q86 72 234 72q266 0 266 -123q0 -31 -22.5 -56.5t-53.5 -25.5l-68 23q-70 23 -110 22q-125 0 -205 -66q92 -125 272 -378q170 -250 170 -410q0 -80 -77 -80q-70 0 -84 55q-6 23 -17 66q-25 102 -219 365q-180 242 -180 313z" />
<glyph unicode="3" horiz-adv-x="921" d="M51 932q0 72 82 72q43 0 115 -82q88 -98 133 -121q70 10 70 73q0 18 -5.5 53.5t-5.5 53.5q0 10 18.5 20.5t30.5 10.5q53 0 97 -74q53 -90 76 -104l6 2l22 30q2 18 0 54q-2 35 -2 51q0 86 72 86q110 0 110 -164q0 -92 -43 -156q-49 -76 -137 -75q-43 0 -100 36 q-70 -55 -90 -59q-35 -6 -105 -23q193 -379 193 -534q0 -78 -72 -78q-35 0 -67 23q-18 25 -101 219l-104 250q-66 137 -109 227q-84 180 -84 209z" />
<glyph unicode="4" horiz-adv-x="921" d="M53 752q0 115 123 219q117 102 234 102q47 0 84.5 -26.5t37.5 -71.5q0 -55 -77 -78q-61 -12 -123 -25q-86 -31 -125 -118l8 -11q190 -68 223 -81q147 -68 148 -150q0 -59 -76 -147q-39 -43 -117 -132q41 -29 279 -53q196 -20 196 -90q0 -47 -40 -70.5t-91 -23.5 q-188 0 -319 35q-215 57 -215 192q0 53 95 156.5t95 120.5q0 31 -88 59q-127 41 -164 62q-88 49 -88 131z" />
<glyph unicode="5" horiz-adv-x="921" d="M88 295q0 106 70 188q-41 12 -41 60q0 90 63 303q74 248 144 248q197 0 364 -314q148 -276 148 -499q0 -121 -191 -205q-154 -68 -299 -68q-109 0 -183.5 88t-74.5 199zM231 250q0 -31 54 -47q39 -12 77 -13q90 0 191 46q121 53 121 131q0 66 -113 286q-119 233 -174 234 q-33 0 -68 -96q-31 -86 -30 -127q0 -25 44 -55.5t44 -63.5q0 -4 -73 -104.5t-73 -190.5z" />
<glyph unicode="6" horiz-adv-x="921" d="M47 977q0 33 19.5 57.5t52.5 24.5q37 0 114.5 -20.5t116.5 -20.5q33 0 100.5 10t100.5 10q51 0 78 -47q41 -72 143 -451.5t102 -459.5q0 -82 -73 -82q-43 0 -70 39q-57 84 -115 393q-57 303 -120 389q-2 0 -17 4q-10 2 -14 0q-18 -2 -82 -14q-55 -10 -82 -10 q-80 0 -162 49q-92 55 -92 129z" />
<glyph unicode="7" horiz-adv-x="921" d="M41 1001q0 98 68 99q113 0 231 -301q84 -213 121 -408q170 705 338 705q33 0 57.5 -30t24.5 -65q0 -33 -39 -92q-20 -29 -60 -88q-61 -100 -118 -293q-23 -74 -41 -243q-18 -162 -45 -240q-16 -47 -80 -47q-35 0 -41 2q-45 10 -66 102q-8 47 -24 138q-16 76 -179 424 q-147 319 -147 337z" />
<glyph unicode="8" horiz-adv-x="921" d="M41 100q0 66 71.5 179.5t92.5 162.5q45 102 88 203q47 113 72 213q14 66 45 195q12 53 92 53q70 0 84 -57q20 -80 55 -330q29 -203 90 -338q8 -18 86 -148q64 -106 64 -135q0 -35 -25 -65.5t-57 -30.5q-100 0 -217 303q-92 240 -115 400h-2q-31 -186 -125 -412 q-123 -295 -238 -295q-29 0 -47 39q-14 31 -14 63z" />
<glyph unicode="9" horiz-adv-x="921" d="M78 678q0 123 121 283q129 170 245 169q68 0 118 -49t63 -118q45 -252 104 -521l64 -192q51 -154 51 -168q0 -35 -21.5 -61.5t-54.5 -26.5q-92 0 -158 196l-78 275q-98 -57 -198 -57q-256 0 -256 270zM262 696q0 -33 28.5 -59.5t61.5 -26.5q55 0 94 21q52 27 52 76 q0 43 -19.5 117.5t-40.5 107.5h-8q-59 0 -115 -90q-53 -82 -53 -146z" />
<glyph unicode=":" horiz-adv-x="718" d="M162 115q0 51 39 86t90 35q53 0 92 -33t39 -86t-38 -87t-91 -34q-49 0 -90 35t-41 84zM164 547q0 51 39 86t90 35q53 0 91 -33t38 -86t-37 -87t-90 -34q-51 0 -91 34t-40 85z" />
<glyph unicode=";" horiz-adv-x="714" d="M184 94q0 39 33 67.5t72 28.5q43 0 73.5 -27.5t30.5 -70.5q0 -39 -30.5 -67.5t-69.5 -28.5q-41 0 -75 28.5t-34 69.5zM184 354q0 18 25 99q10 33 75.5 96t96.5 63q33 0 33 -20q0 -2 -61.5 -75t-69.5 -111h18q96 0 96 -84q0 -37 -34.5 -64t-73.5 -27q-47 0 -76 37t-29 86z " />
<glyph unicode="&#x3c;" horiz-adv-x="2127" d="M125 283q0 215 225 331q178 92 422 93q39 0 72 -20.5t33 -57.5q0 -61 -160 -90q-258 -45 -295 -58q-160 -51 -160 -172q0 -111 287 -155q168 -27 379 -27q389 0 553 25q403 59 403 266q0 92 -96 141q-76 39 -178 39q-43 0 -86 -18q-53 -23 -54 -58q0 -27 26 -43t54 -16 q35 0 99.5 20.5t97.5 20.5q29 0 46 -30t17 -60q0 -57 -96 -82q-66 -18 -143 -19q-106 0 -189 52q-96 59 -96 159q0 113 117 183q100 61 219 61q174 0 301 -102q137 -109 137 -279q0 -236 -321 -354q-233 -86 -527 -86h-387q-256 0 -432 55q-268 84 -268 281zM1368 930 q0 41 32 67.5t75 26.5q41 0 72.5 -26.5t31.5 -67.5t-31.5 -68.5t-72.5 -27.5q-43 0 -75 27.5t-32 68.5zM1481 1159q0 39 32.5 66.5t73.5 27.5q39 0 72 -28.5t33 -67.5t-34 -65.5t-73 -26.5q-41 0 -72.5 26.5t-31.5 67.5zM1655 924q0 39 33.5 66.5t74.5 27.5q39 0 71 -28.5 t32 -67.5t-33 -68t-72 -29q-41 0 -73.5 29t-32.5 70z" />
<glyph unicode="=" horiz-adv-x="1284" d="M86 674q0 47 59 67q49 16 693 47q86 4 133 5q45 0 85 -20.5t40 -61.5q0 -68 -84 -90q-27 -8 -135 -15l-623 -41q-51 -4 -107 27q-61 33 -61 82zM127 328q0 63 84 75q166 25 401 33q10 0 404 10q45 2 80 -20q43 -25 43 -66q0 -86 -189 -100q-84 -2 -252 -8l-395 -29 q-57 -4 -113 21q-63 31 -63 84z" />
<glyph unicode="&#x3e;" horiz-adv-x="774" d="M-68 0v195q616 0 617 163q0 51 -93.5 112.5t-93.5 90.5q0 37 30 65.5t67 28.5q106 0 188 -97t82 -206q0 -172 -215 -272q-172 -80 -369 -80h-213zM139 -166q0 39 34 67.5t73 28.5q41 0 72.5 -28.5t31.5 -69.5q0 -39 -32.5 -66.5t-73.5 -27.5t-73 27.5t-32 68.5zM309 -385 q0 39 33 66.5t72 27.5q43 0 74.5 -27.5t31.5 -68.5q0 -39 -33.5 -66.5t-74.5 -27.5q-37 0 -70 29.5t-33 66.5zM420 -158q0 41 31.5 69t74.5 28t74 -28t31 -69t-31 -66.5t-74 -25.5t-74.5 25.5t-31.5 66.5z" />
<glyph unicode="?" horiz-adv-x="993" d="M68 1044q0 156 104 255.5t260 99.5q147 0 248.5 -111t101.5 -258q0 -92 -39 -180l-163 92q31 70 30 105q0 145 -147 145q-78 0 -135 -27q-74 -33 -74 -102q0 -88 121 -195q76 -63 221 -194q121 -115 121 -252q0 -33 -22.5 -60.5t-55.5 -27.5q-47 0 -111 104 q-88 145 -102 158q-76 66 -227 197q-131 119 -131 251zM510 117q0 41 30.5 80t69.5 39q27 0 85.5 -42t68.5 -67q6 -17 6 -33q0 -94 -92 -94q-47 0 -105 35q-63 37 -63 82z" />
<glyph unicode="@" horiz-adv-x="1085" d="M133 453l35 12l264 -53q23 51 66 153q55 123 77 123q10 0 68 -113q63 -123 78 -137q23 -20 145 -59q117 -37 117 -68q0 -20 -268 -90l-4 -8l88 -285q2 -10 -8.5 -21t-20.5 -11q-20 0 -113 75l-118 99l-328 -158q-33 6 -33 35q0 25 60 108l77 111q-35 47 -104 143 q-76 106 -78 144zM229 393l152 -225l-82 -143l248 110q88 -61 160 -125l-82 242q70 27 211 70q-154 63 -164 73q-18 14 -90 160q-53 -106 -127 -221z" />
<glyph unicode="A" horiz-adv-x="776" d="M184 82q0 96 133 96q94 0 95 33q0 2 -75 58.5t-75 111.5q0 70 113 151q106 78 180 78q31 0 60.5 -22t29.5 -51q0 -33 -102.5 -82t-102.5 -78l76 -76t76 -131q0 -78 -86 -125q-72 -41 -156 -41q-51 0 -100 16q-66 23 -66 62z" />
<glyph unicode="B" d="M-49 1255q0 74 178 74q260 0 309 -96q-6 -16 -16 -16t-38 9t-36 11q-78 14 -151 14q-98 0 -117 -24q-2 -6 -10 -37q-6 -23 -31 -23t-56.5 32t-31.5 56z" />
<glyph unicode="C" d="M37 1280q0 59 104 59q27 0 37 19q-90 72 -90 108q0 37 72 86q66 47 106 47q16 0 36 -16.5t20 -30.5q0 -12 -63.5 -41.5t-63.5 -50.5l45 -46t45 -85q0 -47 -52 -74q-41 -22 -90 -22h-4q-102 0 -102 47z" />
<glyph unicode="D" d="M78 748q0 59 104 59q27 0 37 18q-90 72 -90 109t72 86q66 47 106 47q16 0 35.5 -16.5t19.5 -30.5q0 -12 -63 -42t-63 -50l45 -46t45 -85q0 -47 -52 -74q-43 -23 -94 -23q-102 0 -102 48z" />
<glyph unicode="E" d="M262 -379q0 59 105 60q27 0 36 18q-90 72 -90 108q0 37 72 87q66 47 107 47q16 0 35.5 -16.5t19.5 -30.5q0 -12 -63.5 -42t-63.5 -51l45 -46t45 -85q0 -47 -51 -73q-43 -23 -94 -23q-102 0 -103 47z" />
<glyph unicode="F" horiz-adv-x="786" d="M-76 0v195q240 0 334 10q301 33 301 149q0 49 -92 111.5t-92 101.5q0 37 29.5 63.5t68.5 26.5q111 0 191 -100q73 -94 73 -207q0 -190 -245 -282q-180 -68 -410 -68h-158zM283 850q0 59 104 59q27 0 37 19q-90 72 -90 108q0 37 72 86q66 47 106 47q16 0 35.5 -16.5 t19.5 -30.5q0 -12 -63.5 -41.5t-63.5 -50.5l45 -46t45 -85q0 -47 -51 -74q-41 -22 -90 -22h-4q-102 0 -102 47z" />
<glyph unicode="G" horiz-adv-x="512" d="M121 1055q0 43 26.5 78.5t67.5 35.5q20 0 53 -18q39 -27 58 -133q29 -156 82 -465q55 -326 55 -447q0 -43 -23 -71q-25 -35 -65 -35q-61 0 -84 63q-20 55 -95 493.5t-75 498.5z" />
<glyph unicode="H" horiz-adv-x="731" d="M-61 0v195h172q25 14 137 26t166 33q84 33 84 102q0 45 -89.5 110.5t-89.5 100.5q0 37 30 62.5t67 25.5q106 0 186 -100q74 -94 74 -203q0 -170 -205 -270q-166 -82 -360 -82h-172zM242 -227q0 94 104 94q41 0 69.5 -26.5t28.5 -67.5t-28.5 -69t-69.5 -28q-43 0 -73.5 28 t-30.5 69z" />
<glyph unicode="I" horiz-adv-x="901" d="M76 412q0 150 114 245q109 90 263 91q137 0 233 -97.5t96 -234.5q0 -127 -53 -228q-62 -122 -178 -122h-2q-119 0 -199 64.5t-80 180.5q0 86 13 117q23 55 92 55q61 0 61 -71v-31q-2 -20 -2 -31q0 -94 94 -94q31 0 57.5 20.5t26.5 49.5q0 260 -176 260q-106 0 -151 -68 l-52 -127q-27 -65 -90 -65h-2q-66 0 -65 86zM166 991q0 102 237 103q218 -1 218 -99q0 -82 -127 -82q-23 0 -68 4.5t-68 4.5q-16 0 -49 -6.5t-49 -6.5q-37 0 -65.5 23.5t-28.5 58.5z" />
<glyph unicode="J" horiz-adv-x="710" d="M-68 0v195q555 0 555 159q0 45 -93 106.5t-93 102.5q0 37 29.5 62.5t68.5 25.5q109 0 193 -98q78 -94 78 -205q0 -170 -213 -268q-172 -80 -365 -80h-160zM133 903q0 72 119 92q47 8 174 9q160 -1 160 -99q0 -80 -66 -80q-16 0 -50 3t-50 3q-33 0 -95.5 -5t-95.5 -5 q-37 0 -66.5 22.5t-29.5 59.5z" />
<glyph unicode="K" horiz-adv-x="737" d="M-68 0v195q575 0 576 163q0 51 -93 112.5t-93 90.5q0 37 29.5 65.5t66.5 28.5q106 0 188 -97t82 -206q0 -172 -215 -272q-172 -80 -369 -80h-172zM139 844q0 41 32 67.5t75 26.5q41 0 72.5 -26.5t31.5 -67.5t-31.5 -68.5t-72.5 -27.5q-43 0 -75 27.5t-32 68.5zM252 1073 q0 39 32.5 66.5t73.5 27.5q39 0 72 -28.5t33 -67.5t-34 -65.5t-73 -26.5q-41 0 -72.5 26.5t-31.5 67.5zM420 854q0 39 33.5 67.5t74.5 28.5t72 -28.5t31 -69.5q0 -39 -33 -67.5t-72 -28.5q-41 0 -73.5 28.5t-32.5 69.5z" />
<glyph unicode="L" horiz-adv-x="1363" d="M-98 0v195q20 0 256 -5q124 -3 197 -3q37 0 61 1q123 2 254 17v2q-590 262 -590 452q0 31 22.5 54.5t53.5 23.5q25 0 64.5 -21.5t148.5 -135.5q98 -104 223 -154q193 -78 334 -104q43 -8 186 -19q117 -8 178 -31q33 -28 33 -69q0 -49 -51 -80q-61 -37 -535 -82 q-426 -41 -567 -41h-268zM457 -256q0 41 30.5 69.5t71.5 28.5t75 -28.5t34 -69.5t-34 -68.5t-75 -27.5q-37 0 -69.5 29.5t-32.5 66.5z" />
<glyph unicode="M" horiz-adv-x="1380" d="M-78 0v195q20 0 256 -5q124 -3 197 -3q37 0 61 1q123 2 254 17v2q-590 262 -590 452q0 31 22.5 54.5t53.5 23.5q25 0 65 -21.5t148 -135.5q98 -104 223 -154q193 -78 334 -104q43 -8 187 -19q117 -8 178 -31q32 -28 32 -69q0 -49 -51 -80q-61 -37 -534 -82 q-426 -41 -568 -41h-268z" />
<glyph unicode="N" horiz-adv-x="1370" d="M-57 0v195q18 0 241 -5q62 -1 123 -1t121 1q137 2 242 15v2q-590 262 -590 452q0 31 22.5 54.5t53.5 23.5q25 0 64.5 -21.5t148.5 -135.5q98 -104 223 -154q193 -78 334 -104q43 -8 186 -19q117 -8 178 -31q33 -28 33 -69q0 -49 -51 -80q-61 -37 -535 -82 q-426 -41 -567 -41h-227zM682 911q0 41 30.5 70t71.5 29t75 -29t34 -70t-34 -68.5t-75 -27.5q-37 0 -69.5 29.5t-32.5 66.5z" />
<glyph unicode="O" horiz-adv-x="890" d="M141 82q0 94 129 94q174 0 230 12q141 31 141 148q0 76 -86 125q-74 43 -156 43q-20 0 -62 -8.5t-63 -8.5q-43 0 -75.5 26t-32.5 69q0 59 82 90q57 22 125 22h6q180 0 307 -121t127 -299q0 -156 -158 -237q-125 -66 -295 -66q-219 0 -219 111z" />
<glyph unicode="P" horiz-adv-x="880" d="M141 82q0 94 129 94q174 0 230 12q141 31 141 148q0 76 -86 125q-74 43 -156 43q-20 0 -62 -8.5t-63 -8.5q-43 0 -75.5 26t-32.5 69q0 59 82 90q57 22 125 22h6q180 0 307 -121t127 -299q0 -156 -158 -237q-125 -66 -295 -66q-219 0 -219 111zM389 952q0 37 25.5 64.5 t62.5 27.5q90 0 90 -92q0 -37 -26.5 -67.5t-63.5 -30.5q-35 0 -61.5 30.5t-26.5 67.5z" />
<glyph unicode="Q" horiz-adv-x="729" d="M37 -301q0 47 117 78q154 41 213 86q116 85 116 261q0 83 -62.5 224t-62.5 166q0 70 64 70q92 0 168 -170q65 -147 65 -256q0 -221 -131 -398q-141 -190 -356 -190q-51 0 -91 39t-40 90z" />
<glyph unicode="R" horiz-adv-x="729" d="M37 -301q0 47 117 78q154 41 213 86q116 85 116 261q0 83 -62.5 224t-62.5 166q0 70 64 70q92 0 168 -170q65 -147 65 -256q0 -221 -131 -398q-141 -190 -356 -190q-51 0 -91 39t-40 90zM297 1016q0 39 28.5 69.5t67.5 30.5q41 0 67.5 -29.5t26.5 -72.5q0 -98 -94 -99 q-41 0 -68.5 30t-27.5 71z" />
<glyph unicode="S" horiz-adv-x="768" d="M-70 145q1 29 9 52h61q36 1 64 29q24 24 23 51q0 6 -1 12l-68 385q-1 8 -1 15q-1 31 19 61q24 38 64 38q74 0 111 -141q18 -90 61 -266q39 -141 121 -141q33 0 52.5 27.5t19.5 60.5q0 61 -53.5 180t-53.5 172q0 84 74 84q113 0 174 -191q45 -139 45 -284q0 -109 -49 -185 q-55 -88 -158 -88q-104 0 -184 99l-8 -2q-53 -113 -252 -113q-70 61 -70 145z" />
<glyph unicode="T" horiz-adv-x="768" d="M-170 901q0 39 32 68.5t70 29.5q41 0 72 -28.5t31 -69.5t-31 -68.5t-72 -27.5q-37 0 -69.5 29.5t-32.5 66.5zM-70 145q1 29 9 52h61q36 1 64 29q24 24 23 51q0 6 -1 12l-68 385q-1 8 -1 15q-1 31 19 61q24 38 64 38q74 0 111 -141q18 -90 61 -266q39 -141 121 -141 q33 0 52.5 27.5t19.5 60.5q0 61 -53.5 180t-53.5 172q0 84 74 84q113 0 174 -191q45 -139 45 -284q0 -109 -49 -185q-55 -88 -158 -88q-104 0 -184 99l-8 -2q-53 -113 -252 -113q-70 61 -70 145zM-63 1133q0 41 31.5 68.5t72.5 27.5t71.5 -29t30.5 -70t-31.5 -67.5 t-72.5 -26.5q-39 0 -70.5 29t-31.5 68zM111 911q0 41 30.5 69t71.5 28q39 0 71.5 -29t32.5 -68t-32.5 -68.5t-71.5 -29.5t-70.5 29.5t-31.5 68.5z" />
<glyph unicode="U" horiz-adv-x="1046" d="M-63 147q0 29 10 50h119q72 295 176 436q146 198 410 198h3q127 0 205 -81.5t78 -208.5q0 -174 -152 -324q-141 -141 -317 -176q-63 -10 -225 -43q25 -90 24 -104q0 -66 -73 -66q-59 0 -86 63q-14 37 -41 109h-68q-63 78 -63 147zM262 217h17q109 0 282 96 q191 105 191 203q0 41 -36 64.5t-79 23.5q-125 0 -253 -131q-122 -125 -122 -245v-11z" />
<glyph unicode="V" horiz-adv-x="1046" d="M-63 147q0 29 10 50h119q72 295 176 436q146 198 410 198h3q127 0 205 -81.5t78 -208.5q0 -174 -152 -324q-141 -141 -317 -176q-63 -10 -225 -43q25 -90 24 -104q0 -66 -73 -66q-59 0 -86 63q-14 37 -41 109h-68q-63 78 -63 147zM262 217h17q109 0 282 96 q191 105 191 203q0 41 -36 64.5t-79 23.5q-125 0 -253 -131q-122 -125 -122 -245v-11zM324 1149q0 94 88 94q37 0 62.5 -29.5t25.5 -66.5t-25.5 -64.5t-62.5 -27.5q-88 0 -88 94z" />
<glyph unicode="W" horiz-adv-x="1280" d="M-90 0v195h209q225 236 368 344q252 190 451 190q121 0 204 -95t83 -216q0 -217 -346 -334q-252 -84 -533 -84h-436zM184 1253q0 90 80 90q51 0 78 -47q12 -23 90 -333.5t78 -339.5q0 -39 -27.5 -72t-66.5 -33q-29 0 -49 23q-6 8 -94.5 350t-88.5 362zM344 176h51 q162 0 383 72q273 88 273 209q0 39 -33 62.5t-74 23.5q-145 0 -330 -127q-143 -98 -270 -240z" />
<glyph unicode="X" horiz-adv-x="1290" d="M-90 0v195h229q225 236 369 344q252 190 450 190q121 0 204 -95t83 -216q0 -217 -346 -334q-252 -84 -532 -84h-457zM205 1253q0 90 80 90q51 0 77 -47q12 -23 90 -333.5t78 -339.5q0 -39 -27.5 -72t-66.5 -33q-29 0 -49 23q-6 8 -94 350t-88 362zM365 176h51 q162 0 383 72q272 88 272 209q0 39 -32.5 62.5t-73.5 23.5q-145 0 -330 -127q-143 -98 -270 -240zM674 1085q0 39 32.5 68t71.5 29q41 0 72 -28t31 -69t-31 -66.5t-72 -25.5q-43 0 -73.5 25.5t-30.5 66.5z" />
<glyph unicode="Y" horiz-adv-x="1310" d="M-78 0v195q233 0 357 20q-141 121 -142 217q0 162 158 248q127 70 301 70q141 0 242 -60q120 -71 120 -201q0 -59 -36.5 -112t-92.5 -53q-27 0 -55.5 18t-28.5 43q0 20 23 52t23 50q0 41 -74 64q-53 16 -107 16q-203 0 -307 -114v-9q0 -98 191 -159q145 -47 268 -47 q39 0 383 28q6 1 11 1q37 0 69 -23q37 -27 37 -68q0 -10 -11 -37q-12 -33 -397 -88q-354 -51 -446 -51h-486z" />
<glyph unicode="Z" horiz-adv-x="1310" d="M-78 0v195q233 0 357 20q-141 121 -142 217q0 162 158 248q127 70 301 70q141 0 242 -60q120 -71 120 -201q0 -59 -36.5 -112t-92.5 -53q-27 0 -55.5 18t-28.5 43q0 20 23 52t23 50q0 41 -74 64q-53 16 -107 16q-203 0 -307 -114v-9q0 -98 191 -159q145 -47 268 -47 q39 0 383 28q6 1 11 1q37 1 69 -23q37 -26 37 -68q0 -10 -11 -37q-12 -33 -397 -88q-354 -51 -446 -51h-486zM434 1044q0 37 29 67t65 30q35 0 61.5 -29.5t26.5 -64.5q0 -41 -25.5 -69t-64.5 -28q-92 0 -92 94z" />
<glyph unicode="[" horiz-adv-x="552" d="M236 0v82h180v944h-154v80h234v-1106h-260z" />
<glyph unicode="\" horiz-adv-x="780" d="M117 1014l547 -1211l53 54l-537 1194z" />
<glyph unicode="]" horiz-adv-x="552" d="M176 0v1106h234v-80h-154v-944h180v-82h-260z" />
<glyph unicode="^" horiz-adv-x="665" d="M174 -217q0 2 79 97t87 130q-8 8 -27 6q-37 -4 -28 -4q-90 0 -90 111q0 49 47 80q41 29 92 28q55 0 94 -44t39 -101q0 -143 -133 -256q-92 -78 -125 -78q-35 0 -35 31z" />
<glyph unicode="_" horiz-adv-x="1206" d="M84 543q0 72 156 84q438 33 682 32q170 1 170 -79q0 -35 -27 -61.5t-61 -31.5q-432 -51 -730 -51q-190 0 -190 107zM401 907q0 53 39 88t92 35t91.5 -34t38.5 -87q0 -51 -38 -84.5t-89 -33.5t-92.5 33.5t-41.5 82.5zM471 233q0 51 39 86t90 35q53 0 91 -32.5t38 -85.5 t-37 -87t-90 -34q-51 0 -91 33.5t-40 84.5z" />
<glyph unicode="`" horiz-adv-x="346" d="M-45 0v195h432v-195h-432z" />
<glyph unicode="a" horiz-adv-x="925" d="M-86 0v195q41 0 121 -3.5t121 -3.5q536 0 536 245q0 91 -84 145q-74 47 -168 47q-49 0 -94 -19q-59 -23 -59 -63q0 -59 82 -60q33 0 96 20.5t92 20.5q66 0 66 -82q0 -110 -236 -110h-4q-102 0 -184 57q-92 61 -93 160q0 109 115 178q98 61 213 61q176 0 303 -100 q137 -110 137 -280q0 -209 -186 -318q-154 -90 -375 -90h-399zM375 1042q0 94 84 95q88 -1 88 -97q0 -37 -25.5 -65.5t-62.5 -28.5t-60.5 30t-23.5 66z" />
<glyph unicode="b" horiz-adv-x="921" d="M-66 0v195q39 0 116 -3.5t116 -3.5q526 0 526 246q0 90 -84 144q-74 47 -168 47q-49 0 -94 -19q-59 -23 -59 -63q0 -59 82 -60q33 0 96 20.5t92 20.5q66 0 66 -82q0 -110 -236 -110h-4q-102 0 -184 57q-92 61 -93 160q0 109 115 178q98 61 213 61q176 0 303 -100 q137 -110 137 -280q0 -209 -186 -318q-154 -90 -375 -90h-379zM240 1069q0 104 241 105q96 0 133 -11q76 -20 76 -90q0 -78 -84 -78q-14 0 -39.5 2t-40.5 2q-33 0 -98.5 -6t-97.5 -6q-37 0 -63.5 23.5t-26.5 58.5z" />
<glyph unicode="c" horiz-adv-x="1069" d="M-119 1284q0 39 34 61.5t75 22.5q72 0 211 -32.5t211 -32.5q164 0 336 69q80 33 258 133q123 70 157 70q35 0 66 -24.5t31 -57.5q0 -143 -367 -270q-309 -106 -498 -107q-143 0 -295 33q-219 47 -219 135zM-82 0v195h31q29 -2 49 -2h90q242 0 367 53q182 78 182 280 q0 82 -41 249t-41 239q0 33 30.5 55.5t65.5 22.5q96 0 146 -230q34 -159 34 -317q0 -268 -192 -414q-174 -131 -451 -131h-270z" />
<glyph unicode="d" horiz-adv-x="483" d="M-61 0v195q227 0 290 16q23 12 19 35l-144 801q-1 6 -1 11q0 30 26 60q31 36 66 37q10 0 45 -10q49 -14 65 -78q10 -72 88 -489q45 -244 45 -377q0 -201 -270 -201h-229z" />
<glyph unicode="e" horiz-adv-x="849" d="M-63 0v195h243q201 0 201 65q-41 57 -41 98q0 86 61.5 142.5t147.5 56.5q98 0 178 -62.5t80 -158.5q0 -172 -287 -266q-211 -70 -426 -70h-157z" />
<glyph unicode="f" horiz-adv-x="727" d="M-45 0v195h145q117 0 230 28q166 43 166 121q0 49 -93.5 110.5t-93.5 102.5q0 88 99 88q109 0 186.5 -93t77.5 -206q0 -172 -205 -268q-164 -78 -358 -78h-154zM285 907q0 41 25.5 70t66.5 29q39 0 64.5 -29t25.5 -68q0 -37 -26.5 -65.5t-63.5 -28.5q-35 0 -63.5 28.5 t-28.5 63.5z" />
<glyph unicode="g" horiz-adv-x="1077" d="M-47 0v195h338q-12 70 -12 106q0 104 40 197q53 118 141 118h1q86 0 145.5 -71.5t59.5 -159.5q0 -78 -78 -178l18 -4q270 0 271 172q0 135 -99 282q-106 162 -233 162q-117 0 -183 -92q-29 -41 -81 -168q-39 -92 -84 -92q-72 0 -72 106q0 170 149 299q143 123 318 123 q172 0 309 -188q125 -172 125 -354q0 -197 -88 -314q-98 -133 -289 -133q-164 0 -231 53q-135 -59 -287 -59h-178zM393 330q0 -20 15 -49q16 -35 32 -35q23 0 59 49t36 74t-21.5 45t-46.5 20q-74 0 -74 -104z" />
<glyph unicode="h" horiz-adv-x="866" d="M92 305q0 109 60 205q68 111 170 111q209 0 335 -148q121 -139 121 -350q0 -199 -123 -387q-139 -213 -327 -213q-51 0 -90 24q-45 29 -45 78q0 47 100 82q141 49 186 80q100 70 101 203q0 18 -13 16q-27 -2 -18 -4q-457 59 -457 303zM254 350q0 -76 121 -127 q98 -41 186 -41h43q-59 272 -235 273q-43 0 -79 -31t-36 -74z" />
<glyph unicode="i" horiz-adv-x="1597" d="M241 284.5q89 100.5 218 100.5q92 0 92 -70q0 -37 -66 -69q-106 -53 -125 -68q-66 -53 -65 -147q0 -123 158 -183q111 -41 264 -41q195 0 377 39q282 59 282 186v1q0 55 -149 55q-41 0 -97 -4l-57 -4q-131 0 -221 55q-106 66 -107 189q0 127 168 243q158 111 291 111 q82 0 145.5 -49t63.5 -129q0 -86 -57 -86q-14 0 -80 28.5t-115 28.5q-78 0 -143 -33q-82 -41 -82 -108q0 -66 203 -66q31 0 71 2l45 2q137 0 201 -41q82 -53 82 -182q0 -213 -297 -338q-231 -98 -485 -98q-225 0 -400 108q-204 126 -204 336q0 131 89 231.5z" />
<glyph unicode="j" horiz-adv-x="843" d="M-47 0v195h233q403 0 404 153q0 47 -93.5 108.5t-93.5 100.5q0 37 29 63.5t66 26.5q113 0 190.5 -94t77.5 -209q0 -174 -195 -266q-156 -74 -348 -74l-4 -4h-266zM164 -281q0 98 209 99h63q182 -1 182 -97q0 -75 -86 -75h-2q-14 0 -45 2q-23 2 -41 0q-141 -12 -188 -13 q-92 0 -92 84z" />
<glyph unicode="k" d="M-57 1452q0 20 16 31q31 18 178.5 84.5t163.5 66.5q57 0 57 -47q0 -20 -16 -31q-23 -14 -179.5 -81.5t-168.5 -67.5q-51 0 -51 45zM-16 1315q0 37 82 76q55 23 110 45q160 70 170 69q18 0 35.5 -14.5t17.5 -32.5q0 -29 -80 -67q-53 -20 -104 -43q-164 -74 -176 -74 q-55 0 -55 41z" />
<glyph unicode="l" />
<glyph unicode="m" d="M-23 -834q0 35 82 74q55 23 111 45q154 72 162 72q57 0 57 -49q0 -27 -55 -47q-8 -2 -160 -76q-123 -59 -145 -59q-51 0 -52 40zM18 -961q0 31 82 70q53 20 107 43q162 72 174 72q49 0 49 -47q0 -27 -61 -58q-45 -18 -88 -37q-33 -20 -103 -53q-80 -37 -104 -37 q-55 0 -56 47z" />
<glyph unicode="n" d="M-25 1366q0 27 21 41q319 150 336 149q53 0 53 -57q0 -10 -18 -24q-29 -18 -177.5 -84t-164.5 -66q-49 0 -50 41z" />
<glyph unicode="o" d="M16 1346q0 33 60 40q86 12 172 117q-74 47 -78 51q-39 33 -39 80q0 49 45 96.5t94 47.5q117 0 117 -131q0 -106 -105.5 -223t-211.5 -117q-53 0 -54 39zM207 1620q14 -10 88 -49q4 2 13 35t9 41q0 51 -30 51q-23 0 -51.5 -25.5t-28.5 -48.5v-4z" />
<glyph unicode="p" d="M-47 -834q0 23 17.5 35.5t174 83t166.5 70.5q56 0 56 -55q0 -23 -88 -64q-53 -23 -107 -45q-156 -68 -166 -68q-53 0 -53 43z" />
<glyph unicode="q" d="M-33 1534q0 47 39 47q23 0 50.5 -95t54.5 -95q30 0 30 46q0 26 -15 69.5t-15 64.5q0 43 30 43q37 0 61 -98q25 -97 55 -97h1l10 17l-45 141q10 45 35 45q33 0 57 -98q19 -76 19 -131t-92 -56q-25 0 -58 29q-31 -49 -82 -49q-59 0 -100 82q-35 68 -35 135z" />
<glyph unicode="r" />
<glyph unicode="s" d="M-117 1616q0 27 21 41q319 150 336 149q53 0 53 -57q0 -10 -19 -25q-29 -18 -177 -83.5t-165 -65.5q-49 0 -49 41zM-53 1513q0 47 39 48q23 0 50 -95.5t54 -95.5q31 0 31 49q0 23 -15.5 67t-15.5 64q0 43 31 43q37 0 61 -98q24 -96 55 -96h1l10 16l-45 141q10 45 35 46 q33 0 57 -99q18 -76 18 -131t-92 -55q-25 0 -57 29q-31 -49 -82 -50q-59 0 -100 82q-35 68 -35 135z" />
<glyph unicode="t" d="M-106 1632q0 33 59 41q86 12 172 117q-74 47 -78 51q-39 33 -39 80q0 49 45 96t94 47q117 0 117 -131q0 -106 -105.5 -223t-211.5 -117q-53 0 -53 39zM-53 1513q0 47 39 48q23 0 50 -95.5t54 -95.5q31 0 31 49q0 23 -15.5 67t-15.5 64q0 43 31 43q37 0 61 -98 q24 -96 55 -96h1l10 16l-45 141q10 45 35 46q33 0 57 -99q18 -76 18 -131t-92 -55q-25 0 -57 29q-31 -49 -82 -50q-59 0 -100 82q-35 68 -35 135zM84 1907q14 -10 88 -49q4 2 13.5 34.5t9.5 40.5q0 51 -31 52q-23 0 -51.5 -26t-28.5 -48v-4z" />
<glyph unicode="u" d="M-53 1657q0 47 39 47q23 0 50 -95.5t54 -95.5q31 0 31 50q0 23 -15.5 66.5t-15.5 64.5q0 43 31 43q37 -1 61 -99q24 -97 55 -96h1l10 17l-45 141q10 45 35 45q33 0 57 -98q18 -76 18 -131t-92 -56q-25 0 -57 29q-31 -49 -82 -49q-59 0 -100 82q-35 68 -35 135zM-29 1280 q0 23 17 35q31 18 179 85.5t163 67.5q55 0 55 -55q0 -23 -88 -63q-53 -23 -107 -45q-156 -68 -165 -68q-53 0 -54 43z" />
<glyph unicode="v" d="M-119 1718q0 20 17 31q31 18 178 85t164 67q57 -1 57 -48q0 -20 -16 -30q-23 -14 -179.5 -82t-169.5 -68q-51 0 -51 45zM-78 1581q0 37 82 76q55 23 111 45q160 70 170 70q18 0 35.5 -15t17.5 -33q0 -29 -80 -67q-53 -20 -104 -43q-164 -74 -177 -74q-55 0 -55 41z M-33 1513q0 47 39 48q23 0 50.5 -95.5t54.5 -95.5q30 0 30 46q0 26 -15 70t-15 64q0 43 30 43q37 0 61 -98q24 -96 55 -96h1l10 16l-45 141q10 45 35 46q33 0 57 -99q19 -76 19 -131t-92 -55q-25 0 -58 29q-31 -49 -82 -50q-59 0 -100 82q-35 68 -35 135z" />
<glyph unicode="w" />
<glyph unicode="x" d="M-74 1841q0 47 39 47q23 0 51 -95t54 -95q30 0 30 46q0 26 -15 70t-15 64q0 43 30 43q38 -1 62 -99q24 -97 54 -96h1l10 17l-45 141q10 45 35 45q33 0 57 -98q19 -76 19 -131t-92 -55q-25 0 -58 28q-31 -49 -82 -49q-59 0 -100 82q-35 68 -35 135zM-57 1487q2 6 16 12 q96 47 184 88q133 61 183 62q32 -1 32 -21t-16 -31q-31 -27 -100 -71q-23 -10 -127.5 -44t-120.5 -34q-51 0 -51 39zM-16 1331q0 37 79 74q55 23 113 45q160 72 170 72q18 0 35.5 -14.5t17.5 -32.5q0 -31 -80 -70q-51 -20 -104 -41q-164 -74 -176 -74q-55 0 -55 41z" />
<glyph unicode="z" horiz-adv-x="1196" d="M182 319q0 133 113 306q121 186 242 186q96 0 96 -90q0 -43 -70 -96q-104 -80 -129 -111q-69 -83 -69 -194q0 -116 69 -199q33 -41 129 -113q70 -53 70 -86q0 -29 -31 -47t-61 -18q-133 0 -250 168q-109 156 -109 294zM596 313q0 135 113 308q121 186 245 186 q37 0 63.5 -28.5t26.5 -65.5q0 -39 -69 -97q-109 -90 -133 -118q-70 -84 -70 -191q0 -106 70 -190q29 -37 133 -117q69 -55 69 -86q0 -27 -32.5 -46.5t-61.5 -19.5q-131 0 -248 170q-106 156 -106 295z" />
<glyph unicode="{" horiz-adv-x="1183" d="M213 758q0 92 94 92q127 0 248 -186q113 -173 113 -308q0 -141 -109 -297q-119 -170 -252 -170q-33 0 -61.5 17.5t-28.5 48.5q0 33 70 88q104 84 133 119q70 84 69 186q0 104 -71 191q-27 33 -133 118q-72 59 -72 101zM629 766q0 37 30.5 64.5t67.5 27.5q119 0 242 -186 q114 -174 114 -303q0 -139 -106 -299q-115 -172 -248 -172q-96 0 -96 63q0 33 69 88q104 84 134 117q70 84 69 192q0 106 -71 193q-31 37 -134 119q-72 57 -71 96z" />
<glyph unicode="|" horiz-adv-x="839" d="M135 582q0 29 39 43q59 23 74 34q39 33 39 105q0 63 -8.5 190t-8.5 191q0 197 226 196q84 1 84 -65q0 -37 -76 -53q-92 -18 -117 -43q-12 -12 -6 -215q4 -74 8 -224q4 -123 -82 -161q94 -29 94 -234q0 -51 -12 -150.5t-12 -148.5q0 -82 51 -100q45 -4 92 -8 q55 -12 55 -56q0 -66 -83 -65q-94 0 -156 41q-74 49 -70 139l21 399q0 78 -39 111q-14 12 -74 31q-39 12 -39 43z" />
<glyph unicode="}" horiz-adv-x="800" d="M193 -115q0 43 55 56q47 4 92 8q51 14 51 78q0 43 -16 417q-2 41 21.5 84t60.5 52q-80 47 -78 106l14 449q0 66 -51 84l-96 12q-49 6 -49 47q0 68 94 68t149 -46q61 -51 58 -143l-17 -371q-4 -86 37 -122q18 -16 76 -37q41 -14 41 -45q0 -23 -41 -39q-57 -25 -76 -39 q-41 -35 -41 -103q0 -74 8.5 -223t8.5 -223q0 -68 -86 -105q-66 -29 -142 -28q-27 0 -50 18.5t-23 44.5z" />
<glyph unicode="&#xa1;" horiz-adv-x="1138" d="M-63 0v195h258q-55 72 -56 186q0 211 168 360q160 145 375 146q154 0 264.5 -107.5t110.5 -259.5q0 -94 -48 -178t-130 -125l-9 -22h328v-195h-526q-70 0 -191 53q-137 -53 -295 -53h-249zM295 416q41 68 104 119q74 59 142 59q78 0 124 -48t46 -126q0 -84 -97 -213 q281 94 281 295q0 86 -62.5 148.5t-148.5 62.5q-125 0 -240.5 -88t-148.5 -209zM371 274q0 -31 35 -75q8 -10 10 -11q41 0 95 50.5t54 91.5q0 27 -25.5 50t-52.5 23q-41 0 -78.5 -44t-37.5 -85z" />
<glyph unicode="&#xa2;" horiz-adv-x="1245" d="M47 131q0 100 66 219q74 133 161 133q88 0 88 -67q0 -2 -58 -108.5t-58 -160.5q0 -129 129 -217q115 -80 250 -80q121 0 209 111q82 104 81 227q0 90 -82.5 254t-82.5 174q0 37 30 58q25 20 60 20q78 0 133 -84q18 -27 80 -161q18 -72 41 -136q39 -117 153 -116h41 q6 -33 6 -70q0 -92 -47 -127q-66 0 -98.5 17.5t-65.5 72.5q-6 -27 -10 -59q-18 -176 -153.5 -287t-313.5 -111q-344 0 -485 240q-74 125 -74 258z" />
<glyph unicode="&#xa3;" horiz-adv-x="1378" d="M-45 0v195h266q227 244 361 348q246 193 446 192q115 0 197 -97t82 -214q0 -135 -119 -215q23 -16 63 -16q-92 2 70 2h123v-195h-440q-25 0 -103 20l-82 21q-287 -41 -395 -41h-469zM283 1257q0 35 22.5 64t56.5 29q51 0 72 -35q6 -10 90 -340t84 -346q0 -33 -28.5 -58.5 t-61.5 -25.5q-25 0 -45 14q-10 8 -100 333t-90 365zM444 178h27q170 0 385 68q277 86 277 213q0 86 -103 86q-135 0 -323 -127q-168 -113 -263 -240z" />
<glyph unicode="&#xa4;" horiz-adv-x="1988" d="M117 16q0 182 233 271q164 61 389 61q55 0 96.5 -31.5t41.5 -85.5q0 -82 -142 -94q-88 -4 -264 -18q-141 -14 -141 -103q0 -139 536 -139q256 0 492 35q373 55 373 172q0 41 -56 68q-45 23 -92 22q-59 0 -175 -16.5t-173 -16.5q-141 0 -141 90q0 74 125 99q78 10 231 35 q125 23 125 88q0 10 -2 18l-152 672q-8 35 25 65.5t70 30.5q-6 0 67 -37q43 -102 99.5 -376.5t56.5 -381.5q0 -76 -49 -122q74 -27 147 -52q78 -37 78 -135q0 -268 -422 -381q-266 -72 -637 -71q-266 0 -450 53q-289 84 -289 280z" />
<glyph unicode="&#xa5;" horiz-adv-x="1796" d="M106 162q0 139 113 235.5t254 96.5q39 0 69.5 -27t30.5 -66q0 -57 -84 -73q-139 -29 -155 -35q-84 -37 -84 -146q0 -123 250 -194q186 -53 352 -53q211 0 399 55q266 78 267 233q0 252 -355 252q-190 0 -190 -84q0 -37 67 -59q53 -18 101 -18q51 0 111.5 39.5t76.5 39.5 q35 0 62.5 -26.5t27.5 -61.5q0 -80 -94 -118q-70 -29 -164 -29q-348 0 -348 209q0 125 92 198q84 68 213 68q221 0 381 -96q193 -117 193 -322q0 -250 -299 -373q-221 -90 -516 -90q-283 0 -490 86q-281 117 -281 359zM838 881q0 96 225 96q113 0 141 -6q86 -18 86 -88 q0 -80 -92 -80q-12 0 -38.5 2t-39.5 2q-31 0 -94 -6t-94 -6q-39 0 -66.5 23.5t-27.5 62.5z" />
<glyph unicode="&#xa6;" />
<glyph unicode="&#xa7;" horiz-adv-x="1300" d="M96 90q0 90 150 109l237 24q-8 39 -8 88q0 233 195 439l-66 12q-12 12 -89 273t-77 292q0 76 90 76q61 0 131 -277q63 -256 52 -344q39 43 100 80q72 43 119 43q121 0 203 -59q90 -66 90 -182q0 -168 -123 -295q-82 -84 -269 -191q41 -4 84 -4q57 0 169 10.5t169 10.5 h107v-195h-408q-166 0 -354 76q-166 -90 -371 -90q-131 0 -131 104zM612 279q104 20 265 137q176 129 176 215q0 39 -28 62.5t-67 23.5q-119 0 -237 -162q-113 -154 -109 -276z" />
<glyph unicode="&#xa8;" horiz-adv-x="1148" d="M-68 0v195h162q0 4 4 4q4 2 4 -2h101q45 0 162 30q127 33 145 60q-31 25 -127 65q-86 37 -119 70q-14 51 -14 55q0 72 88 72q49 0 147.5 -16.5t147.5 -16.5q59 0 174 22.5t174 22.5q33 0 57.5 -23.5t24.5 -56.5q0 -92 -244 -233q35 -49 217 -53h166v-195h-123 q-199 0 -446 147q-106 -55 -248 -98q-160 -49 -260 -49h-193zM530 995q0 94 86 95q93 -1 93 -97q0 -37 -28 -65.5t-65 -28.5q-39 0 -62.5 28.5t-23.5 67.5z" />
<glyph unicode="&#xa9;" horiz-adv-x="1165" d="M-47 0v195h141q0 4 4 4q4 2 4 -2h101q45 0 162 30q127 33 145 60q-31 25 -127 65q-86 37 -119 70q-14 51 -14 55q0 72 88 72q49 0 147.5 -16.5t147.5 -16.5q59 0 174 22.5t174 22.5q33 0 57.5 -23.5t24.5 -56.5q0 -92 -244 -233q33 -47 217 -53q164 -4 187 0v-195h-144 q-199 0 -446 147q-106 -55 -248 -98q-160 -49 -260 -49h-172z" />
<glyph unicode="&#xaa;" horiz-adv-x="925" d="M-43 0v195h281q39 0 55 43q4 12 14 77q27 10 35 11q61 0 176 -65.5t174 -65.5h301v-195h-94q-123 0 -164 20l-2 -10q27 -61 27 -141q0 -162 -127 -162q-158 0 -234 141q-25 47 -86 279q-23 -51 -82 -89t-116 -38h-158z" />
<glyph unicode="&#xab;" horiz-adv-x="874" d="M-55 0v195h147q324 0 324 127q0 29 -24.5 79t-24.5 78q0 33 28.5 56.5t61.5 23.5q63 0 96 -72q18 -49 57 -145q39 -86 119 -117q29 -10 62 -30h155v-195h-164q-59 0 -129.5 45t-101.5 98q-68 -68 -201 -108q-117 -35 -229 -35h-176zM281 -217q0 96 206 96h74 q174 0 174 -94q0 -78 -92 -78q-14 0 -42 2t-42 2q-31 0 -92 -6t-92 -6q-94 0 -94 84z" />
<glyph unicode="&#xac;" horiz-adv-x="1243" d="M113 221q0 168 268 295q209 98 418 117q4 14 0 45t-4 43q0 47 25.5 83t70.5 36q6 0 27.5 -9.5t27.5 -9.5q37 -47 66 -217q37 -211 57 -274q45 -135 131 -135h103v-195h-140q-80 0 -138 53t-77 133q-154 -190 -493 -190q-135 0 -226 45q-117 57 -116 180zM311 229 q0 -35 49 -55q39 -16 80 -16q121 0 246 43q144 49 207 131l-41 155h-18q-98 0 -299 -84q-223 -94 -224 -174z" />
<glyph unicode="&#xad;" horiz-adv-x="1206" d="M84 379q0 72 156 84q438 33 682 33q170 0 170 -80q0 -35 -27 -61.5t-61 -30.5q-432 -51 -730 -52q-190 0 -190 107z" />
<glyph unicode="&#xae;" horiz-adv-x="1646" d="M131 100q0 113 164 113q29 0 85 -6t83 -6l239 227q334 309 592 309q115 0 205 -78.5t90 -193.5q0 -319 -563 -420q-242 -43 -774 -43q-121 0 -121 98zM532 1268q0 37 24 65.5t58 28.5q41 0 64 -29q12 -14 98 -339.5t86 -358.5q0 -31 -29.5 -52.5t-62.5 -21.5 q-39 0 -55 25q-23 86 -101 360q-82 293 -82 322zM700 211q10 -6 21 -6q168 0 381 51q284 67 284 182q0 51 -61 84q-53 29 -108 29q-121 0 -285 -121q-125 -92 -232 -219zM1049 1110q0 37 25.5 65.5t62.5 28.5q39 0 63.5 -28.5t24.5 -67.5q0 -37 -25.5 -65.5t-62.5 -28.5 q-88 0 -88 96z" />
<glyph unicode="&#xaf;" horiz-adv-x="1286" d="M127 0v969h969v-969h-969z" />
<glyph unicode="&#xb0;" horiz-adv-x="745" d="M-63 0v195h20q20 -2 37 -2h69q336 0 336 202q0 23 -2 39l-28 217q-4 33 20.5 60.5t56.5 27.5q80 0 117 -141q18 -86 62 -260q37 -141 120 -141q47 0 41 2q10 -29 11 -66q-1 -74 -52 -133q-182 0 -251 156l-5 -2q-59 -154 -411 -154h-141z" />
<glyph unicode="&#xb1;" horiz-adv-x="2127" d="M125 283q0 215 225 331q178 92 422 93q39 0 72 -20.5t33 -57.5q0 -61 -160 -90q-258 -45 -295 -58q-160 -51 -160 -172q0 -111 287 -155q168 -27 379 -27q389 0 553 25q403 59 403 266q0 92 -96 141q-76 39 -178 39q-43 0 -86 -18q-53 -23 -54 -58q0 -27 26 -43t54 -16 q35 0 99.5 20.5t97.5 20.5q29 0 46 -30t17 -60q0 -57 -96 -82q-66 -18 -143 -19q-106 0 -189 52q-96 59 -96 159q0 113 117 183q100 61 219 61q174 0 301 -102q137 -109 137 -279q0 -236 -321 -354q-233 -86 -527 -86h-387q-256 0 -432 55q-268 84 -268 281zM1559 911 q0 37 26.5 67t63.5 30t63.5 -29t26.5 -66t-25.5 -66.5t-62.5 -29.5t-64.5 28.5t-27.5 65.5z" />
<glyph unicode="&#xb2;" />
<glyph unicode="&#xb3;" />
<glyph unicode="&#xb4;" horiz-adv-x="1355" d="M109 301q0 176 143 279q125 90 309 90q88 0 163 -59.5t75 -145.5q0 -92 -80 -92q-12 0 -43 10q-12 6 -30.5 44t-43.5 52q-74 8 -57 8q-63 0 -156 -53q-98 -57 -98 -117q0 -49 192 -49q127 0 359.5 60.5t302.5 60.5q41 0 74.5 -26.5t33.5 -65.5q0 -37 -22 -59 q-68 -43 -275.5 -106.5t-298.5 -119.5q-147 -92 -147 -227q0 -172 391 -197q147 -10 154 -18q29 -37 28 -66q0 -115 -190 -114q-225 0 -367 78q-182 98 -182 305q0 164 137 305l-47 -2q-123 -6 -215 47q-111 61 -110 178z" />
<glyph unicode="&#xb6;" horiz-adv-x="1294" d="M-66 0v195h205q227 244 361 348q246 193 446 192q115 0 197 -97t82 -214q0 -135 -119 -215q23 -16 63 -16q-92 2 70 2h102v-195h-419q-25 0 -103 20l-82 21q-287 -41 -395 -41h-408zM201 1257q0 35 22.5 64t57.5 29q51 0 71 -35q6 -10 90 -340t84 -346q0 -33 -28.5 -58.5 t-61.5 -25.5q-25 0 -45 14q-10 8 -100 333t-90 365zM362 178h27q170 0 385 68q277 86 277 213q0 86 -103 86q-135 0 -323 -127q-168 -113 -263 -240zM668 1090q0 94 100 94q41 0 71.5 -25.5t30.5 -66.5q0 -43 -28.5 -70t-71.5 -27q-41 0 -71.5 27t-30.5 68z" />
<glyph unicode="&#xb7;" horiz-adv-x="1943" d="M125 61q0 119 100 199q92 72 215 72q100 0 250 -67.5t172 -67.5h428q39 0 88 14q61 16 64 45q-45 45 -45 98q0 92 60.5 146.5t152.5 54.5q98 0 176 -59q86 -64 86 -160q0 -178 -318 -275q-233 -72 -460 -71q-82 0 -162 24l-2 -14q0 -23 14 -70t14 -71q0 -158 -124 -158 q-248 0 -332 449q-74 8 -62 8q-47 0 -86 -17q-51 -20 -51 -61q0 -18 120 -315t120 -392q0 -37 -28 -61.5t-64 -24.5q-43 0 -80 101q-31 82 -135 358q-111 291 -111 315z" />
<glyph unicode="&#xb8;" horiz-adv-x="1449" d="M-57 0v195h342q98 -4 184 -5q170 0 283 15v2q-590 262 -590 452q0 31 22.5 54.5t53.5 23.5q63 0 219 -162q98 -102 217 -149t350 -80q242 -35 348 -74q33 -28 33 -69q0 -102 -518 -162q-358 -41 -635 -41h-309zM449 -250q0 41 30.5 67.5t71.5 26.5t74.5 -26.5t33.5 -67.5 t-32.5 -67.5t-75.5 -26.5q-41 0 -71.5 26.5t-30.5 67.5zM618 -469q0 39 33 66.5t72 27.5q41 0 73.5 -26.5t32.5 -67.5t-31.5 -67.5t-74.5 -26.5q-41 0 -73 26.5t-32 67.5zM729 -240q0 43 32 68t75 25t73.5 -26t30.5 -67t-30.5 -66.5t-71.5 -25.5q-43 0 -76 25.5t-33 66.5z " />
<glyph unicode="&#xb9;" />
<glyph unicode="&#xba;" horiz-adv-x="1126" d="M129 80q0 113 98.5 192.5t212.5 79.5q104 0 264 -78.5t175 -78.5h303v-195h-101q-35 0 -135 27q29 -127 29 -152q0 -164 -123 -164q-152 0 -240 148q-70 115 -88 284q-10 27 -73 27q-139 0 -140 -76q0 -14 118 -308t118 -394q0 -84 -86 -84q-39 0 -189 368 q-143 354 -143 404z" />
<glyph unicode="&#xbb;" horiz-adv-x="1613" d="M141 -242q0 193 174 320q158 117 357 117q123 0 123 -89q0 -86 -119 -86q-135 0 -230 -51q-119 -63 -118 -186q0 -139 198 -203q135 -43 316 -43q305 0 489 133l-16 23l-221 69q-135 59 -136 172q0 135 168 209q131 57 283 56l260 -4v-195h-239q-70 0 -140 -12 q-109 -18 -108 -58q0 -25 96 -43q127 -25 176 -47q96 -43 96 -127q0 -170 -268 -282q-219 -92 -422 -93q-260 0 -457 84q-262 113 -262 336zM676 -866q0 98 213 98h47q182 0 182 -96q0 -78 -86 -78q-14 0 -40.5 2t-41.5 2q-31 0 -90 -6t-90 -6q-39 0 -66.5 23.5t-27.5 60.5z " />
<glyph unicode="&#xbc;" />
<glyph unicode="&#xbd;" />
<glyph unicode="&#xbe;" />
<glyph unicode="&#xbf;" horiz-adv-x="2048" d="M207 377q0 195 178 303q152 92 360 92q90 0 185 -31q125 -41 125 -110q0 -23 -24.5 -44.5t-47.5 -21.5q-39 0 -118 12.5t-117 12.5q-121 0 -230 -39q-150 -53 -149 -156q0 -156 245 -225q160 -45 365 -45q248 0 451 57q301 86 301 267q0 74 -120 165t-120 129 q0 35 29.5 56.5t66.5 21.5q129 0 232 -133q98 -123 98 -256q0 -297 -348 -424q-233 -86 -598 -86q-291 0 -492 86q-272 117 -272 369zM930 1014q0 88 98 88q35 0 65.5 -25.5t30.5 -60.5q0 -37 -29.5 -63.5t-66.5 -26.5t-67.5 25.5t-30.5 62.5z" />
<glyph unicode="&#xc1;" horiz-adv-x="1439" d="M-63 0v195h301l59 47q0 45 10 73q27 10 35 11q61 0 175 -65.5t175 -65.5h230q119 0 176 22q96 37 96 139q0 45 -89 109.5t-89 101.5t29.5 62.5t66.5 25.5q106 0 186 -100q74 -94 74 -203q0 -352 -418 -352q-100 0 -219 20l-2 -10q27 -61 27 -141q0 -162 -127 -162 q-154 0 -230 143q-23 41 -90 277q-23 -51 -82 -89t-116 -38h-178zM868 -211q0 80 66 80q16 0 50 -3t50 -3q33 0 95.5 5t95.5 5q37 0 66.5 -22.5t29.5 -59.5q0 -72 -119 -92q-47 -8 -174 -8q-160 0 -160 98z" />
<glyph unicode="&#xc2;" horiz-adv-x="1800" d="M129 80q0 113 98.5 192.5t212.5 79.5q104 0 264 -78.5t175 -78.5h276q25 14 137.5 26t165.5 33q84 33 84 102q0 45 -89 110.5t-89 100.5q0 37 29.5 62.5t66.5 25.5q106 0 187 -100q73 -94 73 -203q0 -170 -204 -270q-166 -82 -361 -82q-127 0 -119 -2l-90 29 q29 -127 29 -152q0 -164 -123 -164q-152 0 -240 148q-70 115 -88 284q-10 27 -73 27q-139 0 -140 -76q0 -14 118 -308t118 -394q0 -84 -86 -84q-39 0 -189 368q-143 354 -143 404zM1268 973q0 94 102 94q41 0 69.5 -26.5t28.5 -67.5t-28.5 -68.5t-69.5 -27.5 q-43 0 -72.5 26.5t-29.5 69.5z" />
<glyph unicode="&#xc3;" horiz-adv-x="1439" d="M-63 0v195h301l59 47q0 45 10 73q27 10 35 11q61 0 175 -65.5t175 -65.5h230q119 0 176 22q96 37 96 139q0 45 -89 109.5t-89 101.5t29.5 62.5t66.5 25.5q106 0 186 -100q74 -94 74 -203q0 -352 -418 -352q-100 0 -219 20l-2 -10q27 -61 27 -141q0 -162 -127 -162 q-154 0 -230 143q-23 41 -90 277q-23 -51 -82 -89t-116 -38h-178zM1034 -260q0 96 103 96q98 0 98 -96q0 -41 -28.5 -67.5t-69.5 -26.5q-43 0 -73 26.5t-30 67.5z" />
<glyph unicode="&#xc4;" horiz-adv-x="833" d="M-55 0v195h176q274 2 274 127q0 29 -24.5 79t-24.5 78q0 33 28.5 56.5t61.5 23.5q63 0 96 -72q18 -49 58 -145q39 -86 119 -117q29 -10 61 -30h94v-195h-102q-59 0 -130 45t-102 98q-68 -68 -200 -108q-117 -35 -230 -35h-155zM262 743q0 47 60 56q70 8 77 18v12 q-86 57 -86 95q0 41 66.5 90t109.5 49q18 0 36 -14.5t18 -32.5q0 -14 -61.5 -46t-61.5 -48q0 -2 45 -46.5t45 -80.5q0 -47 -53 -76q-41 -23 -95 -23q-100 0 -100 47z" />
<glyph unicode="&#xc5;" horiz-adv-x="1599" d="M141 -242q0 193 174 320q158 117 357 117q123 0 123 -89q0 -86 -119 -86q-135 0 -230 -51q-119 -63 -118 -186q0 -139 198 -203q135 -43 316 -43q305 0 489 133l-16 23l-221 69q-135 59 -136 172q0 133 168 205q129 55 283 56h260v-195h-223q-264 0 -264 -70 q0 -25 96 -43q127 -25 176 -47q96 -43 96 -127q0 -170 -268 -282q-219 -92 -422 -93q-260 0 -457 84q-262 113 -262 336zM506 399q0 53 59 62q74 8 80 16v12q-90 66 -90 101q0 37 74 88q68 49 108 49q18 0 36 -15.5t18 -33.5q0 -10 -58 -45q-66 -39 -71 -45q96 -90 96 -129 q0 -47 -53 -78q-45 -27 -97 -27q-29 0 -61 11q-41 14 -41 34z" />
<glyph unicode="&#xc6;" horiz-adv-x="1355" d="M109 301q0 176 143 279q125 90 309 90q88 0 163 -59.5t75 -145.5q0 -92 -80 -92q-12 0 -43 10q-12 6 -30.5 44t-43.5 52q-74 8 -57 8q-63 0 -156 -53q-98 -57 -98 -117q0 -49 192 -49q127 0 359.5 60.5t302.5 60.5q41 0 74.5 -26.5t33.5 -65.5q0 -37 -22 -59 q-68 -43 -275.5 -106.5t-298.5 -119.5q-147 -92 -147 -227q0 -172 391 -197q147 -10 154 -18q29 -37 28 -66q0 -115 -190 -114q-225 0 -367 78q-182 98 -182 305q0 164 137 305l-47 -2q-123 -6 -215 47q-111 61 -110 178zM379 989q0 98 84 98q39 0 65.5 -28.5t26.5 -67.5 q0 -94 -90 -94q-86 0 -86 92z" />
<glyph unicode="&#xc7;" horiz-adv-x="1603" d="M152 55q0 129 89 229.5t218 100.5q92 0 92 -70q0 -37 -66 -69q-106 -53 -125 -68q-66 -53 -65 -147q0 -123 158 -183q111 -41 264 -41q195 0 377 39q283 59 282 187q0 55 -149 55q-41 0 -97 -4l-57 -4q-131 0 -221 55q-106 66 -107 189q0 127 168 243q158 111 291 111 q82 0 145.5 -49t63.5 -129q0 -86 -57 -86q-14 0 -80 28.5t-115 28.5q-78 0 -143 -33q-82 -41 -82 -108q0 -66 203 -66q31 0 71 2l45 2q137 0 201 -41q82 -53 82 -182q0 -213 -297 -338q-231 -98 -485 -98q-225 0 -400 108q-205 127 -204 338zM326 512q0 63 84 63q37 0 53 17 q0 4 -43 39t-43 69q0 41 66.5 89.5t109.5 48.5q18 0 35.5 -17t17.5 -35q0 -10 -61.5 -40.5t-61.5 -49.5q0 -6 45 -50t45 -81q0 -41 -49 -70.5t-92 -29.5q-27 0 -61 12q-45 14 -45 35z" />
<glyph unicode="&#xc8;" horiz-adv-x="1327" d="M27 -360q0 68 166 90q264 35 305 47q166 51 166 192q0 35 -60.5 161t-60.5 181q0 88 137 168q125 72 221 72q90 0 123 -66q8 -12 39 -137q20 -86 74 -119q4 -2 96 -34h149v-195h-217q-102 0 -151 33q-55 37 -70 133q-12 84 -22 168l-27 22q-35 -2 -94.5 -43t-59.5 -71 q109 -219 109 -322q0 -219 -246 -317q-170 -68 -434 -68q-143 0 -143 105zM997 -295q0 41 25 67.5t65 26.5q37 0 63 -28.5t26 -65.5t-26 -66.5t-63 -29.5q-90 0 -90 96z" />
<glyph unicode="&#xc9;" horiz-adv-x="546" d="M96 1059q0 43 22.5 79t63.5 36q86 0 135 -220q23 -98 64 -436q33 -264 70 -323h174v-195h-144q-121 0 -180 59q-37 37 -123 473q-82 418 -82 527z" />
<glyph unicode="&#xca;" horiz-adv-x="2009" d="M162 -39q0 174 246 256q166 55 387 55t221 -110q0 -53 -178 -66q-295 -20 -332 -26q-178 -33 -178 -133q0 -111 288 -160q170 -29 371 -29q231 0 453 29q344 45 344 141l-2 12l-29 35q-70 20 -160 21q-43 0 -126 -6.5t-126 -6.5t-74.5 26t-31.5 69q0 72 65 94 q117 23 121 24q70 25 70 82q0 66 -61 125q-4 6 -113 90q-61 47 -62 84q0 37 33 67t70 30q121 0 223 -179q94 -166 84 -292q137 -29 201 -78q84 -66 84 -191q0 -350 -953 -350q-836 0 -835 387zM901 -651q0 96 215 96h47q191 0 191 -94q0 -78 -72 -78q-16 0 -52 5t-56 3 l-175 -12q-98 0 -98 80zM999 770q0 41 32 68.5t73 27.5t71.5 -28.5t30.5 -69.5t-29.5 -66.5t-72.5 -25.5q-41 0 -73 26.5t-32 67.5z" />
<glyph unicode="&#xcb;" horiz-adv-x="1800" d="M129 80q0 113 98.5 192.5t212.5 79.5q104 0 264 -78.5t175 -78.5h276q25 14 137.5 26t165.5 33q84 33 84 102q0 45 -89 110.5t-89 100.5q0 37 29.5 62.5t66.5 25.5q106 0 187 -100q73 -94 73 -203q0 -170 -204 -270q-166 -82 -361 -82q-127 0 -119 -2l-90 29 q29 -127 29 -152q0 -164 -123 -164q-152 0 -240 148q-70 115 -88 284q-10 27 -73 27q-139 0 -140 -76q0 -14 118 -308t118 -394q0 -84 -86 -84q-39 0 -189 368q-143 354 -143 404zM1155 -190q0 80 66 79q16 0 50 -3t50 -3q33 0 95.5 5.5t94.5 5.5q37 0 67 -22.5t30 -59.5 q0 -72 -119 -93q-47 -8 -174 -8q-160 0 -160 99z" />
<glyph unicode="&#xcc;" horiz-adv-x="1263" d="M27 -360q0 68 166 90q264 35 305 47q166 51 166 192q0 35 -60.5 161t-60.5 181q0 88 137 168q125 72 221 72q90 0 123 -66q6 -8 31 -114l6 -23q20 -84 76 -119q23 -8 80 -34h104v-195h-156q-102 0 -151 33q-55 37 -70 133q-12 84 -22 168l-27 22q-35 -2 -94.5 -43 t-59.5 -71q109 -219 109 -322q0 -219 -246 -317q-170 -68 -434 -68q-143 0 -143 105zM565 786q0 39 32 67t71 28q104 -1 104 -95q0 -43 -29.5 -69.5t-72.5 -26.5q-41 0 -73 27.5t-32 68.5zM672 1012q0 41 33.5 70.5t74.5 29.5q39 0 71 -29.5t32 -68.5q0 -41 -31 -66.5 t-72 -25.5t-74.5 25.5t-33.5 64.5zM846 793q0 41 31.5 68.5t74.5 27.5t74 -29t31 -72q0 -37 -33 -63.5t-70 -26.5q-41 0 -74.5 28t-33.5 67z" />
<glyph unicode="&#xcd;" horiz-adv-x="1957" d="M156 43q0 102 61 205q68 117 164 117q29 0 52.5 -23t23.5 -51q0 -23 -66.5 -100.5t-66.5 -141.5q0 -127 135 -213q119 -74 254 -74q123 0 217 115q88 109 88 236q0 76 -61.5 215t-61.5 155q0 84 78 84q55 0 146 -186t136 -186h15q14 -2 24 -2h43q164 0 164 129 q0 29 -24.5 79t-24.5 78q0 33 28.5 56.5t61.5 23.5q63 0 96 -72q18 -49 58 -145q39 -86 119 -117q29 -10 61 -30h156v-195h-164q-59 0 -130 45t-102 98q-150 -150 -309 -149q-76 0 -145 37q-119 -459 -455 -459q-207 0 -381 129q-190 141 -190 342zM614 264q0 96 91 96 q35 0 60.5 -28.5t25.5 -63.5t-26 -65.5t-60 -30.5q-37 0 -64 27.5t-27 64.5zM1542 -258q0 39 26.5 68.5t63.5 29.5t63.5 -30.5t26.5 -67.5q0 -35 -28.5 -65.5t-63.5 -30.5q-37 0 -62.5 29.5t-25.5 66.5z" />
<glyph unicode="&#xce;" horiz-adv-x="1263" d="M27 -360q0 68 166 90q264 35 305 47q166 51 166 192q0 35 -60.5 161t-60.5 181q0 88 137 168q125 72 221 72q90 0 125 -66q8 -14 37 -135q23 -88 74 -121q25 -8 84 -34h100v-195h-156q-102 0 -151 33q-55 37 -70 133q-12 84 -22 168l-27 22q-35 -2 -94.5 -43t-59.5 -71 q109 -219 109 -322q0 -219 -246 -317q-170 -68 -434 -68q-143 0 -143 105zM627 840q0 96 215 96h49q190 0 190 -94q0 -80 -71 -80q-14 0 -52 5t-59 3q-131 -12 -174 -12q-98 0 -98 82z" />
<glyph unicode="&#xcf;" horiz-adv-x="1957" d="M156 43q0 -201 190 -342q174 -129 381 -129q336 0 455 459q70 -37 145 -37q160 0 309 149q31 -53 101.5 -98t130.5 -45h164v195h-156q-33 20 -61 30q-80 31 -119 117q-18 49 -58 145q-33 72 -96 72q-33 0 -61.5 -23.5t-28.5 -56.5q0 -29 24.5 -79t24.5 -78 q0 -129 -164 -129h-43q-10 0 -24 2h-15q-45 0 -136 186t-146 186q-78 0 -78 -84q0 -16 61.5 -155.5t61.5 -214.5q0 -127 -88 -236q-94 -115 -217 -115q-135 0 -254 74q-135 86 -135 213q0 63 66.5 141t66.5 101q0 29 -23.5 51.5t-52.5 22.5q-96 0 -164 -117 q-61 -102 -61 -205zM156 43q0 102 61 205q68 117 164 117q29 0 52.5 -23t23.5 -51q0 -23 -66.5 -100.5t-66.5 -141.5q0 -127 135 -213q119 -74 254 -74q123 0 217 115q88 109 88 236q0 76 -61.5 215t-61.5 155q0 84 78 84q55 0 146 -186t136 -186h15q14 -2 24 -2h43 q164 0 164 129q0 29 -24.5 79t-24.5 78q0 33 28.5 56.5t61.5 23.5q63 0 96 -72q18 -49 58 -145q39 -86 119 -117q29 -10 61 -30h156v-195h-164q-59 0 -130 45t-102 98q-150 -150 -309 -149q-76 0 -145 37q-119 -459 -455 -459q-207 0 -381 129q-190 141 -190 342zM156 43 q0 102 61 205q68 117 164 117q29 0 52.5 -23t23.5 -51q0 -23 -66.5 -100.5t-66.5 -141.5q0 -127 135 -213q119 -74 254 -74q123 0 217 115q88 109 88 236q0 76 -61.5 215t-61.5 155q0 84 78 84q55 0 146 -186t136 -186h15q14 -2 24 -2h43q164 0 164 129q0 29 -24.5 79 t-24.5 78q0 33 28.5 56.5t61.5 23.5q63 0 96 -72q18 -49 58 -145q39 -86 119 -117q29 -10 61 -30h156v-195h-164q-59 0 -130 45t-102 98q-150 -150 -309 -149q-76 0 -145 37q-119 -459 -455 -459q-207 0 -381 129q-190 141 -190 342zM614 264q0 -37 27 -64.5t64 -27.5 q35 0 60.5 30.5t25.5 65.5t-26 63.5t-60 28.5q-90 0 -91 -96zM614 264q0 96 91 96q35 0 60.5 -28.5t25.5 -63.5t-26 -65.5t-60 -30.5q-37 0 -64 27.5t-27 64.5zM614 264q0 96 91 96q35 0 60.5 -28.5t25.5 -63.5t-26 -65.5t-60 -30.5q-37 0 -64 27.5t-27 64.5zM1323 840 q0 96 215 96h49q191 0 191 -94q0 -80 -72 -80q-14 0 -52 5t-59 3q-131 -12 -174 -12q-98 0 -98 82z" />
<glyph unicode="&#xd0;" />
<glyph unicode="&#xd1;" horiz-adv-x="866" d="M-55 0v195h172q279 0 278 127q0 29 -24.5 79t-24.5 78q0 33 28.5 56.5t61.5 23.5q63 0 96 -72q18 -49 58 -145q39 -86 119 -117q29 -10 61 -30h156v-195h-164q-59 0 -130 45t-102 98q-68 -68 -200 -108q-117 -35 -230 -35h-155zM436 -258q0 39 26.5 68.5t63.5 29.5 t63.5 -30.5t26.5 -67.5q0 -35 -28.5 -65.5t-63.5 -30.5q-37 0 -62.5 29.5t-25.5 66.5z" />
<glyph unicode="&#xd2;" horiz-adv-x="1380" d="M27 -360q0 68 166 90q264 35 305 47q166 51 166 192q0 35 -60.5 161t-60.5 181q0 88 137 168q125 72 221 72q90 0 125 -66q8 -14 37 -135q20 -88 80 -125q51 -31 147 -35q-94 4 154 5v-195h-279q-102 0 -151 33q-55 37 -70 133q-12 84 -22 168l-27 22q-35 -2 -94.5 -43 t-59.5 -71q109 -219 109 -322q0 -219 -246 -317q-170 -68 -434 -68q-143 0 -143 105zM881 -221q0 96 215 96h47q190 0 190 -94q0 -78 -71 -78q-16 0 -52 5t-57 3l-174 -12q-98 0 -98 80z" />
<glyph unicode="&#xd3;" horiz-adv-x="1040" d="M162 133q0 43 25.5 76t66.5 29l244 -29q61 0 102 32.5t33 92.5l-115 747q-6 37 23.5 75t66.5 38q43 0 74 -38t37 -83q43 -354 108 -764q10 -72 154 -114h141l2 -195h-161q-59 0 -117 29.5t-80 79.5q-131 -102 -338 -103q-266 0 -266 127zM195 936q0 45 27.5 78t70.5 33 q78 0 102 -113q90 -422 90 -531q0 -43 -26.5 -77.5t-69.5 -34.5q-94 0 -131 145q-16 113 -33 226q-31 197 -30 274z" />
<glyph unicode="&#xd4;" horiz-adv-x="1269" d="M27 -360q0 68 166 90q264 35 305 47q166 51 166 192q0 35 -60.5 161t-60.5 181q0 88 137 168q125 72 221 72q90 0 123 -66q8 -12 38 -134t144 -156h115v-195h-156q-102 0 -151 33q-55 37 -70 133q-12 84 -22 168l-27 22q-35 -2 -94.5 -43t-59.5 -71q109 -219 109 -322 q0 -219 -246 -317q-170 -68 -434 -68q-143 0 -143 105zM791 811q0 39 24.5 66.5t63.5 27.5q37 0 62.5 -28.5t25.5 -65.5t-26 -66.5t-62 -29.5q-88 0 -88 96z" />
<glyph unicode="&#xd5;" horiz-adv-x="1800" d="M129 80q0 113 98.5 192.5t212.5 79.5q104 0 264 -78.5t175 -78.5h276q25 14 137.5 26t165.5 33q84 33 84 102q0 45 -89 110.5t-89 100.5q0 37 29.5 62.5t66.5 25.5q106 0 187 -100q73 -94 73 -203q0 -170 -204 -270q-166 -82 -361 -82q-127 0 -119 -2l-90 29 q29 -127 29 -152q0 -164 -123 -164q-152 0 -240 148q-70 115 -88 284q-10 27 -73 27q-139 0 -140 -76q0 -14 118 -308t118 -394q0 -84 -86 -84q-39 0 -189 368q-143 354 -143 404zM1286 -227q0 94 105 94q41 0 69.5 -26.5t28.5 -67.5t-28.5 -69t-69.5 -28q-43 0 -74 28 t-31 69z" />
<glyph unicode="&#xd6;" horiz-adv-x="1982" d="M143 315q0 332 721 332q156 0 156 -84q0 -61 -189 -78q-115 -8 -346 -28q-188 -23 -188 -123q0 -70 117 -107q88 -29 178 -28h577q223 0 334 32l51 56l7 30q0 25 -25 72t-25 72q0 37 26 62.5t62 25.5l37 -6l58 -54q29 -94 65 -174q66 -139 117 -120h168v-195h-127 q-57 0 -227 137q-168 -137 -447 -137h-584q-195 0 -333 63q-182 84 -183 252zM995 -274q0 37 28 66.5t64 29.5q37 0 63 -29.5t26 -66.5q0 -39 -25 -66t-64 -27q-37 0 -64.5 28t-27.5 65z" />
<glyph unicode="&#xd8;" horiz-adv-x="974" d="M-45 0v195h137q72 12 211 43q-59 102 -59 208q0 158 109.5 257.5t267.5 99.5q113 0 188.5 -86t75.5 -201q0 -205 -133 -293q10 -29 106 -28h195v-195h-285q-170 0 -279 86q-49 -35 -178 -61q-115 -25 -192 -25h-164zM406 424q0 -31 54 -92.5t83 -61.5q31 0 96 72 q51 55 51 127q0 49 -32.5 91t-79.5 42q-57 0 -114.5 -60.5t-57.5 -117.5zM414 1083q0 47 32.5 78t79.5 31q49 0 86 -31t37 -78q0 -45 -38 -77.5t-83 -32.5q-47 0 -80.5 31.5t-33.5 78.5z" />
<glyph unicode="&#xd9;" horiz-adv-x="2822" d="M-43 0v195q82 0 78 -2q-6 0 14 0q23 -2 62 -3q131 -2 415 -4q63 0 164 15q-182 72 -350 180q-240 154 -240 270q0 31 21.5 55.5t52.5 24.5q45 0 84 -41q20 -25 61 -72q193 -215 531 -280q92 -12 276 -39q203 -33 195 -104h334q37 0 53 45q8 37 16 75q20 10 33 11 q61 0 176 -65.5t176 -65.5h150q162 0 225 16q25 12 21 35l-146 801q-6 35 26 71.5t66 36.5q6 0 43 -10q49 -14 66 -78q10 -72 88 -489q45 -244 45 -377q0 -201 -270 -201h-168v2q-76 4 -105 18l-2 -10q29 -59 29 -141q0 -162 -129 -162q-156 0 -231 143q-27 49 -88 277 q-23 -51 -82.5 -89t-116.5 -38h-111q-152 0 -262 104q-41 -35 -450 -71q-354 -33 -449 -33h-301z" />
<glyph unicode="&#xda;" horiz-adv-x="1957" d="M156 43q0 -201 190 -342q174 -129 381 -129q336 0 455 459q70 -37 145 -37q160 0 309 149q31 -53 101.5 -98t130.5 -45h164v195h-156q-33 20 -61 30q-80 31 -119 117q-18 49 -58 145q-33 72 -96 72q-33 0 -61.5 -23.5t-28.5 -56.5q0 -29 24.5 -79t24.5 -78 q0 -129 -164 -129h-43q-10 0 -24 2h-15q-45 0 -136 186t-146 186q-78 0 -78 -84q0 -16 61.5 -155.5t61.5 -214.5q0 -127 -88 -236q-94 -115 -217 -115q-135 0 -254 74q-135 86 -135 213q0 63 66.5 141t66.5 101q0 29 -23.5 51.5t-52.5 22.5q-96 0 -164 -117 q-61 -102 -61 -205zM156 43q0 102 61 205q68 117 164 117q29 0 52.5 -23t23.5 -51q0 -23 -66.5 -100.5t-66.5 -141.5q0 -127 135 -213q119 -74 254 -74q123 0 217 115q88 109 88 236q0 76 -61.5 215t-61.5 155q0 84 78 84q55 0 146 -186t136 -186h15q14 -2 24 -2h43 q164 0 164 129q0 29 -24.5 79t-24.5 78q0 33 28.5 56.5t61.5 23.5q63 0 96 -72q18 -49 58 -145q39 -86 119 -117q29 -10 61 -30h156v-195h-164q-59 0 -130 45t-102 98q-150 -150 -309 -149q-76 0 -145 37q-119 -459 -455 -459q-207 0 -381 129q-190 141 -190 342zM156 43 q0 102 61 205q68 117 164 117q29 0 52.5 -23t23.5 -51q0 -23 -66.5 -100.5t-66.5 -141.5q0 -127 135 -213q119 -74 254 -74q123 0 217 115q88 109 88 236q0 76 -61.5 215t-61.5 155q0 84 78 84q55 0 146 -186t136 -186h15q14 -2 24 -2h43q164 0 164 129q0 29 -24.5 79 t-24.5 78q0 33 28.5 56.5t61.5 23.5q63 0 96 -72q18 -49 58 -145q39 -86 119 -117q29 -10 61 -30h156v-195h-164q-59 0 -130 45t-102 98q-150 -150 -309 -149q-76 0 -145 37q-119 -459 -455 -459q-207 0 -381 129q-190 141 -190 342zM614 264q0 -37 27 -64.5t64 -27.5 q35 0 60.5 30.5t25.5 65.5t-26 63.5t-60 28.5q-90 0 -91 -96zM614 264q0 96 91 96q35 0 60.5 -28.5t25.5 -63.5t-26 -65.5t-60 -30.5q-37 0 -64 27.5t-27 64.5zM614 264q0 96 91 96q35 0 60.5 -28.5t25.5 -63.5t-26 -65.5t-60 -30.5q-37 0 -64 27.5t-27 64.5zM1405 -252 q0 78 72 78q16 0 53 -5t57 -3l172 12q101 0 101 -80q0 -98 -215 -98h-50q-190 0 -190 96z" />
<glyph unicode="&#xdb;" horiz-adv-x="2822" d="M-43 0v195q82 0 78 -2q-6 0 14 0q23 -2 62 -3q131 -2 415 -4q63 0 164 15q-182 72 -350 180q-240 154 -240 270q0 31 21.5 55.5t52.5 24.5q45 0 84 -41q20 -25 61 -72q193 -215 531 -280q92 -12 276 -39q203 -33 195 -104h334q37 0 53 45q8 37 16 75q20 10 33 11 q61 0 176 -65.5t176 -65.5h150q162 0 225 16q25 12 21 35l-146 801q-6 35 26 71.5t66 36.5q6 0 43 -10q49 -14 66 -78q10 -72 88 -489q45 -244 45 -377q0 -201 -270 -201h-168v2q-76 4 -105 18l-2 -10q29 -59 29 -141q0 -162 -129 -162q-156 0 -231 143q-27 49 -88 277 q-23 -51 -82.5 -89t-116.5 -38h-111q-152 0 -262 104q-41 -35 -450 -71q-354 -33 -449 -33h-301zM645 -283q0 41 32 68t73 27q43 0 72.5 -27t29.5 -68q0 -39 -32 -67.5t-70 -28.5q-39 0 -72 28.5t-33 67.5z" />
<glyph unicode="&#xdc;" horiz-adv-x="1650" d="M131 291q0 154 178 229q131 55 312 55q147 0 147 -106q0 -53 -123 -70q-76 -8 -225 -26q-123 -18 -123 -90q0 -104 248 -158q170 -37 332 -37q170 0 313 27q225 41 225 129q0 25 -68.5 89t-68.5 99q0 39 25.5 65.5t64.5 26.5q86 0 154 -129q61 -117 61 -211 q0 -172 -330 -241q-195 -41 -469 -41q-203 0 -405 96q-248 117 -248 293zM911 -274q0 37 27 67.5t61 30.5q37 0 64 -31.5t27 -68.5t-27 -66t-64 -29q-39 0 -63.5 29t-24.5 68z" />
<glyph unicode="&#xdd;" />
<glyph unicode="&#xde;" />
<glyph unicode="&#xdf;" horiz-adv-x="1333" d="M96 90q0 90 150 109l237 24q-8 39 -8 88q0 233 195 439l-66 12q-12 12 -89 273t-77 292q0 76 90 76q61 0 131 -277q63 -256 52 -344q39 43 100 80q72 43 119 43q121 0 203 -59q90 -66 90 -182q0 -168 -123 -295q-82 -84 -269 -191q41 -4 89 -4q59 0 176.5 10.5 t177.5 10.5h106v-195h-428q-166 0 -354 76q-166 -90 -371 -90q-131 0 -131 104zM612 279q104 20 265 137q176 129 176 215q0 39 -28 62.5t-67 23.5q-119 0 -237 -162q-113 -154 -109 -276zM764 1245q0 41 24.5 67.5t65.5 26.5q37 0 64.5 -27.5t27.5 -64.5t-26.5 -67.5 t-63.5 -30.5q-39 0 -65.5 28.5t-26.5 67.5z" />
<glyph unicode="&#xe0;" horiz-adv-x="856" d="M-55 0v195h188q283 0 283 127q0 29 -24.5 79t-24.5 78q0 33 28.5 56.5t61.5 23.5q63 0 96 -72q18 -49 57 -145q39 -86 119 -117q29 -10 62 -30h114v-195h-123q-59 0 -129.5 45t-101.5 98q-68 -68 -201 -108q-117 -35 -229 -35h-176zM215 842q0 98 223 98h66 q166 0 166 -98q0 -78 -70 -78q-14 0 -41 3t-41 3q-35 0 -106.5 -7t-106.5 -7t-62.5 25.5t-27.5 60.5z" />
<glyph unicode="&#xe1;" horiz-adv-x="1210" d="M102 213q0 172 263 295q193 90 417 117l4 6l-2 65q-4 139 93 140q72 0 120 -230q18 -100 56 -301q23 -117 94 -117q12 0 22 7h111v-195h-176q-106 0 -174 182q-70 -94 -217 -145q-129 -45 -264 -45q-346 0 -347 221zM264 1014q0 106 246 106q209 0 209 -102 q0 -29 -20.5 -54.5t-49.5 -25.5q-18 0 -54 4t-54 4q-31 0 -90.5 -6t-90.5 -6q-96 0 -96 80zM297 221q0 -35 53 -53q39 -14 82 -14q117 0 244 43q155 53 198 133l-40 153q-160 -31 -308 -86q-229 -86 -229 -176z" />
<glyph unicode="&#xe2;" horiz-adv-x="1970" d="M133 315q0 336 721 336q147 0 147 -84q0 -70 -184 -84q-115 -4 -346 -22q-184 -20 -184 -125q0 -68 108 -105q78 -27 201 -32q102 0 205 -2q164 -6 250 -7q260 0 430 46l47 59l2 24q2 25 -22.5 73t-24.5 73q0 88 92 88q57 0 90 -72q18 -49 57 -143q37 -86 107 -111 q31 -10 74 -32h125v-195h-142q-39 0 -115.5 51t-107.5 88q-147 -139 -459 -139h-547q-193 0 -335 63q-188 84 -189 252zM836 915q0 100 241 101q201 -1 201 -101q0 -82 -66 -81q-14 0 -50 5t-54 3l-178 -13q-94 0 -94 86z" />
<glyph unicode="&#xe3;" horiz-adv-x="886" d="M-55 0v195h145q326 10 326 127q0 29 -24.5 79t-24.5 78q0 33 28.5 56.5t61.5 23.5q63 0 96 -72q18 -49 57 -145q39 -86 119 -117q29 -10 62 -30h155v-195h-164q-59 0 -129.5 45t-101.5 98q-68 -68 -201 -108q-117 -35 -229 -35h-176zM197 780q0 41 31.5 69t72.5 28 q37 0 69.5 -30t32.5 -67q0 -43 -32.5 -69.5t-77.5 -26.5q-37 0 -66.5 29.5t-29.5 66.5zM305 1010q0 43 31 68.5t74 25.5q39 0 70.5 -26.5t31.5 -65.5t-31.5 -69t-70.5 -30t-72 29t-33 68zM477 788q0 43 30 70t73 27q41 0 70.5 -28t29.5 -69t-29.5 -68.5t-70.5 -27.5 q-39 0 -71 29t-32 67z" />
<glyph unicode="&#xe4;" horiz-adv-x="1646" d="M131 291q0 154 178 229q131 55 312 55q147 0 147 -106q0 -53 -123 -70q-76 -8 -225 -26q-123 -18 -123 -90q0 -104 248 -158q170 -37 332 -37q170 0 313 27q225 41 225 129q0 25 -68.5 89t-68.5 99q0 39 25.5 65.5t64.5 26.5q86 0 154 -129q61 -117 61 -211 q0 -172 -330 -241q-195 -41 -469 -41q-203 0 -405 96q-248 117 -248 293zM766 688q0 96 211 96h74q172 0 172 -96q0 -31 -20.5 -55.5t-51.5 -24.5q-18 0 -53 4t-54 4q-31 0 -91 -6t-91 -6q-96 0 -96 84z" />
<glyph unicode="&#xe5;" horiz-adv-x="1970" d="M106 309q0 338 717 338q162 0 162 -84q0 -57 -240 -84q-150 -8 -299 -18q-188 -31 -188 -127q0 -78 137 -113q90 -23 205 -22q57 0 172 -2t172 -2q422 0 535 41l47 59v24q0 27 -22.5 73t-22.5 73q0 35 25.5 61.5t60.5 26.5q59 0 104 -92q27 -57 80 -174q55 -92 129 -92 h148v-195h-99q-137 0 -268 139q-63 -70 -227 -108q-131 -31 -256 -31h-549q-186 0 -332 63q-190 84 -191 246zM774 819q0 41 32 68.5t75 27.5q39 0 71.5 -27.5t32.5 -66.5q0 -41 -32.5 -69.5t-73.5 -28.5t-73 27.5t-32 68.5zM887 1051q0 41 32.5 68.5t73.5 27.5 q39 0 72 -27.5t33 -66.5t-33 -69t-72 -30q-41 0 -73.5 28t-32.5 69zM1055 829q0 43 32.5 69t75.5 26t73 -26t30 -69q0 -94 -105 -94q-43 0 -74.5 26.5t-31.5 67.5z" />
<glyph unicode="&#xe6;" horiz-adv-x="874" d="M-55 0v195h174q297 31 297 127q0 29 -24.5 79t-24.5 78q0 33 28.5 56.5t61.5 23.5q63 0 96 -72q18 -49 57 -145q39 -86 119 -117q29 -10 62 -30h135v-195h-144q-59 0 -129.5 45t-101.5 98q-68 -68 -201 -108q-117 -35 -229 -35h-176zM313 827q0 39 27 69t63 30 q37 0 64 -31t27 -68q0 -35 -29 -65.5t-64 -30.5q-37 0 -62.5 30t-25.5 66z" />
<glyph unicode="&#xe7;" horiz-adv-x="1740" d="M131 291q0 154 178 229q131 55 312 55q147 0 147 -106q0 -53 -123 -70q-76 -8 -225 -26q-123 -18 -123 -90q0 -104 248 -158q170 -37 332 -37q170 0 313 27q225 41 225 129q0 25 -68.5 89t-68.5 99q0 39 25.5 65.5t64.5 26.5q86 0 154 -129q61 -117 61 -211 q0 -172 -330 -241q-195 -41 -469 -41q-203 0 -405 96q-248 117 -248 293zM715 737q0 41 30.5 66.5t71.5 25.5q43 0 76 -25.5t33 -66.5q0 -43 -32 -67.5t-75 -24.5t-73.5 25.5t-30.5 66.5zM827 967q0 41 32 67.5t73 26.5t72.5 -26.5t31.5 -67.5q0 -39 -32.5 -67t-71.5 -28 q-41 0 -73 27t-32 68zM995 748q0 41 33 67.5t76 26.5q41 0 71.5 -26.5t30.5 -67.5t-30.5 -68t-71.5 -27t-75 27t-34 68z" />
<glyph unicode="&#xe8;" horiz-adv-x="1327" d="M109 508q0 27 19 46t46 19q-92 0 41 -32q115 -27 307.5 -59.5t241.5 -32.5q57 0 173 15t173 15q96 1 96 -110q0 -10 -10 -52l-41 -28q-246 -4 -436 -84q-256 -106 -256 -316q0 -172 231 -247q156 -51 373 -52q86 0 86 -86q0 -94 -143 -94q-240 0 -453 113 q-258 137 -258 354q0 131 57 225q72 88 142 179q-78 20 -233.5 70t-155.5 157zM815 -82q0 43 31 68.5t74 25.5q100 0 100 -94q0 -41 -29.5 -68.5t-70.5 -27.5t-73 27.5t-32 68.5zM971 164q0 33 27.5 64.5t60.5 31.5q6 0 49 -32.5t111 -32.5h149v-195h-135q-76 0 -162 45 q-100 51 -100 119z" />
<glyph unicode="&#xe9;" horiz-adv-x="1476" d="M-43 0v195q82 0 78 -2q-6 0 14 0q23 -2 62 -3q131 -2 415 -4q63 0 164 15q-182 72 -350 180q-240 154 -240 270q0 31 21.5 55.5t52.5 24.5q45 0 84 -41q20 -25 61 -72q193 -215 531 -280q92 -12 276 -39q203 -33 195 -104h211v-195h-113q-152 0 -262 104 q-41 -35 -450 -71q-354 -33 -449 -33h-301zM645 -283q0 41 32 68t73 27q43 0 72.5 -27t29.5 -68q0 -39 -32 -67.5t-70 -28.5q-39 0 -72 28.5t-33 67.5z" />
<glyph unicode="&#xea;" horiz-adv-x="1314" d="M125 457q0 29 20.5 48t49.5 19q49 0 230 -62.5t280 -62.5q68 0 202.5 15.5t202.5 15.5q45 0 73.5 -35t28.5 -82q0 -16 -20.5 -42.5t-36.5 -30.5l-260 -41q-418 -70 -418 -359q0 -172 223 -248q152 -51 367 -51q90 0 90 -84q0 -96 -164 -96q-219 0 -434 121 q-248 139 -248 342q0 113 53.5 226.5t141.5 180.5q-76 23 -228.5 72t-152.5 154zM819 -131q0 41 31 69.5t72 28.5t72.5 -28.5t31.5 -69.5q0 -39 -32.5 -67.5t-71.5 -28.5t-71 28.5t-32 67.5z" />
<glyph unicode="&#xeb;" horiz-adv-x="1492" d="M-63 0v195q98 0 294.5 -4.5t294.5 -4.5q68 0 164 15q-182 72 -350 180q-240 154 -240 270q0 31 21.5 55.5t52.5 24.5q45 0 84 -41q20 -25 61 -72q193 -215 531 -280q92 -12 276 -39q203 -33 195 -104h231v-195h-133q-152 0 -262 104q-41 -35 -450 -71q-354 -33 -449 -33 h-321z" />
<glyph unicode="&#xec;" horiz-adv-x="1314" d="M125 457q0 29 20.5 48t49.5 19q49 0 230 -62.5t280 -62.5q68 0 202.5 15.5t202.5 15.5q45 0 73.5 -35t28.5 -82q0 -16 -20.5 -42.5t-36.5 -30.5l-260 -41q-418 -70 -418 -359q0 -172 223 -248q152 -51 367 -51q90 0 90 -84q0 -96 -164 -96q-219 0 -434 121 q-248 139 -248 342q0 113 53.5 226.5t141.5 180.5q-76 23 -228.5 72t-152.5 154z" />
<glyph unicode="&#xed;" horiz-adv-x="1306" d="M109 508q0 27 19 46t46 19q-92 0 41 -32q115 -27 307.5 -59.5t241.5 -32.5q57 0 173 15t173 15q96 1 96 -110q0 -10 -10 -52l-41 -28q-246 -4 -436 -84q-256 -106 -256 -316q0 -172 231 -247q156 -51 373 -52q86 0 86 -86q0 -94 -143 -94q-240 0 -453 113 q-258 137 -258 354q0 131 57 225q72 88 142 179q-78 20 -233.5 70t-155.5 157zM971 164q0 33 27.5 64.5t60.5 31.5q6 0 49 -32.5t111 -32.5h170v-195h-156q-76 0 -162 45q-100 51 -100 119z" />
<glyph unicode="&#xee;" horiz-adv-x="1486" d="M-43 0v195q98 0 295 -4.5t295 -4.5q68 0 164 15q-182 72 -351 180q-240 154 -239 270q0 31 21.5 55.5t52.5 24.5q45 0 84 -41q20 -25 61 -72q193 -215 530 -280q92 -12 277 -39q203 -33 194 -104h211v-195h-112q-152 0 -262 104q-41 -35 -451 -71q-354 -33 -448 -33h-322 zM666 926q0 41 31.5 67.5t72.5 26.5q43 0 72.5 -26.5t29.5 -67.5q0 -39 -31.5 -68t-70.5 -29t-71.5 29t-32.5 68z" />
<glyph unicode="&#xef;" horiz-adv-x="1306" d="M109 508q0 27 19 46t46 19q-92 0 41 -32q115 -27 307.5 -59.5t241.5 -32.5q57 0 173 15t173 15q96 1 96 -110q0 -10 -10 -52l-41 -28q-246 -4 -436 -84q-256 -106 -256 -316q0 -172 231 -247q156 -51 373 -52q86 0 86 -86q0 -94 -143 -94q-240 0 -453 113 q-258 137 -258 354q0 131 57 225q72 88 142 179q-78 20 -233.5 70t-155.5 157zM590 758q0 43 30.5 68.5t73.5 25.5q101 0 101 -94q0 -41 -30 -68.5t-71 -27.5t-72.5 27.5t-31.5 68.5zM971 164q0 33 27.5 64.5t60.5 31.5q6 0 49 -32.5t111 -32.5h149v-195h-135q-76 0 -162 45 q-100 51 -100 119z" />
<glyph unicode="&#xf0;" />
<glyph unicode="&#xf1;" horiz-adv-x="1314" d="M125 457q0 29 20.5 48t49.5 19q49 0 230 -62.5t280 -62.5q68 0 202.5 15.5t202.5 15.5q45 0 73.5 -35t28.5 -82q0 -16 -20.5 -42.5t-36.5 -30.5l-260 -41q-418 -70 -418 -359q0 -172 223 -248q152 -51 367 -51q90 0 90 -84q0 -96 -164 -96q-219 0 -434 121 q-248 139 -248 342q0 113 53.5 226.5t141.5 180.5q-76 23 -228.5 72t-152.5 154zM573 709q0 41 31 69.5t72 28.5t72.5 -28.5t31.5 -69.5q0 -39 -32.5 -68t-71.5 -29t-71 29t-32 68z" />
<glyph unicode="&#xf2;" horiz-adv-x="1296" d="M152 51q0 106 147 107h51q10 0 27 -2h16q131 0 258 37q178 51 178 147q0 29 -24.5 78t-24.5 78q0 94 80 94q70 0 105 -74q4 -16 43 -149q27 -90 71 -115q41 -16 127 -57h146v-195h-115q-193 0 -250 143q-141 -119 -313 -163q-139 -37 -355 -37q-168 0 -167 108zM784 932 q0 45 30 81t73 36q45 0 73.5 -36t28.5 -83q0 -41 -29.5 -77t-70.5 -36q-43 0 -74 36t-31 79z" />
<glyph unicode="&#xf3;" horiz-adv-x="1296" d="M152 51q0 106 147 107h51q10 0 27 -2h16q131 0 258 37q178 51 178 147q0 29 -24.5 78t-24.5 78q0 94 80 94q70 0 105 -74q4 -16 43 -149q27 -90 71 -115q113 -61 129 -62q6 0 19 5h125v-195h-115q-193 0 -250 143q-141 -119 -313 -163q-139 -37 -355 -37q-168 0 -167 108 z" />
<glyph unicode="&#xf4;" horiz-adv-x="929" d="M10 -362q0 63 172 81q248 27 316 52q168 61 161 229q0 10 -2 36.5t-2 41.5q0 66 28 91.5t93 25.5h201v-195h-152q2 -285 -192 -393q-145 -82 -463 -82q-160 0 -160 113z" />
<glyph unicode="&#xf5;" horiz-adv-x="907" d="M10 -362q0 63 172 81q248 27 316 52q168 61 161 229q0 10 -2 36.5t-2 41.5q0 66 28 91.5t93 25.5h180v-195h-131q2 -285 -192 -393q-145 -82 -463 -82q-160 0 -160 113zM567 625q0 39 25.5 68.5t62.5 29.5q35 0 64 -30.5t29 -65.5q0 -37 -27 -66t-64 -29q-90 0 -90 93z " />
<glyph unicode="&#xf7;" horiz-adv-x="1013" d="M-70 0v195h308q127 0 315 36q246 47 246 121q0 86 -312 86q-41 0 -124.5 -10t-124.5 -10q-88 0 -88 96q0 59 169 96q215 47 232 56q20 82 20 73q0 100 -74.5 306t-74.5 296q0 37 27.5 67t64.5 30q84 0 158 -312q59 -248 63 -397q-8 -55 -16 -127q96 -20 164 -76 q84 -65 84 -153q0 -205 -305 -303q-215 -70 -482 -70h-250zM365 -217q0 37 27.5 65.5t64.5 28.5q39 0 64.5 -27.5t25.5 -66.5q0 -37 -26.5 -66.5t-63.5 -29.5q-39 0 -65.5 28.5t-26.5 67.5z" />
<glyph unicode="&#xf8;" horiz-adv-x="1384" d="M156 43q0 102 61 205q68 117 164 117q29 0 52.5 -23t23.5 -51q0 -23 -66.5 -100.5t-66.5 -141.5q0 -127 135 -213q119 -74 254 -74q123 0 217 115q88 109 88 236q0 76 -61.5 215t-61.5 155q0 84 78 84q55 0 146 -186t132 -186h187v-195h-113q-82 0 -143 31 q-119 -459 -455 -459q-207 0 -381 129q-190 141 -190 342zM614 264q0 96 91 96q35 0 60.5 -28.5t25.5 -63.5t-26 -65.5t-60 -30.5q-37 0 -64 27.5t-27 64.5z" />
<glyph unicode="&#xf9;" horiz-adv-x="825" d="M-86 135q0 35 25 62h61q94 0 80 82l-66 389q-6 41 15.5 76.5t62.5 35.5q72 0 111 -141q20 -88 65 -262q41 -141 123 -141q29 0 50.5 27.5t21.5 58.5q0 59 -55.5 183t-55.5 171q0 76 78 76q160 0 205 -326q8 -63 24 -193q39 -39 103 -38h112v-195h-163q-74 0 -150 57 q-57 -61 -119 -61q-88 0 -190 115q-55 -111 -252 -111q-86 70 -86 135z" />
<glyph unicode="&#xfb;" horiz-adv-x="825" d="M-176 948q0 41 29.5 66.5t72.5 25.5q41 0 73 -25.5t32 -66.5t-32 -69.5t-73 -28.5q-39 0 -70.5 29.5t-31.5 68.5zM-86 135q0 35 25 62h61q94 0 80 82l-66 389q-6 41 15.5 76.5t62.5 35.5q72 0 111 -141q20 -88 65 -262q41 -141 123 -141q29 0 50.5 27.5t21.5 58.5 q0 59 -55.5 183t-55.5 171q0 76 78 76q160 0 205 -326q8 -63 24 -193q39 -39 103 -38h112v-195h-163q-74 0 -150 57q-57 -61 -119 -61q-88 0 -190 115q-55 -111 -252 -111q-86 70 -86 135zM-70 1180q0 39 32 65.5t71 26.5q41 0 72.5 -26.5t31.5 -67.5q0 -43 -29.5 -70 t-72.5 -27q-41 0 -73 29t-32 70zM104 956q0 41 30 67t71 26t73.5 -26t32.5 -67q0 -43 -30.5 -70.5t-73.5 -27.5q-41 0 -72 28.5t-31 69.5z" />
<glyph unicode="&#xfc;" horiz-adv-x="1048" d="M-78 139q0 31 21 58h104q10 8 25 12q78 319 194 475q162 215 451 215q119 0 186.5 -83t67.5 -204q0 -113 -78 -229q-72 -109 -174 -172q33 -16 104 -16h262v-195h-458q-98 0 -207 43q-141 -43 -375 -43h-45q-78 78 -78 139zM283 248q0 -10 4 -10q96 0 295 124 q209 132 209 218q0 43 -54 65q-41 18 -90 19q-125 0 -248 -148q-117 -139 -116 -268z" />
<glyph unicode="&#xfe;" />
<glyph unicode="&#xff;" horiz-adv-x="997" d="M-49 0v195h266q127 0 315 36q246 47 246 121q0 86 -311 86q-41 0 -125 -10t-125 -10q-88 0 -88 96q0 59 170 96q215 47 231 56q20 82 21 73q0 100 -75 306t-75 296q0 37 28 67t65 30q84 0 157 -312q59 -248 64 -397q-8 -55 -17 -127q96 -20 164 -76q84 -65 84 -153 q0 -205 -305 -303q-215 -70 -481 -70h-209zM158 842q0 39 26.5 66.5t65.5 27.5t64.5 -27.5t25.5 -66.5q0 -37 -26.5 -65.5t-63.5 -28.5q-39 0 -65.5 27.5t-26.5 66.5z" />
<glyph unicode="&#x152;" horiz-adv-x="2000" d="M-43 0v195q82 0 78 -2q-6 0 14 0q23 -2 62 -3q131 -2 415 -4q63 0 164 15q-182 72 -350 180q-240 154 -240 270q0 31 21.5 55.5t52.5 24.5q45 0 84 -41q20 -25 61 -72q193 -215 531 -280q92 -12 276 -39q203 -33 195 -104q227 0 287 10q170 29 170 149q0 45 -93.5 106.5 t-93.5 102.5q0 37 30 62.5t69 25.5q109 0 192 -98q78 -94 78 -205q0 -170 -213 -268q-172 -80 -365 -80q-8 -2 -22 -2q-88 0 -203 106q-41 -35 -450 -71q-354 -33 -449 -33h-301zM645 -283q0 41 32 68t73 27q43 0 72.5 -27t29.5 -68q0 -39 -32 -67.5t-70 -28.5 q-39 0 -72 28.5t-33 67.5zM1423 903q0 72 119 92q47 8 174 9q160 -1 160 -99q0 -80 -66 -80q-16 0 -50 3t-50 3q-33 0 -95.5 -5t-94.5 -5q-37 0 -67 22.5t-30 59.5z" />
<glyph unicode="&#x153;" horiz-adv-x="1900" d="M109 508q0 27 19 46t46 19q-92 0 41 -32q115 -27 307.5 -59.5t241.5 -32.5q57 0 173 15t173 15q96 1 96 -110q0 -10 -10 -52l-41 -28q-246 -4 -436 -84q-256 -106 -256 -316q0 -172 231 -247q156 -51 373 -52q86 0 86 -86q0 -94 -143 -94q-240 0 -453 113 q-258 137 -258 354q0 131 57 225q72 88 142 179q-78 20 -233.5 70t-155.5 157zM815 -82q0 43 31 68.5t74 25.5q100 0 100 -94q0 -41 -29.5 -68.5t-70.5 -27.5t-73 27.5t-32 68.5zM971 164q0 33 27.5 64.5t60.5 31.5q6 0 49 -32.5t111 -32.5q416 0 415 159q0 45 -93 106.5 t-93 102.5q0 37 29.5 62.5t68.5 25.5q109 0 193 -98q78 -94 78 -205q0 -184 -187 -280q-147 -76 -350 -76q-63 0 -119 8q-66 16 -121 57q-70 49 -69 107zM1280 903q0 72 119 92q47 8 174 9q160 -1 160 -99q0 -80 -66 -80q-16 0 -50 3t-50 3q-33 0 -95.5 -5t-95.5 -5 q-37 0 -66.5 22.5t-29.5 59.5z" />
<glyph unicode="&#x178;" horiz-adv-x="1345" d="M-43 0v195h281q39 0 55 43q4 12 14 77q27 10 35 11q61 0 176 -65.5t174 -65.5h150q164 0 227 16q23 12 18 35l-143 801q-6 35 24.5 71.5t65.5 36.5q10 0 45 -10q49 -14 66 -78q10 -72 88 -489q45 -244 45 -377q0 -201 -270 -201h-168v2q-76 4 -105 18l-2 -10 q27 -61 27 -141q0 -162 -127 -162q-158 0 -234 141q-25 47 -86 279q-23 -51 -82 -89t-116 -38h-158z" />
<glyph unicode="&#x2c6;" />
<glyph unicode="&#x2dc;" />
<glyph unicode="&#x2000;" horiz-adv-x="1032" />
<glyph unicode="&#x2001;" horiz-adv-x="2064" />
<glyph unicode="&#x2002;" horiz-adv-x="1032" />
<glyph unicode="&#x2003;" horiz-adv-x="2064" />
<glyph unicode="&#x2004;" horiz-adv-x="688" />
<glyph unicode="&#x2005;" horiz-adv-x="516" />
<glyph unicode="&#x2006;" horiz-adv-x="344" />
<glyph unicode="&#x2007;" horiz-adv-x="344" />
<glyph unicode="&#x2008;" horiz-adv-x="258" />
<glyph unicode="&#x2009;" horiz-adv-x="412" />
<glyph unicode="&#x200a;" horiz-adv-x="114" />
<glyph unicode="&#x2010;" horiz-adv-x="1206" d="M84 379q0 72 156 84q438 33 682 33q170 0 170 -80q0 -35 -27 -61.5t-61 -30.5q-432 -51 -730 -52q-190 0 -190 107z" />
<glyph unicode="&#x2011;" horiz-adv-x="1206" d="M84 379q0 72 156 84q438 33 682 33q170 0 170 -80q0 -35 -27 -61.5t-61 -30.5q-432 -51 -730 -52q-190 0 -190 107z" />
<glyph unicode="&#x2012;" horiz-adv-x="1206" d="M84 379q0 72 156 84q438 33 682 33q170 0 170 -80q0 -35 -27 -61.5t-61 -30.5q-432 -51 -730 -52q-190 0 -190 107z" />
<glyph unicode="&#x2013;" horiz-adv-x="2070" d="M-43 0v195q82 0 78 -2q-6 0 14 0q23 -2 62 -3q131 -2 415 -4q63 0 164 15q-182 72 -350 180q-240 154 -240 270q0 31 21.5 55.5t52.5 24.5q45 0 84 -41q20 -25 61 -72q193 -215 531 -280q92 -12 276 -39q203 -33 195 -104q227 0 287 10q170 29 170 149q0 45 -93.5 106.5 t-93.5 102.5q0 37 30 62.5t69 25.5q109 0 192 -98q78 -94 78 -205q0 -170 -213 -268q-172 -80 -365 -80q-8 -2 -22 -2q-88 0 -203 106q-41 -35 -450 -71q-354 -33 -449 -33h-301zM1464 903q0 72 119 92q47 8 174 9q160 -1 160 -99q0 -80 -66 -80q-16 0 -50 3t-50 3 q-33 0 -95.5 -5t-94.5 -5q-37 0 -67 22.5t-30 59.5z" />
<glyph unicode="&#x2014;" horiz-adv-x="1900" d="M109 508q0 27 19 46t46 19q-92 0 41 -32q115 -27 307.5 -59.5t241.5 -32.5q57 0 173 15t173 15q96 1 96 -110q0 -10 -10 -52l-41 -28q-246 -4 -436 -84q-256 -106 -256 -316q0 -172 231 -247q156 -51 373 -52q86 0 86 -86q0 -94 -143 -94q-240 0 -453 113 q-258 137 -258 354q0 131 57 225q72 88 142 179q-78 20 -233.5 70t-155.5 157zM971 164q0 33 27.5 64.5t60.5 31.5q6 0 49 -32.5t111 -32.5q416 0 415 159q0 45 -93 106.5t-93 102.5q0 37 29.5 62.5t68.5 25.5q109 0 193 -98q78 -94 78 -205q0 -184 -187 -280 q-147 -76 -350 -76q-63 0 -119 8q-66 16 -121 57q-70 49 -69 107zM1278 899q0 72 119 92q47 8 174 8q160 0 160 -98q0 -80 -66 -80q-16 0 -50 3t-50 3q-33 0 -95.5 -5t-95.5 -5q-37 0 -66.5 22.5t-29.5 59.5z" />
<glyph unicode="&#x2018;" horiz-adv-x="2166" d="M211 10q0 180 233 262q168 59 387 60q55 0 97.5 -30t42.5 -83q0 -84 -142 -98q-88 -4 -266 -19q-141 -14 -141 -102q0 -74 184 -111q125 -25 260 -24h416q164 0 326 43q233 61 233 180q0 76 -158 76q-55 0 -159 -14q-125 -16 -162 -21q-51 -6 -105 16q-63 27 -63 74 q0 59 201 111q242 61 266 78l16 49q0 8 -20 90l-8 4q-127 -82 -242 -82q-123 0 -209 59q-100 68 -100 185q0 123 88 184q78 55 205 55q180 0 309 -146.5t129 -328.5q0 -78 -37 -170q111 -25 156 -51q80 -45 80 -133q0 -274 -445 -387q-266 -68 -661 -68q-229 0 -430 68 q-281 94 -281 274zM934 -594q0 96 201 96h75q172 0 172 -94q0 -80 -92 -80q-14 0 -43.5 2t-44.5 2q-31 0 -89 -6t-89 -6q-37 0 -63.5 24.5t-26.5 61.5zM942 1071q0 94 90 94q37 0 63.5 -26.5t26.5 -63.5q0 -94 -90 -94t-90 90zM1260 721q0 -31 21.5 -57.5t51.5 -26.5 q47 0 111 20q73 23 96 54q-88 80 -197 80q-29 0 -56 -20.5t-27 -49.5z" />
<glyph unicode="&#x2019;" horiz-adv-x="1005" d="M184 129q0 39 22.5 76t59.5 33l244 -33q63 -8 131 67q12 47 10 52l-119 753q-6 37 26 73t69 36q72 0 102 -76q2 -4 12 -78q8 -51 66 -391q43 -256 43 -381q0 -129 -143 -203q-117 -59 -258 -59q-264 0 -265 131zM209 924q0 45 28.5 81.5t71.5 36.5q27 0 43 -10 q43 -20 62 -110q90 -459 90 -527q0 -41 -27.5 -74.5t-68.5 -33.5q-37 0 -70 22.5t-41 57.5q-16 74 -51 282q-37 221 -37 275z" />
<glyph unicode="&#x201a;" horiz-adv-x="2000" d="M-43 0v195q82 0 78 -2q-6 0 14 0q23 -2 62 -3q131 -2 415 -4q63 0 164 15q-182 72 -350 180q-240 154 -240 270q0 31 21.5 55.5t52.5 24.5q45 0 84 -41q20 -25 61 -72q193 -215 531 -280q92 -12 276 -39q203 -33 195 -104q227 0 287 10q170 29 170 149q0 45 -93.5 106.5 t-93.5 102.5q0 37 30 62.5t69 25.5q109 0 192 -98q78 -94 78 -205q0 -170 -213 -268q-172 -80 -365 -80q-8 -2 -22 -2q-88 0 -203 106q-41 -35 -450 -71q-354 -33 -449 -33h-301zM645 -283q0 41 32 68t73 27q43 0 72.5 -27t29.5 -68q0 -39 -32 -67.5t-70 -28.5 q-39 0 -72 28.5t-33 67.5zM1561 977q0 41 31.5 66.5t72.5 25.5q100 0 100 -92q0 -39 -30.5 -68.5t-69.5 -29.5t-71.5 29.5t-32.5 68.5z" />
<glyph unicode="&#x201c;" horiz-adv-x="1439" d="M-63 0v195h301l59 47q0 45 10 73q27 10 35 11q61 0 175 -65.5t175 -65.5h230q119 0 176 22q96 37 96 139q0 45 -89 109.5t-89 101.5t29.5 62.5t66.5 25.5q106 0 186 -100q74 -94 74 -203q0 -352 -418 -352q-100 0 -219 20l-2 -10q27 -61 27 -141q0 -162 -127 -162 q-154 0 -230 143q-23 41 -90 277q-23 -51 -82 -89t-116 -38h-178zM868 899q0 72 119 92q47 8 174 8q160 0 160 -98q0 -80 -66 -80q-16 0 -50 3t-50 3q-33 0 -95.5 -5t-94.5 -5q-37 0 -67 22.5t-30 59.5z" />
<glyph unicode="&#x201d;" horiz-adv-x="1800" d="M129 80q0 113 98.5 192.5t212.5 79.5q104 0 264 -78.5t175 -78.5h276q25 14 137.5 26t165.5 33q84 33 84 102q0 45 -89 110.5t-89 100.5q0 37 29.5 62.5t66.5 25.5q106 0 187 -100q73 -94 73 -203q0 -170 -204 -270q-166 -82 -361 -82q-127 0 -119 -2l-90 29 q29 -127 29 -152q0 -164 -123 -164q-152 0 -240 148q-70 115 -88 284q-10 27 -73 27q-139 0 -140 -76q0 -14 118 -308t118 -394q0 -84 -86 -84q-39 0 -189 368q-143 354 -143 404zM1155 899q0 72 119 92q47 8 174 8q160 0 160 -98q0 -80 -66 -80q-16 0 -50 3t-50 3 q-33 0 -95.5 -5t-95.5 -5q-37 0 -66.5 22.5t-29.5 59.5z" />
<glyph unicode="&#x201e;" horiz-adv-x="1900" d="M109 508q0 27 19 46t46 19q-92 0 41 -32q115 -27 307.5 -59.5t241.5 -32.5q57 0 173 15t173 15q96 1 96 -110q0 -10 -10 -52l-41 -28q-246 -4 -436 -84q-256 -106 -256 -316q0 -172 231 -247q156 -51 373 -52q86 0 86 -86q0 -94 -143 -94q-240 0 -453 113 q-258 137 -258 354q0 131 57 225q72 88 142 179q-78 20 -233.5 70t-155.5 157zM815 -82q0 43 31 68.5t74 25.5q100 0 100 -94q0 -41 -29.5 -68.5t-70.5 -27.5t-73 27.5t-32 68.5zM971 164q0 33 27.5 64.5t60.5 31.5q6 0 49 -32.5t111 -32.5q416 0 415 159q0 45 -93 106.5 t-93 102.5q0 37 29.5 62.5t68.5 25.5q109 0 193 -98q78 -94 78 -205q0 -184 -187 -280q-147 -76 -350 -76q-63 0 -119 8q-66 16 -121 57q-70 49 -69 107zM1460 950q0 41 31 66.5t74 25.5q100 0 100 -92q0 -41 -29.5 -69.5t-70.5 -28.5t-73 28.5t-32 69.5z" />
<glyph unicode="&#x2022;" horiz-adv-x="1646" d="M131 100q0 113 164 113q29 0 85 -6t83 -6l239 227q334 309 592 309q115 0 205 -78.5t90 -193.5q0 -319 -563 -420q-242 -43 -774 -43q-121 0 -121 98zM532 1268q0 37 24 65.5t58 28.5q41 0 64 -29q12 -14 98 -339.5t86 -358.5q0 -31 -29.5 -52.5t-62.5 -21.5 q-39 0 -55 25q-23 86 -101 360q-82 293 -82 322zM700 211q10 -6 21 -6q168 0 381 51q284 67 284 182q0 51 -61 84q-53 29 -108 29q-121 0 -285 -121q-125 -92 -232 -219z" />
<glyph unicode="&#x2026;" horiz-adv-x="1597" d="M152 55q0 129 89 229.5t218 100.5q92 0 92 -70q0 -37 -66 -69q-106 -53 -125 -68q-66 -53 -65 -147q0 -123 158 -183q111 -41 264 -41q195 0 377 39q283 59 282 187q0 55 -149 55q-41 0 -97 -4l-57 -4q-131 0 -221 55q-106 66 -107 189q0 127 168 243q158 111 291 111 q82 0 145.5 -49t63.5 -129q0 -86 -57 -86q-14 0 -80 28.5t-115 28.5q-78 0 -143 -33q-82 -41 -82 -108q0 -66 203 -66q31 0 71 2l45 2q137 0 201 -41q82 -53 82 -182q0 -213 -297 -338q-231 -98 -485 -98q-225 0 -400 108q-205 127 -204 338zM684 -604q0 72 125 90 q41 6 178 6q150 0 150 -92q0 -82 -84 -82q-14 0 -45 3t-45 3q-31 0 -93.5 -6t-93.5 -6q-39 0 -65.5 23.5t-26.5 60.5z" />
<glyph unicode="&#x202f;" horiz-adv-x="412" />
<glyph unicode="&#x2039;" horiz-adv-x="2048" d="M117 16q0 182 233 271q164 61 389 61q55 0 96.5 -31.5t41.5 -85.5q0 -82 -142 -94q-88 -4 -264 -18q-141 -14 -141 -103q0 -139 536 -139q256 0 492 35q373 55 373 172q0 41 -56 68q-45 23 -92 22q-59 0 -175 -16.5t-173 -16.5q-141 0 -141 90q0 74 125 99q78 10 231 35 q125 23 125 88q0 10 -2 18l-152 672q-8 35 25 65.5t70 30.5q-6 0 67 -37q43 -102 99.5 -376.5t56.5 -381.5q0 -76 -49 -122q74 -27 147 -52q78 -37 78 -135q0 -268 -422 -381q-266 -72 -637 -71q-266 0 -450 53q-289 84 -289 280zM729 -594q0 96 201 96h76q172 0 172 -94 q0 -80 -93 -80q-14 0 -43.5 2t-44.5 2q-31 0 -89 -6t-89 -6q-37 0 -63.5 24.5t-26.5 61.5z" />
<glyph unicode="&#x203a;" horiz-adv-x="2066" d="M-43 0v195q82 0 78 -2q-6 0 14 0q23 -2 62 -3q131 -2 415 -4q63 0 164 15q-182 72 -350 180q-240 154 -240 270q0 31 21.5 55.5t52.5 24.5q45 0 84 -41q20 -25 61 -72q193 -215 531 -280q92 -12 276 -39q203 -33 195 -104h68q201 0 200 65q-41 57 -41 98q0 86 61.5 142.5 t147.5 56.5q98 0 178 -62.5t80 -158.5q0 -172 -235 -266q-174 -70 -375 -70h-35v2q-123 16 -213 102q-41 -35 -450 -71q-354 -33 -449 -33h-301zM645 -283q0 41 32 68t73 27q43 0 72.5 -27t29.5 -68q0 -39 -32 -67.5t-70 -28.5q-39 0 -72 28.5t-33 67.5z" />
<glyph unicode="&#x205f;" horiz-adv-x="516" />
<glyph unicode="&#x2122;" horiz-adv-x="1093" d="M121 518q0 33 32.5 58.5t65.5 25.5q61 0 187 -26.5t190 -26.5q72 0 338 45q37 6 65.5 -22.5t28.5 -65.5q0 -10 -14 -47q-119 -98 -283 -131q84 -123 309 -123l4 -10h146v-195h-156q-129 0 -256 66q-139 70 -190 178q-115 -53 -189 -152q-78 -104 -77 -225 q0 -113 120 -195q72 -49 222 -106q121 -47 120 -70q0 -39 -35.5 -67.5t-74.5 -28.5q-162 0 -338 139q-186 147 -186 305q0 141 72.5 270.5t191.5 209.5q-47 25 -170 89t-123 105z" />
<glyph unicode="&#xe000;" horiz-adv-x="1925" d="M0 0v1925h1925v-1925h-1925z" />
</font>
</defs>
</svg>
