<?xml version="1.0" standalone="no"?>
<!DOCTYPE svg PUBLIC "-//W3C//DTD SVG 1.1//EN" "http://www.w3.org/Graphics/SVG/1.1/DTD/svg11.dtd" >
<svg>
<metadata>
Created by FontForge 20090914 at Wed Mar  6 15:51:54 2013
 By www-data
Generated by Fontographer 4.1.5
</metadata>
<defs>
<font id="AXtFAShkoul" horiz-adv-x="0" >
  <font-face 
    font-family="AXtFAShkoul"
    font-weight="400"
    font-stretch="normal"
    units-per-em="1000"
    panose-1="0 0 4 0 0 0 0 0 0 0"
    ascent="800"
    descent="-200"
    x-height="395.999"
    cap-height="534"
    bbox="-85.999 -491.999 1315 1008"
    underline-thickness="20"
    underline-position="-123"
    unicode-range="U+0020-U+F002"
  />
<missing-glyph horiz-adv-x="500" 
d="M63 0v720h375v-720h-375zM125 63h250v595h-250v-595z" />
    <glyph glyph-name=".notdef" horiz-adv-x="500" 
d="M63 0v720h375v-720h-375zM125 63h250v595h-250v-595z" />
    <glyph glyph-name="space" unicode=" " horiz-adv-x="150" 
 />
    <glyph glyph-name="exclam" unicode="!" 
 />
    <glyph glyph-name="quotedbl" unicode="&#x22;" horiz-adv-x="464" 
d="M266 575c0 -12.667 -5.50195 -23.333 -16.502 -32s-22.833 -13 -35.5 -13c-13.333 0 -25.166 4.33301 -35.499 13s-15.5 19.667 -15.5 33c0 12.667 5.33301 23.5 16 32.5s22.667 13.5 36 13.5c12.667 0 24.334 -4.66699 35.001 -14s16 -20.333 16 -33zM350.998 460.001
c0 -12.667 -5.33203 -23.666 -15.999 -32.999s-22.334 -14 -35.001 -14c-13.333 0 -25.333 4.66699 -36 14s-16 20.666 -16 33.999c0 12.667 5.5 23.5 16.5 32.5s23.167 13.5 36.5 13.5c12.667 0 24.167 -4.66699 34.5 -14s15.5 -20.333 15.5 -33zM210.999 464.002
c0 -13.333 -5.16699 -24.5 -15.5 -33.5s-22.166 -13.5 -35.499 -13.5c-14 0 -26.167 4.5 -36.5 13.5s-15.5 20.167 -15.5 33.5s5.16699 24.333 15.5 33s22.5 13 36.5 13c13.333 0 25.166 -4.33301 35.499 -13s15.5 -19.667 15.5 -33zM426.999 199.002
c0 -68 -30.333 -119.667 -91 -155c-50 -29.333 -111 -44 -183 -44h-205v95c14 0 34.833 -0.5 62.5 -1.5s48.5 -1.5 62.5 -1.5c176.667 0 265 40 265 120c0 29.333 -13.667 52.666 -41 69.999c-24 15.333 -51.333 23 -82 23c-16 0 -31.333 -3 -46 -9
c-19.333 -7.33301 -29 -17.666 -29 -30.999c0 -19.333 13.333 -29 40 -29c10.667 0 26.334 3.33301 47.001 10s35.667 10 45 10c21.333 0 32 -13.333 32 -40c0 -36 -39 -54 -117 -54c-33.333 0 -63.333 9.33301 -90 28c-30 20 -45 46 -45 78c0 35.333 18.667 64.333 56 87
c32 20 66.667 30 104 30c57.333 0 106.666 -16.333 147.999 -49c44.667 -36 67 -81.667 67 -137z" />
    <glyph glyph-name="numbersign" unicode="#" horiz-adv-x="493" 
d="M326 585c0 -12.667 -5.50195 -23.333 -16.502 -32s-22.833 -13 -35.5 -13c-13.333 0 -25.166 4.33301 -35.499 13s-15.5 19.667 -15.5 33c0 12.667 5.33301 23.5 16 32.5s22.667 13.5 36 13.5c12.667 0 24.334 -4.66699 35.001 -14s16 -20.333 16 -33zM410.998 470.001
c0 -12.667 -5.33203 -23.666 -15.999 -32.999s-22.334 -14 -35.001 -14c-13.333 0 -25.333 4.66699 -36 14s-16 20.666 -16 33.999c0 12.667 5.5 23.5 16.5 32.5s23.167 13.5 36.5 13.5c12.667 0 24.167 -4.66699 34.5 -14s15.5 -20.333 15.5 -33zM270.999 474.002
c0 -13.333 -5.16699 -24.5 -15.5 -33.5s-22.166 -13.5 -35.499 -13.5c-14 0 -26.167 4.5 -36.5 13.5s-15.5 20.167 -15.5 33.5s5.16699 24.333 15.5 33s22.5 13 36.5 13c13.333 0 25.166 -4.33301 35.499 -13s15.5 -19.667 15.5 -33zM513.999 95.002l-0.00195312 -94.999
h-139c-55.333 0 -100.666 14 -135.999 42c-15.333 -11.333 -44.333 -21.333 -87 -30c-38 -8 -69.333 -12 -94 -12h-90v95c63.333 -0.666992 123.333 6.33301 180 21c-19.333 33.333 -29 67.333 -29 102c0 51.333 17.833 93.166 53.5 125.499s79.167 48.5 130.5 48.5
c36.667 0 67.334 -14 92.001 -42s37 -60.667 37 -98c0 -66.667 -21.667 -114.334 -65 -143.001c4 -9.33301 27 -14.666 69 -15.999c-56.667 1.33301 -30.667 2 78 2zM336.997 229.003c0 16 -5.33203 30.834 -15.999 44.501s-23.667 20.5 -39 20.5
c-18.667 0 -37.334 -9.83301 -56.001 -29.5s-28 -38.834 -28 -57.501c0 -10 8.83301 -25 26.5 -45s31.167 -30 40.5 -30c10 0 25.667 11.667 47 35c16.667 18 25 38.667 25 62z" />
    <glyph glyph-name="dollar" unicode="$" 
 />
    <glyph glyph-name="percent" unicode="%" horiz-adv-x="381" 
d="M174 438c0 -13.333 -4.99902 -24.499 -14.999 -33.499s-21.667 -13.5 -35 -13.5s-25.333 4.5 -36 13.5s-16 19.833 -16 32.5c0 13.333 5.16699 24.666 15.5 33.999s22.166 14 35.499 14c14 0 26 -4.5 36 -13.5s15 -20.167 15 -33.5zM350.001 495.001l-267 -591l-26 26
l262 583zM296.001 -12.999c0 -14 -4.83203 -25.333 -14.499 -34s-21.5 -13 -35.5 -13c-12.667 0 -24.334 4.5 -35.001 13.5s-16 19.833 -16 32.5c0 14 5 25.5 15 34.5s22 13.5 36 13.5c13.333 0 25 -4.5 35 -13.5s15 -20.167 15 -33.5z" />
    <glyph glyph-name="ampersand" unicode="&#x26;" horiz-adv-x="1022" 
d="M856 585c0 -12.667 -5.50195 -23.333 -16.502 -32s-22.833 -13 -35.5 -13c-13.333 0 -25.166 4.33301 -35.499 13s-15.5 19.667 -15.5 33c0 12.667 5.33301 23.5 16 32.5s22.667 13.5 36 13.5c12.667 0 24.334 -4.66699 35.001 -14s16 -20.333 16 -33zM940.998 470.001
c0 -12.667 -5.33203 -23.666 -15.999 -32.999s-22.334 -14 -35.001 -14c-13.333 0 -25.333 4.66699 -36 14s-16 20.666 -16 33.999c0 12.667 5.5 23.5 16.5 32.5s23.167 13.5 36.5 13.5c12.667 0 24.167 -4.66699 34.5 -14s15.5 -20.333 15.5 -33zM800.999 474.002
c0 -13.333 -5.16699 -24.5 -15.5 -33.5s-22.166 -13.5 -35.499 -13.5c-14 0 -26.167 4.5 -36.5 13.5s-15.5 20.167 -15.5 33.5s5.16699 24.333 15.5 33s22.5 13 36.5 13c13.333 0 25.166 -4.33301 35.499 -13s15.5 -19.667 15.5 -33zM1049 95.002l0.000976562 -94.9961h-118
c-54.667 0 -102.667 13 -144 39c-74.667 -36 -207.334 -54 -398.001 -54c-216.667 0 -325 54 -325 162c0 74 41 123 123 147c45.333 13.333 117.333 20 216 20c56 0 84 -14 84 -42c0 -22.667 -30.333 -36.334 -91 -41.001c-37.333 -2 -93.666 -6 -168.999 -12
c-60.667 -6.66699 -91 -28 -91 -64c0 -45.333 60 -68 180 -68c225.333 0 351.666 8 378.999 24c-19.333 37.333 -29 73.333 -29 108c0 49.333 18 90.166 54 122.499s78.667 48.5 128 48.5c38 0 69 -13.833 93 -41.5s36 -60.834 36 -99.501c0 -62 -21.667 -110 -65 -144
c6 -6.66699 27.667 -10.334 65 -11.001c-39.333 0.666992 -15.333 1 72 1zM884 229.006c0 14 -5.5 27.5 -16.5 40.5s-23.5 19.5 -37.5 19.5c-19.333 0 -38.333 -9.33301 -57 -28s-28 -37.667 -28 -57c0 -12 8.5 -27 25.5 -45s31.167 -27 42.5 -27c16 0 32 12.333 48 37
c15.333 22.667 23 42.667 23 60z" />
    <glyph glyph-name="quotesingle" unicode="'" horiz-adv-x="192" 
d="M142 554c0 -20.667 -4.66895 -52.668 -14.002 -96.001c-11.333 -50.667 -22.666 -76 -33.999 -76s-22.666 25.333 -33.999 76c-9.33301 42.667 -14 74.334 -14 95.001c0 14 4.5 26.167 13.5 36.5s20.5 15.5 34.5 15.5c32 0 48 -17 48 -51z" />
    <glyph glyph-name="parenleft" unicode="(" horiz-adv-x="461" 
d="M368 700c0 -6 -15.334 -27.6699 -46.001 -65.0029c-87.333 -107.333 -131 -229.666 -131 -366.999c0 -98 30.333 -214.667 91 -350c21.333 -47.333 32 -71.666 32 -72.999c0 -22 -11.667 -33 -35 -33c3.33301 0 -10 5 -40 15c-92.667 126.667 -139 284 -139 472
c0 45.333 13.667 105 41 179c24.667 68.667 51.334 124 80.001 166c40 59.333 79.667 89 119 89c7.33301 0 13.833 -3.66699 19.5 -11s8.5 -14.666 8.5 -21.999z" />
    <glyph glyph-name="parenright" unicode=")" horiz-adv-x="452" 
d="M364 267c0 -65.333 -16.667 -152.001 -50 -260.001c-40 -130 -83.667 -195 -131 -195c-24 0 -36 11 -36 33c0 2.66699 10.667 27.334 32 74.001c62 136 93 252 93 348c0 82 -15.667 157.667 -47 227c-20 44 -49.333 90 -88 138c-31.333 38.667 -47 61 -47 67
c0 21.333 9.66699 32 29 32c7.33301 0 17 -3 29 -9c61.333 -24 114.333 -90.333 159 -199c38 -92.667 57 -178 57 -256z" />
    <glyph glyph-name="asterisk" unicode="*" horiz-adv-x="593" 
d="M460 94c-18 0 -41.333 10.333 -70 31l-56 42.5c-24.667 19 -39 28.5 -43 28.5c-1.33301 0 -2.33301 -0.333008 -3 -1l-96 -107c-13.333 -14.667 -32 -22 -56 -22s-36 11.333 -36 34c0 24 19.333 54.333 58 91c8.66699 8.66699 31.334 29 68.001 61l-138 81
c-8 4.66699 -12 13.667 -12 27c0 26 12.667 39 38 39c22 0 52.667 -12.667 92 -38c9.33301 -6 34.333 -24.333 75 -55c2.66699 0 33 32 91 96c17.333 19.333 34.666 29 51.999 29c9.33301 0 17.5 -3.83301 24.5 -11.5s10.5 -16.5 10.5 -26.5c0 -22 -15 -47.667 -45 -77
c-8 -8 -28.667 -27 -62 -57v-5l121 -84c12.667 -8.66699 19 -23.667 19 -45c0 -20.667 -10.667 -31 -32 -31z" />
    <glyph glyph-name="plus" unicode="+" horiz-adv-x="593" 
d="M525 253c0 -34 -35.6631 -50.999 -106.996 -50.999c-8.66699 0 -21.334 0.5 -38.001 1.5s-29 1.5 -37 1.5l-4 -3l26 -145c2 -10.667 -1.16699 -22.5 -9.5 -35.5s-17.833 -19.5 -28.5 -19.5c-23.333 0 -39.333 21 -48 63s-14.334 81 -17.001 117
c-2.66699 15.333 -6 23 -10 23l-144 -8c-12.667 -0.666992 -27 4.5 -43 15.5s-24 22.5 -24 34.5c0 32 37.333 48 112 48c17.333 0 37.666 -0.666992 60.999 -2l35 -3l-41 154c-2.66699 9.33301 0.5 18.666 9.5 27.999s18.5 14 28.5 14c25.333 0 45.333 -27.333 60 -82
c5.33301 -20 11.666 -58.333 18.999 -115c2.66699 -2 47 -1 133 3c44.667 2 67 -11 67 -39z" />
    <glyph glyph-name="comma" unicode="," horiz-adv-x="325" 
d="M228 218l-37.999 -47.0029c-25.333 -31.333 -39.333 -52.666 -42 -63.999c2 -2.66699 6 -3.66699 12 -3c12 1.33301 17 2 15 2c28.667 0 43 -17.667 43 -53c0 -15.333 -7.16699 -28.166 -21.5 -38.499s-29.5 -15.5 -45.5 -15.5c-18.667 0 -34.334 7.33301 -47.001 22
s-19 31.334 -19 50.001c0 45.333 21.667 87 65 125c28.667 24.667 49 37 61 37c11.333 0 17 -5 17 -15z" />
    <glyph glyph-name="hyphen" unicode="-" horiz-adv-x="589" 
d="M533 203c0 -11.333 -4.33203 -21.333 -12.999 -30s-18.667 -13.667 -30 -15c-140.667 -16.667 -259.334 -25 -356.001 -25c-62 0 -93 17.333 -93 52c0 23.333 25.333 37 76 41c142.667 10.667 253.667 16 333 16c55.333 0 83 -13 83 -39z" />
    <glyph glyph-name="hyphen" unicode="&#x2010;" horiz-adv-x="589" 
d="M533 203c0 -11.333 -4.33203 -21.333 -12.999 -30s-18.667 -13.667 -30 -15c-140.667 -16.667 -259.334 -25 -356.001 -25c-62 0 -93 17.333 -93 52c0 23.333 25.333 37 76 41c142.667 10.667 253.667 16 333 16c55.333 0 83 -13 83 -39z" />
    <glyph glyph-name="period" unicode="." horiz-adv-x="403" 
d="M206 57c0 -17.333 -6.16895 -31.5 -18.502 -42.5s-27.166 -16.5 -44.499 -16.5c-16 0 -30.667 5.66699 -44 17s-20 25 -20 41c0 16.667 6.33301 30.667 19 42s27.334 17 44.001 17c17.333 0 32.333 -5.33301 45 -16s19 -24.667 19 -42z" />
    <glyph glyph-name="slash" unicode="/" horiz-adv-x="381" 
d="M350 495l-267 -591l-26 26l262 583z" />
    <glyph glyph-name="zero" unicode="0" horiz-adv-x="450" 
d="M311 193c0 -25.333 -18.001 -37.999 -54.001 -37.999c-7.33301 0 -25 11.667 -53 35c-24 20 -37.333 31.333 -40 34c-16.667 16 -25 30.667 -25 44c0 25.333 14 38 42 38c12.667 0 22.667 -2.33301 30 -7c32.667 -20.667 64.334 -49.334 95.001 -86.001
c3.33301 -4 5 -10.667 5 -20z" />
    <glyph glyph-name="one" unicode="1" horiz-adv-x="450" 
d="M330 55c0 -34 -15.999 -51.002 -47.999 -51.002c-17.333 0 -30 23.333 -38 70c-2.66699 22.667 -7.33398 56.667 -14.001 102c-18 94.667 -50 183.334 -96 266.001c-9.33301 16.667 -14 28.334 -14 35.001c0 12 5.66699 22.167 17 30.5s23.333 12.5 36 12.5
c40 0 77.667 -68.333 113 -205c29.333 -113.333 44 -200 44 -260z" />
    <glyph glyph-name="two" unicode="2" horiz-adv-x="450" 
d="M370 477c0 -10 -3.66602 -19.165 -10.999 -27.498s-16 -12.5 -26 -12.5l-33 11c-22.667 7.33301 -40.667 11 -54 11c-40.667 0 -74 -10.667 -100 -32l133 -185c55.333 -81.333 83 -148 83 -200c0 -26 -12.667 -39 -38 -39c-22.667 0 -36.334 9 -41.001 27
c-2 7.33301 -4.66699 18 -8 32c-8 33.333 -43.667 92.666 -107 177.999c-58.667 78.667 -88 129.667 -88 153c0 47.333 15.333 83.666 46 108.999c28 23.333 66 35 114 35c86.667 0 130 -20 130 -60z" />
    <glyph glyph-name="three" unicode="3" horiz-adv-x="450" 
d="M425 436c0 -30 -6.99902 -55.3311 -20.999 -75.998c-16 -24.667 -38.333 -37 -67 -37c-14 0 -30.333 6 -49 18c-22.667 -18 -37.334 -27.667 -44.001 -29c-11.333 -2 -28.333 -5.66699 -51 -11c62.667 -123.333 94 -210.333 94 -261c0 -25.333 -11.667 -38 -35 -38
c-11.333 0 -22.333 3.66699 -33 11c-6 8 -22.333 43.667 -49 107l-51 122l-53 111c-27.333 58.667 -41 92.667 -41 102c0 23.333 13.333 35 40 35c14 0 32.667 -13.333 56 -40c28.667 -32 50.334 -51.667 65.001 -59c22.667 3.33301 34 15.333 34 36
c0 6 -0.833008 14.667 -2.5 26s-2.5 20 -2.5 26c0 3.33301 3 6.66602 9 9.99902s11 5 15 5c17.333 0 33 -12 47 -36c17.333 -29.333 29.666 -46.333 36.999 -51l3 1l11 15c0.666992 6 0.666992 14.667 0 26s-1 19.666 -1 24.999c0 28 11.667 42 35 42
c36 0 54 -26.667 54 -80z" />
    <glyph glyph-name="four" unicode="4" horiz-adv-x="450" 
d="M424 44c0 -15.333 -6.49805 -26.8311 -19.498 -34.498s-27.833 -11.5 -44.5 -11.5c-61.333 0 -113.333 5.66699 -156 17c-70 18.667 -105 50 -105 94c0 17.333 15.5 42.833 46.5 76.5s46.5 53.167 46.5 58.5c0 10 -14.333 19.667 -43 29
c-41.333 13.333 -68 23.333 -80 30c-28.667 16 -43 37.333 -43 64c0 37.333 20 73 60 107c38 33.333 76 50 114 50c15.333 0 29.166 -4.33301 41.499 -13s18.5 -20.334 18.5 -35.001c0 -18 -12.667 -30.667 -38 -38l-60 -12c-28 -10 -48.333 -29.333 -61 -58l4 -5
c62 -22 98.333 -35.333 109 -40c48 -22 72 -46.333 72 -73c0 -19.333 -12.333 -43.333 -37 -72l-57 -64c13.333 -9.33301 58.666 -18 135.999 -26c64 -6.66699 96 -21.334 96 -44.001z" />
    <glyph glyph-name="five" unicode="5" horiz-adv-x="450" 
d="M408 137c0 -39.333 -31.001 -72.667 -93.001 -100c-50 -22 -98.667 -33 -146 -33c-35.333 0 -65.166 14.333 -89.499 43s-36.5 61 -36.5 97c0 34.667 11.333 65.334 34 92.001c-13.333 4 -20 13.667 -20 29c0 29.333 10.333 78.666 31 147.999
c24 80.667 47.333 121 70 121c64 0 123.333 -51 178 -153c48 -90 72 -171.333 72 -244zM328.999 178.999c0 21.333 -18.334 68.001 -55.001 140.001c-38.667 76 -67 114 -85 114c-10.667 0 -21.667 -15.667 -33 -47c-10 -28 -15 -48.667 -15 -62c0 -8 7.16699 -17 21.5 -27
s21.5 -20.333 21.5 -31c0 -1.33301 -11.833 -18.333 -35.5 -51s-35.5 -63.667 -35.5 -93c0 -10 8.66699 -17.667 26 -23c12.667 -4 25.334 -6 38.001 -6c29.333 0 60.333 7.33301 93 22c39.333 17.333 59 38.666 59 63.999z" />
    <glyph glyph-name="six" unicode="6" horiz-adv-x="450" 
d="M427 39c0 -26.667 -11.998 -40 -35.998 -40c-14 0 -25.333 6.33301 -34 19c-18.667 27.333 -37.334 91.333 -56.001 192c-18.667 98.667 -38.334 162 -59.001 190c-0.666992 0 -3.33398 0.666992 -8.00098 2c-3.33301 0.666992 -5.66602 0.666992 -6.99902 0
c-6 -0.666992 -19.333 -3 -40 -7c-18 -3.33301 -31.333 -5 -40 -5c-26 0 -52.333 8 -79 24c-30 18 -45 39 -45 63c0 10.667 3.16699 20 9.5 28s14.833 12 25.5 12c12 0 30.667 -3.33301 56 -10s44.333 -10 57 -10c10.667 0 27 1.66699 49 5s38.333 5 49 5
c16.667 0 29.334 -7.66699 38.001 -23c13.333 -23.333 36.666 -96.833 69.999 -220.5s50 -198.5 50 -224.5z" />
    <glyph glyph-name="seven" unicode="7" horiz-adv-x="450" 
d="M430 489c0 -10.667 -6.33203 -25.668 -18.999 -45.001c-6.66699 -9.33301 -16.334 -23.666 -29.001 -42.999c-20 -32.667 -39.333 -80.334 -58 -143.001c-7.33301 -24 -14 -63.667 -20 -119c-6 -52.667 -13.333 -91.667 -22 -117c-5.33301 -15.333 -18.333 -23 -39 -23
c-11.333 0 -18 0.333008 -20 1c-14.667 3.33301 -25.334 20 -32.001 50l-12 67c-5.33301 24.667 -34.333 93.667 -87 207c-48 104 -72 159 -72 165c0 32 11 48 33 48c36.667 0 74.334 -49 113.001 -147c27.333 -69.333 47 -135.666 59 -198.999
c55.333 229.333 110.333 344 165 344c10.667 0 20 -4.83301 28 -14.5s12 -20.167 12 -31.5z" />
    <glyph glyph-name="eight" unicode="8" horiz-adv-x="450" 
d="M430 48c0 -11.333 -4.00098 -22.001 -12.001 -32.001s-17.333 -15 -28 -15c-32.667 0 -68 49.333 -106 148c-30 78 -48.667 143 -56 195h-1c-10 -60.667 -30.333 -127.667 -61 -201c-40 -96 -78.667 -144 -116 -144c-9.33301 0 -17 6.33301 -23 19
c-4.66699 10 -7 20.333 -7 31c0 21.333 11.667 50.5 35 87.5s38.333 63.5 45 79.5l43 99c15.333 36.667 27 71.334 35 104.001c4.66699 21.333 12 53 22 95c4 17.333 19 26 45 26c22.667 0 36.334 -9.33301 41.001 -28c6.66699 -26 15.667 -79.667 27 -161
c9.33301 -66 24 -121 44 -165c2.66699 -6 16.667 -30 42 -72c20.667 -34.667 31 -56.667 31 -66z" />
    <glyph glyph-name="nine" unicode="9" horiz-adv-x="450" 
d="M412 40c0 -11.333 -3.5 -21.333 -10.5 -30s-15.833 -13 -26.5 -13c-30 0 -55.667 32 -77 96l-38 134c-32 -18.667 -64.333 -28 -97 -28c-83.333 0 -125 44 -125 132c0 40 19.667 86 59 138c42 55.333 82 83 120 83c22 0 41.167 -8 57.5 -24s26.5 -35.333 30.5 -58
c14.667 -82 31.667 -166.667 51 -254l31 -94c16.667 -50 25 -77.333 25 -82zM243 345c0 14 -3.16699 33.1689 -9.5 57.502s-12.833 41.833 -19.5 52.5h-4c-19.333 0 -38 -14.667 -56 -44c-17.333 -26.667 -26 -50.334 -26 -71.001c0 -10.667 4.66699 -20.334 14 -29.001
s19.333 -13 30 -13c18 0 33.333 3.33301 46 10c16.667 8.66699 25 21 25 37z" />
    <glyph glyph-name="colon" unicode=":" horiz-adv-x="351" 
d="M206 268c0 -17.333 -6 -31.5 -18 -42.5s-26.667 -16.5 -44 -16.5c-16.667 0 -31.5 5.5 -44.5 16.5s-19.5 24.833 -19.5 41.5s6.33301 30.667 19 42s27.334 17 44.001 17c17.333 0 32.166 -5.33301 44.499 -16s18.5 -24.667 18.5 -42zM206 57
c0 -17.333 -6.16895 -31.5 -18.502 -42.5s-27.166 -16.5 -44.499 -16.5c-16 0 -30.667 5.66699 -44 17s-20 25 -20 41c0 16.667 6.33301 30.667 19 42s27.334 17 44.001 17c17.333 0 32.333 -5.33301 45 -16s19 -24.667 19 -42z" />
    <glyph glyph-name="semicolon" unicode=";" horiz-adv-x="349" 
d="M202 289c0 -0.666992 -10 -12.833 -30 -36.5s-31.333 -41.834 -34 -54.501h9c31.333 0 47 -13.667 47 -41c0 -12 -5.66699 -22.333 -17 -31s-23.333 -13 -36 -13c-15.333 0 -27.666 6 -36.999 18s-14 26 -14 42c0 6 4 22 12 48
c3.33301 10.667 15.666 26.334 36.999 47.001s37 31 47 31c10.667 0 16 -3.33301 16 -10zM192 45.001c0 -12.667 -5.00098 -23.666 -15.001 -32.999s-21.333 -14 -34 -14c-13.333 0 -25.5 4.66699 -36.5 14s-16.5 20.666 -16.5 33.999c0 12.667 5.33301 23.667 16 33
s22.334 14 35.001 14c14 0 26 -4.5 36 -13.5s15 -20.5 15 -34.5z" />
    <glyph glyph-name="less" unicode="&#x3c;" horiz-adv-x="1039" 
d="M826 565c0 -12.667 -5.50195 -23.333 -16.502 -32s-22.833 -13 -35.5 -13c-13.333 0 -25.166 4.33301 -35.499 13s-15.5 19.667 -15.5 33c0 12.667 5.33301 23.5 16 32.5s22.667 13.5 36 13.5c12.667 0 24.334 -4.66699 35.001 -14s16 -20.333 16 -33zM910.998 450.001
c0 -12.667 -5.33203 -23.666 -15.999 -32.999s-22.334 -14 -35.001 -14c-13.333 0 -25.333 4.66699 -36 14s-16 20.666 -16 33.999c0 12.667 5.5 23.5 16.5 32.5s23.167 13.5 36.5 13.5c12.667 0 24.167 -4.66699 34.5 -14s15.5 -20.333 15.5 -33zM770.999 454.002
c0 -13.333 -5.16699 -24.5 -15.5 -33.5s-22.166 -13.5 -35.499 -13.5c-14 0 -26.167 4.5 -36.5 13.5s-15.5 20.167 -15.5 33.5s5.16699 24.333 15.5 33s22.5 13 36.5 13c13.333 0 25.166 -4.33301 35.499 -13s15.5 -19.667 15.5 -33zM1006 189.002
c0 -76.667 -52.3359 -134.335 -157.003 -173.002c-76 -28 -161.667 -42 -257 -42h-189c-83.333 0 -153.666 9 -210.999 27c-87.333 27.333 -131 73 -131 137c0 70 36.667 124 110 162c58 30 126.667 45 206 45c12.667 0 24.334 -3.33301 35.001 -10s16 -16 16 -28
c0 -20 -26 -34.667 -78 -44c-84 -14.667 -132 -24 -144 -28c-52 -16.667 -78 -44.667 -78 -84c0 -36 46.667 -61.333 140 -76c54.667 -8.66699 116.334 -13 185.001 -13c126.667 0 216.667 4 270 12c131.333 19.333 197 62.666 197 129.999c0 30 -15.667 53 -47 69
c-24.667 12.667 -53.667 19 -87 19c-14 0 -28 -3 -42 -9c-17.333 -7.33301 -26 -16.666 -26 -27.999c0 -8.66699 4.16699 -15.667 12.5 -21s17.166 -8 26.499 -8c11.333 0 27.5 3.33301 48.5 10s36.833 10 47.5 10c9.33301 0 16.833 -4.83301 22.5 -14.5
s8.5 -19.5 8.5 -29.5c0 -18.667 -15.667 -32 -47 -40c-21.333 -6 -44.666 -9 -69.999 -9c-34.667 0 -65.334 8.33301 -92.001 25c-31.333 19.333 -47 45.333 -47 78c0 36.667 19 66.334 57 89.001c32.667 20 68.334 30 107.001 30c56.667 0 105.667 -16.667 147 -50
c44.667 -35.333 67 -80.666 67 -135.999z" />
    <glyph glyph-name="equal" unicode="=" horiz-adv-x="627" 
d="M535 347c0 -22 -13.667 -36.667 -41 -44c-8.66699 -2.66699 -30.667 -5 -66 -7l-304 -20c-16.667 -1.33301 -34 3 -52 13c-20 10.667 -30 24 -30 40c0 15.333 9.66699 26.333 29 33c16 5.33301 128.667 13 338 23c28 1.33301 49.667 2 65 2
c14.667 0 28.5 -3.33301 41.5 -10s19.5 -16.667 19.5 -30zM556 176c0 -28 -30.667 -44.334 -92 -49.001c-27.333 -0.666992 -68.333 -2 -123 -4l-193 -14c-18.667 -1.33301 -37 2 -55 10c-20.667 10 -31 23.667 -31 41c0 20.667 13.667 33 41 37c54 8 119.333 13.333 196 16
c3.33301 0 69 1.66699 197 5c14.667 0.666992 27.667 -2.66602 39 -9.99902c14 -8 21 -18.667 21 -32z" />
    <glyph glyph-name="greater" unicode="&#x3e;" horiz-adv-x="378" 
d="M356 172c0 -56 -35.001 -100.333 -105.001 -133c-56 -26 -116 -39 -180 -39h-104v95c200.667 0 301 26.667 301 80c0 16.667 -15.167 35 -45.5 55s-45.5 34.667 -45.5 44c0 12 4.83301 22.667 14.5 32s20.5 14 32.5 14c34.667 0 65.334 -15.833 92.001 -47.5
s40 -65.167 40 -100.5zM307.999 -77c0 -13.333 -5 -24.166 -15 -32.499s-22 -12.5 -36 -12.5s-26.167 4.16699 -36.5 12.5s-15.5 19.166 -15.5 32.499s5.16699 24.5 15.5 33.5s22.5 13.5 36.5 13.5s26 -4.5 36 -13.5s15 -20.167 15 -33.5zM170.999 -82
c0 -12.667 -5.33301 -23.501 -16 -32.501s-22.667 -13.5 -36 -13.5s-25.166 4.5 -35.499 13.5s-15.5 20.167 -15.5 33.5c0 12.667 5.5 23.667 16.5 33s22.833 14 35.5 14c13.333 0 25.166 -4.66699 35.499 -14s15.5 -20.666 15.5 -33.999zM253.999 -189.001
c0 -12.667 -5.50098 -23.5 -16.501 -32.5s-23.167 -13.5 -36.5 -13.5c-12 0 -23.333 4.83301 -34 14.5s-16 20.5 -16 32.5c0 12.667 5.33301 23.5 16 32.5s22.334 13.5 35.001 13.5c14 0 26.167 -4.5 36.5 -13.5s15.5 -20.167 15.5 -33.5z" />
    <glyph glyph-name="question" unicode="?" horiz-adv-x="485" 
d="M382 503c0 -30 -6.33203 -59.3311 -18.999 -87.998l-80 45c10 22.667 15 39.667 15 51c0 47.333 -24 71 -72 71c-25.333 0 -47.333 -4.33301 -66 -13c-24 -10.667 -36 -27.334 -36 -50.001c0 -28.667 19.667 -60.334 59 -95.001l108 -95
c39.333 -37.333 59 -78.333 59 -123c0 -10.667 -3.66699 -20.5 -11 -29.5s-16.333 -13.5 -27 -13.5c-15.333 0 -33.333 17 -54 51c-28.667 47.333 -45.334 73 -50.001 77l-111 96c-42.667 38.667 -64 79.667 -64 123c0 50.667 17 92.167 51 124.5s76.333 48.5 127 48.5
c48 0 88.5 -18 121.5 -54s49.5 -78 49.5 -126zM376.001 46.002c0 -30.667 -15 -46.001 -45 -46.001c-15.333 0 -32.333 5.66699 -51 17c-20.667 12 -31 25.333 -31 40c0 13.333 5 26.333 15 39s21.333 19 34 19c8.66699 0 22.5 -6.83301 41.5 -20.5s30.167 -24.5 33.5 -32.5
c2 -5.33301 3 -10.666 3 -15.999z" />
    <glyph glyph-name="at" unicode="@" horiz-adv-x="530" 
d="M480 152c0 -6.66699 -43.6689 -21.332 -131.002 -43.999l-2 -4l43 -139c0.666992 -3.33301 -0.666016 -6.83301 -3.99902 -10.5s-6.66602 -5.5 -9.99902 -5.5c-6.66699 0 -25 12.333 -55 37l-58 48l-160 -77c-10.667 2 -16 7.66699 -16 17c0 8 9.66699 25.667 29 53
l38 54l-51 70c-24.667 34.667 -37.334 58 -38.001 70l17 6l129 -26l32 75c18 40 30.667 60 38 60c3.33301 0 14.333 -18.333 33 -55c20.667 -40 33.334 -62.333 38.001 -67c7.33301 -6.66699 31 -16.334 71 -29.001c38 -12 57 -23 57 -33zM407.998 157.002
c-50 20.667 -76.667 32.667 -80 36c-6 4.66699 -20.667 30.667 -44 78c-17.333 -34.667 -38 -70.667 -62 -108l-110 29l74 -110l-40 -70l121 54c28.667 -20 54.667 -40.333 78 -61l-40 118c22.667 8.66699 57 20 103 34z" />
    <glyph glyph-name="A" unicode="A" horiz-adv-x="379" 
d="M315 262c0 -10.667 -16.668 -24.0029 -50.001 -40.0029s-50 -28.667 -50 -38l37 -37c24.667 -24.667 37 -46 37 -64c0 -25.333 -14 -45.666 -42 -60.999c-23.333 -13.333 -48.666 -20 -75.999 -20c-16.667 0 -33 2.66699 -49 8c-21.333 7.33301 -32 17.333 -32 30
c0 31.333 21.667 47 65 47c30.667 0 46 5.33301 46 16c0 0.666992 -12.167 10.167 -36.5 28.5s-36.5 36.5 -36.5 54.5c0 22.667 18.333 47.334 55 74.001c34.667 25.333 64 38 88 38c10 0 19.833 -3.66699 29.5 -11s14.5 -15.666 14.5 -24.999z" />
    <glyph glyph-name="B" unicode="B" 
d="M214 602c-2 -5.33301 -4.66602 -8 -7.99902 -8s-9.5 1.5 -18.5 4.5s-14.833 4.83301 -17.5 5.5c-25.333 4.66699 -50 7 -74 7c-32 0 -51 -4 -57 -12c-0.666992 -2 -2.33398 -8 -5.00098 -18c-2 -7.33301 -7 -11 -15 -11s-17.167 5.16699 -27.5 15.5
s-15.5 19.5 -15.5 27.5c0 24 29 36 87 36c84.667 0 135 -15.667 151 -47z" />
    <glyph glyph-name="C" unicode="C" 
d="M157 758c0 -4 -10.3311 -10.832 -30.998 -20.499s-31 -17.834 -31 -24.501l22 -22.5c14.667 -15 22 -28.833 22 -41.5c0 -15.333 -8.33301 -27.333 -25 -36c-14 -7.33301 -29.333 -11 -46 -11c-33.333 0 -50 7.66699 -50 23c0 19.333 17 29 51 29
c8.66699 0 14.667 3 18 9c-29.333 23.333 -44 41 -44 53s11.667 26 35 42c21.333 15.333 38.666 23 51.999 23c5.33301 0 11.166 -2.66699 17.499 -8s9.5 -10.333 9.5 -15z" />
    <glyph glyph-name="D" unicode="D" 
d="M177 498c0 -4 -10.3311 -10.832 -30.998 -20.499s-31 -17.834 -31 -24.501l22 -22.5c14.667 -15 22 -28.833 22 -41.5c0 -15.333 -8.33301 -27.333 -25 -36c-14 -7.33301 -29.333 -11 -46 -11c-33.333 0 -50 7.66699 -50 23c0 19.333 17 29 51 29
c8.66699 0 14.667 3 18 9c-29.333 23.333 -44 41 -44 53s11.667 26 35 42c21.333 15.333 38.666 23 51.999 23c5.33301 0 11.166 -2.66699 17.499 -8s9.5 -10.333 9.5 -15z" />
    <glyph glyph-name="E" unicode="E" 
d="M267 -52c0 -4 -10.3311 -10.832 -30.998 -20.499s-31 -17.834 -31 -24.501l22 -22.5c14.667 -15 22 -28.833 22 -41.5c0 -15.333 -8.33301 -27.333 -25 -36c-14 -7.33301 -29.333 -11 -46 -11c-33.333 0 -50 7.66699 -50 23c0 19.333 17 29 51 29
c8.66699 0 14.667 3 18 9c-29.333 23.333 -44 41 -44 53s11.667 26 35 42c21.333 15.333 38.666 23 51.999 23c5.33301 0 11.166 -2.66699 17.499 -8s9.5 -10.333 9.5 -15z" />
    <glyph glyph-name="F" unicode="F" horiz-adv-x="384" 
d="M277 548c0 -4 -10.3311 -10.832 -30.998 -20.499s-31 -17.834 -31 -24.501l22 -22.5c14.667 -15 22 -28.833 22 -41.5c0 -15.333 -8.33301 -27.333 -25 -36c-14 -7.33301 -29.333 -11 -46 -11c-33.333 0 -50 7.66699 -50 23c0 19.333 17 29 51 29
c8.66699 0 14.667 3 18 9c-29.333 23.333 -44 41 -44 53s11.667 26 35 42c21.333 15.333 38.666 23 51.999 23c5.33301 0 11.166 -2.66699 17.499 -8s9.5 -10.333 9.5 -15zM360.002 171.001c0 -62 -40 -107.999 -120 -137.999c-58.667 -22 -125.334 -33 -200.001 -33h-77v95
c78 0 132.333 1.66699 163 5c98 10.667 147 35 147 73c0 16 -15 34.167 -45 54.5s-45 36.833 -45 49.5c0 12 4.83301 22.333 14.5 31s20.834 13 33.501 13c36 0 67 -16.333 93 -49c24 -30.667 36 -64.334 36 -101.001z" />
    <glyph glyph-name="G" unicode="G" horiz-adv-x="250" 
d="M226 52c0 -14 -3.66797 -25.666 -11.001 -34.999c-8 -11.333 -18.667 -17 -32 -17c-20 0 -33.667 10.333 -41 31c-6.66699 18 -22.167 98.333 -46.5 241s-36.5 223.667 -36.5 243c0 14 4.33301 26.833 13 38.5s19.667 17.5 33 17.5c6.66699 0 15.334 -3 26.001 -9
c12.667 -8.66699 22 -30.334 28 -65.001l40 -227c18 -106 27 -178.667 27 -218z" />
    <glyph glyph-name="H" unicode="H" horiz-adv-x="357" 
d="M330 172c0 -55.333 -33.333 -99.333 -100 -132c-54 -26.667 -112.667 -40 -176 -40h-84v95h84c8 4.66699 30.333 9 67 13s63.667 9.33301 81 16c27.333 10.667 41 27.334 41 50.001c0 14.667 -14.5 32.667 -43.5 54s-43.5 37.666 -43.5 48.999
c0 12 4.83301 22.167 14.5 30.5s20.5 12.5 32.5 12.5c34.667 0 65 -16.333 91 -49c24 -30.667 36 -63.667 36 -99zM217 -111c0 -13.333 -4.66699 -24.5 -14 -33.5s-20.666 -13.5 -33.999 -13.5c-14 0 -26 4.5 -36 13.5s-15 20.167 -15 33.5c0 30.667 17 46 51 46
c13.333 0 24.666 -4.33301 33.999 -13s14 -19.667 14 -33z" />
    <glyph glyph-name="I" unicode="I" horiz-adv-x="440" 
d="M303 486c0 -26.667 -20.667 -40 -62 -40c-7.33301 0 -18.333 0.666992 -33 2s-25.667 2 -33 2c-5.33301 0 -13.333 -1 -24 -3s-18.667 -3 -24 -3c-12 0 -22.667 3.83301 -32 11.5s-14 17.167 -14 28.5c0 33.333 38.667 50 116 50c70.667 0 106 -16 106 -48zM382 203
c0 -41.333 -8.66602 -78.332 -25.999 -110.999c-20.667 -40 -50 -60 -88 -60c-38.667 0 -71 10.5 -97 31.5s-39 50.5 -39 88.5c0 28 2 47 6 57c7.33301 18 22.333 27 45 27c20 0 30 -11.667 30 -35v-15c-0.666992 -6.66699 -1 -11.667 -1 -15c0 -30.667 15.333 -46 46 -46
c10 0 19.333 3.33301 28 10s13 14.667 13 24c0 84.667 -28.667 127 -86 127c-34.667 0 -59.334 -11 -74.001 -33l-25 -62c-8.66699 -21.333 -23.667 -32 -45 -32s-32 14 -32 42c0 48.667 18.667 88.667 56 120c35.333 29.333 78 44 128 44
c44.667 0 82.667 -15.833 114 -47.5s47 -69.834 47 -114.501z" />
    <glyph glyph-name="J" unicode="J" horiz-adv-x="347" 
d="M286 442c0 -26 -10.666 -39 -31.999 -39c-5.33301 0 -13.5 0.5 -24.5 1.5s-19.167 1.5 -24.5 1.5c-10.667 0 -26.167 -0.833008 -46.5 -2.5s-35.833 -2.5 -46.5 -2.5c-12 0 -22.833 3.66699 -32.5 11s-14.5 17 -14.5 29c0 23.333 19.333 38.333 58 45
c15.333 2.66699 43.666 4 84.999 4c52 0 78 -16 78 -48zM327.001 170c0 -55.333 -34.667 -99 -104 -131c-56 -26 -115.333 -39 -178 -39h-78v95c180.667 0 271 26 271 78c0 14.667 -15.167 32 -45.5 52s-45.5 36.667 -45.5 50c0 12 4.83301 22.167 14.5 30.5
s20.834 12.5 33.501 12.5c35.333 0 66.666 -16 93.999 -48c25.333 -30.667 38 -64 38 -100z" />
    <glyph glyph-name="K" unicode="K" horiz-adv-x="360" 
d="M226 523c0 -12.667 -5.50195 -23.333 -16.502 -32s-22.833 -13 -35.5 -13c-13.333 0 -25.166 4.33301 -35.499 13s-15.5 19.667 -15.5 33c0 12.667 5.33301 23.5 16 32.5s22.667 13.5 36 13.5c12.667 0 24.334 -4.66699 35.001 -14s16 -20.333 16 -33zM307.998 416.001
c0 -12.667 -5.33203 -23.667 -15.999 -33s-22.334 -14 -35.001 -14c-13.333 0 -25.333 4.66699 -36 14s-16 20.666 -16 33.999c0 12.667 5.5 23.667 16.5 33s23.167 14 36.5 14s25 -4.66699 35 -14s15 -20.666 15 -33.999zM170.999 412.001
c0 -13.333 -5.16699 -24.5 -15.5 -33.5s-22.166 -13.5 -35.499 -13.5c-14 0 -26.167 4.5 -36.5 13.5s-15.5 20.167 -15.5 33.5s5.16699 24.333 15.5 33s22.5 13 36.5 13c13.333 0 25.166 -4.33301 35.499 -13s15.5 -19.667 15.5 -33zM335.999 172.001
c0 -56 -35.001 -100.333 -105.001 -133c-56 -26 -116 -39 -180 -39h-84v95c187.333 0 281 26.667 281 80c0 16.667 -15.167 35 -45.5 55s-45.5 34.667 -45.5 44c0 12 4.83301 22.667 14.5 32s20.5 14 32.5 14c34.667 0 65.334 -15.833 92.001 -47.5s40 -65.167 40 -100.5z
" />
    <glyph glyph-name="L" unicode="L" horiz-adv-x="666" 
d="M646 99c0 -16 -8.33398 -29.0029 -25.001 -39.0029c-20 -12 -107 -25.333 -261 -40c-138.667 -13.333 -231 -20 -277 -20h-131v95c6.66699 0 48.334 -0.666992 125.001 -2c60.667 -1.33301 102.667 -1.66602 126 -0.999023c40 0.666992 81.333 3.33398 124 8.00098v1
c-192 85.333 -288 159 -288 221c0 10 3.66699 18.833 11 26.5s16 11.5 26 11.5c8 0 18.5 -3.5 31.5 -10.5s37.167 -29.167 72.5 -66.5c32 -34 68.333 -59 109 -75c62.667 -25.333 117 -42.333 163 -51c14 -2.66699 44.333 -5.66699 91 -9c38 -2.66699 67 -7.66699 87 -15
c10.667 -9.33301 16 -20.666 16 -33.999zM325.999 -125.003c0 -13.333 -5.5 -24.5 -16.5 -33.5s-23.167 -13.5 -36.5 -13.5c-12 0 -23.333 4.83301 -34 14.5s-16 20.5 -16 32.5c0 13.333 5 24.666 15 33.999s21.667 14 35 14s25.5 -4.66699 36.5 -14
s16.5 -20.666 16.5 -33.999z" />
    <glyph glyph-name="M" unicode="M" horiz-adv-x="674" 
d="M656 99c0 -16 -8.33398 -29.0029 -25.001 -39.0029c-20 -12 -107 -25.333 -261 -40c-138.667 -13.333 -231 -20 -277 -20h-131v95c6.66699 0 48.334 -0.666992 125.001 -2c60.667 -1.33301 102.667 -1.66602 126 -0.999023c40 0.666992 81.333 3.33398 124 8.00098v1
c-192 85.333 -288 159 -288 221c0 10 3.66699 18.833 11 26.5s16 11.5 26 11.5c8 0 18.5 -3.5 31.5 -10.5s37.167 -29.167 72.5 -66.5c32 -34 68.333 -59 109 -75c62.667 -25.333 117 -42.333 163 -51c14 -2.66699 44.333 -5.66699 91 -9c38 -2.66699 67 -7.66699 87 -15
c10.667 -9.33301 16 -20.666 16 -33.999z" />
    <glyph glyph-name="N" unicode="N" horiz-adv-x="669" 
d="M436 445c0 -13.333 -5.5 -24.5 -16.5 -33.5s-23.167 -13.5 -36.5 -13.5c-12 0 -23.333 4.83301 -34 14.5s-16 20.5 -16 32.5c0 13.333 5 24.666 15 33.999s21.667 14 35 14s25.5 -4.66699 36.5 -14s16.5 -20.666 16.5 -33.999zM646 99
c0 -16 -8.33301 -29.001 -25 -39.001c-20 -12 -107 -25.333 -261 -40c-138.667 -13.333 -231 -20 -277 -20h-111v95c6 0 45.333 -0.666992 118 -2c40 -0.666992 79.667 -0.666992 119 0c44.667 0.666992 84 3 118 7v1c-192 85.333 -288 159 -288 221
c0 10 3.66699 18.833 11 26.5s16 11.5 26 11.5c8 0 18.5 -3.5 31.5 -10.5s37.167 -29.167 72.5 -66.5c32 -34 68.333 -59 109 -75c62.667 -25.333 117 -42.333 163 -51c14 -2.66699 44.333 -5.66699 91 -9c38 -2.66699 67 -7.66699 87 -15
c10.667 -9.33301 16 -20.666 16 -33.999z" />
    <glyph glyph-name="O" unicode="O" horiz-adv-x="435" 
d="M397 134c0 -50.667 -25.6641 -89.333 -76.9971 -116c-40.667 -21.333 -88.667 -32 -144 -32c-71.333 0 -107 18 -107 54c0 30.667 21 46 63 46c56.667 0 94 2 112 6c46 10 69 34 69 72c0 24.667 -14 45 -42 61c-24 14 -49.333 21 -76 21
c-6.66699 0 -16.834 -1.33301 -30.501 -4s-23.834 -4 -30.501 -4c-14 0 -26.333 4.16699 -37 12.5s-16 19.5 -16 33.5c0 19.333 13.333 34 40 44c19.333 7.33301 40.666 11 63.999 11c58.667 0 108.667 -19.667 150 -59s62 -88 62 -146z" />
    <glyph glyph-name="P" unicode="P" horiz-adv-x="430" 
d="M277 465c0 -12 -4.33301 -23 -13 -33s-19 -15 -31 -15c-11.333 0 -21.333 5 -30 15s-13 21 -13 33s4.16699 22.5 12.5 31.5s18.5 13.5 30.5 13.5c29.333 0 44 -15 44 -45zM397 134c0 -50.667 -25.6641 -89.333 -76.9971 -116c-40.667 -21.333 -88.667 -32 -144 -32
c-71.333 0 -107 18 -107 54c0 30.667 21 46 63 46c56.667 0 94 2 112 6c46 10 69 34 69 72c0 24.667 -14 45 -42 61c-24 14 -49.333 21 -76 21c-6.66699 0 -16.834 -1.33301 -30.501 -4s-23.834 -4 -30.501 -4c-14 0 -26.333 4.16699 -37 12.5s-16 19.5 -16 33.5
c0 19.333 13.333 34 40 44c19.333 7.33301 40.666 11 63.999 11c58.667 0 108.667 -19.667 150 -59s62 -88 62 -146z" />
    <glyph glyph-name="Q" unicode="Q" horiz-adv-x="356" 
d="M320 77c0 -72 -21.333 -136.668 -64 -194.001c-46 -62 -104 -93 -174 -93c-16.667 0 -31.5 6.33301 -44.5 19s-19.5 27.334 -19.5 44.001c0 15.333 19 28 57 38c50 13.333 84.667 27.333 104 42c38 28 57 71 57 129c0 26 -10.167 62 -30.5 108s-30.5 73 -30.5 81
c0 22.667 10.333 34 31 34c30 0 57.333 -27.667 82 -83c21.333 -48 32 -89.667 32 -125z" />
    <glyph glyph-name="R" unicode="R" horiz-adv-x="356" 
d="M238 495c0 -32 -15.333 -48 -46 -48c-13.333 0 -24.5 4.83301 -33.5 14.5s-13.5 21.167 -13.5 34.5c0 12.667 4.66699 24 14 34s20.333 15 33 15c13.333 0 24.333 -4.83301 33 -14.5s13 -21.5 13 -35.5zM320 77c0 -72 -21.333 -136.668 -64 -194.001
c-46 -62 -104 -93 -174 -93c-16.667 0 -31.5 6.33301 -44.5 19s-19.5 27.334 -19.5 44.001c0 15.333 19 28 57 38c50 13.333 84.667 27.333 104 42c38 28 57 71 57 129c0 26 -10.167 62 -30.5 108s-30.5 73 -30.5 81c0 22.667 10.333 34 31 34c30 0 57.333 -27.667 82 -83
c21.333 -48 32 -89.667 32 -125z" />
    <glyph glyph-name="S" unicode="S" horiz-adv-x="375" 
d="M-30 96h30c11.333 0 21.666 4.66699 30.999 14s13 19.666 11 30.999l-33 188c-2 12.667 1 25.167 9 37.5s18.333 18.5 31 18.5c24 0 42 -23 54 -69c6 -29.333 16 -72.666 30 -129.999c12.667 -46 32.334 -69 59.001 -69c10.667 0 19.167 4.5 25.5 13.5
s9.5 18.833 9.5 29.5c0 20 -8.66699 49.333 -26 88s-26 66.667 -26 84c0 27.333 12 41 36 41c36.667 0 65 -31 85 -93c14.667 -45.333 22 -91.666 22 -138.999c0 -35.333 -8 -65.333 -24 -90c-18 -28.667 -43.667 -43 -77 -43c-34 0 -64 16 -90 48l-4 -1
c-17.333 -36.667 -58.333 -55 -123 -55c-22.667 20 -34 43.667 -34 71c0 9.33301 1.33301 17.666 4 24.999z" />
    <glyph glyph-name="T" unicode="T" horiz-adv-x="375" 
d="M70 552c0 -13.333 -5.16699 -24.334 -15.5 -33.001s-22.166 -13 -35.499 -13c-12.667 0 -24.167 4.66699 -34.5 14s-15.5 20.333 -15.5 33c0 13.333 5.16699 24.5 15.5 33.5s22.166 13.5 35.499 13.5s25 -4.66699 35 -14s15 -20.666 15 -33.999zM155 444.999
c0 -12.667 -5.33301 -23.834 -16 -33.501s-22.334 -14.5 -35.001 -14.5s-24.167 4.83301 -34.5 14.5s-15.5 20.834 -15.5 33.501c0 13.333 5 24.5 15 33.5s21.667 13.5 35 13.5c12.667 0 24.334 -4.66699 35.001 -14s16 -20.333 16 -33zM17 439.999
c0 -13.333 -5 -24.502 -15 -33.502s-21.667 -13.5 -35 -13.5c-12 0 -23.333 4.83301 -34 14.5s-16 20.5 -16 32.5c0 12.667 5.16699 23.834 15.5 33.501s21.833 14.5 34.5 14.5c13.333 0 25 -4.66699 35 -14s15 -20.666 15 -33.999zM-30 95.9971h30
c11.333 0 21.666 4.66699 30.999 14s13 19.666 11 30.999l-33 188c-2 12.667 1 25.167 9 37.5s18.333 18.5 31 18.5c24 0 42 -23 54 -69c6 -29.333 16 -72.666 30 -129.999c12.667 -46 32.334 -69 59.001 -69c10.667 0 19.167 4.5 25.5 13.5s9.5 18.833 9.5 29.5
c0 20 -8.66699 49.333 -26 88s-26 66.667 -26 84c0 27.333 12 41 36 41c36.667 0 65 -31 85 -93c14.667 -45.333 22 -91.666 22 -138.999c0 -35.333 -8 -65.333 -24 -90c-18 -28.667 -43.667 -43 -77 -43c-34 0 -64 16 -90 48l-4 -1c-17.333 -36.667 -58.333 -55 -123 -55
c-22.667 20 -34 43.667 -34 71c0 9.33301 1.33301 17.666 4 24.999z" />
    <glyph glyph-name="U" unicode="U" horiz-adv-x="511" 
d="M458 264c0 -56.667 -24.665 -109.333 -73.998 -158c-46 -46 -97.667 -74.667 -155 -86c-20.667 -3.33301 -57.334 -10.333 -110.001 -21c8 -29.333 12 -46.333 12 -51c0 -21.333 -12 -32 -36 -32c-19.333 0 -33.333 10.333 -42 31l-20 53h-33
c-20.667 25.333 -31 49.333 -31 72c0 9.33301 1.66699 17.333 5 24h58c23.333 96 52 167 86 213c48 64.667 115.333 97 202 97c41.333 0 74.666 -13.333 99.999 -40s38 -60.667 38 -102zM367.002 252.001c0 13.333 -5.83203 23.834 -17.499 31.501s-24.5 11.5 -38.5 11.5
c-40.667 0 -81.834 -21.333 -123.501 -64s-61.5 -84.334 -59.5 -125.001h8c35.333 0 81.333 15.667 138 47c62 34 93 67 93 99z" />
    <glyph glyph-name="V" unicode="V" horiz-adv-x="511" 
d="M244 560c0 -12 -4.16699 -22.5 -12.5 -31.5s-18.5 -13.5 -30.5 -13.5c-28.667 0 -43 15.333 -43 46s14.333 46 43 46c12 0 22.167 -4.83301 30.5 -14.5s12.5 -20.5 12.5 -32.5zM458 264c0 -56.667 -24.665 -109.333 -73.998 -158c-46 -46 -97.667 -74.667 -155 -86
c-20.667 -3.33301 -57.334 -10.333 -110.001 -21c8 -29.333 12 -46.333 12 -51c0 -21.333 -12 -32 -36 -32c-19.333 0 -33.333 10.333 -42 31l-20 53h-33c-20.667 25.333 -31 49.333 -31 72c0 9.33301 1.66699 17.333 5 24h58c23.333 96 52 167 86 213
c48 64.667 115.333 97 202 97c41.333 0 74.666 -13.333 99.999 -40s38 -60.667 38 -102zM367.002 252.001c0 13.333 -5.83203 23.834 -17.499 31.501s-24.5 11.5 -38.5 11.5c-40.667 0 -81.834 -21.333 -123.501 -64s-61.5 -84.334 -59.5 -125.001h8
c35.333 0 81.333 15.667 138 47c62 34 93 67 93 99z" />
    <glyph glyph-name="W" unicode="W" horiz-adv-x="625" 
d="M249 304c0 -12.667 -4.50098 -24.335 -13.501 -35.002s-19.833 -16 -32.5 -16c-9.33301 0 -17.333 3.66699 -24 11c-2 2.66699 -17.333 59.667 -46 171s-43 170.333 -43 177c0 29.333 13 44 39 44c16.667 0 29.334 -7.66699 38.001 -23
c4 -7.33301 18.667 -61.666 44 -162.999s38 -156.666 38 -165.999zM597.999 203.999c0 -70.667 -56.333 -125 -169 -163c-82 -27.333 -168.667 -41 -260 -41h-213v95h102c73.333 76.667 133.333 132.667 180 168c82 62 155.333 93 220 93c39.333 0 72.5 -15.5 99.5 -46.5
s40.5 -66.167 40.5 -105.5zM512.999 222.999c0 12.667 -5.33301 22.833 -16 30.5s-22.667 11.5 -36 11.5c-47.333 0 -101 -20.667 -161 -62c-46.667 -32 -90.667 -71 -132 -117h25c52.667 0 115 11.667 187 35c88.667 28.667 133 62.667 133 102z" />
    <glyph glyph-name="X" unicode="X" horiz-adv-x="630" 
d="M430 530c0 -13.333 -5.00098 -24.166 -15.001 -32.499s-21.667 -12.5 -35 -12.5c-14 0 -26 4.16699 -36 12.5s-15 19.166 -15 32.499c0 12.667 5.33301 23.667 16 33s22.334 14 35.001 14c13.333 0 25 -4.5 35 -13.5s15 -20.167 15 -33.5zM258.999 304
c0 -12.667 -4.50098 -24.335 -13.501 -35.002s-19.833 -16 -32.5 -16c-9.33301 0 -17.333 3.66699 -24 11c-2 2.66699 -17.333 59.667 -46 171s-43 170.333 -43 177c0 29.333 13 44 39 44c16.667 0 29.334 -7.66699 38.001 -23c4 -7.33301 18.667 -61.666 44 -162.999
s38 -156.666 38 -165.999zM607.998 203.999c0 -70.667 -56.333 -125 -169 -163c-82 -27.333 -168.667 -41 -260 -41h-223v95h112c73.333 76.667 133.333 132.667 180 168c82 62 155.333 93 220 93c39.333 0 72.5 -15.5 99.5 -46.5s40.5 -66.167 40.5 -105.5z
M522.998 222.999c0 12.667 -5.33301 22.833 -16 30.5s-22.667 11.5 -36 11.5c-47.333 0 -101 -20.667 -161 -62c-46.667 -32 -90.667 -71 -132 -117h25c52.667 0 115 11.667 187 35c88.667 28.667 133 62.667 133 102z" />
    <glyph glyph-name="Y" unicode="Y" horiz-adv-x="640" 
d="M616 86c0 -3.33301 -1.66797 -9.33008 -5.00098 -17.9971c-4 -10.667 -68.667 -25 -194 -43c-115.333 -16.667 -188 -25 -218 -25h-237v95c76 0 134 3.33301 174 10c-46 39.333 -69 74.666 -69 105.999c0 52.667 25.667 93 77 121c41.333 22.667 90.333 34 147 34
c46 0 85.333 -9.66699 118 -29c39.333 -23.333 59 -56.333 59 -99c0 -18.667 -6 -36.667 -18 -54s-27 -26 -45 -26c-8.66699 0 -17.667 3 -27 9s-14 13 -14 21c0 6.66699 3.66699 15.167 11 25.5s11 18.5 11 24.5c0 13.333 -12 23.666 -36 30.999
c-17.333 5.33301 -34.666 8 -51.999 8c-66 0 -116 -18.667 -150 -56v-4c0 -32 31 -58 93 -78c47.333 -15.333 91 -23 131 -23c12.667 0 75 4.66699 187 14c14 1.33301 27 -2.33398 39 -11.001s18 -19.667 18 -33z" />
    <glyph glyph-name="Z" unicode="Z" horiz-adv-x="640" 
d="M301 511c0 -13.333 -4.16699 -24.5 -12.5 -33.5s-18.833 -13.5 -31.5 -13.5c-30 0 -45 15.333 -45 46c0 12 4.66699 22.833 14 32.5s20 14.5 32 14.5c11.333 0 21.333 -4.83301 30 -14.5s13 -20.167 13 -31.5zM616 86c0 -3.33301 -1.66797 -9.33008 -5.00098 -17.9971
c-4 -10.667 -68.667 -25 -194 -43c-115.333 -16.667 -188 -25 -218 -25h-237v95c76 0 134 3.33301 174 10c-46 39.333 -69 74.666 -69 105.999c0 52.667 25.667 93 77 121c41.333 22.667 90.333 34 147 34c46 0 85.333 -9.66699 118 -29c39.333 -23.333 59 -56.333 59 -99
c0 -18.667 -6 -36.667 -18 -54s-27 -26 -45 -26c-8.66699 0 -17.667 3 -27 9s-14 13 -14 21c0 6.66699 3.66699 15.167 11 25.5s11 18.5 11 24.5c0 13.333 -12 23.666 -36 30.999c-17.333 5.33301 -34.666 8 -51.999 8c-66 0 -116 -18.667 -150 -56v-4c0 -32 31 -58 93 -78
c47.333 -15.333 91 -23 131 -23c12.667 0 75 4.66699 187 14c14 1.33301 27 -2.33398 39 -11.001s18 -19.667 18 -33z" />
    <glyph glyph-name="bracketleft" unicode="[" horiz-adv-x="270" 
d="M242 0h-127v40h88v461h-75v39h114v-540z" />
    <glyph glyph-name="backslash" unicode="\" horiz-adv-x="381" 
d="M57 495l267 -591l26 26l-262 583z" />
    <glyph glyph-name="bracketright" unicode="]" horiz-adv-x="270" 
d="M213 0h-127v540h114v-39h-75v-461h88v-40z" />
    <glyph glyph-name="asciicircum" unicode="^" horiz-adv-x="325" 
d="M228 42c0 -46.667 -21.668 -88.333 -65.001 -125c-30 -25.333 -50.333 -38 -61 -38c-11.333 0 -17 5 -17 15c0 0.666992 12.833 16.5 38.5 47.5s39.834 52.167 42.501 63.5c-2.66699 2.66699 -7 3.66699 -13 3c-12 -1.33301 -16.667 -2 -14 -2c-29.333 0 -44 18 -44 54
c0 16 7.66699 29 23 39c13.333 9.33301 28.333 14 45 14c18 0 33.333 -7.16699 46 -21.5s19 -30.833 19 -49.5z" />
    <glyph glyph-name="underscore" unicode="_" horiz-adv-x="589" 
d="M323 444c0 -16.667 -6.16602 -30.499 -18.499 -41.499s-26.833 -16.5 -43.5 -16.5s-31.667 5.5 -45 16.5s-20 24.5 -20 40.5c0 17.333 6.33301 31.666 19 42.999s27.667 17 45 17s32.166 -5.5 44.499 -16.5s18.5 -25.167 18.5 -42.5zM533.001 283.001
c0 -11.333 -4.33203 -21.333 -12.999 -30s-18.667 -13.667 -30 -15c-140.667 -16.667 -259.334 -25 -356.001 -25c-62 0 -93 17.333 -93 52c0 23.333 25.333 37 76 41c142.667 10.667 253.667 16 333 16c55.333 0 83 -13 83 -39zM356.002 115.001
c0 -17.333 -6 -31.5 -18 -42.5s-26.667 -16.5 -44 -16.5c-16.667 0 -31.5 5.5 -44.5 16.5s-19.5 24.833 -19.5 41.5s6.33301 30.667 19 42s27.334 17 44.001 17c17.333 0 32.166 -5.33301 44.499 -16s18.5 -24.667 18.5 -42z" />
    <glyph glyph-name="grave" unicode="`" horiz-adv-x="169" 
d="M189 0h-211v95h211v-95z" />
    <glyph glyph-name="a" unicode="a" horiz-adv-x="452" 
d="M267 508c0 -12 -4.16699 -22.667 -12.5 -32s-18.5 -14 -30.5 -14s-21.833 4.83301 -29.5 14.5s-11.5 20.5 -11.5 32.5c0 30.667 13.667 46 41 46c28.667 0 43 -15.667 43 -47zM427 199c0 -68 -30.333 -119.667 -91 -155c-50 -29.333 -111 -44 -183 -44h-195v95
c13.333 0 33 -0.5 59 -1.5s45.667 -1.5 59 -1.5c174.667 0 262 40 262 120c0 29.333 -13.667 52.666 -41 69.999c-24 15.333 -51.333 23 -82 23c-16 0 -31.333 -3 -46 -9c-19.333 -7.33301 -29 -17.666 -29 -30.999c0 -19.333 13.333 -29 40 -29
c10.667 0 26.334 3.33301 47.001 10s35.667 10 45 10c21.333 0 32 -13.333 32 -40c0 -36 -39 -54 -117 -54c-33.333 0 -63.333 9.33301 -90 28c-30 20 -45 46 -45 78c0 35.333 18.667 64.333 56 87c32 20 66.667 30 104 30c57.333 0 106.666 -16.333 147.999 -49
c44.667 -36 67 -81.667 67 -137z" />
    <glyph glyph-name="b" unicode="b" horiz-adv-x="450" 
d="M337 524c0 -25.333 -13.667 -37.999 -41 -37.999c-4.66699 0 -11.167 0.333008 -19.5 1s-14.833 1 -19.5 1c-10.667 0 -26.667 -1 -48 -3s-37.333 -3 -48 -3c-12 0 -22.333 3.83301 -31 11.5s-13 17.167 -13 28.5c0 34 39.333 51 118 51c31.333 0 53 -1.66699 65 -5
c24.667 -6.66699 37 -21.334 37 -44.001zM427 199.001c0 -68 -30.333 -119.667 -91 -155c-50 -29.333 -111 -44 -183 -44h-185v95c12.667 0 31.5 -0.5 56.5 -1.5s43.833 -1.5 56.5 -1.5c171.333 0 257 40 257 120c0 29.333 -13.667 52.666 -41 69.999
c-24 15.333 -51.333 23 -82 23c-16 0 -31.333 -3 -46 -9c-19.333 -7.33301 -29 -17.666 -29 -30.999c0 -19.333 13.333 -29 40 -29c10.667 0 26.334 3.33301 47.001 10s35.667 10 45 10c21.333 0 32 -13.333 32 -40c0 -36 -39 -54 -117 -54
c-33.333 0 -63.333 9.33301 -90 28c-30 20 -45 46 -45 78c0 35.333 18.667 64.333 56 87c32 20 66.667 30 104 30c57.333 0 106.666 -16.333 147.999 -49c44.667 -36 67 -81.667 67 -137z" />
    <glyph glyph-name="c" unicode="c" horiz-adv-x="522" 
d="M615 729c0 -46.667 -59.665 -90.668 -178.998 -132.001c-100.667 -34.667 -181.667 -52 -243 -52c-46.667 0 -94.667 5.33301 -144 16c-71.333 15.333 -107 37.333 -107 66c0 12.667 5.5 22.667 16.5 30s23.167 11 36.5 11c23.333 0 57.666 -5.33301 102.999 -16
s79.666 -16 102.999 -16c53.333 0 108 11.333 164 34c26 10.667 68 32.334 126 65.001c40 22.667 65.667 34 77 34s22 -4 32 -12s15 -17.333 15 -28zM406.002 265.999c0 -87.333 -31.334 -154.666 -94.001 -201.999c-56.667 -42.667 -130 -64 -220 -64h-132v95h15
c9.33301 -0.666992 17.333 -1 24 -1h44c78.667 0 138.334 8.66699 179.001 26c59.333 25.333 89 71 89 137c0 26.667 -6.66699 67.167 -20 121.5s-20 93.166 -20 116.499c0 10.667 5 19.667 15 27s20.667 11 32 11c31.333 0 55 -37.333 71 -112
c11.333 -52 17 -103.667 17 -155z" />
    <glyph glyph-name="d" unicode="d" horiz-adv-x="236" 
d="M214 98c0 -65.333 -43.998 -98 -131.998 -98h-112v95c74 0 121.333 2.66699 142 8c7.33301 4 10.333 9.66699 9 17l-70 391c-2 11.333 2 23 12 35s20.667 18 32 18c3.33301 0 10.666 -1.66699 21.999 -5c16 -4.66699 26.667 -17.334 32 -38.001
c3.33301 -23.333 17.666 -103 42.999 -239c14.667 -79.333 22 -140.666 22 -183.999z" />
    <glyph glyph-name="e" unicode="e" horiz-adv-x="415" 
d="M394 164c0 -56 -46.667 -99.334 -140 -130.001c-68.667 -22.667 -138 -34 -208 -34h-77v95h119c65.333 0 98 10.667 98 32c-13.333 18.667 -20 34.667 -20 48c0 28 10 51.167 30 69.5s44 27.5 72 27.5c32 0 61 -10.167 87 -30.5s39 -46.166 39 -77.499z" />
    <glyph glyph-name="f" unicode="f" horiz-adv-x="355" 
d="M228 444c0 -12 -4.33301 -22.665 -13 -31.998s-19 -14 -31 -14c-11.333 0 -21.666 4.66699 -30.999 14s-14 19.666 -14 30.999c0 13.333 4.16699 24.666 12.5 33.999s19.166 14 32.499 14c12.667 0 23.167 -4.66699 31.5 -14s12.5 -20.333 12.5 -33zM328 169.002
c0 -56 -33.333 -99.667 -100 -131c-53.333 -25.333 -111.666 -38 -174.999 -38h-75v95h71c38 0 75.333 4.66699 112 14c54 14 81 33.667 81 59c0 16 -15.167 34 -45.5 54s-45.5 36.667 -45.5 50c0 28.667 16 43 48 43c35.333 0 65.666 -15.167 90.999 -45.5
s38 -63.833 38 -100.5z" />
    <glyph glyph-name="g" unicode="g" horiz-adv-x="526" 
d="M501 221c0 -64 -14.334 -115.001 -43.001 -153.001c-32 -43.333 -79 -65 -141 -65c-53.333 0 -91 8.66699 -113 26c-44 -19.333 -90.667 -29 -140 -29h-87v95h165c-4 22.667 -6 40 -6 52c0 34 6.66699 66 20 96c17.333 38.667 40.333 58 69 58
c28 0 51.667 -11.667 71 -35s29 -49.333 29 -78c0 -25.333 -12.667 -54.333 -38 -87l9 -2c88 0 132 28 132 84c0 44 -16 90 -48 138c-34.667 52.667 -72.667 79 -114 79c-38 0 -67.667 -15 -89 -45c-9.33301 -13.333 -22.666 -40.666 -39.999 -81.999
c-12.667 -30 -26.334 -45 -41.001 -45c-23.333 0 -35 17.333 -35 52c0 55.333 24.333 104 73 146c46.667 40 98.334 60 155.001 60c56 0 106.333 -30.667 151 -92c40.667 -56 61 -113.667 61 -173zM260.999 179.999c0 8 -3.49902 15.333 -10.499 22s-14.5 10 -22.5 10
c-24 0 -36 -17 -36 -51c0 -6.66699 2.33301 -14.667 7 -24c5.33301 -11.333 10.666 -17 15.999 -17c7.33301 0 16.833 8 28.5 24s17.5 28 17.5 36z" />
    <glyph glyph-name="h" unicode="h" horiz-adv-x="423" 
d="M380 60c0 -64.667 -20 -127.663 -60 -188.996c-45.333 -69.333 -98.666 -104 -159.999 -104c-16.667 0 -31.334 4 -44.001 12c-14.667 9.33301 -22 22 -22 38c0 15.333 16.333 28.666 49 39.999c46 16 76.333 29 91 39c32.667 22.667 49 55.667 49 99
c0 6 -2 8.66699 -6 8c-8.66699 -0.666992 -11.667 -1.33398 -9 -2.00098c-148.667 19.333 -223 68.666 -223 147.999c0 35.333 9.66699 68.666 29 99.999c22 36 49.667 54 83 54c68 0 122.667 -24 164 -72c39.333 -45.333 59 -102.333 59 -171zM295 89.0039
c-19.333 88.667 -57.667 133.001 -115 133.001c-14 0 -26.833 -5 -38.5 -15s-17.5 -22 -17.5 -36c0 -24.667 19.667 -45.334 59 -62.001c32 -13.333 62.333 -20 91 -20h21z" />
    <glyph glyph-name="i" unicode="i" horiz-adv-x="780" 
d="M751 22c0 -69.333 -48.334 -124.332 -145.001 -164.999c-75.333 -32 -154.333 -48 -237 -48c-73.333 0 -138.333 17.667 -195 53c-66.667 41.333 -100 96.333 -100 165c0 42 14.5 79.333 43.5 112s64.5 49 106.5 49c30 0 45 -11.333 45 -34
c0 -12 -10.667 -23.333 -32 -34c-34.667 -17.333 -55 -28.333 -61 -33c-21.333 -17.333 -32 -41.333 -32 -72c0 -40 25.667 -69.667 77 -89c36 -13.333 79 -20 129 -20c63.333 0 124.666 6.33301 183.999 19c92 19.333 138 49.666 138 90.999c0 18 -24.333 27 -73 27
c-13.333 0 -29 -0.666992 -47 -2l-28 -2c-42.667 0 -78.667 9 -108 27c-34.667 21.333 -52 52 -52 92c0 41.333 27.333 81 82 119c51.333 36 98.666 54 141.999 54c26.667 0 50.334 -8 71.001 -24s31 -37 31 -63c0 -28 -9.33301 -42 -28 -42
c-4.66699 0 -17.667 4.66699 -39 14s-40 14 -56 14c-25.333 0 -48.666 -5.33301 -69.999 -16c-26.667 -13.333 -40 -31 -40 -53c0 -21.333 33 -32 99 -32c10 0 21.667 0.333008 35 1l22 1c44.667 0 77.334 -6.66699 98.001 -20c26.667 -17.333 40 -47 40 -89z" />
    <glyph glyph-name="j" unicode="j" horiz-adv-x="412" 
d="M374 168c0 -56.667 -31.666 -100 -94.999 -130c-50.667 -24 -107.334 -36 -170.001 -36l-2 -2h-130v95h114c131.333 0 197 25 197 75c0 15.333 -15.167 33 -45.5 53s-45.5 36.333 -45.5 49c0 12 4.66699 22.333 14 31s20 13 32 13c36.667 0 67.667 -15.333 93 -46
s38 -64.667 38 -102zM302.001 -136c0 -24.667 -14.333 -37 -43 -37c-4.66699 0 -12 0.333008 -22 1c-7.33301 0.666992 -14 0.666992 -20 0c-46 -4 -76.667 -6 -92 -6c-30 0 -45 13.667 -45 41c0 32 34 48 102 48h31c59.333 0 89 -15.667 89 -47z" />
    <glyph glyph-name="k" unicode="k" 
d="M175 775c0 -6.66699 -2.66699 -11.667 -8 -15c-7.33301 -4.66699 -36.5 -18 -87.5 -40s-78.5 -33 -82.5 -33c-16.667 0 -25 7.33301 -25 22c0 6.66699 2.66699 11.667 8 15c10 6 39 19.833 87 41.5s74.667 32.5 80 32.5c18.667 0 28 -7.66699 28 -23zM195 712
c0 -9.33301 -13 -20.333 -39 -33c-17.333 -6.66699 -34.333 -13.667 -51 -21c-53.333 -24 -82 -36 -86 -36c-18 0 -27 6.66699 -27 20c0 12 13.333 24.333 40 37l54 22c52 22.667 79.667 34 83 34c6 0 11.833 -2.33301 17.5 -7s8.5 -10 8.5 -16z" />
    <glyph glyph-name="l" unicode="l" 
 />
    <glyph glyph-name="m" unicode="m" 
d="M190 -338c0 -8.66699 -9 -16.333 -27 -23c-2.66699 -0.666992 -28.667 -13 -78 -37c-40 -19.333 -63.667 -29 -71 -29c-16.667 0 -25 6.66699 -25 20c0 11.333 13.333 23.333 40 36l54 22c50 23.333 76.333 35 79 35c18.667 0 28 -8 28 -24zM210 -401.999
c0 -8.66699 -9.99902 -17.999 -29.999 -27.999l-43 -18c-10.667 -6.66699 -27.334 -15.334 -50.001 -26.001c-26 -12 -43 -18 -51 -18c-18 0 -27 7.66699 -27 23c0 10 13.333 21.333 40 34l52 21c52.667 23.333 81 35 85 35c16 0 24 -7.66699 24 -23z" />
    <glyph glyph-name="n" unicode="n" 
d="M188 732c0 -3.33301 -3.00195 -7.33398 -9.00195 -12.001c-9.33301 -6 -38.166 -19.667 -86.499 -41s-75.166 -32 -80.499 -32c-16 0 -24 6.66699 -24 20c0 8.66699 3.33301 15.334 10 20.001c104 48.667 158.667 73 164 73c17.333 0 26 -9.33301 26 -28z" />
    <glyph glyph-name="o" unicode="o" 
d="M189 804c0 -34.667 -17.167 -71 -51.5 -109s-68.833 -57 -103.5 -57c-17.333 0 -26 6.33301 -26 19c0 10.667 9.66699 17.334 29 20.001c28 4 56 23 84 57c-24 15.333 -36.667 23.666 -38 24.999c-12.667 10.667 -19 23.667 -19 39c0 16 7.33301 31.667 22 47
s30 23 46 23c38 0 57 -21.333 57 -64zM155 804c0 16.667 -5.00098 24.9971 -15.001 24.9971c-7.33301 0 -15.666 -4.16699 -24.999 -12.5s-14 -16.166 -14 -23.499v-2c4.66699 -3.33301 19 -11.333 43 -24c1.33301 0.666992 3.5 6.33398 6.5 17.001s4.5 17.334 4.5 20.001z
" />
    <glyph glyph-name="p" unicode="p" 
d="M179 -342c0 -7.33301 -14.333 -17.667 -43 -31l-52 -22c-50.667 -22 -77.667 -33 -81 -33c-17.333 0 -26 7 -26 21c0 7.33301 2.83301 13 8.5 17s34 17.5 85 40.5s78.167 34.5 81.5 34.5c18 0 27 -9 27 -27z" />
    <glyph glyph-name="q" unicode="q" 
d="M163 680c0 -18 -15.001 -26.999 -45.001 -26.999c-8 0 -17.333 4.66699 -28 14c-10 -16 -23.333 -24 -40 -24c-19.333 0 -35.666 13.333 -48.999 40c-11.333 22 -17 44 -17 66c0 15.333 6.33301 23 19 23c7.33301 0 15.5 -15.5 24.5 -46.5s17.833 -46.5 26.5 -46.5
c10 0 15 8 15 24c0 7.33301 -2.5 18.166 -7.5 32.499s-7.5 24.833 -7.5 31.5c0 14 5 21 15 21c12 0 22 -16 30 -48s17 -47.667 27 -47l5 8l-22 69c3.33301 14.667 9 22 17 22c10.667 0 20 -16 28 -48c6 -24.667 9 -46 9 -64z" />
    <glyph glyph-name="r" unicode="r" 
 />
    <glyph glyph-name="s" unicode="s" 
d="M143 854c0 -3.33301 -3.00195 -7.33398 -9.00195 -12.001c-9.33301 -6 -38.166 -19.667 -86.499 -41s-75.166 -32 -80.499 -32c-16 0 -24 6.66699 -24 20c0 8.66699 3.33301 15.334 10 20.001c104 48.667 158.667 73 164 73c17.333 0 26 -9.33301 26 -28z
M152.998 669.999c0 -18 -15.001 -26.999 -45.001 -26.999c-8 0 -17.333 4.66699 -28 14c-10 -16 -23.333 -24 -40 -24c-19.333 0 -35.666 13.333 -48.999 40c-11.333 22 -17 44 -17 66c0 15.333 6.33301 23 19 23c7.33301 0 15.5 -15.5 24.5 -46.5s17.833 -46.5 26.5 -46.5
c10 0 15 8 15 24c0 7.33301 -2.5 18.166 -7.5 32.499s-7.5 24.833 -7.5 31.5c0 14 5 21 15 21c12 0 22 -16 30 -48s17 -47.667 27 -47l5 8l-22 69c3.33301 14.667 9 22 17 22c10.667 0 20 -16 28 -48c6 -24.667 9 -46 9 -64z" />
    <glyph glyph-name="t" unicode="t" 
d="M129 944c0 -34.667 -17.167 -71 -51.5 -109s-68.833 -57 -103.5 -57c-17.333 0 -26 6.33301 -26 19c0 10.667 9.66699 17.334 29 20.001c28 4 56 23 84 57c-24 15.333 -36.667 23.666 -38 24.999c-12.667 10.667 -19 23.667 -19 39c0 16 7.33301 31.667 22 47
s30 23 46 23c38 0 57 -21.333 57 -64zM153 670c0 -18 -15.001 -26.999 -45.001 -26.999c-8 0 -17.333 4.66699 -28 14c-10 -16 -23.333 -24 -40 -24c-19.333 0 -35.666 13.333 -48.999 40c-11.333 22 -17 44 -17 66c0 15.333 6.33301 23 19 23
c7.33301 0 15.5 -15.5 24.5 -46.5s17.833 -46.5 26.5 -46.5c10 0 15 8 15 24c0 7.33301 -2.5 18.166 -7.5 32.499s-7.5 24.833 -7.5 31.5c0 14 5 21 15 21c12 0 22 -16 30 -48s17 -47.667 27 -47l5 8l-22 69c3.33301 14.667 9 22 17 22c10.667 0 20 -16 28 -48
c6 -24.667 9 -46 9 -64zM94.999 944.001c0 16.667 -5.00098 24.9971 -15.001 24.9971c-7.33301 0 -15.666 -4.16699 -24.999 -12.5s-14 -16.166 -14 -23.499v-2c4.66699 -3.33301 19 -11.333 43 -24c1.33301 0.666992 3.5 6.33398 6.5 17.001s4.5 17.334 4.5 20.001z" />
    <glyph glyph-name="u" unicode="u" 
d="M153 740c0 -18 -15.001 -26.999 -45.001 -26.999c-8 0 -17.333 4.66699 -28 14c-10 -16 -23.333 -24 -40 -24c-19.333 0 -35.666 13.333 -48.999 40c-11.333 22 -17 44 -17 66c0 15.333 6.33301 23 19 23c7.33301 0 15.5 -15.5 24.5 -46.5s17.833 -46.5 26.5 -46.5
c10 0 15 8 15 24c0 7.33301 -2.5 18.166 -7.5 32.499s-7.5 24.833 -7.5 31.5c0 14 5 21 15 21c12 0 22 -16 30 -48s17 -47.667 27 -47l5 8l-22 69c3.33301 14.667 9 22 17 22c10.667 0 20 -16 28 -48c6 -24.667 9 -46 9 -64zM187.999 690.001
c0 -7.33301 -14.333 -17.667 -43 -31l-52 -22c-50.667 -22 -77.667 -33 -81 -33c-17.333 0 -26 7 -26 21c0 7.33301 2.66699 13 8 17c10 6 39.167 20 87.5 42s74.833 33 79.5 33c18 0 27 -9 27 -27z" />
    <glyph glyph-name="v" unicode="v" 
d="M145 905c0 -6.66699 -2.66699 -11.667 -8 -15c-7.33301 -4.66699 -36.5 -18 -87.5 -40s-78.5 -33 -82.5 -33c-16.667 0 -25 7.33301 -25 22c0 6.66699 2.66699 11.667 8 15c10 6 39 19.833 87 41.5s74.667 32.5 80 32.5c18.667 0 28 -7.66699 28 -23zM165 842
c0 -9.33301 -13 -20.333 -39 -33c-17.333 -6.66699 -34.333 -13.667 -51 -21c-53.333 -24 -82 -36 -86 -36c-18 0 -27 6.66699 -27 20c0 12 13.333 24.333 40 37l54 22c52 22.667 79.667 34 83 34c6 0 11.833 -2.33301 17.5 -7s8.5 -10 8.5 -16zM163 670
c0 -18 -15.001 -26.999 -45.001 -26.999c-8 0 -17.333 4.66699 -28 14c-10 -16 -23.333 -24 -40 -24c-19.333 0 -35.666 13.333 -48.999 40c-11.333 22 -17 44 -17 66c0 15.333 6.33301 23 19 23c7.33301 0 15.5 -15.5 24.5 -46.5s17.833 -46.5 26.5 -46.5c10 0 15 8 15 24
c0 7.33301 -2.5 18.166 -7.5 32.499s-7.5 24.833 -7.5 31.5c0 14 5 21 15 21c12 0 22 -16 30 -48s17 -47.667 27 -47l5 8l-22 69c3.33301 14.667 9 22 17 22c10.667 0 20 -16 28 -48c6 -24.667 9 -46 9 -64z" />
    <glyph glyph-name="w" unicode="w" 
 />
    <glyph glyph-name="x" unicode="x" 
d="M143 830c0 -18 -15.001 -26.999 -45.001 -26.999c-8 0 -17.333 4.66699 -28 14c-10 -16 -23.333 -24 -40 -24c-19.333 0 -35.666 13.333 -48.999 40c-11.333 22 -17 44 -17 66c0 15.333 6.33301 23 19 23c7.33301 0 15.5 -15.5 24.5 -46.5s17.833 -46.5 26.5 -46.5
c10 0 15 8 15 24c0 7.33301 -2.5 18.166 -7.5 32.499s-7.5 24.833 -7.5 31.5c0 14 5 21 15 21c12 0 22 -16 30 -48s17 -47.667 27 -47l5 8l-22 69c3.33301 14.667 9 22 17 22c10.667 0 20 -16 28 -48c6 -24.667 9 -46 9 -64zM174.999 795.001
c0 -6.66699 -2.66797 -11.666 -8.00098 -14.999c-10 -8.66699 -26.333 -20.334 -49 -35.001c-7.33301 -3.33301 -28 -10.5 -62 -21.5s-53.667 -16.5 -59 -16.5c-16.667 0 -25 6.33301 -25 19c0.666992 2 3.33398 4 8.00098 6l90 43c43.333 20 73 30 89 30
c10.667 0 16 -3.33301 16 -10zM194.998 720.002c0 -10 -13 -21.333 -39 -34l-51 -20c-53.333 -24 -82 -36 -86 -36c-18 0 -27 6.66699 -27 20c0 12 13 24 39 36l55 22c52 23.333 79.667 35 83 35c6 0 11.833 -2.33301 17.5 -7s8.5 -10 8.5 -16z" />
    <glyph glyph-name="z" unicode="z" horiz-adv-x="584" 
d="M510 -42c0 -8.66699 -5.33301 -16.167 -16 -22.5s-20.667 -9.5 -30 -9.5c-42.667 0 -83 27.667 -121 83c-34.667 50.667 -52 98.667 -52 144c0 44 18.333 94 55 150c39.333 60.667 79.333 91 120 91c12 0 22.333 -4.66699 31 -14s13 -20 13 -32
c0 -12.667 -11.333 -28.334 -34 -47.001c-35.333 -29.333 -57 -48.666 -65 -57.999c-22.667 -27.333 -34 -58.333 -34 -93s11.333 -65.667 34 -93c9.33301 -12 31 -31 65 -57c22.667 -18 34 -32 34 -42zM309 -38c0 -9.33301 -4.99902 -17.001 -14.999 -23.001s-20 -9 -30 -9
c-43.333 0 -84 27.333 -122 82c-35.333 50.667 -53 98.667 -53 144c0 43.333 18.333 93 55 149c39.333 60.667 78.666 91 117.999 91c31.333 0 47 -14.667 47 -44c0 -14 -11.333 -29.667 -34 -47c-34 -26 -55 -44 -63 -54c-22.667 -27.333 -34 -59.333 -34 -96
s11.333 -68.667 34 -96c10.667 -13.333 31.667 -31.666 63 -54.999c22.667 -17.333 34 -31.333 34 -42z" />
    <glyph glyph-name="braceleft" unicode="{" horiz-adv-x="578" 
d="M529 180c0 -45.333 -17.334 -94 -52.001 -146c-37.333 -56 -77.666 -84 -120.999 -84c-31.333 0 -47 10.333 -47 31c0 10.667 11.333 25 34 43c34 27.333 55.667 46.333 65 57c22.667 27.333 34 58.666 34 93.999c0 34.667 -11.667 66 -35 94
c-10 12 -31.667 31.333 -65 58c-23.333 18.667 -35 34.334 -35 47.001c0 12 5 22.5 15 31.5s21 13.5 33 13.5c38.667 0 78 -30.333 118 -91c37.333 -56.667 56 -106 56 -148zM325.999 174c0 -46 -17.665 -94.3301 -52.998 -144.997c-38.667 -55.333 -79.667 -83 -123 -83
c-10.667 0 -20.667 2.83301 -30 8.5s-14 13.5 -14 23.5c0 10.667 11.333 25 34 43c34 27.333 55.667 46.666 65 57.999c22.667 27.333 34 57.666 34 90.999c0 34 -11.667 65 -35 93c-8.66699 10.667 -30.334 30 -65.001 58c-23.333 19.333 -35 35.666 -35 48.999
c0 30 15.333 45 46 45c41.333 0 81.666 -30.333 120.999 -91c36.667 -56 55 -106 55 -150z" />
    <glyph glyph-name="bar" unicode="|" horiz-adv-x="410" 
d="M283 623c0 -12 -12.332 -20.667 -36.999 -26c-30 -6 -49 -13 -57 -21c-4 -4 -5 -39 -3 -105c1.33301 -24 2.66602 -60.333 3.99902 -109c1.33301 -40 -12 -66.333 -40 -79c30.667 -9.33301 46 -47.333 46 -114c0 -16.667 -2 -41.167 -6 -73.5s-6 -56.5 -6 -72.5
c0 -26.667 8.33301 -43 25 -49l45 -4c18 -4 27 -13 27 -27c0 -21.333 -13.667 -32 -41 -32c-30.667 0 -56 6.66699 -76 20c-24 16 -35.333 38.667 -34 68l10 195c0 25.333 -6.33301 43.333 -19 54c-4.66699 4 -16.667 9 -36 15c-12.667 4 -19 11 -19 21
c0 9.33301 6.33301 16.333 19 21c19.333 7.33301 31.333 13 36 17c12.667 10.667 19 27.667 19 51c0 20.667 -1.33301 51.667 -4 93s-4 72.333 -4 93c0 64 36.667 96 110 96c27.333 0 41 -10.667 41 -32z" />
    <glyph glyph-name="braceright" unicode="}" horiz-adv-x="391" 
d="M310 284c0 -7.33301 -6.66602 -13.667 -19.999 -19c-18.667 -8 -31 -14.333 -37 -19c-13.333 -11.333 -20 -28 -20 -50c0 -24 1.33301 -60.333 4 -109s4 -85 4 -109c0 -22 -14 -39 -42 -51c-21.333 -9.33301 -44.333 -14 -69 -14c-8.66699 0 -16.834 3 -24.501 9
s-11.5 13.333 -11.5 22c0 14 9 23 27 27l45 4c16.667 4.66699 25 17.334 25 38.001c0 14 -2.66699 82 -8 204c-0.666992 13.333 2.83301 27 10.5 41s17.5 22.333 29.5 25c-26 15.333 -38.667 32.666 -38 51.999l7 219c0 21.333 -8.33301 35 -25 41l-47 6
c-16 2 -24 9.66699 -24 23c0 22 15.333 33 46 33s55 -7.33301 73 -22c20 -16.667 29.333 -40 28 -70l-8 -181c-1.33301 -28 4.66699 -48 18 -60c6 -5.33301 18.333 -11.333 37 -18c13.333 -4.66699 20 -12 20 -22z" />
    <glyph glyph-name="nonbreakingspace" unicode="&#xa0;" horiz-adv-x="250" 
 />
    <glyph glyph-name="exclamdown" unicode="&#xa1;" horiz-adv-x="556" 
d="M585 0l-256.999 -0.000976562c-22.667 0 -53.667 8.66699 -93 26c-44.667 -17.333 -92.667 -26 -144 -26h-122v95h126c-18 23.333 -27 53.666 -27 90.999c0 68.667 27.333 127.334 82 176.001c52 47.333 113 71 183 71c50 0 93 -17.5 129 -52.5s54 -77.167 54 -126.5
c0 -30.667 -7.83301 -59.667 -23.5 -87s-36.834 -47.666 -63.501 -60.999l-4 -11h160v-95zM437.001 244.999c0 28 -10.165 52.167 -30.498 72.5s-44.5 30.5 -72.5 30.5c-40.667 0 -79.834 -14.333 -117.501 -43s-61.834 -62.667 -72.501 -102c13.333 22 30.333 41.333 51 58
c24 19.333 47 29 69 29c25.333 0 45.5 -7.83301 60.5 -23.5s22.5 -36.167 22.5 -61.5c0 -27.333 -15.667 -62 -47 -104c91.333 30.667 137 78.667 137 144zM276.003 160.999c0 8.66699 -4.16895 16.833 -12.502 24.5s-16.833 11.5 -25.5 11.5
c-13.333 0 -26.166 -7.16699 -38.499 -21.5s-18.5 -28.166 -18.5 -41.499c0 -10 5.66699 -22.333 17 -37c2.66699 -3.33301 4.33398 -5 5.00098 -5c13.333 0 28.833 8.16699 46.5 24.5s26.5 31.166 26.5 44.499z" />
    <glyph glyph-name="cent" unicode="&#xa2;" horiz-adv-x="608" 
d="M609 0c-21.333 0 -37.332 2.83594 -47.999 8.50293s-21.334 17.5 -32.001 35.5c-2 -8.66699 -3.66699 -18.334 -5 -29.001c-6 -57.333 -31 -104 -75 -140s-95 -54 -153 -54c-112 0 -191 39 -237 117c-24 40.667 -36 82.667 -36 126c0 32.667 10.667 68.334 32 107.001
c24 43.333 50.333 65 79 65s43 -11 43 -33c0 -0.666992 -9.5 -18.334 -28.5 -53.001s-28.5 -60.667 -28.5 -78c0 -42 21 -77.333 63 -106c37.333 -26 78 -39 122 -39c39.333 0 73.333 18 102 54c26.667 34 40 71 40 111c0 29.333 -13.5 70.666 -40.5 123.999
s-40.5 81.666 -40.5 84.999c0 12 5 21.333 15 28c8 6.66699 17.667 10 29 10c25.333 0 47 -13.667 65 -41c6 -8.66699 19 -35 39 -79c6 -23.333 12.667 -45.333 20 -66c12.667 -38 37.667 -57 75 -57h20c2 -10.667 3 -22 3 -34c0 -30 -7.66699 -50.667 -23 -62z" />
    <glyph glyph-name="sterling" unicode="&#xa3;" horiz-adv-x="673" 
d="M297 307c0 -10.667 -4.66797 -20.1689 -14.001 -28.502s-19.333 -12.5 -30 -12.5c-8 0 -15.333 2.33301 -22 7c-3.33301 2.66699 -19.666 56.834 -48.999 162.501s-44 165.167 -44 178.5c0 11.333 3.66699 21.666 11 30.999s16.666 14 27.999 14
c16.667 0 28.334 -5.66699 35.001 -17c2 -3.33301 16.667 -58.666 44 -165.999s41 -163.666 41 -168.999zM704.999 -0.00195312h-215c-8 0 -24.667 3.33301 -50 10l-40 10c-93.333 -13.333 -157.666 -20 -192.999 -20h-229v95h130c74 79.333 132.667 136 176 170
c80 62.667 152.667 94 218 94c37.333 0 69.333 -15.833 96 -47.5s40 -66.5 40 -104.5c0 -44 -19.333 -79 -58 -105c7.33301 -5.33301 17.666 -8 30.999 -8c-30 0.666992 -18.667 1 34 1h60v-95zM552.999 223.998c0 28 -16.666 42 -49.999 42c-44 0 -96.667 -20.667 -158 -62
c-54.667 -36.667 -97.334 -75.667 -128.001 -117h13c55.333 0 118 11 188 33c90 28 135 62.667 135 104z" />
    <glyph glyph-name="currency" unicode="&#xa4;" horiz-adv-x="971" 
d="M935 66c0 -87.333 -68.6641 -149.333 -205.997 -186c-86.667 -23.333 -190.334 -35 -311.001 -35c-86.667 0 -160 8.66699 -220 26c-94 27.333 -141 73 -141 137c0 59.333 38 103.333 114 132c53.333 20 116.666 30 189.999 30c18 0 33.667 -5.16699 47 -15.5
s20 -24.166 20 -41.499c0 -26.667 -23 -42 -69 -46c-28.667 -1.33301 -71.667 -4.33301 -129 -9c-46 -4.66699 -69 -21.334 -69 -50.001c0 -45.333 87.333 -68 262 -68c83.333 0 163.333 5.66699 240 17c121.333 18 182 46 182 84c0 13.333 -9 24.333 -27 33
c-14.667 7.33301 -29.667 11 -45 11c-19.333 0 -47.833 -2.66699 -85.5 -8s-65.834 -8 -84.501 -8c-46 0 -69 14.667 -69 44c0 24 20.333 40 61 48c25.333 3.33301 63 9 113 17c40.667 7.33301 61 21.666 61 42.999c0 3.33301 -0.333008 6.33301 -1 9l-74 328
c-2.66699 11.333 1.33301 22 12 32s22 15 34 15c-2 0 9 -6 33 -18c14 -33.333 30.167 -94.666 48.5 -183.999s27.5 -151.333 27.5 -186c0 -24.667 -8 -44.667 -24 -60l72 -25c25.333 -12 38 -34 38 -66z" />
    <glyph glyph-name="yen" unicode="&#xa5;" horiz-adv-x="877" 
d="M630 431c0 -26 -15 -39.001 -45 -39.001c-4 0 -10.333 0.333008 -19 1s-15 1 -19 1c-10 0 -25.333 -1 -46 -3s-36 -3 -46 -3c-12.667 0 -23.5 3.83301 -32.5 11.5s-13.5 17.834 -13.5 30.501c0 31.333 36.667 47 110 47c36.667 0 59.667 -1 69 -3
c28 -6 42 -20.333 42 -43zM826 87.999c0 -81.333 -48.667 -141.998 -146 -181.998c-72 -29.333 -156 -44 -252 -44c-92 0 -171.667 14 -239 42c-91.333 38 -137 96.333 -137 175c0 45.333 18.333 83.666 55 114.999s78 47 124 47c12.667 0 24 -4.33301 34 -13
s15 -19.334 15 -32.001c0 -18.667 -13.667 -30.667 -41 -36c-45.333 -9.33301 -70.666 -15 -75.999 -17c-27.333 -12 -41 -35.667 -41 -71c0 -40 40.667 -71.667 122 -95c60.667 -17.333 118 -26 172 -26c68.667 0 133.667 9 195 27c86.667 25.333 130 63.333 130 114
c0 82 -57.667 123 -173 123c-62 0 -93 -13.667 -93 -41c0 -12 11 -21.667 33 -29c17.333 -6 33.666 -9 48.999 -9c16.667 0 34.834 6.5 54.501 19.5s32.167 19.5 37.5 19.5c11.333 0 21.5 -4.33301 30.5 -13s13.5 -18.667 13.5 -30c0 -26 -15.333 -45.333 -46 -58
c-22.667 -9.33301 -49.334 -14 -80.001 -14c-113.333 0 -170 34 -170 102c0 40.667 15 73 45 97c27.333 22 62 33 104 33c72 0 134 -15.667 186 -47c62.667 -38 94 -90.333 94 -157z" />
    <glyph glyph-name="brokenbar" unicode="&#xa6;" 
 />
    <glyph glyph-name="section" unicode="&#xa7;" horiz-adv-x="635" 
d="M664 0h-198.998c-54 -0 -111.667 12.333 -173 37c-54 -29.333 -114.333 -44 -181 -44c-42.667 0 -64 17 -64 51c0 29.333 24.333 47 73 53l116 12c-2.66699 12.667 -4 27 -4 43c0 76 31.667 147.333 95 214l-32 6c-4 4 -18.5 48.5 -43.5 133.5s-37.5 132.5 -37.5 142.5
c0 24.667 14.667 37 44 37c20 0 41.333 -45 64 -135c20.667 -83.333 29 -139.333 25 -168c12.667 14 29 27 49 39c23.333 14 42.666 21 57.999 21c39.333 0 72.333 -9.66699 99 -29c29.333 -21.333 44 -51 44 -89c0 -54.667 -20 -102.667 -60 -144
c-26.667 -27.333 -70.334 -58.333 -131.001 -93c13.333 -1.33301 27 -2 41 -2c18.667 0 46.167 1.66699 82.5 5s63.833 5 82.5 5h52v-95zM514.002 308c0 12.667 -4.49805 22.833 -13.498 30.5s-19.833 11.5 -32.5 11.5c-38.667 0 -77.334 -26.333 -116.001 -79
c-36.667 -50 -54.334 -95 -53.001 -135c34 6.66699 77 29 129 67c57.333 42 86 77 86 105z" />
    <glyph glyph-name="dieresis" unicode="&#xa8;" horiz-adv-x="561" 
d="M346 485c0 -12 -4.49902 -22.667 -13.499 -32s-19.5 -14 -31.5 -14c-12.667 0 -22.834 4.66699 -30.501 14s-11.5 20.333 -11.5 33c0 30.667 14 46 42 46c30 0 45 -15.667 45 -47zM587.001 95l0.00390625 -95.001h-60c-64.667 0 -137.334 24 -218.001 72
c-34.667 -18 -75 -34 -121 -48c-52 -16 -94.333 -24 -127 -24h-94v95h79c0 1.33301 0.666992 2 2 2c1.33301 0.666992 2 0.333984 2 -0.999023h49c14.667 0 41 5 79 15c41.333 10.667 65 20.334 71 29.001c-10 8 -30.667 18.667 -62 32c-28 12 -47.333 23.333 -58 34
c-4.66699 16.667 -7 25.667 -7 27c0 23.333 14.333 35 43 35c16 0 40 -2.66699 72 -8s56 -8 72 -8c19.333 0 47.666 3.66699 84.999 11s65.666 11 84.999 11c10.667 0 20 -3.83301 28 -11.5s12 -16.834 12 -27.501c0 -30 -39.667 -68 -119 -114
c11.333 -16 46.666 -24.667 105.999 -26h81z" />
    <glyph glyph-name="copyright" unicode="&#xa9;" horiz-adv-x="569" 
d="M597 95l0.00390625 -95.001h-70c-64.667 0 -137.334 24 -218.001 72c-34.667 -18 -75 -34 -121 -48c-52 -16 -94.333 -24 -127 -24h-84v95h69c0 1.33301 0.666992 2 2 2c1.33301 0.666992 2 0.333984 2 -0.999023h49c14.667 0 41 5 79 15
c41.333 10.667 65 20.334 71 29.001c-10 8 -30.667 18.667 -62 32c-28 12 -47.333 23.333 -58 34c-4.66699 16.667 -7 25.667 -7 27c0 23.333 14.333 35 43 35c16 0 40 -2.66699 72 -8s56 -8 72 -8c19.333 0 47.666 3.66699 84.999 11s65.666 11 84.999 11
c10.667 0 20 -3.83301 28 -11.5s12 -16.834 12 -27.501c0 -30 -39.667 -68 -119 -114c10.667 -15.333 46 -24 106 -26c53.333 -1.33301 83.666 -1.33301 90.999 0z" />
    <glyph glyph-name="ordfeminine" unicode="&#xaa;" horiz-adv-x="452" 
d="M485 0l-46 0.000976562c-40 0 -66.667 3.33301 -80 10l-1 -5c8.66699 -20 13 -43 13 -69c0 -52.667 -20.667 -79 -62 -79c-51.333 0 -89.333 23 -114 69c-8 15.333 -22 60.666 -42 135.999c-7.33301 -16.667 -20.666 -31.167 -39.999 -43.5s-38.333 -18.5 -57 -18.5h-77
v95h137c12.667 0 21.667 7 27 21c1.33301 4 3.66602 16.667 6.99902 38c8.66699 3.33301 14.334 5 17.001 5c20 0 48.667 -10.667 86 -32s65.666 -32 84.999 -32h147v-95z" />
    <glyph glyph-name="guillemotleft" unicode="&#xab;" horiz-adv-x="427" 
d="M462 95l-0.000976562 -94.999h-80c-19.333 0 -40.5 7.33301 -63.5 22s-39.5 30.667 -49.5 48c-22 -22 -54.667 -39.667 -98 -53c-38 -11.333 -75.333 -17 -112 -17h-86v95h72c105.333 0 158 20.667 158 62c0 9.33301 -4 22.166 -12 38.499s-12 29.166 -12 38.499
c0 10.667 4.66699 19.834 14 27.501s19.333 11.5 30 11.5c20.667 0 36.334 -11.667 47.001 -35c6 -16 15.333 -39.667 28 -71c12.667 -28 32 -47 58 -57c9.33301 -3.33301 19.333 -8.33301 30 -15h76zM358.999 -104.999c0 -25.333 -15 -38 -45 -38
c-4.66699 0 -11.5 0.333008 -20.5 1s-15.833 1 -20.5 1c-10 0 -25 -1 -45 -3s-35 -3 -45 -3c-30.667 0 -46 13.667 -46 41c0 31.333 33.667 47 101 47h36c56.667 0 85 -15.333 85 -46z" />
    <glyph glyph-name="logicalnot" unicode="&#xac;" horiz-adv-x="607" 
d="M636 0h-68c-26 0 -48.5 8.66699 -67.5 26s-31.5 39 -37.5 65c-50 -62 -130.333 -93 -241 -93c-44 0 -80.667 7.33301 -110 22c-38 18.667 -57 48 -57 88c0 54.667 43.667 102.667 131 144c68 32 136 51 204 57c1.33301 4.66699 1.33301 12 0 22s-2 17 -2 21
c0 15.333 4.16699 28.833 12.5 40.5s19.833 17.5 34.5 17.5c2 0 6.5 -1.5 13.5 -4.5s11.5 -4.5 13.5 -4.5c12 -15.333 22.667 -50.666 32 -105.999c12 -68.667 21.333 -113.334 28 -134.001c14.667 -44 36 -66 64 -66h50v-95zM436 162l-20.001 76h-9
c-32 0 -80.667 -13.667 -146 -41c-72.667 -30.667 -109 -59 -109 -85c0 -11.333 8 -20.333 24 -27c12.667 -5.33301 25.667 -8 39 -8c39.333 0 79.333 7 120 21c46.667 16 80.334 37.333 101.001 64z" />
    <glyph glyph-name="minus" unicode="&#xad;" 
 />
    <glyph glyph-name="minus" unicode="&#x2212;" 
 />
    <glyph glyph-name="registered" unicode="&#xae;" horiz-adv-x="804" 
d="M598 541c0 -12 -4.16699 -22.667 -12.5 -32s-18.5 -14 -30.5 -14c-28.667 0 -43 15.667 -43 47c0 12 4.16699 22.667 12.5 32s18.5 14 30.5 14c12.667 0 23 -4.66699 31 -14s12 -20.333 12 -33zM421 310c0 -10 -4.83203 -18.499 -14.499 -25.499
s-19.834 -10.5 -30.501 -10.5c-12.667 0 -21.667 4 -27 12c-7.33301 28 -23.666 86.667 -48.999 176c-26.667 95.333 -40 147.666 -40 156.999c0 12 3.83301 22.667 11.5 32s17.167 14 28.5 14c13.333 0 23.666 -4.66699 30.999 -14c4 -4.66699 20 -60 48 -166
s42 -164.333 42 -175zM776.001 227.001c0 -104 -91.665 -172.333 -274.998 -205c-78.667 -14 -204.667 -21 -378 -21c-39.333 0 -59 16 -59 48c0 36.667 26.667 55 80 55c9.33301 0 23.166 -1 41.499 -3s31.833 -3 40.5 -3l117 111c108.667 100.667 205 151 289 151
c37.333 0 70.666 -12.833 99.999 -38.5s44 -57.167 44 -94.5zM677.003 214.001c0 16.667 -9.99902 30.333 -29.999 41c-17.333 9.33301 -35 14 -53 14c-39.333 0 -85.666 -19.667 -138.999 -59c-40.667 -30 -78.334 -65.667 -113.001 -107c3.33301 -2 6.66602 -3 9.99902 -3
c54.667 0 116.667 8.33301 186 25c92.667 22 139 51.667 139 89z" />
    <glyph glyph-name="macron" unicode="&#xaf;" horiz-adv-x="628" 
d="M535 0h-473v473h473v-473z" />
    <glyph glyph-name="macron" unicode="&#x2c9;" horiz-adv-x="628" 
d="M535 0h-473v473h473v-473z" />
    <glyph glyph-name="degree" unicode="&#xb0;" horiz-adv-x="364" 
d="M364 0c-59.333 0 -100.333 25.334 -123 76.001l-2 -1c-19.333 -50 -86.333 -75 -201 -75h-69v95h10c6.66699 -0.666992 12.667 -1 18 -1h34c109.333 0 164 33 164 99c0 7.33301 -0.333008 13.666 -1 18.999l-14 106c-1.33301 10.667 2 20.5 10 29.5s17.333 13.5 28 13.5
c26 0 45 -23 57 -69c6 -28 16 -70.333 30 -127c12 -46 31.667 -69 59 -69c15.333 0 22 0.333008 20 1c3.33301 -9.33301 5 -20 5 -32c0 -24 -8.33301 -45.667 -25 -65z" />
    <glyph glyph-name="plusminus" unicode="&#xb1;" horiz-adv-x="1039" 
d="M849 446c0 -12 -4.16699 -22.833 -12.5 -32.5s-18.5 -14.5 -30.5 -14.5s-22.5 4.66699 -31.5 14s-13.5 20 -13.5 32s4.33301 22.833 13 32.5s19 14.5 31 14.5s22.333 -4.66699 31 -14s13 -20 13 -32zM1006 189c0 -76.667 -52.3359 -134.335 -157.003 -173.002
c-76 -28 -161.667 -42 -257 -42h-189c-83.333 0 -153.666 9 -210.999 27c-87.333 27.333 -131 73 -131 137c0 70 36.667 124 110 162c58 30 126.667 45 206 45c12.667 0 24.334 -3.33301 35.001 -10s16 -16 16 -28c0 -20 -26 -34.667 -78 -44c-84 -14.667 -132 -24 -144 -28
c-52 -16.667 -78 -44.667 -78 -84c0 -36 46.667 -61.333 140 -76c54.667 -8.66699 116.334 -13 185.001 -13c126.667 0 216.667 4 270 12c131.333 19.333 197 62.666 197 129.999c0 30 -15.667 53 -47 69c-24.667 12.667 -53.667 19 -87 19c-14 0 -28 -3 -42 -9
c-17.333 -7.33301 -26 -16.666 -26 -27.999c0 -8.66699 4.16699 -15.667 12.5 -21s17.166 -8 26.499 -8c11.333 0 27.5 3.33301 48.5 10s36.833 10 47.5 10c9.33301 0 16.833 -4.83301 22.5 -14.5s8.5 -19.5 8.5 -29.5c0 -18.667 -15.667 -32 -47 -40
c-21.333 -6 -44.666 -9 -69.999 -9c-34.667 0 -65.334 8.33301 -92.001 25c-31.333 19.333 -47 45.333 -47 78c0 36.667 19 66.334 57 89.001c32.667 20 68.334 30 107.001 30c56.667 0 105.667 -16.667 147 -50c44.667 -35.333 67 -80.666 67 -135.999z" />
    <glyph glyph-name="twosuperior" unicode="&#xb2;" 
 />
    <glyph glyph-name="threesuperior" unicode="&#xb3;" 
 />
    <glyph glyph-name="acute" unicode="&#xb4;" horiz-adv-x="662" 
d="M612 145c0 -12 -3.66797 -21.665 -11.001 -28.998c-22 -14 -66.833 -31.333 -134.5 -52s-116.167 -40 -145.5 -58c-48 -30 -72 -67 -72 -111c0 -56 63.667 -88 191 -96c48 -3.33301 73 -6.33301 75 -9c9.33301 -12 14 -22.667 14 -32c0 -37.333 -31 -56 -93 -56
c-73.333 0 -133 12.667 -179 38c-59.333 32 -89 81.667 -89 149c0 53.333 22.333 103 67 149l-23 -1c-40 -2 -75 5.66699 -105 23c-36 20 -54 49 -54 87c0 57.333 23.333 102.666 70 135.999c40.667 29.333 91 44 151 44c28.667 0 55.167 -9.66699 79.5 -29
s36.5 -43 36.5 -71c0 -30 -13 -45 -39 -45c-4 0 -11 1.66699 -21 5c-4 2 -9 9.16699 -15 21.5s-13 20.833 -21 25.5c-24 2.66699 -33.333 4 -28 4c-20.667 0 -46 -8.66699 -76 -26c-32 -18.667 -48 -37.667 -48 -57c0 -16 31.333 -24 94 -24
c41.333 0 99.833 9.83301 175.5 29.5s124.834 29.5 147.501 29.5c13.333 0 25.5 -4.33301 36.5 -13s16.5 -19.334 16.5 -32.001z" />
    <glyph glyph-name="mu" unicode="&#xb5;" horiz-adv-x="560" 
d="M609 789c0 -34 -36 -83.333 -108 -148c-51.333 -46 -115 -93.667 -191 -143c-96.667 -62 -166.667 -93 -210 -93c-30.667 0 -46 14.667 -46 44c0 20 29.667 43 89 69c22 10 63 27.667 123 53c88.667 50.667 161.667 110.667 219 180l39 48c17.333 19.333 34 29 50 29
c23.333 0 35 -13 35 -39zM585 95v-95h-149c-36.667 0 -65.334 7 -86.001 21s-36.334 38 -47.001 72c-20 -30 -50.333 -53.333 -91 -70c-36.667 -15.333 -75 -23 -115 -23h-118v95h57c130.667 0 196 38.333 196 115c0 15.333 -4.5 38.333 -13.5 69s-13.5 53.334 -13.5 68.001
s4.83301 27.667 14.5 39s21.834 17 36.501 17c20 0 39.333 -37 58 -111c24 -92.667 38.333 -143.334 43 -152.001c12.667 -21.333 38.334 -35 77.001 -41c17.333 -2.66699 54.333 -4 111 -4h40z" />
    <glyph glyph-name="mu" unicode="&#x3bc;" horiz-adv-x="560" 
d="M609 789c0 -34 -36 -83.333 -108 -148c-51.333 -46 -115 -93.667 -191 -143c-96.667 -62 -166.667 -93 -210 -93c-30.667 0 -46 14.667 -46 44c0 20 29.667 43 89 69c22 10 63 27.667 123 53c88.667 50.667 161.667 110.667 219 180l39 48c17.333 19.333 34 29 50 29
c23.333 0 35 -13 35 -39zM585 95v-95h-149c-36.667 0 -65.334 7 -86.001 21s-36.334 38 -47.001 72c-20 -30 -50.333 -53.333 -91 -70c-36.667 -15.333 -75 -23 -115 -23h-118v95h57c130.667 0 196 38.333 196 115c0 15.333 -4.5 38.333 -13.5 69s-13.5 53.334 -13.5 68.001
s4.83301 27.667 14.5 39s21.834 17 36.501 17c20 0 39.333 -37 58 -111c24 -92.667 38.333 -143.334 43 -152.001c12.667 -21.333 38.334 -35 77.001 -41c17.333 -2.66699 54.333 -4 111 -4h40z" />
    <glyph glyph-name="paragraph" unicode="&#xb6;" horiz-adv-x="632" 
d="M425 533c0 -14 -4.66699 -25.334 -14 -34.001s-21 -13 -35 -13c-13.333 0 -25 4.33301 -35 13s-15 19.667 -15 33c0 30.667 16.333 46 49 46c13.333 0 25 -4.16699 35 -12.5s15 -19.166 15 -32.499zM257 306.999c0 -10.667 -4.66797 -20.1689 -14.001 -28.502
s-19.333 -12.5 -30 -12.5c-8 0 -15.333 2.33301 -22 7c-3.33301 2.66699 -19.666 56.834 -48.999 162.501s-44 165.167 -44 178.5c0 11.333 3.66699 21.666 11 30.999s16.666 14 27.999 14c16.667 0 28.334 -5.66699 35.001 -17c2 -3.33301 16.667 -58.666 44 -165.999
s41 -163.666 41 -168.999zM654.999 -0.00292969h-205c-8 0 -24.667 3.33301 -50 10l-40 10c-93.333 -13.333 -157.666 -20 -192.999 -20h-199v95h100c74 79.333 132.667 136 176 170c80 62.667 152.667 94 218 94c37.333 0 69.333 -15.833 96 -47.5s40 -66.5 40 -104.5
c0 -44 -19.333 -79 -58 -105c7.33301 -5.33301 17.666 -8 30.999 -8c-30 0.666992 -18.667 1 34 1h50v-95zM512.999 223.997c0 28 -16.666 42 -49.999 42c-44 0 -96.667 -20.667 -158 -62c-54.667 -36.667 -97.334 -75.667 -128.001 -117h13c55.333 0 118 11 188 33
c90 28 135 62.667 135 104z" />
    <glyph glyph-name="periodcentered" unicode="&#xb7;" horiz-adv-x="949" 
d="M914 164c0 -58 -51.668 -102.666 -155.001 -133.999c-76 -23.333 -151 -35 -225 -35c-26.667 0 -53 4 -79 12l-1 -7c0 -7.33301 2.33301 -18.666 7 -33.999s7 -27 7 -35c0 -51.333 -20.333 -77 -61 -77c-80.667 0 -134.667 73 -162 219c-24 2.66699 -34 4 -30 4
c-15.333 0 -29.333 -2.66699 -42 -8c-16.667 -6.66699 -25 -16.667 -25 -30c0 -6 19.5 -57.333 58.5 -154s58.5 -160.334 58.5 -191.001c0 -12 -4.5 -22 -13.5 -30s-19.5 -12 -31.5 -12c-14 0 -27 16.333 -39 49l-66 175c-36 94.667 -54 146 -54 154
c0 38.667 16.333 71 49 97c30 23.333 65 35 105 35c32.667 0 73.334 -11 122.001 -33s76.667 -33 84 -33h209c12.667 0 27 2.33301 43 7c20 5.33301 30.333 12.666 31 21.999c-14.667 14.667 -22 30.667 -22 48c0 30 9.83301 53.833 29.5 71.5s44.5 26.5 74.5 26.5
c32 0 60.667 -9.66699 86 -29c28 -20.667 42 -46.667 42 -78z" />
    <glyph glyph-name="periodcentered" unicode="&#x2219;" horiz-adv-x="949" 
d="M914 164c0 -58 -51.668 -102.666 -155.001 -133.999c-76 -23.333 -151 -35 -225 -35c-26.667 0 -53 4 -79 12l-1 -7c0 -7.33301 2.33301 -18.666 7 -33.999s7 -27 7 -35c0 -51.333 -20.333 -77 -61 -77c-80.667 0 -134.667 73 -162 219c-24 2.66699 -34 4 -30 4
c-15.333 0 -29.333 -2.66699 -42 -8c-16.667 -6.66699 -25 -16.667 -25 -30c0 -6 19.5 -57.333 58.5 -154s58.5 -160.334 58.5 -191.001c0 -12 -4.5 -22 -13.5 -30s-19.5 -12 -31.5 -12c-14 0 -27 16.333 -39 49l-66 175c-36 94.667 -54 146 -54 154
c0 38.667 16.333 71 49 97c30 23.333 65 35 105 35c32.667 0 73.334 -11 122.001 -33s76.667 -33 84 -33h209c12.667 0 27 2.33301 43 7c20 5.33301 30.333 12.666 31 21.999c-14.667 14.667 -22 30.667 -22 48c0 30 9.83301 53.833 29.5 71.5s44.5 26.5 74.5 26.5
c32 0 60.667 -9.66699 86 -29c28 -20.667 42 -46.667 42 -78z" />
    <glyph glyph-name="cedilla" unicode="&#xb8;" horiz-adv-x="708" 
d="M686 99c0 -33.333 -84.335 -59.6689 -253.002 -79.002c-116.667 -13.333 -220 -20 -310 -20h-151v95h167c32 -1.33301 62 -2 90 -2c55.333 0 101.333 2.33301 138 7v1c-192 85.333 -288 159 -288 221c0 10 3.66699 18.833 11 26.5s16 11.5 26 11.5
c20.667 0 56.334 -26.333 107.001 -79c32 -33.333 67.333 -57.666 106 -72.999s95.667 -28.333 171 -39c78.667 -11.333 135.334 -23.333 170.001 -36c10.667 -9.33301 16 -20.666 16 -33.999zM458.998 -117.003c0 -13.333 -5 -24.167 -15 -32.5s-21.667 -12.5 -35 -12.5
c-14 0 -26.333 4.16699 -37 12.5s-16 19.166 -16 32.499c0 14 5.16699 25 15.5 33s22.5 12 36.5 12s26 -4.16699 36 -12.5s15 -19.166 15 -32.499zM321.998 -122.004c0 -13.333 -5.33301 -24.333 -16 -33s-23 -13 -37 -13c-13.333 0 -25 4.33301 -35 13s-15 19.667 -15 33
s5 24.333 15 33s21.667 13 35 13s25.5 -4.33301 36.5 -13s16.5 -19.667 16.5 -33zM404.998 -229.004c0 -13.333 -5.16895 -24.333 -15.502 -33s-22.5 -13 -36.5 -13c-13.333 0 -25.166 4.33301 -35.499 13s-15.5 19.667 -15.5 33c0 12.667 5.33301 23.5 16 32.5
s22.334 13.5 35.001 13.5c13.333 0 25.333 -4.33301 36 -13s16 -19.667 16 -33z" />
    <glyph glyph-name="onesuperior" unicode="&#xb9;" 
 />
    <glyph glyph-name="ordmasculine" unicode="&#xba;" horiz-adv-x="550" 
d="M577 0l-48.999 0.00292969c-11.333 0 -33.333 4.33301 -66 13c9.33301 -41.333 14 -66 14 -74c0 -53.333 -20 -80 -60 -80c-49.333 0 -88.333 24 -117 72c-22.667 37.333 -37 83.666 -43 138.999c-3.33301 8.66699 -15.333 13 -36 13c-45.333 0 -68 -12.333 -68 -37
c0 -4.66699 19.167 -54.834 57.5 -150.501s57.5 -159.834 57.5 -192.501c0 -27.333 -14 -41 -42 -41c-12.667 0 -43.334 60 -92.001 180c-46.667 115.333 -70 181 -70 197c0 36.667 16 68 48 94s66.667 39 104 39c34 0 77 -12.833 129 -38.5s80.333 -38.5 85 -38.5h148v-95z
" />
    <glyph glyph-name="guillemotright" unicode="&#xbb;" horiz-adv-x="788" 
d="M815 0l-116.999 -0.000976562c-22.667 0 -45.334 -2 -68.001 -6c-35.333 -6 -53 -15.333 -53 -28c0 -8 15.667 -15 47 -21c41.333 -8 70 -15.667 86 -23c31.333 -14 47 -34.667 47 -62c0 -55.333 -43.667 -101.333 -131 -138c-71.333 -30 -140 -45 -206 -45
c-84.667 0 -159 13.667 -223 41c-85.333 36.667 -128 91.334 -128 164.001c0 62.667 28.333 114.667 85 156c51.333 38 109.333 57 174 57c40 0 60 -14.333 60 -43c0 -28 -19.333 -42 -58 -42c-44 0 -81.333 -8.33301 -112 -25c-38.667 -20.667 -58 -51 -58 -91
c0 -45.333 32.333 -78.333 97 -99c44 -14 95.333 -21 154 -21c99.333 0 179 21.667 239 65l-8 11l-108 34c-44 19.333 -66 47.333 -66 84c0 44 27.333 78 82 102c42.667 18.667 88.667 27.667 138 27l127 -2v-95zM546.001 -422.001c0 -25.333 -13.998 -38 -41.998 -38
c-4.66699 0 -11.334 0.333008 -20.001 1s-15.334 1 -20.001 1c-10 0 -24.667 -1 -44 -3s-34 -3 -44 -3c-12.667 0 -23.5 3.83301 -32.5 11.5s-13.5 17.5 -13.5 29.5c0 32 34.667 48 104 48h23c59.333 0 89 -15.667 89 -47z" />
    <glyph glyph-name="onequarter" unicode="&#xbc;" 
 />
    <glyph glyph-name="onehalf" unicode="&#xbd;" 
 />
    <glyph glyph-name="threequarters" unicode="&#xbe;" 
 />
    <glyph glyph-name="questiondown" unicode="&#xbf;" horiz-adv-x="1000" 
d="M549 496c0 -12 -4.83301 -22.334 -14.5 -31.001s-20.5 -13 -32.5 -13s-23 4.16699 -33 12.5s-15 18.5 -15 30.5c0 28.667 16 43 48 43c11.333 0 22 -4.16699 32 -12.5s15 -18.166 15 -29.499zM936 210.999c0 -96.667 -56.666 -165.667 -169.999 -207
c-76 -28 -173.333 -42 -292 -42c-94.667 0 -174.667 14 -240 42c-88.667 38 -133 98 -133 180c0 63.333 29 112.666 87 147.999c49.333 30 108 45 176 45c29.333 0 59.333 -5 90 -15c40.667 -13.333 61 -31.333 61 -54c0 -7.33301 -4 -14.5 -12 -21.5
s-15.667 -10.5 -23 -10.5c-12.667 0 -31.834 2 -57.501 6s-44.834 6 -57.501 6c-39.333 0 -76.666 -6.33301 -111.999 -19c-48.667 -17.333 -73 -42.666 -73 -75.999c0 -50.667 40 -87.334 120 -110.001c52 -14.667 111.333 -22 178 -22c80.667 0 154 9.33301 220 28
c98 28 147 71.333 147 130c0 24 -19.5 50.833 -58.5 80.5s-58.5 50.834 -58.5 63.501c0 11.333 4.83301 20.5 14.5 27.5s20.5 10.5 32.5 10.5c42 0 79.667 -21.667 113 -65c32 -40 48 -81.667 48 -125z" />
    <glyph glyph-name="Aacute" unicode="&#xc1;" horiz-adv-x="703" 
d="M645 -102c0 -23.333 -19.334 -38.333 -58.001 -45c-15.333 -2.66699 -43.666 -4 -84.999 -4c-52 0 -78 16 -78 48c0 26 10.667 39 32 39c5.33301 0 13.5 -0.5 24.5 -1.5s19.167 -1.5 24.5 -1.5c10.667 0 26.167 0.833008 46.5 2.5s35.833 2.5 46.5 2.5
c12 0 22.833 -3.66699 32.5 -11s14.5 -17 14.5 -29zM669.999 172c0 -114.667 -68.002 -172 -204.002 -172c-32.667 -0 -68.334 3.33301 -107.001 10l-1 -5c8.66699 -20 13 -43 13 -69c0 -52.667 -20.667 -79 -62 -79c-50 0 -87.333 23.333 -112 70
c-7.33301 13.333 -22 58.333 -44 135c-7.33301 -16.667 -20.666 -31.167 -39.999 -43.5s-38.333 -18.5 -57 -18.5h-87v95h147l29 23c0 14.667 1.66699 26.667 5 36c8.66699 3.33301 14.334 5 17.001 5c20 0 48.5 -10.667 85.5 -32s65.5 -32 85.5 -32h112
c38.667 0 67.334 3.66699 86.001 11c31.333 12 47 34.667 47 68c0 14.667 -14.5 32.5 -43.5 53.5s-43.5 37.5 -43.5 49.5s4.83301 22.167 14.5 30.5s20.5 12.5 32.5 12.5c34.667 0 65 -16.333 91 -49c24 -30.667 36 -63.667 36 -99z" />
    <glyph glyph-name="Acircumflex" unicode="&#xc2;" horiz-adv-x="879" 
d="M717 475c0 -13.333 -4.66699 -24.5 -14 -33.5s-20.666 -13.5 -33.999 -13.5c-14 0 -25.833 4.33301 -35.5 13s-14.5 20 -14.5 34c0 30.667 16.667 46 50 46c13.333 0 24.666 -4.33301 33.999 -13s14 -19.667 14 -33zM840 172c0 -55.333 -33.333 -99.3301 -100 -131.997
c-54 -26.667 -112.667 -40 -176 -40c-41.333 0 -60.666 -0.333008 -57.999 -1l-44 14c9.33301 -41.333 14 -66 14 -74c0 -53.333 -20 -80 -60 -80c-49.333 0 -88.333 24 -117 72c-22.667 37.333 -37 83.666 -43 138.999c-3.33301 8.66699 -15.333 13 -36 13
c-45.333 0 -68 -12.333 -68 -37c0 -4.66699 19.167 -54.834 57.5 -150.501s57.5 -159.834 57.5 -192.501c0 -27.333 -14 -41 -42 -41c-12.667 0 -43.334 60 -92.001 180c-46.667 115.333 -70 181 -70 197c0 36.667 16 68 48 94s66.667 39 104 39c34 0 77 -12.833 129 -38.5
s80.333 -38.5 85 -38.5h135c8 4.66699 30.333 9 67 13s63.667 9.33301 81 16c27.333 10.667 41 27.334 41 50.001c0 14.667 -14.5 32.667 -43.5 54s-43.5 37.666 -43.5 48.999c0 12 4.83301 22.167 14.5 30.5s20.5 12.5 32.5 12.5c34.667 0 65 -16.333 91 -49
c24 -30.667 36 -63.667 36 -99z" />
    <glyph glyph-name="Atilde" unicode="&#xc3;" horiz-adv-x="703" 
d="M603 -127c0 -13.333 -4.66797 -24.333 -14.001 -33s-20.666 -13 -33.999 -13c-14 0 -25.833 4.33301 -35.5 13s-14.5 19.667 -14.5 33c0 31.333 16.667 47 50 47c32 0 48 -15.667 48 -47zM669.999 172c0 -114.667 -68.002 -172 -204.002 -172
c-32.667 -0 -68.334 3.33301 -107.001 10l-1 -5c8.66699 -20 13 -43 13 -69c0 -52.667 -20.667 -79 -62 -79c-50 0 -87.333 23.333 -112 70c-7.33301 13.333 -22 58.333 -44 135c-7.33301 -16.667 -20.666 -31.167 -39.999 -43.5s-38.333 -18.5 -57 -18.5h-87v95h147l29 23
c0 14.667 1.66699 26.667 5 36c8.66699 3.33301 14.334 5 17.001 5c20 0 48.5 -10.667 85.5 -32s65.5 -32 85.5 -32h112c38.667 0 67.334 3.66699 86.001 11c31.333 12 47 34.667 47 68c0 14.667 -14.5 32.5 -43.5 53.5s-43.5 37.5 -43.5 49.5s4.83301 22.167 14.5 30.5
s20.5 12.5 32.5 12.5c34.667 0 65 -16.333 91 -49c24 -30.667 36 -63.667 36 -99z" />
    <glyph glyph-name="Adieresis" unicode="&#xc4;" horiz-adv-x="407" 
d="M265 496c0 -4.66699 -10.002 -12.1689 -30.002 -22.502s-30 -18.166 -30 -23.499c0 -0.666992 7.33301 -8.16699 22 -22.5s22 -27.5 22 -39.5c0 -15.333 -8.66699 -27.666 -26 -36.999c-13.333 -7.33301 -28.666 -11 -45.999 -11c-32.667 0 -49 7.66699 -49 23
s9.66699 24.333 29 27c22.667 2.66699 35.334 5.66699 38.001 9v6c-28 18.667 -42 34 -42 46c0 13.333 10.833 28 32.5 44s39.5 24 53.5 24c6 0 11.833 -2.33301 17.5 -7s8.5 -10 8.5 -16zM421.998 94.998l-0.000976562 -95h-50c-19.333 0 -40.5 7.33301 -63.5 22
s-39.5 30.667 -49.5 48c-22 -22 -54.667 -39.667 -98 -53c-38 -11.333 -75.333 -17 -112 -17h-76v95h86c89.333 0.666992 134 21.334 134 62.001c0 9.33301 -4 22.166 -12 38.499s-12 29.166 -12 38.499c0 10.667 4.66699 19.834 14 27.501s19.333 11.5 30 11.5
c20.667 0 36.334 -11.667 47.001 -35c6 -16 15.333 -39.667 28 -71c12.667 -28 32 -47 58 -57c9.33301 -3.33301 19.333 -8.33301 30 -15h46z" />
    <glyph glyph-name="Aring" unicode="&#xc5;" horiz-adv-x="781" 
d="M386 331c0 -3.33301 -9.33203 -10.668 -27.999 -22.001c-21.333 -12.667 -33 -20 -35 -22c31.333 -29.333 47 -50.333 47 -63c0 -15.333 -8.66699 -28 -26 -38c-14.667 -8.66699 -30.334 -13 -47.001 -13c-9.33301 0 -19.333 1.66699 -30 5
c-13.333 4.66699 -20 10.334 -20 17.001c0 17.333 9.66699 27.333 29 30c24 2.66699 37 5.33398 39 8.00098v6c-29.333 21.333 -44 37.666 -44 48.999c0 12 12 26.333 36 43c22 16 39.667 24 53 24c6 0 11.833 -2.5 17.5 -7.5s8.5 -10.5 8.5 -16.5zM815.001 -0.00195312
h-109c-86 0 -129 -11.333 -129 -34c0 -8 15.667 -15 47 -21c41.333 -8 70 -15.667 86 -23c31.333 -14 47 -34.667 47 -62c0 -55.333 -43.667 -101.333 -131 -138c-71.333 -30 -140 -45 -206 -45c-84.667 0 -159 13.667 -223 41c-85.333 36.667 -128 91.334 -128 164.001
c0 62.667 28.333 114.667 85 156c51.333 38 109.333 57 174 57c40 0 60 -14.333 60 -43c0 -28 -19.333 -42 -58 -42c-44 0 -81.333 -8.33301 -112 -25c-38.667 -20.667 -58 -51 -58 -91c0 -45.333 32.333 -78.333 97 -99c44 -14 95.333 -21 154 -21
c99.333 0 179 21.667 239 65l-8 11l-108 34c-44 19.333 -66 47.333 -66 84c0 43.333 27.333 76.666 82 99.999c42 18 88 27 138 27h127v-95z" />
    <glyph glyph-name="AE" unicode="&#xc6;" horiz-adv-x="662" 
d="M271 484c0 -30.667 -14.668 -46 -44.001 -46c-28 0 -42 15 -42 45c0 32 13.667 48 41 48c12.667 0 23.334 -4.66699 32.001 -14s13 -20.333 13 -33zM611.999 145c0 -12 -3.66797 -21.665 -11.001 -28.998c-22 -14 -66.833 -31.333 -134.5 -52s-116.167 -40 -145.5 -58
c-48 -30 -72 -67 -72 -111c0 -56 63.667 -88 191 -96c48 -3.33301 73 -6.33301 75 -9c9.33301 -12 14 -22.667 14 -32c0 -37.333 -31 -56 -93 -56c-73.333 0 -133 12.667 -179 38c-59.333 32 -89 81.667 -89 149c0 53.333 22.333 103 67 149l-23 -1
c-40 -2 -75 5.66699 -105 23c-36 20 -54 49 -54 87c0 57.333 23.333 102.666 70 135.999c40.667 29.333 91 44 151 44c28.667 0 55.167 -9.66699 79.5 -29s36.5 -43 36.5 -71c0 -30 -13 -45 -39 -45c-4 0 -11 1.66699 -21 5c-4 2 -9 9.16699 -15 21.5s-13 20.833 -21 25.5
c-24 2.66699 -33.333 4 -28 4c-20.667 0 -46 -8.66699 -76 -26c-32 -18.667 -48 -37.667 -48 -57c0 -16 31.333 -24 94 -24c41.333 0 99.833 9.83301 175.5 29.5s124.834 29.5 147.501 29.5c13.333 0 25.5 -4.33301 36.5 -13s16.5 -19.334 16.5 -32.001z" />
    <glyph glyph-name="Ccedilla" unicode="&#xc7;" horiz-adv-x="783" 
d="M296 384c0 -3.33301 -10 -9.99902 -30 -19.999s-30 -18 -30 -24c0 -2 7.33301 -10.167 22 -24.5s22 -27.5 22 -39.5c0 -13.333 -8 -24.833 -24 -34.5s-31 -14.5 -45 -14.5c-8.66699 0 -18.667 2 -30 6c-14.667 4.66699 -22 10.334 -22 17.001c0 20.667 13.667 31 41 31
c12 0 20.667 2.66699 26 8c0 1.33301 -7 7.66602 -21 18.999s-21 22.666 -21 33.999c0 13.333 10.833 27.833 32.5 43.5s39.5 23.5 53.5 23.5c6 0 11.833 -2.66699 17.5 -8s8.5 -11 8.5 -17zM751 22.001c0 -69.333 -48.334 -124.332 -145.001 -164.999
c-75.333 -32 -154.333 -48 -237 -48c-73.333 0 -138.333 17.667 -195 53c-66.667 41.333 -100 96.333 -100 165c0 42 14.5 79.333 43.5 112s64.5 49 106.5 49c30 0 45 -11.333 45 -34c0 -12 -10.667 -23.333 -32 -34c-34.667 -17.333 -55 -28.333 -61 -33
c-21.333 -17.333 -32 -41.333 -32 -72c0 -40 25.667 -69.667 77 -89c36 -13.333 79 -20 129 -20c63.333 0 124.666 6.33301 183.999 19c92 19.333 138 49.666 138 90.999c0 18 -24.333 27 -73 27c-13.333 0 -29 -0.666992 -47 -2l-28 -2c-42.667 0 -78.667 9 -108 27
c-34.667 21.333 -52 52 -52 92c0 41.333 27.333 81 82 119c51.333 36 98.666 54 141.999 54c26.667 0 50.334 -8 71.001 -24s31 -37 31 -63c0 -28 -9.33301 -42 -28 -42c-4.66699 0 -17.667 4.66699 -39 14s-40 14 -56 14c-25.333 0 -48.666 -5.33301 -69.999 -16
c-26.667 -13.333 -40 -31 -40 -53c0 -21.333 33 -32 99 -32c10 0 21.667 0.333008 35 1l22 1c44.667 0 77.334 -6.66699 98.001 -20c26.667 -17.333 40 -47 40 -89z" />
    <glyph glyph-name="Egrave" unicode="&#xc8;" horiz-adv-x="648" 
d="M574 -144c0 -12 -4.16699 -22.833 -12.5 -32.5s-18.5 -14.5 -30.5 -14.5c-29.333 0 -44 15.667 -44 47c0 13.333 4 24.333 12 33s18.667 13 32 13c12 0 22.167 -4.66699 30.5 -14s12.5 -20 12.5 -32zM675 0l-106.001 0.000976562c-33.333 0 -58 5.33301 -74 16
c-18 12 -29.333 33.667 -34 65c-4 27.333 -7.66699 54.666 -11 81.999l-13 11c-11.333 -0.666992 -26.666 -7.66699 -45.999 -21s-29 -25 -29 -35c35.333 -71.333 53 -123.666 53 -156.999c0 -71.333 -40 -123 -120 -155c-55.333 -22 -126 -33 -212 -33
c-46.667 0 -70 17 -70 51c0 22 27 36.667 81 44c86 11.333 135.667 19 149 23c54 16.667 81 48 81 94c0 11.333 -9.83301 37.5 -29.5 78.5s-29.5 70.5 -29.5 88.5c0 28.667 22.333 56 67 82c40.667 23.333 76.667 35 108 35c29.333 0 49.333 -10.667 60 -32
c2.66699 -4 9 -26.333 19 -67c6.66699 -28 18.667 -47.333 36 -58c1.33301 -0.666992 17 -6.33398 47 -17.001h73v-95z" />
    <glyph glyph-name="Eacute" unicode="&#xc9;" horiz-adv-x="267" 
d="M305 0h-69.999c-39.333 0 -68.666 9.66699 -87.999 29c-12 12 -32 89 -60 231c-26.667 136 -40 221.667 -40 257c0 14 3.66699 26.833 11 38.5s17.666 17.5 30.999 17.5c28 0 50 -35.667 66 -107c7.33301 -32 17.666 -103 30.999 -213c10.667 -86 22 -138.667 34 -158h85
v-95z" />
    <glyph glyph-name="Ecircumflex" unicode="&#xca;" horiz-adv-x="981" 
d="M589 375c0 -13.333 -4.83301 -24.168 -14.5 -32.501s-21.5 -12.5 -35.5 -12.5c-13.333 0 -25.166 4.33301 -35.499 13s-15.5 19.667 -15.5 33s5.16699 24.5 15.5 33.5s22.166 13.5 35.499 13.5s25 -4.66699 35 -14s15 -20.666 15 -33.999zM952 -37.002
c0 -114 -155.001 -170.998 -465.001 -170.998c-272 0 -408 63 -408 189c0 56.667 40 98.334 120 125.001c54 18 117 27 189 27s108 -18 108 -54c0 -17.333 -29 -28 -87 -32c-96 -6.66699 -150 -11 -162 -13c-58 -10.667 -87 -32.334 -87 -65.001c0 -36 47 -62 141 -78
c55.333 -9.33301 115.666 -14 180.999 -14c75.333 0 149 4.66699 221 14c112 14.667 168 37.667 168 69l-1 6l-14 17c-22.667 6.66699 -48.667 10 -78 10c-14 0 -34.5 -1 -61.5 -3s-47.5 -3 -61.5 -3s-26.167 4.16699 -36.5 12.5s-15.5 19.5 -15.5 33.5
c0 23.333 10.667 38.666 32 45.999c38 7.33301 57.667 11.333 59 12c22.667 8 34 21.333 34 40c0 21.333 -10 41.666 -30 60.999c-1.33301 2 -19.666 16.667 -54.999 44c-20 15.333 -30 29 -30 41s5.33301 22.833 16 32.5s22 14.5 34 14.5c39.333 0 75.666 -29 108.999 -87
c30.667 -54 44.334 -101.667 41.001 -143c44.667 -9.33301 77.334 -22 98.001 -38c27.333 -21.333 41 -52.333 41 -93zM660.999 -317c0 -25.333 -11.666 -38 -34.999 -38c-5.33301 0 -13.833 0.833008 -25.5 2.5s-20.834 2.16699 -27.501 1.5l-85 -6c-32 0 -48 13 -48 39
c0 31.333 35 47 105 47h23c62 0 93 -15.333 93 -46z" />
    <glyph glyph-name="Edieresis" unicode="&#xcb;" horiz-adv-x="879" 
d="M785 -92c0 -23.333 -19.334 -38.333 -58.001 -45c-15.333 -2.66699 -43.666 -4 -84.999 -4c-52 0 -78 16 -78 48c0 26 10.667 39 32 39c5.33301 0 13.5 -0.5 24.5 -1.5s19.167 -1.5 24.5 -1.5c10.667 0 26.167 0.833008 46.5 2.5s35.833 2.5 46.5 2.5
c12 0 22.833 -3.66699 32.5 -11s14.5 -17 14.5 -29zM839.999 172c0 -55.333 -33.333 -99.3301 -100 -131.997c-54 -26.667 -112.667 -40 -176 -40c-41.333 0 -60.666 -0.333008 -57.999 -1l-44 14c9.33301 -41.333 14 -66 14 -74c0 -53.333 -20 -80 -60 -80
c-49.333 0 -88.333 24 -117 72c-22.667 37.333 -37 83.666 -43 138.999c-3.33301 8.66699 -15.333 13 -36 13c-45.333 0 -68 -12.333 -68 -37c0 -4.66699 19.167 -54.834 57.5 -150.501s57.5 -159.834 57.5 -192.501c0 -27.333 -14 -41 -42 -41
c-12.667 0 -43.334 60 -92.001 180c-46.667 115.333 -70 181 -70 197c0 36.667 16 68 48 94s66.667 39 104 39c34 0 77 -12.833 129 -38.5s80.333 -38.5 85 -38.5h135c8 4.66699 30.333 9 67 13s63.667 9.33301 81 16c27.333 10.667 41 27.334 41 50.001
c0 14.667 -14.5 32.667 -43.5 54s-43.5 37.666 -43.5 48.999c0 12 4.83301 22.167 14.5 30.5s20.5 12.5 32.5 12.5c34.667 0 65 -16.333 91 -49c24 -30.667 36 -63.667 36 -99z" />
    <glyph glyph-name="Igrave" unicode="&#xcc;" horiz-adv-x="617" 
d="M431 495c0 -13.333 -5 -24.166 -15 -32.499s-21.667 -12.5 -35 -12.5s-25.5 4.16699 -36.5 12.5s-16.5 18.833 -16.5 31.5c0 13.333 5.5 24.833 16.5 34.5s23.167 14.5 36.5 14.5c12.667 0 24.167 -4.83301 34.5 -14.5s15.5 -20.834 15.5 -33.501zM516 385
c0 -12 -5.33301 -22.333 -16 -31s-22 -13 -34 -13c-13.333 0 -25.5 4.5 -36.5 13.5s-16.5 19.833 -16.5 32.5c0 13.333 5.16699 24.5 15.5 33.5s22.5 13.5 36.5 13.5s26 -4.66699 36 -14s15 -21 15 -35zM377 384c0 -14 -4.83398 -25.333 -14.501 -34s-21.5 -13 -35.5 -13
c-13.333 0 -25.166 4.5 -35.499 13.5s-15.5 20.167 -15.5 33.5c0 12.667 5.16699 23.5 15.5 32.5s21.833 13.5 34.5 13.5c34 0 51 -15.333 51 -46zM644.999 0l-76.001 0.000976562c-33.333 0 -58 5.33301 -74 16c-18 12 -29.333 33.667 -34 65
c-4 27.333 -7.66699 54.666 -11 81.999l-13 11c-11.333 -0.666992 -26.666 -7.66699 -45.999 -21s-29 -25 -29 -35c35.333 -71.333 53 -123.666 53 -156.999c0 -71.333 -40 -123 -120 -155c-55.333 -22 -126 -33 -212 -33c-46.667 0 -70 17 -70 51c0 22 27 36.667 81 44
c86 11.333 135.667 19 149 23c54 16.667 81 48 81 94c0 11.333 -9.83301 37.5 -29.5 78.5s-29.5 70.5 -29.5 88.5c0 28.667 22.333 56 67 82c40.667 23.333 76.667 35 108 35c29.333 0 49.333 -10.667 60 -32c2 -2.66699 7 -21.334 15 -56.001l3 -11
c6.66699 -27.333 19 -46.666 37 -57.999c7.33301 -2.66699 20.333 -8.33398 39 -17.001h51v-95z" />
    <glyph glyph-name="Iacute" unicode="&#xcd;" horiz-adv-x="956" 
d="M841 -126c0 -11.333 -4.66797 -22.001 -14.001 -32.001s-19.666 -15 -30.999 -15c-12 0 -22.167 4.83301 -30.5 14.5s-12.5 20.5 -12.5 32.5c0 12.667 4.33301 23.834 13 33.501s19 14.5 31 14.5s22.333 -5 31 -15s13 -21 13 -33zM991.999 94.999l-0.000976562 -94.998
h-80c-19.333 0 -40.5 7.33301 -63.5 22s-39.5 30.667 -49.5 48c-48.667 -48.667 -99 -73 -151 -73c-24.667 0 -48.334 6 -71.001 18c-38.667 -149.333 -112.667 -224 -222 -224c-67.333 0 -129.333 21 -186 63c-62 46 -93 101.667 -93 167c0 33.333 10 66.666 30 99.999
c22 38 48.667 57 80 57c9.33301 0 17.833 -3.66699 25.5 -11s11.5 -15.666 11.5 -24.999c0 -7.33301 -10.833 -23.666 -32.5 -48.999s-32.5 -48.333 -32.5 -69c0 -41.333 22 -76 66 -104c38.667 -24 80 -36 124 -36c40 0 75.333 18.667 106 56
c28.667 35.333 43 73.666 43 114.999c0 24.667 -10 59.667 -30 105s-30 70.666 -30 75.999c0 27.333 12.667 41 38 41c18 0 41.833 -30.333 71.5 -91s51.834 -91 66.501 -91h7c4.66699 -0.666992 8.66699 -1 12 -1h21c53.333 0 80 21 80 63c0 9.33301 -4 22.166 -12 38.499
s-12 29.166 -12 38.499c0 10.667 4.66699 19.834 14 27.501s19.333 11.5 30 11.5c20.667 0 36.334 -11.667 47.001 -35c6 -16 15.333 -39.667 28 -71c12.667 -28 32 -47 58 -57c9.33301 -3.33301 19.333 -8.33301 30 -15h76zM385.998 131.001
c0 -11.333 -4.16699 -22.001 -12.5 -32.001s-18.166 -15 -29.499 -15c-12 0 -22.333 4.5 -31 13.5s-13 19.5 -13 31.5c0 31.333 14.667 47 44 47c11.333 0 21.166 -4.66699 29.499 -14s12.5 -19.666 12.5 -30.999z" />
    <glyph glyph-name="Icircumflex" unicode="&#xce;" horiz-adv-x="617" 
d="M528 411c0 -26 -11.667 -39 -35 -39c-4.66699 0 -13.167 0.833008 -25.5 2.5s-21.833 2.16699 -28.5 1.5c-42.667 -4 -71 -6 -85 -6c-32 0 -48 13.333 -48 40c0 31.333 35 47 105 47h24c62 0 93 -15.333 93 -46zM645 0l-76 0.00195312c-33.333 0 -58 5.33301 -74 16
c-18 12 -29.333 33.667 -34 65c-4 27.333 -7.66699 54.666 -11 81.999l-13 11c-11.333 -0.666992 -26.666 -7.66699 -45.999 -21s-29 -25 -29 -35c35.333 -71.333 53 -123.666 53 -156.999c0 -71.333 -40 -123 -120 -155c-55.333 -22 -126 -33 -212 -33
c-46.667 0 -70 17 -70 51c0 22 27 36.667 81 44c86 11.333 135.667 19 149 23c54 16.667 81 48 81 94c0 11.333 -9.83301 37.5 -29.5 78.5s-29.5 70.5 -29.5 88.5c0 28.667 22.333 56 67 82c40.667 23.333 76.667 35 108 35c29.333 0 49.666 -10.667 60.999 -32
c2.66699 -4.66699 8.66699 -26.667 18 -66c7.33301 -28.667 19.333 -48.334 36 -59.001c8 -2.66699 21.667 -8.33398 41 -17.001h49v-95z" />
    <glyph glyph-name="Idieresis" unicode="&#xcf;" horiz-adv-x="956" 
d="M868 411c0 -26 -11.667 -39 -35 -39c-4.66699 0 -13.167 0.833008 -25.5 2.5s-21.833 2.16699 -28.5 1.5c-42.667 -4 -71 -6 -85 -6c-32 0 -48 13.333 -48 40c0 31.333 35 47 105 47h24c62 0 93 -15.333 93 -46zM992 95l-0.000976562 -94.998h-80
c-19.333 0 -40.5 7.33301 -63.5 22s-39.5 30.667 -49.5 48c-48.667 -48.667 -99 -73 -151 -73c-24.667 0 -48.334 6 -71.001 18c-38.667 -149.333 -112.667 -224 -222 -224c-67.333 0 -129.333 21 -186 63c-62 46 -93 101.667 -93 167c0 33.333 10 66.666 30 99.999
c22 38 48.667 57 80 57c9.33301 0 17.833 -3.66699 25.5 -11s11.5 -15.666 11.5 -24.999c0 -7.33301 -10.833 -23.666 -32.5 -48.999s-32.5 -48.333 -32.5 -69c0 -41.333 22 -76 66 -104c38.667 -24 80 -36 124 -36c40 0 75.333 18.667 106 56
c28.667 35.333 43 73.666 43 114.999c0 24.667 -10 59.667 -30 105s-30 70.666 -30 75.999c0 27.333 12.667 41 38 41c18 0 41.833 -30.333 71.5 -91s51.834 -91 66.501 -91h7c4.66699 -0.666992 8.66699 -1 12 -1h21c53.333 0 80 21 80 63c0 9.33301 -4 22.166 -12 38.499
s-12 29.166 -12 38.499c0 10.667 4.66699 19.834 14 27.501s19.333 11.5 30 11.5c20.667 0 36.334 -11.667 47.001 -35c6 -16 15.333 -39.667 28 -71c12.667 -28 32 -47 58 -57c9.33301 -3.33301 19.333 -8.33301 30 -15h76zM385.999 131.002
c0 -11.333 -4.16699 -22.001 -12.5 -32.001s-18.166 -15 -29.499 -15c-12 0 -22.333 4.5 -31 13.5s-13 19.5 -13 31.5c0 31.333 14.667 47 44 47c11.333 0 21.166 -4.66699 29.499 -14s12.5 -19.666 12.5 -30.999zM991.999 95.001l-75.999 -0.00195312
c-10.667 6.66699 -20.667 11.667 -30 15c-26 10 -45.333 29 -58 57c-6 16 -15.333 39.667 -28 71c-10.667 23.333 -26.334 35 -47.001 35c-10.667 0 -20.667 -3.83301 -30 -11.5s-14 -16.834 -14 -27.501c0 -9.33301 4 -22.166 12 -38.499s12 -29.166 12 -38.499
c0 -42 -26.667 -63 -80 -63h-21c-3.33301 0 -7.33301 0.333008 -12 1h-7c-14.667 0 -36.834 30.333 -66.501 91s-53.5 91 -71.5 91c-25.333 0 -38 -13.667 -38 -41c0 -5.33301 10 -30.666 30 -75.999s30 -80.333 30 -105c0 -41.333 -14.333 -79.666 -43 -114.999
c-30.667 -37.333 -66 -56 -106 -56c-44 0 -85.333 12 -124 36c-44 28 -66 62.667 -66 104c0 20.667 10.833 43.667 32.5 69s32.5 41.666 32.5 48.999c0 9.33301 -3.83301 17.666 -11.5 24.999s-16.167 11 -25.5 11c-31.333 0 -58 -19 -80 -57
c-20 -33.333 -30 -66.666 -30 -99.999c0 -65.333 31 -121 93 -167c56.667 -42 118.667 -63 186 -63c109.333 0 183.333 74.667 222 224c22.667 -12 46.334 -18 71.001 -18c52 0 102.333 24.333 151 73c10 -17.333 26.5 -33.333 49.5 -48s44.167 -22 63.5 -22h80v95z
M386 130.999c0 11.333 -4.16699 21.667 -12.5 31s-18.166 14 -29.499 14c-29.333 0 -44 -15.667 -44 -47c0 -12 4.33301 -22.5 13 -31.5s19 -13.5 31 -13.5c11.333 0 21.166 5 29.499 15s12.5 20.667 12.5 32zM992 95l-0.000976562 -94.998h-80
c-19.333 0 -40.5 7.33301 -63.5 22s-39.5 30.667 -49.5 48c-48.667 -48.667 -99 -73 -151 -73c-24.667 0 -48.334 6 -71.001 18c-38.667 -149.333 -112.667 -224 -222 -224c-67.333 0 -129.333 21 -186 63c-62 46 -93 101.667 -93 167c0 33.333 10 66.666 30 99.999
c22 38 48.667 57 80 57c9.33301 0 17.833 -3.66699 25.5 -11s11.5 -15.666 11.5 -24.999c0 -7.33301 -10.833 -23.666 -32.5 -48.999s-32.5 -48.333 -32.5 -69c0 -41.333 22 -76 66 -104c38.667 -24 80 -36 124 -36c40 0 75.333 18.667 106 56
c28.667 35.333 43 73.666 43 114.999c0 24.667 -10 59.667 -30 105s-30 70.666 -30 75.999c0 27.333 12.667 41 38 41c18 0 41.833 -30.333 71.5 -91s51.834 -91 66.501 -91h7c4.66699 -0.666992 8.66699 -1 12 -1h21c53.333 0 80 21 80 63c0 9.33301 -4 22.166 -12 38.499
s-12 29.166 -12 38.499c0 10.667 4.66699 19.834 14 27.501s19.333 11.5 30 11.5c20.667 0 36.334 -11.667 47.001 -35c6 -16 15.333 -39.667 28 -71c12.667 -28 32 -47 58 -57c9.33301 -3.33301 19.333 -8.33301 30 -15h76zM385.999 131.002
c0 -11.333 -4.16699 -22.001 -12.5 -32.001s-18.166 -15 -29.499 -15c-12 0 -22.333 4.5 -31 13.5s-13 19.5 -13 31.5c0 31.333 14.667 47 44 47c11.333 0 21.166 -4.66699 29.499 -14s12.5 -19.666 12.5 -30.999z" />
    <glyph glyph-name="Eth" unicode="&#xd0;" 
 />
    <glyph glyph-name="Ntilde" unicode="&#xd1;" horiz-adv-x="423" 
d="M452 95l-0.000976562 -94.999h-80c-19.333 0 -40.5 7.33301 -63.5 22s-39.5 30.667 -49.5 48c-22 -22 -54.667 -39.667 -98 -53c-38 -11.333 -75.333 -17 -112 -17h-76v95h84c90.667 0 136 20.667 136 62c0 9.33301 -4 22.166 -12 38.499s-12 29.166 -12 38.499
c0 10.667 4.66699 19.834 14 27.501s19.333 11.5 30 11.5c20.667 0 36.334 -11.667 47.001 -35c6 -16 15.333 -39.667 28 -71c12.667 -28 32 -47 58 -57c9.33301 -3.33301 19.333 -8.33301 30 -15h76zM300.999 -125.999c0 -11.333 -4.66797 -22.001 -14.001 -32.001
s-19.666 -15 -30.999 -15c-12 0 -22.167 4.83301 -30.5 14.5s-12.5 20.5 -12.5 32.5c0 12.667 4.33301 23.834 13 33.501s19 14.5 31 14.5s22.333 -5 31 -15s13 -21 13 -33z" />
    <glyph glyph-name="Ograve" unicode="&#xd2;" horiz-adv-x="674" 
d="M651 -107c0 -25.333 -11.666 -38 -34.999 -38c-5.33301 0 -13.833 0.833008 -25.5 2.5s-20.834 2.16699 -27.501 1.5l-85 -6c-32 0 -48 13 -48 39c0 31.333 35 47 105 47h23c62 0 93 -15.333 93 -46zM705.001 0h-136c-33.333 -0 -58 5.33301 -74 16
c-18 12 -29.333 33.667 -34 65c-4 27.333 -7.66699 54.666 -11 81.999l-13 11c-11.333 -0.666992 -26.666 -7.66699 -45.999 -21s-29 -25 -29 -35c35.333 -71.333 53 -123.666 53 -156.999c0 -71.333 -40 -123 -120 -155c-55.333 -22 -126 -33 -212 -33
c-46.667 0 -70 17 -70 51c0 22 27 36.667 81 44c86 11.333 135.667 19 149 23c54 16.667 81 48 81 94c0 11.333 -9.83301 37.5 -29.5 78.5s-29.5 70.5 -29.5 88.5c0 28.667 22.333 56 67 82c40.667 23.333 76.667 35 108 35c29.333 0 49.666 -10.667 60.999 -32
c2.66699 -4.66699 8.66699 -26.667 18 -66c6.66699 -28.667 19.667 -49 39 -61c16.667 -10 40.667 -15.667 72 -17c-30.667 1.33301 -5.66699 2 75 2v-95z" />
    <glyph glyph-name="Oacute" unicode="&#xd3;" horiz-adv-x="508" 
d="M549 0l-78.998 -0.00195312c-19.333 0 -38.333 4.83301 -57 14.5s-31.667 22.5 -39 38.5c-42.667 -33.333 -97.667 -50 -165 -50c-86.667 0 -130 20.667 -130 62c0 14 4.16699 26.333 12.5 37s19.166 15.334 32.499 14.001l119 -14c20 0 36.667 5.33301 50 16
s18.666 25.667 15.999 45l-56 365c-2 12 1.83301 24.167 11.5 36.5s20.5 18.5 32.5 18.5c14 0 26 -6.16699 36 -18.5s16 -25.833 18 -40.5c14 -115.333 31.667 -239.666 53 -372.999c3.33301 -23.333 28.333 -42 75 -56h69zM237.002 196.998
c0 -14 -4.33301 -26.6689 -13 -38.002s-20 -17 -34 -17c-30.667 0 -52 23.667 -64 71l-16 110c-10 64 -15 108.667 -15 134c0 14.667 4.5 27.334 13.5 38.001s20.5 16 34.5 16c25.333 0 42 -18.333 50 -55c29.333 -137.333 44 -223.666 44 -258.999z" />
    <glyph glyph-name="Ocircumflex" unicode="&#xd4;" horiz-adv-x="620" 
d="M472 396c0 -12 -4.16699 -22.833 -12.5 -32.5s-18.5 -14.5 -30.5 -14.5c-28.667 0 -43 15.667 -43 47c0 12.667 4 23.5 12 32.5s18.333 13.5 31 13.5c12 0 22.167 -4.66699 30.5 -14s12.5 -20 12.5 -32zM645 0h-76.002c-33.333 -0 -58 5.33301 -74 16
c-18 12 -29.333 33.667 -34 65c-4 27.333 -7.66699 54.666 -11 81.999l-13 11c-11.333 -0.666992 -26.666 -7.66699 -45.999 -21s-29 -25 -29 -35c35.333 -71.333 53 -123.666 53 -156.999c0 -71.333 -40 -123 -120 -155c-55.333 -22 -126 -33 -212 -33
c-46.667 0 -70 17 -70 51c0 22 27 36.667 81 44c86 11.333 135.667 19 149 23c54 16.667 81 48 81 94c0 11.333 -9.83301 37.5 -29.5 78.5s-29.5 70.5 -29.5 88.5c0 28.667 22.333 56 67 82c40.667 23.333 76.667 35 108 35c29.333 0 49.333 -10.667 60 -32
c2.66699 -4 8.83398 -25.833 18.501 -65.5s33.167 -65.167 70.5 -76.5h56v-95z" />
    <glyph glyph-name="Otilde" unicode="&#xd5;" horiz-adv-x="879" 
d="M727 -111c0 -13.333 -4.66699 -24.5 -14 -33.5s-20.666 -13.5 -33.999 -13.5c-14 0 -26 4.5 -36 13.5s-15 20.167 -15 33.5c0 30.667 17 46 51 46c13.333 0 24.666 -4.33301 33.999 -13s14 -19.667 14 -33zM840 172c0 -55.333 -33.333 -99.3301 -100 -131.997
c-54 -26.667 -112.667 -40 -176 -40c-41.333 0 -60.666 -0.333008 -57.999 -1l-44 14c9.33301 -41.333 14 -66 14 -74c0 -53.333 -20 -80 -60 -80c-49.333 0 -88.333 24 -117 72c-22.667 37.333 -37 83.666 -43 138.999c-3.33301 8.66699 -15.333 13 -36 13
c-45.333 0 -68 -12.333 -68 -37c0 -4.66699 19.167 -54.834 57.5 -150.501s57.5 -159.834 57.5 -192.501c0 -27.333 -14 -41 -42 -41c-12.667 0 -43.334 60 -92.001 180c-46.667 115.333 -70 181 -70 197c0 36.667 16 68 48 94s66.667 39 104 39c34 0 77 -12.833 129 -38.5
s80.333 -38.5 85 -38.5h135c8 4.66699 30.333 9 67 13s63.667 9.33301 81 16c27.333 10.667 41 27.334 41 50.001c0 14.667 -14.5 32.667 -43.5 54s-43.5 37.666 -43.5 48.999c0 12 4.83301 22.167 14.5 30.5s20.5 12.5 32.5 12.5c34.667 0 65 -16.333 91 -49
c24 -30.667 36 -63.667 36 -99z" />
    <glyph glyph-name="Odieresis" unicode="&#xd6;" horiz-adv-x="968" 
d="M998 0l-62.001 0.000976562c-18.667 0 -55.667 22.333 -111 67c-54.667 -44.667 -127.334 -67 -218.001 -67h-285c-63.333 0 -117.666 10.333 -162.999 31c-59.333 27.333 -89 68.333 -89 123c0 108 117.333 162 352 162c50.667 0 76 -13.667 76 -41
c0 -20 -30.667 -32.667 -92 -38c-37.333 -2.66699 -93.666 -7.33398 -168.999 -14.001c-61.333 -7.33301 -92 -27.333 -92 -60c0 -22.667 19 -40 57 -52c28.667 -9.33301 57.667 -14 87 -14h282c72.667 0 127 5.33301 163 16l25 27l3 15c0 8 -4 19.667 -12 35s-12 27 -12 35
c0 12 4.16699 22.167 12.5 30.5s18.5 12.5 30.5 12.5l18 -3l28 -26c9.33301 -30.667 20 -59 32 -85c21.333 -45.333 40.333 -65 57 -59h82v-95zM573.999 -133.999c0 -12.667 -4 -23.333 -12 -32s-18.333 -13 -31 -13c-12 0 -22.5 4.5 -31.5 13.5s-13.5 19.5 -13.5 31.5
s4.5 22.833 13.5 32.5s19.5 14.5 31.5 14.5s22.167 -4.83301 30.5 -14.5s12.5 -20.5 12.5 -32.5z" />
    <glyph glyph-name="Oslash" unicode="&#xd8;" horiz-adv-x="476" 
d="M317 529c0 -14.667 -6.16699 -27.332 -18.5 -37.999s-25.833 -16 -40.5 -16c-15.333 0 -28.5 5.16699 -39.5 15.5s-16.5 23.166 -16.5 38.499s5.33301 28 16 38s23.667 15 39 15c16 0 30 -5 42 -15s18 -22.667 18 -38zM514 95.002l-0.000976562 -94.998h-139
c-55.333 0 -100.666 14 -135.999 42c-16 -11.333 -45 -21.333 -87 -30c-37.333 -8 -68.666 -12 -93.999 -12h-80v95h67c23.333 4 57.666 11 102.999 21c-19.333 33.333 -29 67.333 -29 102c0 51.333 17.833 93.166 53.5 125.499s79.167 48.5 130.5 48.5
c36.667 0 67.334 -14 92.001 -42s37 -60.667 37 -98c0 -66.667 -21.667 -114.334 -65 -143.001c3.33301 -9.33301 20.666 -14 51.999 -14h95zM336.999 229.004c0 16 -5.33203 30.834 -15.999 44.501s-23.667 20.5 -39 20.5c-18.667 0 -37.334 -9.83301 -56.001 -29.5
s-28 -38.834 -28 -57.501c0 -10 8.83301 -25 26.5 -45s31.167 -30 40.5 -30c10 0 25.667 11.667 47 35c16.667 18 25 38.667 25 62z" />
    <glyph glyph-name="Ugrave" unicode="&#xd9;" horiz-adv-x="1378" 
d="M1315 98c0 -65.333 -44.0039 -97.998 -132.004 -97.998h-82v1c-24.667 1.33301 -41.667 4.33301 -51 9l-1 -5c9.33301 -19.333 14 -42.333 14 -69c0 -52.667 -21 -79 -63 -79c-50.667 0 -88.334 23.333 -113.001 70c-8.66699 16 -23 61 -43 135
c-7.33301 -16.667 -20.666 -31.167 -39.999 -43.5s-38.333 -18.5 -57 -18.5h-54c-49.333 0 -92 17 -128 51c-13.333 -11.333 -86.666 -23 -219.999 -35c-115.333 -10.667 -188.333 -16 -219 -16h-147v95c26.667 0 39.334 -0.333008 38.001 -1c-2 0 0.333008 0 7 0
c7.33301 -0.666992 17.333 -1 30 -1c42.667 -0.666992 110.334 -1.33398 203.001 -2.00098c20.667 0 47.334 2.33301 80.001 7c-59.333 23.333 -116.333 52.666 -171 87.999c-78 50 -117 94 -117 132c0 10 3.5 19 10.5 27s15.5 12 25.5 12
c14.667 0 28.334 -6.66699 41.001 -20l30 -35c62.667 -70 149 -115.667 259 -137c30 -4 75 -10.333 135 -19c66 -10.667 97.667 -27.667 95 -51h163c12 0 20.667 7.33301 26 22l8 37c6.66699 3.33301 12 5 16 5c20 0 48.667 -10.667 86 -32s66 -32 86 -32h73
c52.667 0 89.334 2.66699 110.001 8c8 4 11.333 9.66699 10 17l-71 391c-2 11.333 2.16699 23 12.5 35s21.166 18 32.499 18c2 0 9 -1.66699 21 -5c16 -4.66699 26.667 -17.334 32 -38.001c3.33301 -23.333 17.666 -103 42.999 -239c14.667 -79.333 22 -140.666 22 -183.999
z" />
    <glyph glyph-name="Uacute" unicode="&#xda;" horiz-adv-x="956" 
d="M908 -122c0 -32 -35 -48 -105 -48h-24c-62 0 -93 15.667 -93 47c0 25.333 11.667 38 35 38c5.33301 0 14 -0.833008 26 -2.5s21.333 -2.16699 28 -1.5l84 6c32.667 0 49 -13 49 -39zM992 95l-0.000976562 -94.998h-80c-19.333 0 -40.5 7.33301 -63.5 22
s-39.5 30.667 -49.5 48c-48.667 -48.667 -99 -73 -151 -73c-24.667 0 -48.334 6 -71.001 18c-38.667 -149.333 -112.667 -224 -222 -224c-67.333 0 -129.333 21 -186 63c-62 46 -93 101.667 -93 167c0 33.333 10 66.666 30 99.999c22 38 48.667 57 80 57
c9.33301 0 17.833 -3.66699 25.5 -11s11.5 -15.666 11.5 -24.999c0 -7.33301 -10.833 -23.666 -32.5 -48.999s-32.5 -48.333 -32.5 -69c0 -41.333 22 -76 66 -104c38.667 -24 80 -36 124 -36c40 0 75.333 18.667 106 56c28.667 35.333 43 73.666 43 114.999
c0 24.667 -10 59.667 -30 105s-30 70.666 -30 75.999c0 27.333 12.667 41 38 41c18 0 41.833 -30.333 71.5 -91s51.834 -91 66.501 -91h7c4.66699 -0.666992 8.66699 -1 12 -1h21c53.333 0 80 21 80 63c0 9.33301 -4 22.166 -12 38.499s-12 29.166 -12 38.499
c0 10.667 4.66699 19.834 14 27.501s19.333 11.5 30 11.5c20.667 0 36.334 -11.667 47.001 -35c6 -16 15.333 -39.667 28 -71c12.667 -28 32 -47 58 -57c9.33301 -3.33301 19.333 -8.33301 30 -15h76zM385.999 131.002c0 -11.333 -4.16699 -22.001 -12.5 -32.001
s-18.166 -15 -29.499 -15c-12 0 -22.333 4.5 -31 13.5s-13 19.5 -13 31.5c0 31.333 14.667 47 44 47c11.333 0 21.166 -4.66699 29.499 -14s12.5 -19.666 12.5 -30.999zM991.999 95.001l-75.999 -0.00195312c-10.667 6.66699 -20.667 11.667 -30 15
c-26 10 -45.333 29 -58 57c-6 16 -15.333 39.667 -28 71c-10.667 23.333 -26.334 35 -47.001 35c-10.667 0 -20.667 -3.83301 -30 -11.5s-14 -16.834 -14 -27.501c0 -9.33301 4 -22.166 12 -38.499s12 -29.166 12 -38.499c0 -42 -26.667 -63 -80 -63h-21
c-3.33301 0 -7.33301 0.333008 -12 1h-7c-14.667 0 -36.834 30.333 -66.501 91s-53.5 91 -71.5 91c-25.333 0 -38 -13.667 -38 -41c0 -5.33301 10 -30.666 30 -75.999s30 -80.333 30 -105c0 -41.333 -14.333 -79.666 -43 -114.999c-30.667 -37.333 -66 -56 -106 -56
c-44 0 -85.333 12 -124 36c-44 28 -66 62.667 -66 104c0 20.667 10.833 43.667 32.5 69s32.5 41.666 32.5 48.999c0 9.33301 -3.83301 17.666 -11.5 24.999s-16.167 11 -25.5 11c-31.333 0 -58 -19 -80 -57c-20 -33.333 -30 -66.666 -30 -99.999c0 -65.333 31 -121 93 -167
c56.667 -42 118.667 -63 186 -63c109.333 0 183.333 74.667 222 224c22.667 -12 46.334 -18 71.001 -18c52 0 102.333 24.333 151 73c10 -17.333 26.5 -33.333 49.5 -48s44.167 -22 63.5 -22h80v95zM386 130.999c0 11.333 -4.16699 21.667 -12.5 31s-18.166 14 -29.499 14
c-29.333 0 -44 -15.667 -44 -47c0 -12 4.33301 -22.5 13 -31.5s19 -13.5 31 -13.5c11.333 0 21.166 5 29.499 15s12.5 20.667 12.5 32zM992 95l-0.000976562 -94.998h-80c-19.333 0 -40.5 7.33301 -63.5 22s-39.5 30.667 -49.5 48c-48.667 -48.667 -99 -73 -151 -73
c-24.667 0 -48.334 6 -71.001 18c-38.667 -149.333 -112.667 -224 -222 -224c-67.333 0 -129.333 21 -186 63c-62 46 -93 101.667 -93 167c0 33.333 10 66.666 30 99.999c22 38 48.667 57 80 57c9.33301 0 17.833 -3.66699 25.5 -11s11.5 -15.666 11.5 -24.999
c0 -7.33301 -10.833 -23.666 -32.5 -48.999s-32.5 -48.333 -32.5 -69c0 -41.333 22 -76 66 -104c38.667 -24 80 -36 124 -36c40 0 75.333 18.667 106 56c28.667 35.333 43 73.666 43 114.999c0 24.667 -10 59.667 -30 105s-30 70.666 -30 75.999c0 27.333 12.667 41 38 41
c18 0 41.833 -30.333 71.5 -91s51.834 -91 66.501 -91h7c4.66699 -0.666992 8.66699 -1 12 -1h21c53.333 0 80 21 80 63c0 9.33301 -4 22.166 -12 38.499s-12 29.166 -12 38.499c0 10.667 4.66699 19.834 14 27.501s19.333 11.5 30 11.5c20.667 0 36.334 -11.667 47.001 -35
c6 -16 15.333 -39.667 28 -71c12.667 -28 32 -47 58 -57c9.33301 -3.33301 19.333 -8.33301 30 -15h76zM385.999 131.002c0 -11.333 -4.16699 -22.001 -12.5 -32.001s-18.166 -15 -29.499 -15c-12 0 -22.333 4.5 -31 13.5s-13 19.5 -13 31.5c0 31.333 14.667 47 44 47
c11.333 0 21.166 -4.66699 29.499 -14s12.5 -19.666 12.5 -30.999z" />
    <glyph glyph-name="Ucircumflex" unicode="&#xdb;" horiz-adv-x="1378" 
d="M1315 98c0 -65.333 -44.0039 -97.998 -132.004 -97.998h-82v1c-24.667 1.33301 -41.667 4.33301 -51 9l-1 -5c9.33301 -19.333 14 -42.333 14 -69c0 -52.667 -21 -79 -63 -79c-50.667 0 -88.334 23.333 -113.001 70c-8.66699 16 -23 61 -43 135
c-7.33301 -16.667 -20.666 -31.167 -39.999 -43.5s-38.333 -18.5 -57 -18.5h-54c-49.333 0 -92 17 -128 51c-13.333 -11.333 -86.666 -23 -219.999 -35c-115.333 -10.667 -188.333 -16 -219 -16h-147v95c26.667 0 39.334 -0.333008 38.001 -1c-2 0 0.333008 0 7 0
c7.33301 -0.666992 17.333 -1 30 -1c42.667 -0.666992 110.334 -1.33398 203.001 -2.00098c20.667 0 47.334 2.33301 80.001 7c-59.333 23.333 -116.333 52.666 -171 87.999c-78 50 -117 94 -117 132c0 10 3.5 19 10.5 27s15.5 12 25.5 12
c14.667 0 28.334 -6.66699 41.001 -20l30 -35c62.667 -70 149 -115.667 259 -137c30 -4 75 -10.333 135 -19c66 -10.667 97.667 -27.667 95 -51h163c12 0 20.667 7.33301 26 22l8 37c6.66699 3.33301 12 5 16 5c20 0 48.667 -10.667 86 -32s66 -32 86 -32h73
c52.667 0 89.334 2.66699 110.001 8c8 4 11.333 9.66699 10 17l-71 391c-2 11.333 2.16699 23 12.5 35s21.166 18 32.499 18c2 0 9 -1.66699 21 -5c16 -4.66699 26.667 -17.334 32 -38.001c3.33301 -23.333 17.666 -103 42.999 -239c14.667 -79.333 22 -140.666 22 -183.999
zM415.996 -137.998c0 -12.667 -5.16504 -23.667 -15.498 -33s-21.833 -14 -34.5 -14s-24.334 4.66699 -35.001 14s-16 20.333 -16 33c0 13.333 5.16699 24.333 15.5 33s22.166 13 35.499 13c14 0 25.833 -4.33301 35.5 -13s14.5 -19.667 14.5 -33z" />
    <glyph glyph-name="Udieresis" unicode="&#xdc;" horiz-adv-x="806" 
d="M773 90c0 -56 -53.668 -95.335 -161.001 -118.002c-63.333 -13.333 -139.666 -20 -228.999 -20c-66 0 -132 15.667 -198 47c-80.667 38 -121 85.667 -121 143c0 50 29 87.333 87 112c42.667 18 93.334 27 152.001 27c48 0 72 -17.333 72 -52
c0 -17.333 -20 -28.666 -60 -33.999c-24.667 -2.66699 -61.334 -7 -110.001 -13c-40 -6 -60 -20.667 -60 -44c0 -34 40.333 -59.667 121 -77c55.333 -12 109.333 -18 162 -18c55.333 0 106.333 4.33301 153 13c73.333 13.333 110 34.333 110 63c0 8 -11.167 22.5 -33.5 43.5
s-33.5 37.167 -33.5 48.5c0 12.667 4.16699 23.334 12.5 32.001s18.833 13 31.5 13c28 0 53 -21 75 -63c20 -38 30 -72.333 30 -103zM531.999 -135.002c0 -12 -4.33301 -22.667 -13 -32s-19 -14 -31 -14c-12.667 0 -23 4.66699 -31 14s-12 20.333 -12 33
c0 12 4.33301 23 13 33s18.667 15 30 15c12 0 22.333 -5.16699 31 -15.5s13 -21.5 13 -33.5z" />
    <glyph glyph-name="Yacute" unicode="&#xdd;" 
 />
    <glyph glyph-name="Thorn" unicode="&#xde;" 
 />
    <glyph glyph-name="germandbls" unicode="&#xdf;" horiz-adv-x="651" 
d="M462 609c0 -12 -4.33203 -23 -12.999 -33s-19 -15 -31 -15c-12.667 0 -23.334 4.66699 -32.001 14s-13 20.333 -13 33c0 13.333 4 24.333 12 33s18.667 13 32 13c12 0 22.5 -4.5 31.5 -13.5s13.5 -19.5 13.5 -31.5zM674.001 0h-208.995c-54 -0 -111.667 12.333 -173 37
c-54 -29.333 -114.333 -44 -181 -44c-42.667 0 -64 17 -64 51c0 29.333 24.333 47 73 53l116 12c-2.66699 12.667 -4 27 -4 43c0 76 31.667 147.333 95 214l-32 6c-4 4 -18.5 48.5 -43.5 133.5s-37.5 132.5 -37.5 142.5c0 24.667 14.667 37 44 37c20 0 41.333 -45 64 -135
c20.667 -83.333 29 -139.333 25 -168c12.667 14 29 27 49 39c23.333 14 42.666 21 57.999 21c39.333 0 72.333 -9.66699 99 -29c29.333 -21.333 44 -51 44 -89c0 -54.667 -20 -102.667 -60 -144c-26.667 -27.333 -70.334 -58.333 -131.001 -93
c13.333 -1.33301 27.666 -2 42.999 -2c19.333 0 48.166 1.66699 86.499 5s67.166 5 86.499 5h52v-95zM514.006 308c0 12.667 -4.49805 22.833 -13.498 30.5s-19.833 11.5 -32.5 11.5c-38.667 0 -77.334 -26.333 -116.001 -79c-36.667 -50 -54.334 -95 -53.001 -135
c34 6.66699 77 29 129 67c57.333 42 86 77 86 105z" />
    <glyph glyph-name="agrave" unicode="&#xe0;" horiz-adv-x="418" 
d="M327 411c0 -25.333 -11.333 -37.999 -34 -37.999c-4.66699 0 -11.334 0.5 -20.001 1.5s-15.334 1.5 -20.001 1.5c-11.333 0 -28.666 -1.16699 -51.999 -3.5s-40.666 -3.5 -51.999 -3.5s-21.5 4.16699 -30.5 12.5s-13.5 18.166 -13.5 29.499c0 32 36.333 48 109 48h32
c54 0 81 -16 81 -48zM442 95.001l-0.000976562 -94.999h-60c-19.333 0 -40.5 7.33301 -63.5 22s-39.5 30.667 -49.5 48c-22 -22 -54.667 -39.667 -98 -53c-38 -11.333 -75.333 -17 -112 -17h-86v95h92c92 0 138 20.667 138 62c0 9.33301 -4 22.166 -12 38.499
s-12 29.166 -12 38.499c0 10.667 4.66699 19.834 14 27.501s19.333 11.5 30 11.5c20.667 0 36.334 -11.667 47.001 -35c6 -16 15.333 -39.667 28 -71c12.667 -28 32 -47 58 -57c9.33301 -3.33301 19.333 -8.33301 30 -15h56z" />
    <glyph glyph-name="aacute" unicode="&#xe1;" horiz-adv-x="591" 
d="M351 497c0 -9.33301 -3.33301 -18.167 -10 -26.5s-14.667 -12.5 -24 -12.5c-6 0 -14.833 0.666992 -26.5 2s-20.5 2 -26.5 2c-10 0 -24.667 -1 -44 -3s-34 -3 -44 -3c-31.333 0 -47 13 -47 39c0 34.667 40 52 120 52c68 0 102 -16.667 102 -50zM625 -0.000976562
l-85.999 0.000976562c-34.667 0 -63 29.667 -85 89c-22.667 -30.667 -58 -54.334 -106 -71.001c-42 -14.667 -85 -22 -129 -22c-112.667 0 -169 36 -169 108c0 56 42.667 104 128 144c62.667 29.333 130.667 48.333 204 57l2 3l-1 32c-1.33301 45.333 13.667 68 45 68
c23.333 0 43 -37.333 59 -112l27 -147c7.33301 -38 22.666 -57 45.999 -57c4 0 7.66699 1 11 3h54v-95zM427.001 161l-20 75c-52 -10 -102 -24 -150 -42c-74.667 -28 -112 -56.667 -112 -86c0 -11.333 8.66699 -20 26 -26c12.667 -4.66699 26 -7 40 -7c38 0 77.667 7 119 21
c50.667 17.333 83 39 97 65z" />
    <glyph glyph-name="acircumflex" unicode="&#xe2;" horiz-adv-x="962" 
d="M624 447c0 -26.667 -10.666 -40 -31.999 -40c-4.66699 0 -12.834 0.833008 -24.501 2.5s-20.5 2.16699 -26.5 1.5l-87 -6c-30.667 0 -46 14 -46 42c0 32.667 39.333 49 118 49c65.333 0 98 -16.333 98 -49zM990.001 95v-95h-69c-12.667 -0 -31.5 8.33301 -56.5 25
s-42.5 31 -52.5 43c-48 -45.333 -122.667 -68 -224 -68h-267c-62.667 -0 -117.334 10.333 -164.001 31c-61.333 27.333 -92 68.333 -92 123c0 109.333 117.333 164 352 164c48 0 72 -13.667 72 -41c0 -22.667 -30 -36.334 -90 -41.001
c-37.333 -1.33301 -93.666 -5 -168.999 -11c-60 -6.66699 -90 -27 -90 -61c0 -22 17.667 -39 53 -51c25.333 -8.66699 58 -14 98 -16c33.333 0 66.666 -0.333008 99.999 -1c53.333 -2 94 -3 122 -3c84.667 0 154.667 7.33301 210 22l23 29l1 12
c0.666992 8 -3 19.833 -11 35.5s-12 27.5 -12 35.5c0 28.667 15 43 45 43c18.667 0 33.334 -11.667 44.001 -35c6 -16 15.333 -39.333 28 -70c12 -28 29.333 -46 52 -54c10 -3.33301 22 -8.66602 36 -15.999h61z" />
    <glyph glyph-name="atilde" unicode="&#xe3;" horiz-adv-x="433" 
d="M250 494c0 -12.667 -5.16602 -23.832 -15.499 -33.499s-21.833 -14.5 -34.5 -14.5s-24.334 4.66699 -35.001 14s-16 20.333 -16 33c0 14 5 25.167 15 33.5s22 12.5 36 12.5c12.667 0 24.167 -4.33301 34.5 -13s15.5 -19.334 15.5 -32.001zM332.001 385.002
c0 -13.333 -4.83301 -24.5 -14.5 -33.5s-21.167 -13.5 -34.5 -13.5c-12.667 0 -24.167 4.66699 -34.5 14s-15.5 20.333 -15.5 33c0 14 4.83301 25.333 14.5 34s21.5 13 35.5 13c13.333 0 24.833 -4.5 34.5 -13.5s14.5 -20.167 14.5 -33.5zM197.001 381.002
c0 -14 -5.33105 -25.333 -15.998 -34s-23.334 -13 -38.001 -13c-12 0 -22.833 4.83301 -32.5 14.5s-14.5 20.5 -14.5 32.5c0 13.333 5.16699 24.5 15.5 33.5s22.166 13.5 35.499 13.5c12 0 23.333 -4.83301 34 -14.5s16 -20.5 16 -32.5zM462.003 95.002
l-0.000976562 -94.999h-80c-19.333 0 -40.5 7.33301 -63.5 22s-39.5 30.667 -49.5 48c-22 -22 -54.667 -39.667 -98 -53c-38 -11.333 -75.333 -17 -112 -17h-86v95h71c106 3.33301 159 24 159 62c0 9.33301 -4 22.166 -12 38.499s-12 29.166 -12 38.499
c0 10.667 4.66699 19.834 14 27.501s19.333 11.5 30 11.5c20.667 0 36.334 -11.667 47.001 -35c6 -16 15.333 -39.667 28 -71c12.667 -28 32 -47 58 -57c9.33301 -3.33301 19.333 -8.33301 30 -15h76z" />
    <glyph glyph-name="adieresis" unicode="&#xe4;" horiz-adv-x="804" 
d="M597 336c0 -10 -3.33301 -19 -10 -27s-15 -12 -25 -12c-6 0 -14.667 0.666992 -26 2s-20 2 -26 2c-10 0 -24.833 -1 -44.5 -3s-34.5 -3 -44.5 -3c-31.333 0 -47 13.667 -47 41c0 31.333 34.333 47 103 47h36c56 0 84 -15.667 84 -47zM773 90
c0 -56 -53.668 -95.335 -161.001 -118.002c-63.333 -13.333 -139.666 -20 -228.999 -20c-66 0 -132 15.667 -198 47c-80.667 38 -121 85.667 -121 143c0 50 29 87.333 87 112c42.667 18 93.334 27 152.001 27c48 0 72 -17.333 72 -52c0 -17.333 -20 -28.666 -60 -33.999
c-24.667 -2.66699 -61.334 -7 -110.001 -13c-40 -6 -60 -20.667 -60 -44c0 -34 40.333 -59.667 121 -77c55.333 -12 109.333 -18 162 -18c55.333 0 106.333 4.33301 153 13c73.333 13.333 110 34.333 110 63c0 8 -11.167 22.5 -33.5 43.5s-33.5 37.167 -33.5 48.5
c0 12.667 4.16699 23.334 12.5 32.001s18.833 13 31.5 13c28 0 53 -21 75 -63c20 -38 30 -72.333 30 -103z" />
    <glyph glyph-name="aring" unicode="&#xe5;" horiz-adv-x="962" 
d="M536 514c0 -12.667 -5.33301 -23.833 -16 -33.5s-22.334 -14.5 -35.001 -14.5c-13.333 0 -25.333 4.5 -36 13.5s-16 20.167 -16 33.5s5.33301 24.5 16 33.5s22.667 13.5 36 13.5c12.667 0 24.334 -4.5 35.001 -13.5s16 -19.833 16 -32.5zM618 405.001
c0 -30.667 -17 -46 -51 -46c-14 0 -26.167 4.33301 -36.5 13s-15.5 19.667 -15.5 33c0 14 5.33301 25.167 16 33.5s23 12.5 37 12.5s25.833 -4.16699 35.5 -12.5s14.5 -19.5 14.5 -33.5zM481 401.001c0 -13.333 -5.33496 -24.667 -16.002 -34s-22.667 -14 -36 -14
s-25.166 4.5 -35.499 13.5s-15.5 20.167 -15.5 33.5s5.16699 24.5 15.5 33.5s22.5 13.5 36.5 13.5c12.667 0 24.334 -4.5 35.001 -13.5s16 -19.833 16 -32.5zM989.998 95l0.00488281 -94.999h-48c-44.667 0 -88.334 22.667 -131.001 68
c-20.667 -22.667 -57.667 -40.334 -111 -53.001c-42.667 -10 -84.334 -15 -125.001 -15h-268c-60.667 -0 -114.667 10.333 -162 31c-62 27.333 -93 67.333 -93 120c0 110 116.667 165 350 165c52.667 0 79 -13.667 79 -41c0 -18.667 -39 -32.334 -117 -41.001
c-48.667 -2.66699 -97.334 -5.66699 -146.001 -9c-61.333 -10 -92 -30.667 -92 -62c0 -25.333 22.333 -43.666 67 -54.999c29.333 -7.33301 62.666 -11 99.999 -11c18.667 0 46.667 -0.333008 84 -1s65.333 -1 84 -1c137.333 0 224.333 6.66699 261 20l23 29v12
c0 8.66699 -3.66699 20.5 -11 35.5s-11 26.833 -11 35.5c0 11.333 4.16699 21.333 12.5 30s18.166 13 29.499 13c19.333 0 36.333 -15 51 -45l39 -85c18 -30 39 -45 63 -45h72z" />
    <glyph glyph-name="ae" unicode="&#xe6;" horiz-adv-x="427" 
d="M241 404c0 -11.333 -4.66797 -22.001 -14.001 -32.001s-19.666 -15 -30.999 -15c-12 0 -22.167 4.83301 -30.5 14.5s-12.5 20.5 -12.5 32.5c0 12.667 4.33301 23.834 13 33.501s19 14.5 31 14.5s22.333 -5 31 -15s13 -21 13 -33zM451.999 94.999l-0.000976562 -94.999
h-70c-19.333 -0 -40.5 7.33301 -63.5 22s-39.5 30.667 -49.5 48c-22 -22 -54.667 -39.667 -98 -53c-38 -11.333 -75.333 -17 -112 -17h-86v95h85c96.667 10 145 30.667 145 62c0 9.33301 -4 22.166 -12 38.499s-12 29.166 -12 38.499c0 10.667 4.66699 19.834 14 27.501
s19.333 11.5 30 11.5c20.667 0 36.334 -11.667 47.001 -35c6 -16 15.333 -39.667 28 -71c12.667 -28 32 -47 58 -57c9.33301 -3.33301 19.333 -8.33301 30 -15h66z" />
    <glyph glyph-name="ccedilla" unicode="&#xe7;" horiz-adv-x="850" 
d="M506 472c0 -12.667 -5.33105 -23.5 -15.998 -32.5s-22.334 -13.5 -35.001 -13.5c-13.333 0 -25.166 4.33301 -35.499 13s-15.5 19.667 -15.5 33s5.16699 24.333 15.5 33s22.166 13 35.499 13s25.166 -4.33301 35.499 -13s15.5 -19.667 15.5 -33zM589.002 365
c0 -13.333 -5 -24.333 -15 -33s-21.667 -13 -35 -13s-25.5 4.33301 -36.5 13s-16.5 19.667 -16.5 33s5.33301 24.333 16 33s23 13 37 13c13.333 0 25 -4.33301 35 -13s15 -19.667 15 -33zM452.002 360c0 -14 -5.16699 -24.999 -15.5 -32.999s-22.5 -12 -36.5 -12
s-26 4.16699 -36 12.5s-15 19.166 -15 32.499s5 24.166 15 32.499s21.667 12.5 35 12.5c14 0 26.333 -4.16699 37 -12.5s16 -19.166 16 -32.499zM773.002 90.001c0 -56 -53.668 -95.335 -161.001 -118.002c-63.333 -13.333 -139.666 -20 -228.999 -20
c-66 0 -132 15.667 -198 47c-80.667 38 -121 85.667 -121 143c0 50 29 87.333 87 112c42.667 18 93.334 27 152.001 27c48 0 72 -17.333 72 -52c0 -17.333 -20 -28.666 -60 -33.999c-24.667 -2.66699 -61.334 -7 -110.001 -13c-40 -6 -60 -20.667 -60 -44
c0 -34 40.333 -59.667 121 -77c55.333 -12 109.333 -18 162 -18c55.333 0 106.333 4.33301 153 13c73.333 13.333 110 34.333 110 63c0 8 -11.167 22.5 -33.5 43.5s-33.5 37.167 -33.5 48.5c0 12.667 4.16699 23.334 12.5 32.001s18.833 13 31.5 13c28 0 53 -21 75 -63
c20 -38 30 -72.333 30 -103z" />
    <glyph glyph-name="egrave" unicode="&#xe8;" horiz-adv-x="648" 
d="M668 95v-95h-66c-24.667 -0 -51 7.33301 -79 22c-32.667 16.667 -49 36 -49 58c0 10.667 4.5 21.167 13.5 31.5s18.833 15.5 29.5 15.5c2 0 10 -5.33301 24 -16s32 -16 54 -16h73zM498 -40c0 -13.333 -4.83398 -24.5 -14.501 -33.5s-21.167 -13.5 -34.5 -13.5
s-25.166 4.5 -35.499 13.5s-15.5 20.167 -15.5 33.5c0 14 5 25.167 15 33.5s22 12.5 36 12.5c32.667 0 49 -15.333 49 -46zM588.999 180c0 -3.33301 -1.66992 -11.668 -5.00293 -25.001l-20 -14c-80 -1.33301 -151 -15 -213 -41c-83.333 -34.667 -125 -86 -125 -154
c0 -56 37.667 -96.333 113 -121c50.667 -16.667 111.334 -25 182.001 -25c28 0 42 -14 42 -42c0 -30.667 -23.333 -46 -70 -46c-78 0 -151.667 18.333 -221 55c-84 44.667 -126 102.334 -126 173.001c0 42.667 9.33301 79.334 28 110.001l69 87
c-25.333 6.66699 -63.333 18.167 -114 34.5s-76 41.833 -76 76.5c0 8.66699 3.16699 16.167 9.5 22.5s13.833 9.5 22.5 9.5c-30 0 -23.333 -5.33301 20 -16c37.333 -8.66699 87.333 -18.334 150 -29.001s102 -16 118 -16c18.667 0 46.834 2.5 84.501 7.5
s65.834 7.5 84.501 7.5c31.333 0 47 -18 47 -54z" />
    <glyph glyph-name="eacute" unicode="&#xe9;" horiz-adv-x="721" 
d="M748 95l-0.00488281 -94.998h-55c-49.333 0 -92 17 -128 51c-13.333 -11.333 -86.666 -23 -219.999 -35c-115.333 -10.667 -188.333 -16 -219 -16h-147v95c26.667 0 39.334 -0.333008 38.001 -1c-2 0 0.333008 0 7 0c7.33301 -0.666992 17.333 -1 30 -1
c42.667 -0.666992 110.334 -1.33398 203.001 -2.00098c20.667 0 47.334 2.33301 80.001 7c-59.333 23.333 -116.333 52.666 -171 87.999c-78 50 -117 94 -117 132c0 10 3.5 19 10.5 27s15.5 12 25.5 12c14.667 0 28.334 -6.66699 41.001 -20l30 -35
c62.667 -70 149 -115.667 259 -137c30 -4 75 -10.333 135 -19c66 -10.667 97.667 -27.667 95 -51h103zM415.995 -137.998c0 -12.667 -5.16504 -23.667 -15.498 -33s-21.833 -14 -34.5 -14s-24.334 4.66699 -35.001 14s-16 20.333 -16 33c0 13.333 5.16699 24.333 15.5 33
s22.166 13 35.499 13c14 0 25.833 -4.33301 35.5 -13s14.5 -19.667 14.5 -33z" />
    <glyph glyph-name="ecircumflex" unicode="&#xea;" horiz-adv-x="642" 
d="M501 -64c0 -12.667 -5.33105 -23.667 -15.998 -33s-22.334 -14 -35.001 -14s-24.167 4.66699 -34.5 14s-15.5 20.333 -15.5 33c0 13.333 5 24.666 15 33.999s21.667 14 35 14s25.166 -4.66699 35.499 -14s15.5 -20.666 15.5 -33.999zM592.002 153
c0 -5.33301 -3.33203 -12.333 -9.99902 -21s-12.667 -13.667 -18 -15l-127 -20c-136 -22.667 -204 -81 -204 -175c0 -56 36.333 -96.333 109 -121c49.333 -16.667 109 -25 179 -25c29.333 0 44 -13.667 44 -41c0 -31.333 -26.667 -47 -80 -47c-71.333 0 -142 19.667 -212 59
c-80.667 45.333 -121 101 -121 167c0 36.667 8.66699 73.5 26 110.5s40.333 66.5 69 88.5c-24.667 7.33301 -61.834 19 -111.501 35s-74.5 41 -74.5 75c0 9.33301 3.33301 17.166 10 23.499s14.667 9.5 24 9.5c16 0 53.5 -10.167 112.5 -30.5s104.5 -30.5 136.5 -30.5
c22 0 55 2.5 99 7.5s77 7.5 99 7.5c14.667 0 26.667 -5.66699 36 -17s14 -24.666 14 -39.999z" />
    <glyph glyph-name="edieresis" unicode="&#xeb;" horiz-adv-x="729" 
d="M758 95l-0.00195312 -94.999h-65c-49.333 0 -92 17 -128 51c-13.333 -11.333 -86.666 -23 -219.999 -35c-115.333 -10.667 -188.333 -16 -219 -16h-157v95c32 0 80 -0.666992 144 -2s112 -2 144 -2c22 0 48.667 2.33301 80 7c-59.333 23.333 -116.333 52.666 -171 87.999
c-78 50 -117 94 -117 132c0 10 3.5 19 10.5 27s15.5 12 25.5 12c14.667 0 28.334 -6.66699 41.001 -20l30 -35c62.667 -70 149 -115.667 259 -137c30 -4 75 -10.333 135 -19c66 -10.667 97.667 -27.667 95 -51h113z" />
    <glyph glyph-name="igrave" unicode="&#xec;" horiz-adv-x="642" 
d="M592 153c0 -5.33301 -3.33203 -12.333 -9.99902 -21s-12.667 -13.667 -18 -15l-127 -20c-136 -22.667 -204 -81 -204 -175c0 -56 36.333 -96.333 109 -121c49.333 -16.667 109 -25 179 -25c29.333 0 44 -13.667 44 -41c0 -31.333 -26.667 -47 -80 -47
c-71.333 0 -142 19.667 -212 59c-80.667 45.333 -121 101 -121 167c0 36.667 8.66699 73.5 26 110.5s40.333 66.5 69 88.5c-24.667 7.33301 -61.834 19 -111.501 35s-74.5 41 -74.5 75c0 9.33301 3.33301 17.166 10 23.499s14.667 9.5 24 9.5c16 0 53.5 -10.167 112.5 -30.5
s104.5 -30.5 136.5 -30.5c22 0 55 2.5 99 7.5s77 7.5 99 7.5c14.667 0 26.667 -5.66699 36 -17s14 -24.666 14 -39.999z" />
    <glyph glyph-name="iacute" unicode="&#xed;" horiz-adv-x="638" 
d="M678 95v-95h-76c-24.667 -0 -51 7.33301 -79 22c-32.667 16.667 -49 36 -49 58c0 10.667 4.5 21.167 13.5 31.5s18.833 15.5 29.5 15.5c2 0 10 -5.33301 24 -16s32 -16 54 -16h83zM589 180c0 -3.33301 -1.66992 -11.668 -5.00293 -25.001l-20 -14
c-80 -1.33301 -151 -15 -213 -41c-83.333 -34.667 -125 -86 -125 -154c0 -56 37.667 -96.333 113 -121c50.667 -16.667 111.334 -25 182.001 -25c28 0 42 -14 42 -42c0 -30.667 -23.333 -46 -70 -46c-78 0 -151.667 18.333 -221 55c-84 44.667 -126 102.334 -126 173.001
c0 42.667 9.33301 79.334 28 110.001l69 87c-25.333 6.66699 -63.333 18.167 -114 34.5s-76 41.833 -76 76.5c0 8.66699 3.16699 16.167 9.5 22.5s13.833 9.5 22.5 9.5c-30 0 -23.333 -5.33301 20 -16c37.333 -8.66699 87.333 -18.334 150 -29.001s102 -16 118 -16
c18.667 0 46.834 2.5 84.501 7.5s65.834 7.5 84.501 7.5c31.333 0 47 -18 47 -54z" />
    <glyph glyph-name="icircumflex" unicode="&#xee;" horiz-adv-x="726" 
d="M426 452c0 -12.667 -5.16504 -23.667 -15.498 -33s-21.833 -14 -34.5 -14s-24.334 4.66699 -35.001 14s-16 20.333 -16 33c0 13.333 5.16699 24.333 15.5 33s22.166 13 35.499 13c14 0 25.833 -4.33301 35.5 -13s14.5 -19.667 14.5 -33zM758.002 95l-0.00195312 -94.999
h-55c-49.333 0 -92 17 -128 51c-13.333 -11.333 -86.666 -23 -219.999 -35c-115.333 -10.667 -188.333 -16 -219 -16h-157v95c32 0 80 -0.666992 144 -2s112 -2 144 -2c22 0 48.667 2.33301 80 7c-59.333 23.333 -116.333 52.666 -171 87.999c-78 50 -117 94 -117 132
c0 10 3.5 19 10.5 27s15.5 12 25.5 12c14.667 0 28.334 -6.66699 41.001 -20l30 -35c62.667 -70 149 -115.667 259 -137c30 -4 75 -10.333 135 -19c66 -10.667 97.667 -27.667 95 -51h103z" />
    <glyph glyph-name="idieresis" unicode="&#xef;" horiz-adv-x="638" 
d="M388 370c0 -13.333 -4.83398 -24.5 -14.501 -33.5s-21.167 -13.5 -34.5 -13.5s-25.166 4.5 -35.499 13.5s-15.5 20.167 -15.5 33.5c0 14 5 25.167 15 33.5s22 12.5 36 12.5c32.667 0 49 -15.333 49 -46zM667.999 95v-95h-66c-24.667 -0 -51 7.33301 -79 22
c-32.667 16.667 -49 36 -49 58c0 10.667 4.5 21.167 13.5 31.5s18.833 15.5 29.5 15.5c2 0 10 -5.33301 24 -16s32 -16 54 -16h73zM588.999 180c0 -3.33301 -1.66992 -11.668 -5.00293 -25.001l-20 -14c-80 -1.33301 -151 -15 -213 -41c-83.333 -34.667 -125 -86 -125 -154
c0 -56 37.667 -96.333 113 -121c50.667 -16.667 111.334 -25 182.001 -25c28 0 42 -14 42 -42c0 -30.667 -23.333 -46 -70 -46c-78 0 -151.667 18.333 -221 55c-84 44.667 -126 102.334 -126 173.001c0 42.667 9.33301 79.334 28 110.001l69 87
c-25.333 6.66699 -63.333 18.167 -114 34.5s-76 41.833 -76 76.5c0 8.66699 3.16699 16.167 9.5 22.5s13.833 9.5 22.5 9.5c-30 0 -23.333 -5.33301 20 -16c37.333 -8.66699 87.333 -18.334 150 -29.001s102 -16 118 -16c18.667 0 46.834 2.5 84.501 7.5
s65.834 7.5 84.501 7.5c31.333 0 47 -18 47 -54z" />
    <glyph glyph-name="eth" unicode="&#xf0;" 
 />
    <glyph glyph-name="ntilde" unicode="&#xf1;" horiz-adv-x="642" 
d="M381 346c0 -12.667 -5.33105 -23.667 -15.998 -33s-22.334 -14 -35.001 -14s-24.167 4.66699 -34.5 14s-15.5 20.333 -15.5 33c0 13.333 5 24.666 15 33.999s21.667 14 35 14s25.166 -4.66699 35.499 -14s15.5 -20.666 15.5 -33.999zM592.002 153
c0 -5.33301 -3.33203 -12.333 -9.99902 -21s-12.667 -13.667 -18 -15l-127 -20c-136 -22.667 -204 -81 -204 -175c0 -56 36.333 -96.333 109 -121c49.333 -16.667 109 -25 179 -25c29.333 0 44 -13.667 44 -41c0 -31.333 -26.667 -47 -80 -47c-71.333 0 -142 19.667 -212 59
c-80.667 45.333 -121 101 -121 167c0 36.667 8.66699 73.5 26 110.5s40.333 66.5 69 88.5c-24.667 7.33301 -61.834 19 -111.501 35s-74.5 41 -74.5 75c0 9.33301 3.33301 17.166 10 23.499s14.667 9.5 24 9.5c16 0 53.5 -10.167 112.5 -30.5s104.5 -30.5 136.5 -30.5
c22 0 55 2.5 99 7.5s77 7.5 99 7.5c14.667 0 26.667 -5.66699 36 -17s14 -24.666 14 -39.999z" />
    <glyph glyph-name="ograve" unicode="&#xf2;" horiz-adv-x="633" 
d="M483 454c0 -13.333 -4.83301 -25.834 -14.5 -37.501s-21.167 -17.5 -34.5 -17.5c-14 0 -26 5.83301 -36 17.5s-15 24.5 -15 38.5c0 14.667 4.83301 27.834 14.5 39.501s21.5 17.5 35.5 17.5c14.667 0 26.667 -5.83301 36 -17.5s14 -25.167 14 -40.5zM660 -0.000976562
l-55.999 -0.000976562c-62.667 0 -103.334 23.333 -122.001 70c-46 -38.667 -97 -65.334 -153 -80.001c-45.333 -12 -103 -18 -173 -18c-54.667 0 -82 17.667 -82 53c0 34.667 24 52 72 52h25c3.33301 0 7.66602 -0.333008 12.999 -1h8c42.667 0 84.667 6 126 18
c58 16.667 87 40.667 87 72c0 9.33301 -4 22 -12 38s-12 28.667 -12 38c0 30.667 13 46 39 46c22.667 0 39.667 -12 51 -36c1.33301 -5.33301 8.33301 -29.666 21 -72.999c8.66699 -29.333 20.334 -48 35.001 -56c13.333 -5.33301 34 -14.666 62 -27.999h71v-95z" />
    <glyph glyph-name="oacute" unicode="&#xf3;" horiz-adv-x="633" 
d="M660 0h-55.999c-62.667 -0 -103.334 23.333 -122.001 70c-46 -38.667 -97 -65.334 -153 -80.001c-45.333 -12 -103 -18 -173 -18c-54.667 0 -82 17.667 -82 53c0 34.667 24 52 72 52h25c3.33301 0 7.66602 -0.333008 12.999 -1h8c42.667 0 84.667 6 126 18
c58 16.667 87 40.667 87 72c0 9.33301 -4 22 -12 38s-12 28.667 -12 38c0 30.667 13 46 39 46c22.667 0 39.667 -12 51 -36c1.33301 -5.33301 8.33301 -29.666 21 -72.999c8.66699 -29.333 20.334 -48 35.001 -56c36.667 -20 57.667 -30 63 -30c2 0 5 0.666992 9 2h61v-95z
" />
    <glyph glyph-name="ocircumflex" unicode="&#xf4;" horiz-adv-x="454" 
d="M477 0h-74.002c0.666992 -92.667 -30.666 -156.667 -93.999 -192c-47.333 -26.667 -122.666 -40 -225.999 -40c-52 0 -78 18.333 -78 55c0 20.667 28 34 84 40c80.667 8.66699 132 17 154 25c54.667 20 81 57.333 79 112c0 3.33301 -0.333008 9.33301 -1 18
s-1 15.334 -1 20.001c0 21.333 4.5 36.166 13.5 44.499s24.167 12.5 45.5 12.5h98v-95z" />
    <glyph glyph-name="otilde" unicode="&#xf5;" horiz-adv-x="443" 
d="M365 306c0 -12 -4.33203 -22.668 -12.999 -32.001s-19 -14 -31 -14c-29.333 0 -44 15 -44 45c0 12.667 4.16699 23.834 12.5 33.501s18.5 14.5 30.5 14.5c11.333 0 21.666 -5 30.999 -15s14 -20.667 14 -32zM467.001 -0.000976562h-64.002
c0.666992 -92.667 -30.666 -156.667 -93.999 -192c-47.333 -26.667 -122.666 -40 -225.999 -40c-52 0 -78 18.333 -78 55c0 20.667 28 34 84 40c80.667 8.66699 132 17 154 25c54.667 20 81 57.333 79 112c0 3.33301 -0.333008 9.33301 -1 18s-1 15.334 -1 20.001
c0 21.333 4.5 36.166 13.5 44.499s24.167 12.5 45.5 12.5h88v-95z" />
    <glyph glyph-name="divide" unicode="&#xf7;" horiz-adv-x="495" 
d="M472 182c0 -66.667 -49.666 -115.999 -148.999 -147.999c-70 -22.667 -148.333 -34 -235 -34h-122v95h150c41.333 0 92.666 6 153.999 18c80 15.333 120 35 120 59c0 28 -50.667 42 -152 42c-13.333 0 -33.666 -1.66699 -60.999 -5s-47.666 -5 -60.999 -5
c-28.667 0 -43 15.667 -43 47c0 19.333 27.667 35 83 47c70 15.333 107.667 24.333 113 27c6.66699 26.667 10 38.667 10 36c0 32.667 -12.167 82.5 -36.5 149.5s-36.5 115.167 -36.5 144.5c0 12 4.5 22.833 13.5 32.5s19.5 14.5 31.5 14.5c27.333 0 53 -50.667 77 -152
c19.333 -80.667 29.666 -145.334 30.999 -194.001c-2.66699 -18 -5.33398 -38.667 -8.00098 -62c31.333 -6.66699 58 -19 80 -37c27.333 -21.333 41 -46.333 41 -75zM267.001 -105.999c0 -12 -4.33203 -22.833 -12.999 -32.5s-19 -14.5 -31 -14.5
c-12.667 0 -23.334 4.66699 -32.001 14s-13 20.333 -13 33c0 12 4.5 22.667 13.5 32s19.5 14 31.5 14c12.667 0 23.167 -4.5 31.5 -13.5s12.5 -19.833 12.5 -32.5z" />
    <glyph glyph-name="oslash" unicode="&#xf8;" horiz-adv-x="676" 
d="M386 131c0 -11.333 -4.16699 -22.001 -12.5 -32.001s-18.166 -15 -29.499 -15c-12 0 -22.333 4.5 -31 13.5s-13 19.5 -13 31.5c0 31.333 14.667 47 44 47c11.333 0 21.166 -4.66699 29.499 -14s12.5 -19.666 12.5 -30.999zM702 -0.000976562l-55 0.000976562
c-26.667 0 -50 5 -70 15c-38.667 -149.333 -112.667 -224 -222 -224c-67.333 0 -129.333 21 -186 63c-62 46 -93 101.667 -93 167c0 33.333 10 66.666 30 99.999c22 38 48.667 57 80 57c9.33301 0 17.833 -3.66699 25.5 -11s11.5 -15.666 11.5 -24.999
c0 -7.33301 -10.833 -23.666 -32.5 -48.999s-32.5 -48.333 -32.5 -69c0 -41.333 22 -76 66 -104c38.667 -24 80 -36 124 -36c40 0 75.333 18.667 106 56c28.667 35.333 43 73.666 43 114.999c0 24.667 -10 59.667 -30 105s-30 70.666 -30 75.999c0 27.333 12.667 41 38 41
c18 0 41.833 -30.333 71.5 -91s51.167 -91 64.5 -91h91v-95z" />
    <glyph glyph-name="ugrave" unicode="&#xf9;" horiz-adv-x="403" 
d="M-30 96l29.998 0.00292969c30.667 0 43.667 13.333 39 40l-32 190c-2 13.333 0.5 25.833 7.5 37.5s17.167 17.5 30.5 17.5c23.333 0 41.333 -23 54 -69c6.66699 -28.667 17.334 -71.334 32.001 -128.001c13.333 -46 33.333 -69 60 -69c9.33301 0 17.5 4.5 24.5 13.5
s10.5 18.5 10.5 28.5c0 19.333 -9 49.166 -27 89.499s-27 68.166 -27 83.499c0 24.667 12.667 37 38 37c52 0 85.333 -53 100 -159l12 -94c12.667 -12.667 29.334 -19 50.001 -19h55v-95h-80c-24 -0 -48.333 9.33301 -73 28c-18.667 -20 -38 -30 -58 -30
c-28.667 0 -59.667 18.667 -93 56c-18 -36 -59 -54 -123 -54c-28 22.667 -42 44.667 -42 66c0 11.333 4 21.333 12 30z" />
    <glyph glyph-name="ucircumflex" unicode="&#xfb;" horiz-adv-x="403" 
d="M67 575c0 -14 -4.83301 -25.333 -14.5 -34s-21.5 -13 -35.5 -13c-13.333 0 -25.166 4.66699 -35.499 14s-15.5 20.666 -15.5 33.999c0 12.667 5.16699 23.334 15.5 32.001s21.833 13 34.5 13c13.333 0 25.166 -4.33301 35.499 -13s15.5 -19.667 15.5 -33zM152 467
c0 -14 -5 -25.499 -15 -34.499s-22 -13.5 -36 -13.5c-13.333 0 -25 4.66699 -35 14s-15 20.666 -15 33.999s4.83301 24.166 14.5 32.499s21.167 12.5 34.5 12.5s25.333 -4.16699 36 -12.5s16 -19.166 16 -32.499zM15 463.001c0 -13.333 -5.16699 -24.668 -15.5 -34.001
s-22.166 -14 -35.499 -14c-12.667 0 -24.167 4.83301 -34.5 14.5s-15.5 20.834 -15.5 33.501c0 13.333 4.83301 24.166 14.5 32.499s21.5 12.5 35.5 12.5c13.333 0 25.166 -4.16699 35.499 -12.5s15.5 -19.166 15.5 -32.499zM-30 95.999l29.998 0.00292969
c30.667 0 43.667 13.333 39 40l-32 190c-2 13.333 0.5 25.833 7.5 37.5s17.167 17.5 30.5 17.5c23.333 0 41.333 -23 54 -69c6.66699 -28.667 17.334 -71.334 32.001 -128.001c13.333 -46 33.333 -69 60 -69c9.33301 0 17.5 4.5 24.5 13.5s10.5 18.5 10.5 28.5
c0 19.333 -9 49.166 -27 89.499s-27 68.166 -27 83.499c0 24.667 12.667 37 38 37c52 0 85.333 -53 100 -159l12 -94c12.667 -12.667 29.334 -19 50.001 -19h55v-95h-80c-24 0 -48.333 9.33301 -73 28c-18.667 -20 -38 -30 -58 -30c-28.667 0 -59.667 18.667 -93 56
c-18 -36 -59 -54 -123 -54c-28 22.667 -42 44.667 -42 66c0 11.333 4 21.333 12 30z" />
    <glyph glyph-name="udieresis" unicode="&#xfc;" horiz-adv-x="512" 
d="M530 0h-224.001c-32 0 -65.667 7 -101 21c-46 -14 -107 -21 -183 -21h-22c-25.333 25.333 -38 48 -38 68c0 10 3.33301 19.333 10 28h51c3.33301 2.66699 7.33301 4.66699 12 6c25.333 104 57 181.333 95 232c52.667 70 126 105 220 105c38.667 0 69 -13.5 91 -40.5
s33 -60.167 33 -99.5c0 -36.667 -12.667 -74 -38 -112c-23.333 -35.333 -51.666 -63.333 -84.999 -84c10.667 -5.33301 27.667 -8 51 -8h128v-95zM385.999 283c0 14 -8.66699 24.667 -26 32c-13.333 6 -28 9 -44 9c-40.667 0 -81 -24 -121 -72c-38 -45.333 -57 -89 -57 -131
c0 -3.33301 0.666992 -5 2 -5c31.333 0 79.333 20.333 144 61c68 42.667 102 78 102 106z" />
    <glyph glyph-name="thorn" unicode="&#xfe;" 
 />
    <glyph glyph-name="ydieresis" unicode="&#xff;" horiz-adv-x="487" 
d="M462 182c0 -66.667 -49.666 -115.999 -148.999 -147.999c-70 -22.667 -148.333 -34 -235 -34h-102v95h130c41.333 0 92.666 6 153.999 18c80 15.333 120 35 120 59c0 28 -50.667 42 -152 42c-13.333 0 -33.666 -1.66699 -60.999 -5s-47.666 -5 -60.999 -5
c-28.667 0 -43 15.667 -43 47c0 19.333 27.667 35 83 47c70 15.333 107.667 24.333 113 27c6.66699 26.667 10 38.667 10 36c0 32.667 -12.167 82.5 -36.5 149.5s-36.5 115.167 -36.5 144.5c0 12 4.5 22.833 13.5 32.5s19.5 14.5 31.5 14.5c27.333 0 53 -50.667 77 -152
c19.333 -80.667 29.666 -145.334 30.999 -194.001c-2.66699 -18 -5.33398 -38.667 -8.00098 -62c31.333 -6.66699 58 -19 80 -37c27.333 -21.333 41 -46.333 41 -75zM166.001 411.001c0 -12 -4.33301 -22.667 -13 -32s-19 -14 -31 -14c-12.667 0 -23.334 4.5 -32.001 13.5
s-13 19.833 -13 32.5s4.33301 23.5 13 32.5s19.334 13.5 32.001 13.5s23.167 -4.5 31.5 -13.5s12.5 -19.833 12.5 -32.5z" />
    <glyph glyph-name="dotlessi" unicode="&#x131;" horiz-adv-x="1381" 
d="M1315 98c0 -65.333 -44.0039 -97.998 -132.004 -97.998h-82v1c-24.667 1.33301 -41.667 4.33301 -51 9l-1 -5c9.33301 -19.333 14 -42.333 14 -69c0 -52.667 -21 -79 -63 -79c-50.667 0 -88.334 23.333 -113.001 70c-8.66699 16 -23 61 -43 135
c-7.33301 -16.667 -20.666 -31.167 -39.999 -43.5s-38.333 -18.5 -57 -18.5h-54c-49.333 0 -92 17 -128 51c-13.333 -11.333 -86.666 -23 -219.999 -35c-115.333 -10.667 -188.333 -16 -219 -16h-147v95c26.667 0 39.334 -0.333008 38.001 -1c-2 0 0.333008 0 7 0
c7.33301 -0.666992 17.333 -1 30 -1c42.667 -0.666992 110.334 -1.33398 203.001 -2.00098c20.667 0 47.334 2.33301 80.001 7c-59.333 23.333 -116.333 52.666 -171 87.999c-78 50 -117 94 -117 132c0 10 3.5 19 10.5 27s15.5 12 25.5 12
c14.667 0 28.334 -6.66699 41.001 -20l30 -35c62.667 -70 149 -115.667 259 -137c30 -4 75 -10.333 135 -19c66 -10.667 97.667 -27.667 95 -51h163c12 0 20.667 7.33301 26 22l8 37c6.66699 3.33301 12 5 16 5c20 0 48.667 -10.667 86 -32s66 -32 86 -32h73
c52.667 0 89.334 2.66699 110.001 8c8 4 11.333 9.66699 10 17l-71 391c-2 11.333 2.16699 23 12.5 35s21.166 18 32.499 18c2 0 9 -1.66699 21 -5c16 -4.66699 26.667 -17.334 32 -38.001c3.33301 -23.333 17.666 -103 42.999 -239c14.667 -79.333 22 -140.666 22 -183.999
zM415.996 392.002c0 -12.667 -5.16504 -23.667 -15.498 -33s-21.833 -14 -34.5 -14s-24.334 4.66699 -35.001 14s-16 20.333 -16 33c0 13.333 5.16699 24.333 15.5 33s22.166 13 35.499 13c14 0 25.833 -4.33301 35.5 -13s14.5 -19.667 14.5 -33z" />
    <glyph glyph-name="Lslash" unicode="&#x141;" 
 />
    <glyph glyph-name="lslash" unicode="&#x142;" 
 />
    <glyph glyph-name="OE" unicode="&#x152;" horiz-adv-x="977" 
d="M916 442c0 -26 -10.666 -39 -31.999 -39c-5.33301 0 -13.5 0.5 -24.5 1.5s-19.167 1.5 -24.5 1.5c-10.667 0 -26.167 -0.833008 -46.5 -2.5s-35.833 -2.5 -46.5 -2.5c-12 0 -22.833 3.66699 -32.5 11s-14.5 17 -14.5 29c0 23.333 19.333 38.333 58 45
c15.333 2.66699 43.666 4 84.999 4c52 0 78 -16 78 -48zM957.001 170c0 -55.333 -34.6709 -98.9971 -104.004 -130.997c-56 -26 -115.333 -39 -178 -39c-2.66699 -0.666992 -6.33398 -1 -11.001 -1c-28.667 0 -61.667 17.333 -99 52
c-13.333 -11.333 -86.666 -23 -219.999 -35c-115.333 -10.667 -188.333 -16 -219 -16h-147v95c26.667 0 39.334 -0.333008 38.001 -1c-2 0 0.333008 0 7 0c7.33301 -0.666992 17.333 -1 30 -1c42.667 -0.666992 110.334 -1.33398 203.001 -2.00098
c20.667 0 47.334 2.33301 80.001 7c-59.333 23.333 -116.333 52.666 -171 87.999c-78 50 -117 94 -117 132c0 10 3.5 19 10.5 27s15.5 12 25.5 12c14.667 0 28.334 -6.66699 41.001 -20l30 -35c62.667 -70 149 -115.667 259 -137c30 -4 75 -10.333 135 -19
c66 -10.667 97.667 -27.667 95 -51c74 0 120.667 1.66699 140 5c55.333 9.33301 83 33.666 83 72.999c0 14.667 -15.167 32 -45.5 52s-45.5 36.667 -45.5 50c0 12 4.83301 22.167 14.5 30.5s20.834 12.5 33.501 12.5c35.333 0 66.666 -16 93.999 -48
c25.333 -30.667 38 -64 38 -100zM415.997 -137.997c0 -12.667 -5.16504 -23.667 -15.498 -33s-21.833 -14 -34.5 -14s-24.334 4.66699 -35.001 14s-16 20.333 -16 33c0 13.333 5.16699 24.333 15.5 33s22.166 13 35.499 13c14 0 25.833 -4.33301 35.5 -13
s14.5 -19.667 14.5 -33z" />
    <glyph glyph-name="oe" unicode="&#x153;" horiz-adv-x="928" 
d="M846 442c0 -26 -10.666 -39 -31.999 -39c-5.33301 0 -13.5 0.5 -24.5 1.5s-19.167 1.5 -24.5 1.5c-10.667 0 -26.167 -0.833008 -46.5 -2.5s-35.833 -2.5 -46.5 -2.5c-12 0 -22.833 3.66699 -32.5 11s-14.5 17 -14.5 29c0 23.333 19.333 38.333 58 45
c15.333 2.66699 43.666 4 84.999 4c52 0 78 -16 78 -48zM887.001 170c0 -60 -30.333 -105.666 -91 -136.999c-48 -24.667 -105 -37 -171 -37c-20.667 0 -40 1.33301 -58 4c-21.333 5.33301 -41 14.666 -59 27.999c-22.667 16 -34 33.333 -34 52
c0 10.667 4.5 21.167 13.5 31.5s18.833 15.5 29.5 15.5c2 0 10 -5.33301 24 -16s32 -16 54 -16c135.333 0 203 26 203 78c0 14.667 -15.167 32 -45.5 52s-45.5 36.667 -45.5 50c0 12 4.83301 22.167 14.5 30.5s20.834 12.5 33.501 12.5c35.333 0 66.666 -16 93.999 -48
c25.333 -30.667 38 -64 38 -100zM498.001 -39.999c0 -13.333 -4.83398 -24.5 -14.501 -33.5s-21.167 -13.5 -34.5 -13.5s-25.166 4.5 -35.499 13.5s-15.5 20.167 -15.5 33.5c0 14 5 25.167 15 33.5s22 12.5 36 12.5c32.667 0 49 -15.333 49 -46zM589 180.001
c0 -3.33301 -1.66992 -11.668 -5.00293 -25.001l-20 -14c-80 -1.33301 -151 -15 -213 -41c-83.333 -34.667 -125 -86 -125 -154c0 -56 37.667 -96.333 113 -121c50.667 -16.667 111.334 -25 182.001 -25c28 0 42 -14 42 -42c0 -30.667 -23.333 -46 -70 -46
c-78 0 -151.667 18.333 -221 55c-84 44.667 -126 102.334 -126 173.001c0 42.667 9.33301 79.334 28 110.001l69 87c-25.333 6.66699 -63.333 18.167 -114 34.5s-76 41.833 -76 76.5c0 8.66699 3.16699 16.167 9.5 22.5s13.833 9.5 22.5 9.5c-30 0 -23.333 -5.33301 20 -16
c37.333 -8.66699 87.333 -18.334 150 -29.001s102 -16 118 -16c18.667 0 46.834 2.5 84.501 7.5s65.834 7.5 84.501 7.5c31.333 0 47 -18 47 -54z" />
    <glyph glyph-name="Scaron" unicode="&#x160;" 
 />
    <glyph glyph-name="scaron" unicode="&#x161;" 
 />
    <glyph glyph-name="Ydieresis" unicode="&#x178;" horiz-adv-x="657" 
d="M624 98c0 -65.333 -43.998 -97.999 -131.998 -97.999h-82v1c-24.667 1.33301 -41.667 4.33301 -51 9l-1 -5c8.66699 -20 13 -43 13 -69c0 -52.667 -20.667 -79 -62 -79c-51.333 0 -89.333 23 -114 69c-8 15.333 -22 60.666 -42 135.999
c-7.33301 -16.667 -20.666 -31.167 -39.999 -43.5s-38.333 -18.5 -57 -18.5h-77v95h137c12.667 0 21.667 7 27 21c1.33301 4 3.66602 16.667 6.99902 38c8.66699 3.33301 14.334 5 17.001 5c20 0 48.667 -10.667 86 -32s65.666 -32 84.999 -32h73
c53.333 0 90.333 2.66699 111 8c7.33301 4 10.333 9.66699 9 17l-70 391c-2 11.333 2 23 12 35s20.667 18 32 18c3.33301 0 10.666 -1.66699 21.999 -5c16 -4.66699 26.667 -17.334 32 -38.001c3.33301 -23.333 17.666 -103 42.999 -239
c14.667 -79.333 22 -140.666 22 -183.999z" />
    <glyph glyph-name="Zcaron" unicode="&#x17d;" 
 />
    <glyph glyph-name="zcaron" unicode="&#x17e;" 
 />
    <glyph glyph-name="florin" unicode="&#x192;" horiz-adv-x="438" 
d="M465 0l-64.002 -0.000976562c-16.667 -62.667 -40.667 -115 -72 -157c-40.667 -55.333 -88 -83 -142 -83c-16 0 -31 4.5 -45 13.5s-21 21.167 -21 36.5c0 14.667 16.667 28.334 50 41.001c46.667 17.333 77 31.333 91 42c32.667 24 48.334 57.667 47.001 101
c-22 4 -55 10.667 -99 20c-90 20 -135 64 -135 132c0 32 9 64 27 96c21.333 37.333 47 56 77 56c118.667 0 193.334 -67.667 224.001 -203h62v-95zM317.998 94.999c-4.66699 34.667 -16 63 -34 85c-20 24.667 -46.667 37 -80 37c-12.667 0 -24.667 -5.66699 -36 -17
s-17 -23.333 -17 -36c0 -20 14.667 -37 44 -51c24.667 -12 48 -18 70 -18h53z" />
    <glyph glyph-name="circumflex" unicode="&#x2c6;" 
 />
    <glyph glyph-name="caron" unicode="&#x2c7;" horiz-adv-x="642" 
d="M539 -7c0 -13.333 -5 -24.167 -15 -32.5s-21.667 -12.5 -35 -12.5c-14 0 -26.333 4.16699 -37 12.5s-16 19.166 -16 32.499c0 14 5.16699 25 15.5 33s22.5 12 36.5 12s26 -4.16699 36 -12.5s15 -19.166 15 -32.499zM422 -12.001c0 -13.333 -5.33301 -24.333 -16 -33
s-23 -13 -37 -13c-13.333 0 -25 4.33301 -35 13s-15 19.667 -15 33s5 24.333 15 33s21.667 13 35 13s25.5 -4.33301 36.5 -13s16.5 -19.667 16.5 -33zM485 -99.001c0 -13.333 -5.16895 -24.333 -15.502 -33s-22.5 -13 -36.5 -13c-13.333 0 -25.166 4.33301 -35.499 13
s-15.5 19.667 -15.5 33c0 12.667 5.33301 23.5 16 32.5s22.334 13.5 35.001 13.5c13.333 0 25.333 -4.33301 36 -13s16 -19.667 16 -33zM591.998 152.999c0 -5.33301 -3.33203 -12.333 -9.99902 -21s-12.667 -13.667 -18 -15l-127 -20c-136 -22.667 -204 -81 -204 -175
c0 -56 36.333 -96.333 109 -121c49.333 -16.667 109 -25 179 -25c29.333 0 44 -13.667 44 -41c0 -31.333 -26.667 -47 -80 -47c-71.333 0 -142 19.667 -212 59c-80.667 45.333 -121 101 -121 167c0 36.667 8.66699 73.5 26 110.5s40.333 66.5 69 88.5
c-24.667 7.33301 -61.834 19 -111.501 35s-74.5 41 -74.5 75c0 9.33301 3.33301 17.166 10 23.499s14.667 9.5 24 9.5c16 0 53.5 -10.167 112.5 -30.5s104.5 -30.5 136.5 -30.5c22 0 55 2.5 99 7.5s77 7.5 99 7.5c14.667 0 26.667 -5.66699 36 -17s14 -24.666 14 -39.999z
" />
    <glyph glyph-name="breve" unicode="&#x2d8;" horiz-adv-x="84" 
d="M113 0h-137v95h137v-95z" />
    <glyph glyph-name="dotaccent" unicode="&#x2d9;" horiz-adv-x="973" 
d="M1000 95l0.00488281 -94.999h-58c-44.667 0 -88.334 22.667 -131.001 68c-20.667 -22.667 -57.667 -40.334 -111 -53.001c-42.667 -10 -84.334 -15 -125.001 -15h-268c-60.667 -0 -114.667 10.333 -162 31c-62 27.333 -93 67.333 -93 120c0 110 116.667 165 350 165
c52.667 0 79 -13.667 79 -41c0 -18.667 -39 -32.334 -117 -41.001c-48.667 -2.66699 -97.334 -5.66699 -146.001 -9c-61.333 -10 -92 -30.667 -92 -62c0 -25.333 22.333 -43.666 67 -54.999c29.333 -7.33301 62.666 -11 99.999 -11c18.667 0 46.667 -0.333008 84 -1
s65.333 -1 84 -1c137.333 0 224.333 6.66699 261 20l23 29v12c0 8.66699 -3.66699 20.5 -11 35.5s-11 26.833 -11 35.5c0 11.333 4.16699 21.333 12.5 30s18.166 13 29.499 13c19.333 0 36.333 -15 51 -45l39 -85c18 -30 39 -45 63 -45h82zM498.005 -86.999
c0 -13.333 -5.16797 -24.499 -15.501 -33.499s-22.166 -13.5 -35.499 -13.5s-25.333 4.5 -36 13.5s-16 19.833 -16 32.5c0 13.333 5.5 24.666 16.5 33.999s23.167 14 36.5 14c12.667 0 24.167 -4.66699 34.5 -14s15.5 -20.333 15.5 -33zM361.004 -91.998
c0 -14 -5.16602 -25.167 -15.499 -33.5s-22.5 -12.5 -36.5 -12.5c-34 0 -51 15.333 -51 46s17.333 46 52 46c13.333 0 25.166 -4.33301 35.499 -13s15.5 -19.667 15.5 -33zM444.005 -199.998c0 -13.333 -5.5 -24.501 -16.5 -33.501s-23.167 -13.5 -36.5 -13.5
c-12.667 0 -24.167 4.5 -34.5 13.5s-15.5 19.833 -15.5 32.5s5.16699 23.834 15.5 33.501s21.833 14.5 34.5 14.5c13.333 0 25.5 -4.5 36.5 -13.5s16.5 -20.167 16.5 -33.5z" />
    <glyph glyph-name="ring" unicode="&#x2da;" horiz-adv-x="850" 
d="M773 90c0 -56 -53.668 -95.335 -161.001 -118.002c-63.333 -13.333 -139.666 -20 -228.999 -20c-66 0 -132 15.667 -198 47c-80.667 38 -121 85.667 -121 143c0 50 29 87.333 87 112c42.667 18 93.334 27 152.001 27c48 0 72 -17.333 72 -52
c0 -17.333 -20 -28.666 -60 -33.999c-24.667 -2.66699 -61.334 -7 -110.001 -13c-40 -6 -60 -20.667 -60 -44c0 -34 40.333 -59.667 121 -77c55.333 -12 109.333 -18 162 -18c55.333 0 106.333 4.33301 153 13c73.333 13.333 110 34.333 110 63c0 8 -11.167 22.5 -33.5 43.5
s-33.5 37.167 -33.5 48.5c0 12.667 4.16699 23.334 12.5 32.001s18.833 13 31.5 13c28 0 53 -21 75 -63c20 -38 30 -72.333 30 -103zM548.999 -127.002c0 -13.333 -5 -24.167 -15 -32.5s-21.667 -12.5 -35 -12.5c-14 0 -26.333 4.16699 -37 12.5s-16 19.166 -16 32.499
c0 14 5.16699 25 15.5 33s22.5 12 36.5 12s26 -4.16699 36 -12.5s15 -19.166 15 -32.499zM411.999 -132.003c0 -13.333 -5.33301 -24.333 -16 -33s-23 -13 -37 -13c-13.333 0 -25 4.33301 -35 13s-15 19.667 -15 33s5 24.333 15 33s21.667 13 35 13s25.5 -4.33301 36.5 -13
s16.5 -19.667 16.5 -33zM494.999 -239.003c0 -13.333 -5.16895 -24.333 -15.502 -33s-22.5 -13 -36.5 -13c-13.333 0 -25.166 4.33301 -35.499 13s-15.5 19.667 -15.5 33c0 12.667 5.33301 23.5 16 32.5s22.334 13.5 35.001 13.5c13.333 0 25.333 -4.33301 36 -13
s16 -19.667 16 -33z" />
    <glyph glyph-name="ogonek" unicode="&#x2db;" horiz-adv-x="648" 
d="M668 95v-95h-66c-24.667 -0 -51 7.33301 -79 22c-32.667 16.667 -49 36 -49 58c0 10.667 4.5 21.167 13.5 31.5s18.833 15.5 29.5 15.5c2 0 10 -5.33301 24 -16s32 -16 54 -16h73zM489 -7c0 -13.333 -5 -24.167 -15 -32.5s-21.667 -12.5 -35 -12.5
c-14 0 -26.333 4.16699 -37 12.5s-16 19.166 -16 32.499c0 14 5.16699 25 15.5 33s22.5 12 36.5 12s26 -4.16699 36 -12.5s15 -19.166 15 -32.499zM589 179.999c0 -3.33301 -1.66992 -11.668 -5.00293 -25.001l-20 -14c-80 -1.33301 -151 -15 -213 -41
c-83.333 -34.667 -125 -86 -125 -154c0 -56 37.667 -96.333 113 -121c50.667 -16.667 111.334 -25 182.001 -25c28 0 42 -14 42 -42c0 -30.667 -23.333 -46 -70 -46c-78 0 -151.667 18.333 -221 55c-84 44.667 -126 102.334 -126 173.001
c0 42.667 9.33301 79.334 28 110.001l69 87c-25.333 6.66699 -63.333 18.167 -114 34.5s-76 41.833 -76 76.5c0 8.66699 3.16699 16.167 9.5 22.5s13.833 9.5 22.5 9.5c-30 0 -23.333 -5.33301 20 -16c37.333 -8.66699 87.333 -18.334 150 -29.001s102 -16 118 -16
c18.667 0 46.834 2.5 84.501 7.5s65.834 7.5 84.501 7.5c31.333 0 47 -18 47 -54zM371.997 -12.0029c0 -13.333 -5.33301 -24.333 -16 -33s-23 -13 -37 -13c-13.333 0 -25 4.33301 -35 13s-15 19.667 -15 33s5 24.333 15 33s21.667 13 35 13s25.5 -4.33301 36.5 -13
s16.5 -19.667 16.5 -33zM434.997 -99.0029c0 -13.333 -5.16895 -24.333 -15.502 -33s-22.5 -13 -36.5 -13c-13.333 0 -25.166 4.33301 -35.499 13s-15.5 19.667 -15.5 33c0 12.667 5.33301 23.5 16 32.5s22.334 13.5 35.001 13.5c13.333 0 25.333 -4.33301 36 -13
s16 -19.667 16 -33z" />
    <glyph glyph-name="tilde" unicode="&#x2dc;" 
 />
    <glyph glyph-name="hungarumlaut" unicode="&#x2dd;" horiz-adv-x="750" 
d="M778 95l-0.00195312 -94.999h-65c-49.333 0 -92 17 -128 51c-13.333 -11.333 -86.666 -23 -219.999 -35c-115.333 -10.667 -188.333 -16 -219 -16h-187v95h318c8 -1.33301 17 -2 27 -2c15.333 0 33 1.66699 53 5c-59.333 23.333 -116.333 52.666 -171 87.999
c-78 50 -117 94 -117 132c0 10 3.5 19 10.5 27s15.5 12 25.5 12c14.667 0 28.334 -6.66699 41.001 -20l30 -35c62.667 -70 149 -115.667 259 -137c30 -4 75 -10.333 135 -19c66 -10.667 97.667 -27.667 95 -51h113zM558.998 -106.999c0 -13.333 -5 -24.167 -15 -32.5
s-21.667 -12.5 -35 -12.5c-14 0 -26.333 4.16699 -37 12.5s-16 19.166 -16 32.499c0 14 5.16699 25 15.5 33s22.5 12 36.5 12s26 -4.16699 36 -12.5s15 -19.166 15 -32.499zM421.998 -112c0 -13.333 -5.33301 -24.333 -16 -33s-23 -13 -37 -13c-13.333 0 -25 4.33301 -35 13
s-15 19.667 -15 33s5 24.333 15 33s21.667 13 35 13s25.5 -4.33301 36.5 -13s16.5 -19.667 16.5 -33zM504.998 -219c0 -13.333 -5.16895 -24.333 -15.502 -33s-22.5 -13 -36.5 -13c-13.333 0 -25.166 4.33301 -35.499 13s-15.5 19.667 -15.5 33
c0 12.667 5.33301 23.5 16 32.5s22.334 13.5 35.001 13.5c13.333 0 25.333 -4.33301 36 -13s16 -19.667 16 -33z" />
    <glyph glyph-name="Omega" unicode="&#x3a9;" horiz-adv-x="572" 
d="M525 179c0 -42 -27.999 -77 -83.999 -105c-48 -24 -97.667 -36 -149 -36c-8.66699 0 -16.334 0.333008 -23.001 1l-14 -7c1.33301 -16 26.5 -55.833 75.5 -119.5s73.5 -104.167 73.5 -121.5c0 -20 -11.333 -30 -34 -30c-22 0 -42.333 14.667 -61 44l-42 69
c-19.333 22.667 -55.666 72 -108.999 148c-60 84.667 -90 131.334 -90 140.001c0 11.333 4.16699 20.666 12.5 27.999s18.166 11 29.499 11c14 0 42.333 -14.833 85 -44.5s68.334 -44.5 77.001 -44.5c24 0 36.667 10.667 38 32c-10.667 10 -16 24.667 -16 44
c0 30 9.33301 54 28 72s43 27 73 27c33.333 0 62.666 -9.66699 87.999 -29c28 -20.667 42 -47 42 -79z" />
    <glyph glyph-name="Omega" unicode="&#x2126;" horiz-adv-x="572" 
d="M525 179c0 -42 -27.999 -77 -83.999 -105c-48 -24 -97.667 -36 -149 -36c-8.66699 0 -16.334 0.333008 -23.001 1l-14 -7c1.33301 -16 26.5 -55.833 75.5 -119.5s73.5 -104.167 73.5 -121.5c0 -20 -11.333 -30 -34 -30c-22 0 -42.333 14.667 -61 44l-42 69
c-19.333 22.667 -55.666 72 -108.999 148c-60 84.667 -90 131.334 -90 140.001c0 11.333 4.16699 20.666 12.5 27.999s18.166 11 29.499 11c14 0 42.333 -14.833 85 -44.5s68.334 -44.5 77.001 -44.5c24 0 36.667 10.667 38 32c-10.667 10 -16 24.667 -16 44
c0 30 9.33301 54 28 72s43 27 73 27c33.333 0 62.666 -9.66699 87.999 -29c28 -20.667 42 -47 42 -79z" />
    <glyph glyph-name="pi" unicode="&#x3c0;" horiz-adv-x="750" 
d="M769 0l-57.998 -0.00195312l-51 6c-18.667 2 -33.334 7.66699 -44.001 17c-12 -130.667 -29.667 -215.667 -53 -255c-46.667 -78.667 -117.667 -118 -213 -118c-76 0 -142 23.667 -198 71c-59.333 50 -89 112.333 -89 187c0 52.667 19.167 102.167 57.5 148.5
s83.166 69.5 134.499 69.5c8 0 17 -5.66699 27 -17s15 -21 15 -29c0 -15.333 -14.667 -29.666 -44 -42.999c-48.667 -22 -75.334 -34.667 -80.001 -38c-29.333 -19.333 -44 -44 -44 -74c0 -46 19.333 -86.5 58 -121.5s81.334 -52.5 128.001 -52.5
c64.667 0 116.667 22.667 156 68c36.667 42.667 55 97 55 163c0 68.667 -18.5 169.334 -55.5 302.001s-55.5 233.334 -55.5 302.001c0 11.333 5 21 15 29s21 12 33 12c21.333 0 40.333 -32 57 -96c11.333 -44 23 -107.833 35 -191.5s20 -131.834 24 -144.501
c22 -66.667 63.667 -100 125 -100h65v-95z" />
    <glyph glyph-name="endash" unicode="&#x2013;" horiz-adv-x="1011" 
d="M936 442c0 -26 -10.666 -39 -31.999 -39c-5.33301 0 -13.5 0.5 -24.5 1.5s-19.167 1.5 -24.5 1.5c-10.667 0 -26.167 -0.833008 -46.5 -2.5s-35.833 -2.5 -46.5 -2.5c-12 0 -22.833 3.66699 -32.5 11s-14.5 17 -14.5 29c0 23.333 19.333 38.333 58 45
c15.333 2.66699 43.666 4 84.999 4c52 0 78 -16 78 -48zM957.001 170c0 -55.333 -34.6709 -98.9971 -104.004 -130.997c-56 -26 -115.333 -39 -178 -39c-2.66699 -0.666992 -6.33398 -1 -11.001 -1c-28.667 0 -61.667 17.333 -99 52
c-13.333 -11.333 -86.666 -23 -219.999 -35c-115.333 -10.667 -188.333 -16 -219 -16h-147v95c26.667 0 39.334 -0.333008 38.001 -1c-2 0 0.333008 0 7 0c7.33301 -0.666992 17.333 -1 30 -1c42.667 -0.666992 110.334 -1.33398 203.001 -2.00098
c20.667 0 47.334 2.33301 80.001 7c-59.333 23.333 -116.333 52.666 -171 87.999c-78 50 -117 94 -117 132c0 10 3.5 19 10.5 27s15.5 12 25.5 12c14.667 0 28.334 -6.66699 41.001 -20l30 -35c62.667 -70 149 -115.667 259 -137c30 -4 75 -10.333 135 -19
c66 -10.667 97.667 -27.667 95 -51c74 0 120.667 1.66699 140 5c55.333 9.33301 83 33.666 83 72.999c0 14.667 -15.167 32 -45.5 52s-45.5 36.667 -45.5 50c0 12 4.83301 22.167 14.5 30.5s20.834 12.5 33.501 12.5c35.333 0 66.666 -16 93.999 -48
c25.333 -30.667 38 -64 38 -100z" />
    <glyph glyph-name="emdash" unicode="&#x2014;" horiz-adv-x="928" 
d="M845 440c0 -26 -10.666 -39 -31.999 -39c-5.33301 0 -13.5 0.5 -24.5 1.5s-19.167 1.5 -24.5 1.5c-10.667 0 -26.167 -0.833008 -46.5 -2.5s-35.833 -2.5 -46.5 -2.5c-12 0 -22.833 3.66699 -32.5 11s-14.5 17 -14.5 29c0 23.333 19.333 38.333 58 45
c15.333 2.66699 43.666 4 84.999 4c52 0 78 -16 78 -48zM887.001 170c0 -60 -30.333 -105.666 -91 -136.999c-48 -24.667 -105 -37 -171 -37c-20.667 0 -40 1.33301 -58 4c-21.333 5.33301 -41 14.666 -59 27.999c-22.667 16 -34 33.333 -34 52
c0 10.667 4.5 21.167 13.5 31.5s18.833 15.5 29.5 15.5c2 0 10 -5.33301 24 -16s32 -16 54 -16c135.333 0 203 26 203 78c0 14.667 -15.167 32 -45.5 52s-45.5 36.667 -45.5 50c0 12 4.83301 22.167 14.5 30.5s20.834 12.5 33.501 12.5c35.333 0 66.666 -16 93.999 -48
c25.333 -30.667 38 -64 38 -100zM589.001 180.001c0 -3.33301 -1.66992 -11.668 -5.00293 -25.001l-20 -14c-80 -1.33301 -151 -15 -213 -41c-83.333 -34.667 -125 -86 -125 -154c0 -56 37.667 -96.333 113 -121c50.667 -16.667 111.334 -25 182.001 -25c28 0 42 -14 42 -42
c0 -30.667 -23.333 -46 -70 -46c-78 0 -151.667 18.333 -221 55c-84 44.667 -126 102.334 -126 173.001c0 42.667 9.33301 79.334 28 110.001l69 87c-25.333 6.66699 -63.333 18.167 -114 34.5s-76 41.833 -76 76.5c0 8.66699 3.16699 16.167 9.5 22.5s13.833 9.5 22.5 9.5
c-30 0 -23.333 -5.33301 20 -16c37.333 -8.66699 87.333 -18.334 150 -29.001s102 -16 118 -16c18.667 0 46.834 2.5 84.501 7.5s65.834 7.5 84.501 7.5c31.333 0 47 -18 47 -54z" />
    <glyph glyph-name="quoteleft" unicode="&#x2018;" horiz-adv-x="1058" 
d="M548 525c0 -30.667 -14.667 -46 -44 -46s-44 14.667 -44 44c0 30.667 14.667 46 44 46c12 0 22.333 -4.33301 31 -13s13 -19 13 -31zM990 60c0 -89.333 -72.332 -152.335 -216.999 -189.002c-86.667 -22 -194.334 -33 -323.001 -33c-74.667 0 -144.667 11 -210 33
c-91.333 30.667 -137 75.334 -137 134.001s38 101.334 114 128.001c54.667 19.333 117.667 29 189 29c18 0 33.833 -4.83301 47.5 -14.5s20.5 -23.167 20.5 -40.5c0 -27.333 -23 -43.333 -69 -48c-28.667 -1.33301 -72 -4.33301 -130 -9
c-46 -4.66699 -69 -21.334 -69 -50.001c0 -24 30 -42 90 -54c40.667 -8 83 -12 127 -12h203c53.333 0 106.333 7 159 21c76 20 114 49.333 114 88c0 24.667 -25.667 37 -77 37c-18 0 -44 -2.33301 -78 -7c-40.667 -5.33301 -67 -8.66602 -79 -9.99902
c-16.667 -2 -33.667 0.666992 -51 8c-20.667 8.66699 -31 20.667 -31 36c0 19.333 32.667 37.333 98 54c78.667 20 122 32.667 130 38l8 24c0 2.66699 -3.33301 17.334 -10 44.001l-4 2c-41.333 -26.667 -80.666 -40 -117.999 -40c-40 0 -74 9.66699 -102 29
c-32.667 22 -49 52 -49 90c0 40 14.333 70 43 90c25.333 18 58.666 27 99.999 27c58.667 0 109 -23.833 151 -71.5s63 -101.167 63 -160.5c0 -25.333 -6 -53 -18 -83c36 -8 61.333 -16.333 76 -25c26 -14.667 39 -36.334 39 -65.001zM675.001 -289.002
c0 -26 -14.998 -39 -44.998 -39c-4.66699 0 -11.834 0.333008 -21.501 1s-16.834 1 -21.501 1c-10 0 -24.5 -1 -43.5 -3s-33.5 -3 -43.5 -3c-12 0 -22.333 4 -31 12s-13 18 -13 30c0 31.333 32.667 47 98 47h37c56 0 84 -15.333 84 -46zM752.003 346.998
c-28.667 26 -60.667 39 -96 39c-9.33301 0 -18.5 -3.33301 -27.5 -10s-13.5 -14.667 -13.5 -24c0 -10 3.5 -19.333 10.5 -28s15.5 -13 25.5 -13c15.333 0 33.333 3.33301 54 10c24 7.33301 39.667 16 47 26z" />
    <glyph glyph-name="quoteright" unicode="&#x2019;" horiz-adv-x="491" 
d="M415 127c0 -42 -23.333 -74.999 -70 -98.999c-38 -19.333 -80 -29 -126 -29c-86 0 -129 21.333 -129 64c0 12.667 3.66699 25 11 37s17 17.333 29 16l119 -16c20.667 -2.66699 42 8.33301 64 33c4 15.333 5.66699 23.666 5 24.999l-58 368
c-2 12 2.16699 23.833 12.5 35.5s21.5 17.5 33.5 17.5c23.333 0 40 -12.333 50 -37c0.666992 -1.33301 2.66699 -14 6 -38l32 -191c14 -83.333 21 -145.333 21 -186zM246 193.001c0 -13.333 -4.5 -25.499 -13.5 -36.499s-20.167 -16.5 -33.5 -16.5
c-12 0 -23.333 3.66699 -34 11s-17.334 16.666 -20.001 27.999c-5.33301 24 -13.666 70 -24.999 138c-12 72 -18 116.667 -18 134c0 14.667 4.66699 28 14 40s21 18 35 18c8.66699 0 15.667 -1.66699 21 -5c14 -6.66699 24 -24.667 30 -54c29.333 -149.333 44 -235 44 -257z
" />
    <glyph glyph-name="quotesinglbase" unicode="&#x201a;" horiz-adv-x="977" 
d="M862 477c0 -12.667 -4.99805 -23.833 -14.998 -33.5s-21.333 -14.5 -34 -14.5s-24.334 4.83301 -35.001 14.5s-16 20.834 -16 33.501c0 13.333 5.16699 24.166 15.5 32.499s22.166 12.5 35.499 12.5c32.667 0 49 -15 49 -45zM957.002 170.001
c0 -55.333 -34.6709 -98.9971 -104.004 -130.997c-56 -26 -115.333 -39 -178 -39c-2.66699 -0.666992 -6.33398 -1 -11.001 -1c-28.667 0 -61.667 17.333 -99 52c-13.333 -11.333 -86.666 -23 -219.999 -35c-115.333 -10.667 -188.333 -16 -219 -16h-147v95
c26.667 0 39.334 -0.333008 38.001 -1c-2 0 0.333008 0 7 0c7.33301 -0.666992 17.333 -1 30 -1c42.667 -0.666992 110.334 -1.33398 203.001 -2.00098c20.667 0 47.334 2.33301 80.001 7c-59.333 23.333 -116.333 52.666 -171 87.999c-78 50 -117 94 -117 132
c0 10 3.5 19 10.5 27s15.5 12 25.5 12c14.667 0 28.334 -6.66699 41.001 -20l30 -35c62.667 -70 149 -115.667 259 -137c30 -4 75 -10.333 135 -19c66 -10.667 97.667 -27.667 95 -51c74 0 120.667 1.66699 140 5c55.333 9.33301 83 33.666 83 72.999
c0 14.667 -15.167 32 -45.5 52s-45.5 36.667 -45.5 50c0 12 4.83301 22.167 14.5 30.5s20.834 12.5 33.501 12.5c35.333 0 66.666 -16 93.999 -48c25.333 -30.667 38 -64 38 -100zM415.998 -137.996c0 -12.667 -5.16504 -23.667 -15.498 -33s-21.833 -14 -34.5 -14
s-24.334 4.66699 -35.001 14s-16 20.333 -16 33c0 13.333 5.16699 24.333 15.5 33s22.166 13 35.499 13c14 0 25.833 -4.33301 35.5 -13s14.5 -19.667 14.5 -33z" />
    <glyph glyph-name="quotedblleft" unicode="&#x201c;" horiz-adv-x="703" 
d="M645 440c0 -26 -10.666 -39 -31.999 -39c-5.33301 0 -13.5 0.5 -24.5 1.5s-19.167 1.5 -24.5 1.5c-10.667 0 -26.167 -0.833008 -46.5 -2.5s-35.833 -2.5 -46.5 -2.5c-12 0 -22.833 3.66699 -32.5 11s-14.5 17 -14.5 29c0 23.333 19.333 38.333 58 45
c15.333 2.66699 43.666 4 84.999 4c52 0 78 -16 78 -48zM670.001 172c0 -114.667 -68.002 -172 -204.002 -172c-32.667 -0 -68.334 3.33301 -107.001 10l-1 -5c8.66699 -20 13 -43 13 -69c0 -52.667 -20.667 -79 -62 -79c-50 0 -87.333 23.333 -112 70
c-7.33301 13.333 -22 58.333 -44 135c-7.33301 -16.667 -20.666 -31.167 -39.999 -43.5s-38.333 -18.5 -57 -18.5h-87v95h147l29 23c0 14.667 1.66699 26.667 5 36c8.66699 3.33301 14.334 5 17.001 5c20 0 48.5 -10.667 85.5 -32s65.5 -32 85.5 -32h112
c38.667 0 67.334 3.66699 86.001 11c31.333 12 47 34.667 47 68c0 14.667 -14.5 32.5 -43.5 53.5s-43.5 37.5 -43.5 49.5s4.83301 22.167 14.5 30.5s20.5 12.5 32.5 12.5c34.667 0 65 -16.333 91 -49c24 -30.667 36 -63.667 36 -99z" />
    <glyph glyph-name="quotedblright" unicode="&#x201d;" horiz-adv-x="879" 
d="M785 440c0 -26 -10.666 -39 -31.999 -39c-5.33301 0 -13.5 0.5 -24.5 1.5s-19.167 1.5 -24.5 1.5c-10.667 0 -26.167 -0.833008 -46.5 -2.5s-35.833 -2.5 -46.5 -2.5c-12 0 -22.833 3.66699 -32.5 11s-14.5 17 -14.5 29c0 23.333 19.333 38.333 58 45
c15.333 2.66699 43.666 4 84.999 4c52 0 78 -16 78 -48zM840.001 172c0 -55.333 -33.333 -99.3301 -100 -131.997c-54 -26.667 -112.667 -40 -176 -40c-41.333 0 -60.666 -0.333008 -57.999 -1l-44 14c9.33301 -41.333 14 -66 14 -74c0 -53.333 -20 -80 -60 -80
c-49.333 0 -88.333 24 -117 72c-22.667 37.333 -37 83.666 -43 138.999c-3.33301 8.66699 -15.333 13 -36 13c-45.333 0 -68 -12.333 -68 -37c0 -4.66699 19.167 -54.834 57.5 -150.501s57.5 -159.834 57.5 -192.501c0 -27.333 -14 -41 -42 -41
c-12.667 0 -43.334 60 -92.001 180c-46.667 115.333 -70 181 -70 197c0 36.667 16 68 48 94s66.667 39 104 39c34 0 77 -12.833 129 -38.5s80.333 -38.5 85 -38.5h135c8 4.66699 30.333 9 67 13s63.667 9.33301 81 16c27.333 10.667 41 27.334 41 50.001
c0 14.667 -14.5 32.667 -43.5 54s-43.5 37.666 -43.5 48.999c0 12 4.83301 22.167 14.5 30.5s20.5 12.5 32.5 12.5c34.667 0 65 -16.333 91 -49c24 -30.667 36 -63.667 36 -99z" />
    <glyph glyph-name="quotedblbase" unicode="&#x201e;" horiz-adv-x="928" 
d="M813 464c0 -13.333 -4.83398 -24.665 -14.501 -33.998s-21.167 -14 -34.5 -14s-25.166 4.66699 -35.499 14s-15.5 20.666 -15.5 33.999s5 24.166 15 32.499s22 12.5 36 12.5c32.667 0 49 -15 49 -45zM886.999 170.001c0 -60 -30.333 -105.666 -91 -136.999
c-48 -24.667 -105 -37 -171 -37c-20.667 0 -40 1.33301 -58 4c-21.333 5.33301 -41 14.666 -59 27.999c-22.667 16 -34 33.333 -34 52c0 10.667 4.5 21.167 13.5 31.5s18.833 15.5 29.5 15.5c2 0 10 -5.33301 24 -16s32 -16 54 -16c135.333 0 203 26 203 78
c0 14.667 -15.167 32 -45.5 52s-45.5 36.667 -45.5 50c0 12 4.83301 22.167 14.5 30.5s20.834 12.5 33.501 12.5c35.333 0 66.666 -16 93.999 -48c25.333 -30.667 38 -64 38 -100zM497.999 -39.998c0 -13.333 -4.83398 -24.5 -14.501 -33.5s-21.167 -13.5 -34.5 -13.5
s-25.166 4.5 -35.499 13.5s-15.5 20.167 -15.5 33.5c0 14 5 25.167 15 33.5s22 12.5 36 12.5c32.667 0 49 -15.333 49 -46zM588.998 180.002c0 -3.33301 -1.66992 -11.668 -5.00293 -25.001l-20 -14c-80 -1.33301 -151 -15 -213 -41c-83.333 -34.667 -125 -86 -125 -154
c0 -56 37.667 -96.333 113 -121c50.667 -16.667 111.334 -25 182.001 -25c28 0 42 -14 42 -42c0 -30.667 -23.333 -46 -70 -46c-78 0 -151.667 18.333 -221 55c-84 44.667 -126 102.334 -126 173.001c0 42.667 9.33301 79.334 28 110.001l69 87
c-25.333 6.66699 -63.333 18.167 -114 34.5s-76 41.833 -76 76.5c0 8.66699 3.16699 16.167 9.5 22.5s13.833 9.5 22.5 9.5c-30 0 -23.333 -5.33301 20 -16c37.333 -8.66699 87.333 -18.334 150 -29.001s102 -16 118 -16c18.667 0 46.834 2.5 84.501 7.5
s65.834 7.5 84.501 7.5c31.333 0 47 -18 47 -54z" />
    <glyph glyph-name="dagger" unicode="&#x2020;" horiz-adv-x="507" 
d="M216 554c0 -30.667 -14.001 -46 -42.001 -46c-30 0 -45 15.333 -45 46c0 12.667 4.33301 23.667 13 33s19.334 14 32.001 14c28 0 42 -15.667 42 -47zM529.999 0h-224.001c-32 0 -65.667 7 -101 21c-46 -14 -107 -21 -183 -21h-22c-25.333 25.333 -38 48 -38 68
c0 10 3.33301 19.333 10 28h51c3.33301 2.66699 7.33301 4.66699 12 6c25.333 104 57 181.333 95 232c52.667 70 126 105 220 105c38.667 0 69 -13.5 91 -40.5s33 -60.167 33 -99.5c0 -36.667 -12.667 -74 -38 -112c-23.333 -35.333 -51.666 -63.333 -84.999 -84
c10.667 -5.33301 27.667 -8 51 -8h128v-95zM385.998 283c0 14 -8.66699 24.667 -26 32c-13.333 6 -28 9 -44 9c-40.667 0 -81 -24 -121 -72c-38 -45.333 -57 -89 -57 -131c0 -3.33301 0.666992 -5 2 -5c31.333 0 79.333 20.333 144 61c68 42.667 102 78 102 106z" />
    <glyph glyph-name="daggerdbl" unicode="&#x2021;" horiz-adv-x="721" 
d="M697 487c0 -34 -22.666 -65.332 -67.999 -93.999c-26.667 -16.667 -73.667 -38.334 -141 -65.001c-61.333 -24 -101.333 -43.333 -120 -58c56.667 -27.333 85 -61 85 -101c0 -58 -54 -103 -162 -135c-76.667 -22.667 -153.667 -34 -231 -34h-94v95h118
c49.333 -0.666992 95.333 4.33301 138 15l15 23c-10.667 14 -16 28.667 -16 44c0 86.667 76.667 162.667 230 228c34.667 14.667 52 25.334 52 32.001c0 4.66699 -6.33301 13.167 -19 25.5s-19 22.833 -19 31.5c0 25.333 14 48 42 68c26 18 52.333 27 79 27
c29.333 0 55.166 -9.83301 77.499 -29.5s33.5 -43.834 33.5 -72.501z" />
    <glyph glyph-name="bullet" unicode="&#x2022;" horiz-adv-x="804" 
d="M421 310c0 -10 -4.83203 -18.499 -14.499 -25.499s-19.834 -10.5 -30.501 -10.5c-12.667 0 -21.667 4 -27 12c-7.33301 28 -23.666 86.667 -48.999 176c-26.667 95.333 -40 147.666 -40 156.999c0 12 3.83301 22.667 11.5 32s17.167 14 28.5 14
c13.333 0 23.666 -4.66699 30.999 -14c4 -4.66699 20 -60 48 -166s42 -164.333 42 -175zM776.001 227.001c0 -104 -91.665 -172.333 -274.998 -205c-78.667 -14 -204.667 -21 -378 -21c-39.333 0 -59 16 -59 48c0 36.667 26.667 55 80 55c9.33301 0 23.166 -1 41.499 -3
s31.833 -3 40.5 -3l117 111c108.667 100.667 205 151 289 151c37.333 0 70.666 -12.833 99.999 -38.5s44 -57.167 44 -94.5zM677.003 214.001c0 16.667 -9.99902 30.333 -29.999 41c-17.333 9.33301 -35 14 -53 14c-39.333 0 -85.666 -19.667 -138.999 -59
c-40.667 -30 -78.334 -65.667 -113.001 -107c3.33301 -2 6.66602 -3 9.99902 -3c54.667 0 116.667 8.33301 186 25c92.667 22 139 51.667 139 89z" />
    <glyph glyph-name="ellipsis" unicode="&#x2026;" horiz-adv-x="780" 
d="M751 22c0 -69.333 -48.334 -124.332 -145.001 -164.999c-75.333 -32 -154.333 -48 -237 -48c-73.333 0 -138.333 17.667 -195 53c-66.667 41.333 -100 96.333 -100 165c0 42 14.5 79.333 43.5 112s64.5 49 106.5 49c30 0 45 -11.333 45 -34
c0 -12 -10.667 -23.333 -32 -34c-34.667 -17.333 -55 -28.333 -61 -33c-21.333 -17.333 -32 -41.333 -32 -72c0 -40 25.667 -69.667 77 -89c36 -13.333 79 -20 129 -20c63.333 0 124.666 6.33301 183.999 19c92 19.333 138 49.666 138 90.999c0 18 -24.333 27 -73 27
c-13.333 0 -29 -0.666992 -47 -2l-28 -2c-42.667 0 -78.667 9 -108 27c-34.667 21.333 -52 52 -52 92c0 41.333 27.333 81 82 119c51.333 36 98.666 54 141.999 54c26.667 0 50.334 -8 71.001 -24s31 -37 31 -63c0 -28 -9.33301 -42 -28 -42
c-4.66699 0 -17.667 4.66699 -39 14s-40 14 -56 14c-25.333 0 -48.666 -5.33301 -69.999 -16c-26.667 -13.333 -40 -31 -40 -53c0 -21.333 33 -32 99 -32c10 0 21.667 0.333008 35 1l22 1c44.667 0 77.334 -6.66699 98.001 -20c26.667 -17.333 40 -47 40 -89z
M554.999 -292.999c0 -26.667 -13.666 -40 -40.999 -40c-4.66699 0 -12 0.5 -22 1.5s-17.333 1.5 -22 1.5c-10 0 -25.167 -1 -45.5 -3s-35.5 -3 -45.5 -3c-12.667 0 -23.334 3.83301 -32.001 11.5s-13 17.5 -13 29.5c0 23.333 20.333 38 61 44c13.333 2 42.333 3 87 3
c48.667 0 73 -15 73 -45z" />
    <glyph glyph-name="perthousand" unicode="&#x2030;" horiz-adv-x="703" 
d="M568 446c0 -13.333 -4.66699 -24.5 -14 -33.5s-20.666 -13.5 -33.999 -13.5c-14 0 -25.833 4.33301 -35.5 13s-14.5 20 -14.5 34c0 30.667 16.667 46 50 46c13.333 0 24.666 -4.33301 33.999 -13s14 -19.667 14 -33zM670 172c0 -114.667 -68.002 -172 -204.002 -172
c-32.667 -0 -68.334 3.33301 -107.001 10l-1 -5c8.66699 -20 13 -43 13 -69c0 -52.667 -20.667 -79 -62 -79c-50 0 -87.333 23.333 -112 70c-7.33301 13.333 -22 58.333 -44 135c-7.33301 -16.667 -20.666 -31.167 -39.999 -43.5s-38.333 -18.5 -57 -18.5h-87v95h147l29 23
c0 14.667 1.66699 26.667 5 36c8.66699 3.33301 14.334 5 17.001 5c20 0 48.5 -10.667 85.5 -32s65.5 -32 85.5 -32h112c38.667 0 67.334 3.66699 86.001 11c31.333 12 47 34.667 47 68c0 14.667 -14.5 32.5 -43.5 53.5s-43.5 37.5 -43.5 49.5s4.83301 22.167 14.5 30.5
s20.5 12.5 32.5 12.5c34.667 0 65 -16.333 91 -49c24 -30.667 36 -63.667 36 -99z" />
    <glyph glyph-name="guilsinglleft" unicode="&#x2039;" horiz-adv-x="1000" 
d="M935 66c0 -87.333 -68.6641 -149.333 -205.997 -186c-86.667 -23.333 -190.334 -35 -311.001 -35c-86.667 0 -160 8.66699 -220 26c-94 27.333 -141 73 -141 137c0 59.333 38 103.333 114 132c53.333 20 116.666 30 189.999 30c18 0 33.667 -5.16699 47 -15.5
s20 -24.166 20 -41.499c0 -26.667 -23 -42 -69 -46c-28.667 -1.33301 -71.667 -4.33301 -129 -9c-46 -4.66699 -69 -21.334 -69 -50.001c0 -45.333 87.333 -68 262 -68c83.333 0 163.333 5.66699 240 17c121.333 18 182 46 182 84c0 13.333 -9 24.333 -27 33
c-14.667 7.33301 -29.667 11 -45 11c-19.333 0 -47.833 -2.66699 -85.5 -8s-65.834 -8 -84.501 -8c-46 0 -69 14.667 -69 44c0 24 20.333 40 61 48c25.333 3.33301 63 9 113 17c40.667 7.33301 61 21.666 61 42.999c0 3.33301 -0.333008 6.33301 -1 9l-74 328
c-2.66699 11.333 1.33301 22 12 32s22 15 34 15c-2 0 9 -6 33 -18c14 -33.333 30.167 -94.666 48.5 -183.999s27.5 -151.333 27.5 -186c0 -24.667 -8 -44.667 -24 -60l72 -25c25.333 -12 38 -34 38 -66zM575.003 -289c0 -26 -14.998 -39 -44.998 -39
c-4.66699 0 -11.834 0.333008 -21.501 1s-16.834 1 -21.501 1c-10 0 -24.5 -1 -43.5 -3s-33.5 -3 -43.5 -3c-12 0 -22.333 4 -31 12s-13 18 -13 30c0 31.333 32.667 47 98 47h37c56 0 84 -15.333 84 -46z" />
    <glyph glyph-name="guilsinglright" unicode="&#x203a;" horiz-adv-x="1009" 
d="M984 164c0 -56 -38.3379 -99.332 -115.005 -129.999c-56.667 -22.667 -117.667 -34 -183 -34h-17v1c-40 5.33301 -74.667 22 -104 50c-13.333 -11.333 -86.666 -23 -219.999 -35c-115.333 -10.667 -188.333 -16 -219 -16h-147v95c26.667 0 39.334 -0.333008 38.001 -1
c-2 0 0.333008 0 7 0c7.33301 -0.666992 17.333 -1 30 -1c42.667 -0.666992 110.334 -1.33398 203.001 -2.00098c20.667 0 47.334 2.33301 80.001 7c-59.333 23.333 -116.333 52.666 -171 87.999c-78 50 -117 94 -117 132c0 10 3.5 19 10.5 27s15.5 12 25.5 12
c14.667 0 28.334 -6.66699 41.001 -20l30 -35c62.667 -70 149 -115.667 259 -137c30 -4 75 -10.333 135 -19c66 -10.667 97.667 -27.667 95 -51h33c65.333 0 98 10.667 98 32c-13.333 18.667 -20 34.667 -20 48c0 28 10 51.167 30 69.5s44 27.5 72 27.5
c32 0 61 -10.167 87 -30.5s39 -46.166 39 -77.499zM415.995 -137.999c0 -12.667 -5.16504 -23.667 -15.498 -33s-21.833 -14 -34.5 -14s-24.334 4.66699 -35.001 14s-16 20.333 -16 33c0 13.333 5.16699 24.333 15.5 33s22.166 13 35.499 13c14 0 25.833 -4.33301 35.5 -13
s14.5 -19.667 14.5 -33z" />
    <glyph glyph-name="fraction" unicode="&#x2044;" horiz-adv-x="757" 
d="M718 98c0 -46.667 -23.666 -76.665 -70.999 -89.998c-23.333 -6.66699 -66 -10 -128 -10c2 0 -17 5 -57 15c9.33301 -41.333 14 -66 14 -74c0 -53.333 -20 -80 -60 -80c-48 0 -87 24 -117 72c-25.333 40 -39.666 86.333 -42.999 139l-7 8
c-14.667 3.33301 -24.334 5 -29.001 5c-14 0 -28 -3 -42 -9c-17.333 -7.33301 -26 -16.666 -26 -27.999c0 -4.66699 19.167 -54.834 57.5 -150.501s57.5 -159.834 57.5 -192.501c0 -27.333 -14 -41 -42 -41c-16.667 0 -31.667 19.667 -45 59c-4.66699 14 -26 70.667 -64 170
c-35.333 92.667 -53 142 -53 148c0 36.667 16 68 48 94s66.667 39 104 39c34 0 77 -12.833 129 -38.5s80.333 -38.5 85 -38.5h159c-2.66699 0 6.66602 2.66699 27.999 8c7.33301 4 10.333 9.66699 9 17l-70 391c0 3.33301 1.66699 9.16602 5 17.499s5 13.833 5 16.5
c18 12.667 29.333 19 34 19s12 -1.66699 22 -5c18.667 -6 40 -77.333 64 -214c22 -124 33 -206.333 33 -247z" />
    <glyph glyph-name="trademark" unicode="&#x2122;" horiz-adv-x="534" 
d="M581 0h-76c-42 0 -83.667 10.667 -125 32c-45.333 22.667 -76.333 51.667 -93 87c-37.333 -17.333 -68 -42 -92 -74c-25.333 -34 -38 -70.667 -38 -110c0 -36.667 19.667 -68.334 59 -95.001c23.333 -16 59.333 -33.333 108 -52c39.333 -15.333 59 -26.666 59 -33.999
c0 -12.667 -5.83301 -23.667 -17.5 -33s-23.834 -14 -36.501 -14c-52.667 0 -107.667 22.667 -165 68c-60.667 48 -91 97.667 -91 149c0 46 11.833 90 35.5 132s54.834 76 93.501 102l-83 43.5c-40 21 -60 38.167 -60 51.5c0 10.667 5.33301 20.167 16 28.5
s21.334 12.5 32.001 12.5c20 0 50.5 -4.33301 91.5 -13s71.833 -13 92.5 -13c23.333 0 78.333 7.33301 165 22c12 2 22.667 -1.66699 32 -11s14 -20 14 -32c0 -3.33301 -2.33301 -11 -7 -23c-38.667 -32 -84.667 -53.333 -138 -64c27.333 -40 77.666 -60 150.999 -60l2 -5
h71v-95z" />
    <glyph glyph-name="partialdiff" unicode="&#x2202;" horiz-adv-x="971" 
d="M1004 0l-65.999 0.000976562c-63.333 0 -106.666 38.667 -129.999 116h-2c-28.667 -40.667 -83.334 -72.334 -164.001 -95.001c-66 -18.667 -130.333 -28 -193 -28c-90 0 -175.333 23.333 -256 70c-94 54.667 -141 124 -141 208c0 67.333 35.667 120 107 158
c58 30.667 123.667 46 197 46c36 0 67 -4.33301 93 -13c39.333 -13.333 59 -33.666 59 -60.999c0 -22.667 -22.333 -54.334 -67 -95.001c6 -7.33301 24.667 -18 56 -32c24.667 -11.333 37 -25.333 37 -42c0 -14 -4.5 -25.667 -13.5 -35s-20.5 -14 -34.5 -14
c-20.667 0 -49.334 13.333 -86.001 40c-38.667 27.333 -58 50.666 -58 69.999c0 16.667 8 33.667 24 51l41 42l-7 5l-21 1c-48 2 -96.333 -7 -145 -27c-59.333 -24.667 -89 -58.667 -89 -102c0 -50.667 41.333 -92.667 124 -126c67.333 -27.333 131.333 -41 192 -41
c54 0 112 8.66699 174 26c82 22.667 123 53.334 123 92.001c0 33.333 -11.833 84 -35.5 152s-35.5 118 -35.5 150c0 15.333 5 29.5 15 42.5s22.333 19.5 37 19.5l14 -3c18.667 -12 36.334 -60.333 53.001 -145c25.333 -125.333 41.333 -199 48 -221
c23.333 -76 52.666 -114 87.999 -114h62v-95z" />
    <glyph glyph-name="product" unicode="&#x220f;" horiz-adv-x="353" 
d="M383 0l-70.002 0.000976562c-27.333 0 -52.166 10.333 -74.499 31s-35.5 44.667 -39.5 72c-24 -40 -44.667 -66.333 -62 -79c-22.667 -16 -55.667 -24 -99 -24h-61v95h46c71.333 8.66699 107 43.667 107 105c0 34 -12.167 86.5 -36.5 157.5s-36.5 121.833 -36.5 152.5
c0 15.333 4.83301 29.166 14.5 41.499s21.834 18.5 36.501 18.5c24 0 43.333 -33.333 58 -100c5.33301 -30.667 14.333 -76.334 27 -137.001c4 -18 19 -74 45 -168c13.333 -35.333 38 -58.666 74 -69.999h71v-95z" />
    <glyph glyph-name="summation" unicode="&#x2211;" horiz-adv-x="1083" 
d="M1058 658c0 -34.667 -39.6621 -70.335 -118.995 -107.002c-35.333 -16.667 -91.333 -37.667 -168 -63c56.667 -20.667 85 -112 85 -274c0 -97.333 -45 -169.666 -135 -216.999c-70.667 -37.333 -159.667 -56 -267 -56c-102.667 0 -189.334 19.667 -260.001 59
c-88 48.667 -132 120 -132 214c0 76 39 133 117 171c60 29.333 132.667 44 218 44c26 0 51.667 -7.33301 77 -22c29.333 -16.667 44 -37 44 -61c0 -19.333 -21.667 -50.666 -65 -93.999c4.66699 -7.33301 22.667 -17.666 54 -30.999c26 -11.333 39 -25 39 -41
c0 -12.667 -5.33301 -24.5 -16 -35.5s-22.334 -16.5 -35.001 -16.5c-22 0 -51 13.667 -87 41s-54 51.333 -54 72c0 14.667 8 31.667 24 51l41 41c-32.667 4.66699 -47.334 7 -44.001 7c-46.667 0 -92.334 -10.667 -137.001 -32c-55.333 -26.667 -83 -60.334 -83 -101.001
c0 -60.667 38.333 -105 115 -133c54 -20 118 -30 192 -30c90 0 158.333 11.667 205 35c64 32.667 96 89.667 96 171c0 22 -7 55.333 -21 100s-21 77.667 -21 99c0 12 6 22.333 18 31c-10.667 0 -27 -0.833008 -49 -2.5s-38.333 -2.5 -49 -2.5c-48 0 -96.333 5 -145 15
c-73.333 15.333 -110 37.666 -110 66.999c0 12.667 5.66699 22.667 17 30s23.666 11 36.999 11c23.333 0 57.833 -5.66699 103.5 -17s80.167 -17 103.5 -17c50.667 0 105 11.667 163 35c32 12.667 74.333 34.334 127 65.001c40 23.333 65 35 75 35
c12.667 0 23.5 -3.83301 32.5 -11.5s13.5 -17.5 13.5 -29.5z" />
    <glyph glyph-name="radical" unicode="&#x221a;" horiz-adv-x="423" 
d="M370 190c0 -41.333 -7.99902 -77.334 -23.999 -108.001c-20 -38.667 -49 -58 -87 -58c-40 0 -71.667 10 -95 30c-25.333 21.333 -38 51.666 -38 90.999c0 26.667 2.33301 45.667 7 57c7.33301 17.333 22.333 26 45 26c16 0 25 -7.33301 27 -22v-42c0 -30 15 -45 45 -45
c26.667 0 40 13.333 40 40c0 79.333 -28.333 119 -85 119c-33.333 0 -57.333 -10.667 -72 -32c-4.66699 -7.33301 -12.667 -27.666 -24 -60.999c-7.33301 -21.333 -17.666 -32 -30.999 -32c-10.667 0 -21.334 4.66699 -32.001 14s-16 19.333 -16 30
c0 44.667 19.667 83.334 59 116.001c37.333 30.667 78.666 46 123.999 46c46 0 83.667 -16.5 113 -49.5s44 -72.833 44 -119.5z" />
    <glyph glyph-name="infinity" unicode="&#x221e;" horiz-adv-x="1012" 
d="M880 521c0 -14 -6.00098 -26.333 -18.001 -37s-25 -16 -39 -16c-16 0 -29.667 5 -41 15s-17 22.667 -17 38c0 14.667 5.83301 27 17.5 37s24.834 15 39.501 15s28 -5 40 -15s18 -22.333 18 -37zM1059 95v-94.9971h-128c-54.667 0 -102.667 13 -144 39
c-74.667 -36 -207.334 -54 -398.001 -54c-216.667 0 -325 54 -325 162c0 74 41 123 123 147c45.333 13.333 117.333 20 216 20c56 0 84 -14 84 -42c0 -22.667 -30.333 -36.334 -91 -41.001c-37.333 -2 -93.666 -6 -168.999 -12c-60.667 -6.66699 -91 -28 -91 -64
c0 -45.333 60 -68 180 -68c224.667 0 351 8 379 24c-19.333 36.667 -29 72.667 -29 108c0 49.333 18 90.166 54 122.499s78.667 48.5 128 48.5c38 0 69 -13.833 93 -41.5s36 -60.834 36 -99.501c0 -62 -21.667 -110 -65 -144c5.33301 -6.66699 24 -10 56 -10h91z
M883.999 229.003c0 14 -5.5 27.5 -16.5 40.5s-23.5 19.5 -37.5 19.5c-19.333 0 -38.333 -9.33301 -57 -28s-28 -37.667 -28 -57c0 -12 8.5 -27 25.5 -45s31.167 -27 42.5 -27c16 0 32 12.333 48 37c15.333 22.667 23 42.667 23 60z" />
    <glyph glyph-name="integral" unicode="&#x222b;" horiz-adv-x="683" 
d="M648 -71c0 -86.667 -25.3301 -157.002 -75.9971 -211.002c-51.333 -56 -120 -84 -206 -84c-72.667 0 -136 22.333 -190 67c-57.333 47.333 -86 106.666 -86 177.999c0 50.667 19.667 99.5 59 146.5s83.666 70.5 132.999 70.5c12 0 22.333 -4.5 31 -13.5
s13 -19.5 13 -31.5c0 -15.333 -14.667 -29.666 -44 -42.999l-82 -38c-29.333 -18.667 -44 -42.667 -44 -72c0 -47.333 19.667 -88.666 59 -123.999c37.333 -34 80 -51 128 -51c63.333 0 114.666 22 153.999 66c38.667 42 58 95 58 159c0 69.333 -16.833 171.833 -50.5 307.5
s-50.5 238.167 -50.5 307.5c0 9.33301 5.5 17.833 16.5 25.5s21.5 11.5 31.5 11.5c8 0 19 -4.66699 33 -14c5.33301 -4 25.666 -105.667 60.999 -305c34.667 -201.333 52 -318.666 52 -351.999z" />
    <glyph glyph-name="approxequal" unicode="&#x2248;" horiz-adv-x="788" 
d="M815 0l-96 -0.000976562c-94.667 0 -142 -11.333 -142 -34c0 -8 15.667 -15 47 -21c41.333 -8 70 -15.667 86 -23c31.333 -14 47 -34.667 47 -62c0 -55.333 -43.667 -101.333 -131 -138c-71.333 -30 -140 -45 -206 -45c-84.667 0 -159 13.667 -223 41
c-85.333 36.667 -128 91.334 -128 164.001c0 62.667 28.333 114.667 85 156c51.333 38 109.333 57 174 57c40 0 60 -14.333 60 -43c0 -28 -19.333 -42 -58 -42c-44 0 -81.333 -8.33301 -112 -25c-38.667 -20.667 -58 -51 -58 -91c0 -45.333 32.333 -78.333 97 -99
c44 -14 95.333 -21 154 -21c99.333 0 179 21.667 239 65l-8 11l-108 34c-44 19.333 -66 47.333 -66 84c0 44 27.333 78 82 102c42.667 18.667 88.667 27.667 138 27l127 -2v-95z" />
    <glyph glyph-name="approxequal" unicode="&#x22f2;" horiz-adv-x="788" 
d="M815 0l-96 -0.000976562c-94.667 0 -142 -11.333 -142 -34c0 -8 15.667 -15 47 -21c41.333 -8 70 -15.667 86 -23c31.333 -14 47 -34.667 47 -62c0 -55.333 -43.667 -101.333 -131 -138c-71.333 -30 -140 -45 -206 -45c-84.667 0 -159 13.667 -223 41
c-85.333 36.667 -128 91.334 -128 164.001c0 62.667 28.333 114.667 85 156c51.333 38 109.333 57 174 57c40 0 60 -14.333 60 -43c0 -28 -19.333 -42 -58 -42c-44 0 -81.333 -8.33301 -112 -25c-38.667 -20.667 -58 -51 -58 -91c0 -45.333 32.333 -78.333 97 -99
c44 -14 95.333 -21 154 -21c99.333 0 179 21.667 239 65l-8 11l-108 34c-44 19.333 -66 47.333 -66 84c0 44 27.333 78 82 102c42.667 18.667 88.667 27.667 138 27l127 -2v-95z" />
    <glyph glyph-name="notequal" unicode="&#x2260;" horiz-adv-x="545" 
d="M323 509c0 -30.667 -15.667 -46 -47 -46c-12 0 -22 4.66699 -30 14s-12 20.333 -12 33c0 12 4.16699 22.333 12.5 31s18.5 13 30.5 13c30.667 0 46 -15 46 -45zM571 0h-66c-42 0 -83.667 10.667 -125 32c-45.333 22.667 -76.333 51.667 -93 87
c-37.333 -17.333 -68 -42 -92 -74c-25.333 -34 -38 -70.667 -38 -110c0 -36.667 19.667 -68.334 59 -95.001c23.333 -16 59.333 -33.333 108 -52c39.333 -15.333 59 -26.666 59 -33.999c0 -12.667 -5.83301 -23.667 -17.5 -33s-23.834 -14 -36.501 -14
c-52.667 0 -107.667 22.667 -165 68c-60.667 48 -91 97.667 -91 149c0 46 11.833 90 35.5 132s54.834 76 93.501 102l-83 43.5c-40 21 -60 38.167 -60 51.5c0 10.667 5.33301 20.167 16 28.5s21.334 12.5 32.001 12.5c20 0 50.5 -4.33301 91.5 -13s71.833 -13 92.5 -13
c23.333 0 78.333 7.33301 165 22c12 2 22.667 -1.66699 32 -11s14 -20 14 -32c0 -3.33301 -2.33301 -11 -7 -23c-38.667 -32 -84.667 -53.333 -138 -64c27.333 -40 77.666 -60 150.999 -60l2 -5h61v-95z" />
    <glyph glyph-name="lessequal" unicode="&#x2264;" horiz-adv-x="506" 
d="M423 527c0 -26 -10.998 -39 -32.998 -39c-4.66699 0 -12.834 0.833008 -24.501 2.5s-20.834 2.16699 -27.501 1.5c-48 -5.33301 -77.333 -8 -88 -8c-30 0 -45 14 -45 42c0 32.667 40.333 49 121 49c30 0 50.667 -1.66699 62 -5c23.333 -6.66699 35 -21 35 -43z
M544.002 95l-0.00292969 -94.998h-149c-55.333 0 -100.666 14 -135.999 42c-16 -11.333 -45 -21.333 -87 -30c-37.333 -8 -68.666 -12 -93.999 -12h-100v95c22.667 0 34.667 -0.333008 36 -1v0c3.33301 -3.33301 28.333 -1 75 7c38 6 64.333 11 79 15
c-19.333 33.333 -29 67.333 -29 102c0 51.333 17.833 93.166 53.5 125.499s79.167 48.5 130.5 48.5c36.667 0 67.334 -14 92.001 -42s37 -60.667 37 -98c0 -66.667 -21.667 -114.334 -65 -143.001c4 -9.33301 24.667 -14 62 -14h95zM356.999 229.002
c0 16 -5.33203 30.834 -15.999 44.501s-23.667 20.5 -39 20.5c-18.667 0 -37.334 -9.83301 -56.001 -29.5s-28 -38.834 -28 -57.501c0 -10 8.83301 -25 26.5 -45s31.167 -30 40.5 -30c10 0 25.667 11.667 47 35c16.667 18 25 38.667 25 62z" />
    <glyph glyph-name="greaterequal" unicode="&#x2265;" horiz-adv-x="829" 
d="M649 366c0 -24.667 -15.334 -37 -46.001 -37c-4 0 -10.333 0.333008 -19 1s-15 1 -19 1c-10 0 -25.333 -1 -46 -3s-36 -3 -46 -3c-30 0 -45 13.667 -45 41c0 22.667 16 37.667 48 45c14.667 3.33301 39.334 5 74.001 5c66 0 99 -16.667 99 -50zM856.999 95v-95.0039h-71
l-5 -7c-4.66699 -79.333 -47.334 -140.666 -128.001 -183.999c-66 -35.333 -143 -53 -231 -53c-88.667 0 -164.667 16.667 -228 50c-79.333 42 -119 103 -119 183c0 58.667 23 102.334 69 131.001c38 24 88 36 150 36c34 0 51 -13.667 51 -41
c0 -17.333 -17.333 -28.666 -52 -33.999c-61.333 -9.33301 -93.333 -14.666 -96 -15.999c-34.667 -10.667 -52 -31.667 -52 -63c0 -53.333 37 -94 111 -122c54.667 -20.667 114.334 -31 179.001 -31c43.333 0 95 11.667 155 35c74 28.667 111 61.667 111 99
c0 4 -0.333008 8 -1 12c-89.333 8.66699 -147.333 16.667 -174 24c-75.333 20.667 -113 55 -113 103c0 41.333 16.333 73 49 95c28.667 19.333 64.667 29 108 29c92 0 160.667 -50.333 206 -151h81zM690.999 91.9961c-5.33301 18 -21.833 36.167 -49.5 54.5
s-51.5 27.5 -71.5 27.5c-17.333 0 -33 -2.33301 -47 -7c-20.667 -6.66699 -31 -16.667 -31 -30c0 -17.333 22.667 -30.333 68 -39c32 -6 63.667 -9 95 -9c4 0 10 0.5 18 1.5s14 1.5 18 1.5z" />
    <glyph glyph-name="lozenge" unicode="&#x25ca;" horiz-adv-x="474" 
d="M452 182c0 -66.667 -49.666 -115.999 -148.999 -147.999c-70 -22.667 -148.333 -34 -235 -34h-102v95h130c41.333 0 92.666 6 153.999 18c80 15.333 120 35 120 59c0 28 -50.667 42 -152 42c-13.333 0 -33.666 -1.66699 -60.999 -5s-47.666 -5 -60.999 -5
c-28.667 0 -43 15.667 -43 47c0 19.333 27.667 35 83 47c70 15.333 107.667 24.333 113 27c6.66699 26.667 10 38.667 10 36c0 32.667 -12.167 82.5 -36.5 149.5s-36.5 115.167 -36.5 144.5c0 12 4.5 22.833 13.5 32.5s19.5 14.5 31.5 14.5c27.333 0 53 -50.667 77 -152
c19.333 -80.667 29.666 -145.334 30.999 -194.001c-2.66699 -18 -5.33398 -38.667 -8.00098 -62c31.333 -6.66699 58 -19 80 -37c27.333 -21.333 41 -46.333 41 -75z" />
    <glyph glyph-name="apple" unicode="&#xf000;" horiz-adv-x="956" 
d="M795 412c0 -12 -4.5 -23 -13.5 -33s-19.5 -15 -31.5 -15s-22.167 5 -30.5 15s-12.5 21 -12.5 33s4.33301 22.833 13 32.5s19 14.5 31 14.5s22.333 -4.83301 31 -14.5s13 -20.5 13 -32.5zM992 95l-0.000976562 -94.998h-80c-19.333 0 -40.5 7.33301 -63.5 22
s-39.5 30.667 -49.5 48c-48.667 -48.667 -99 -73 -151 -73c-24.667 0 -48.334 6 -71.001 18c-38.667 -149.333 -112.667 -224 -222 -224c-67.333 0 -129.333 21 -186 63c-62 46 -93 101.667 -93 167c0 33.333 10 66.666 30 99.999c22 38 48.667 57 80 57
c9.33301 0 17.833 -3.66699 25.5 -11s11.5 -15.666 11.5 -24.999c0 -7.33301 -10.833 -23.666 -32.5 -48.999s-32.5 -48.333 -32.5 -69c0 -41.333 22 -76 66 -104c38.667 -24 80 -36 124 -36c40 0 75.333 18.667 106 56c28.667 35.333 43 73.666 43 114.999
c0 24.667 -10 59.667 -30 105s-30 70.666 -30 75.999c0 27.333 12.667 41 38 41c18 0 41.833 -30.333 71.5 -91s51.834 -91 66.501 -91h7c4.66699 -0.666992 8.66699 -1 12 -1h21c53.333 0 80 21 80 63c0 9.33301 -4 22.166 -12 38.499s-12 29.166 -12 38.499
c0 10.667 4.66699 19.834 14 27.501s19.333 11.5 30 11.5c20.667 0 36.334 -11.667 47.001 -35c6 -16 15.333 -39.667 28 -71c12.667 -28 32 -47 58 -57c9.33301 -3.33301 19.333 -8.33301 30 -15h76zM385.999 131.002c0 -11.333 -4.16699 -22.001 -12.5 -32.001
s-18.166 -15 -29.499 -15c-12 0 -22.333 4.5 -31 13.5s-13 19.5 -13 31.5c0 31.333 14.667 47 44 47c11.333 0 21.166 -4.66699 29.499 -14s12.5 -19.666 12.5 -30.999z" />
    <glyph glyph-name="fi" unicode="&#xf001;" horiz-adv-x="1009" 
d="M984 164c0 -56 -38.3379 -99.332 -115.005 -129.999c-56.667 -22.667 -117.667 -34 -183 -34h-17v1c-40 5.33301 -74.667 22 -104 50c-13.333 -11.333 -86.666 -23 -219.999 -35c-115.333 -10.667 -188.333 -16 -219 -16h-147v95c26.667 0 39.334 -0.333008 38.001 -1
c-2 0 0.333008 0 7 0c7.33301 -0.666992 17.333 -1 30 -1c42.667 -0.666992 110.334 -1.33398 203.001 -2.00098c20.667 0 47.334 2.33301 80.001 7c-59.333 23.333 -116.333 52.666 -171 87.999c-78 50 -117 94 -117 132c0 10 3.5 19 10.5 27s15.5 12 25.5 12
c14.667 0 28.334 -6.66699 41.001 -20l30 -35c62.667 -70 149 -115.667 259 -137c30 -4 75 -10.333 135 -19c66 -10.667 97.667 -27.667 95 -51h33c65.333 0 98 10.667 98 32c-13.333 18.667 -20 34.667 -20 48c0 28 10 51.167 30 69.5s44 27.5 72 27.5
c32 0 61 -10.167 87 -30.5s39 -46.166 39 -77.499z" />
    <glyph glyph-name="fl" unicode="&#xf002;" horiz-adv-x="1009" 
d="M416 392c0 -12.667 -5.16602 -23.667 -15.499 -33s-21.833 -14 -34.5 -14s-24.334 4.66699 -35.001 14s-16 20.333 -16 33c0 13.333 5.16699 24.333 15.5 33s22.166 13 35.499 13c4.66699 0 11.334 -1.66699 20.001 -5c20 -7.33301 30 -21 30 -41zM984.001 164
c0 -56 -38.3379 -99.332 -115.005 -129.999c-56.667 -22.667 -117.667 -34 -183 -34h-17v1c-40 5.33301 -74.667 22 -104 50c-13.333 -11.333 -86.666 -23 -219.999 -35c-115.333 -10.667 -188.333 -16 -219 -16h-147v95c26.667 0 39.334 -0.333008 38.001 -1
c-2 0 0.333008 0 7 0c7.33301 -0.666992 17.333 -1 30 -1c42.667 -0.666992 110.334 -1.33398 203.001 -2.00098c20.667 0 47.334 2.33301 80.001 7c-59.333 23.333 -116.333 52.666 -171 87.999c-78 50 -117 94 -117 132c0 10 3.5 19 10.5 27s15.5 12 25.5 12
c14.667 0 28.334 -6.66699 41.001 -20l30 -35c62.667 -70 149 -115.667 259 -137c30 -4 75 -10.333 135 -19c66 -10.667 97.667 -27.667 95 -51h33c65.333 0 98 10.667 98 32c-13.333 18.667 -20 34.667 -20 48c0 28 10 51.167 30 69.5s44 27.5 72 27.5
c32 0 61 -10.167 87 -30.5s39 -46.166 39 -77.499z" />
    <glyph glyph-name=".null" 
 />
    <glyph glyph-name="nonmarkingreturn" horiz-adv-x="150" 
 />
    <glyph glyph-name="LF" 
 />
    <glyph glyph-name="DLE" 
 />
    <glyph glyph-name="DC1" 
 />
    <glyph glyph-name="DC2" 
 />
    <glyph glyph-name="DC3" 
 />
    <glyph glyph-name="DC4" 
 />
    <glyph glyph-name="RS" 
 />
    <glyph glyph-name="US" 
 />
    <glyph glyph-name="DEL" horiz-adv-x="430" 
d="M462 95l0.000976562 -94.999h-90c-19.333 0 -40.5 7.33301 -63.5 22s-39.5 30.667 -49.5 48c-22 -22 -54.667 -39.667 -98 -53c-38 -11.333 -75.333 -17 -112 -17h-86v95h102c85.333 0 128 20.667 128 62c0 9.33301 -4 22.166 -12 38.499s-12 29.166 -12 38.499
c0 10.667 4.66699 19.834 14 27.501s19.333 11.5 30 11.5c19.333 0 35.666 -13.333 48.999 -40l26 -66c12.667 -28 32 -47 58 -57c9.33301 -3.33301 19.333 -8.33301 30 -15h86zM372.001 -107.999c0 -12.667 -5.16602 -23.834 -15.499 -33.501s-21.833 -14.5 -34.5 -14.5
s-24.334 4.83301 -35.001 14.5s-16 20.834 -16 33.501c0 14 5.5 25.333 16.5 34s23.833 13 38.5 13c12 0 22.667 -4.83301 32 -14.5s14 -20.5 14 -32.5zM235.002 -111.999c0 -14 -4.66699 -25.5 -14 -34.5s-21 -13.5 -35 -13.5s-25.833 4.5 -35.5 13.5
s-14.5 20.5 -14.5 34.5c0 13.333 5 24.5 15 33.5s21.667 13.5 35 13.5c12.667 0 24 -4.66699 34 -14s15 -20.333 15 -33zM320.002 -219.999c0 -30.667 -17.333 -46.001 -52 -46.001c-12.667 0 -24 4.33301 -34 13s-15 19.334 -15 32.001s5 23.667 15 33s21.333 14 34 14
c13.333 0 25.333 -4.5 36 -13.5s16 -19.833 16 -32.5z" />
  </font>
</defs>
</svg>
